G04 #@! TF.GenerationSoftware,KiCad,Pcbnew,5.99.0-unknown-c3175b4~86~ubuntu16.04.1*
G04 #@! TF.CreationDate,2020-03-16T03:04:42+00:00*
G04 #@! TF.ProjectId,kuiick,6b756969-636b-42e6-9b69-6361645f7063,rev?*
G04 #@! TF.SameCoordinates,Original*
G04 #@! TF.FileFunction,Paste,Top*
G04 #@! TF.FilePolarity,Positive*
%FSLAX46Y46*%
G04 Gerber Fmt 4.6, Leading zero omitted, Abs format (unit mm)*
G04 Created by KiCad (PCBNEW 5.99.0-unknown-c3175b4~86~ubuntu16.04.1) date 2020-03-16 03:04:42*
%MOMM*%
%LPD*%
G04 APERTURE LIST*
%ADD10R,0.900000X1.700000*%
%ADD11C,0.100000*%
%ADD12C,0.400000*%
%ADD13R,1.900000X1.900000*%
%ADD14R,1.600000X1.400000*%
%ADD15R,0.400000X1.350000*%
%ADD16C,0.700000*%
%ADD17R,0.400000X0.400000*%
%ADD18R,1.198880X1.998980*%
%ADD19R,0.599440X1.348740*%
G04 APERTURE END LIST*
D10*
X151700000Y-98000000D03*
X148300000Y-98000000D03*
X151700000Y-103000000D03*
X148300000Y-103000000D03*
D11*
G36*
X146538268Y-95757612D02*
G01*
X146570711Y-95779289D01*
X146592388Y-95811732D01*
X146600000Y-95850000D01*
X146600000Y-96150000D01*
X146592388Y-96188268D01*
X146570711Y-96220711D01*
X146538268Y-96242388D01*
X146500000Y-96250000D01*
X146300000Y-96250000D01*
X146261732Y-96242388D01*
X146229289Y-96220711D01*
X146207612Y-96188268D01*
X146200000Y-96150000D01*
X146200000Y-95850000D01*
X146207612Y-95811732D01*
X146229289Y-95779289D01*
X146261732Y-95757612D01*
X146300000Y-95750000D01*
X146500000Y-95750000D01*
X146538268Y-95757612D01*
X146538268Y-95757612D01*
G37*
D12*
X146400000Y-96000000D03*
D11*
G36*
X145738268Y-95757612D02*
G01*
X145770711Y-95779289D01*
X145792388Y-95811732D01*
X145800000Y-95850000D01*
X145800000Y-96150000D01*
X145792388Y-96188268D01*
X145770711Y-96220711D01*
X145738268Y-96242388D01*
X145700000Y-96250000D01*
X145500000Y-96250000D01*
X145461732Y-96242388D01*
X145429289Y-96220711D01*
X145407612Y-96188268D01*
X145400000Y-96150000D01*
X145400000Y-95850000D01*
X145407612Y-95811732D01*
X145429289Y-95779289D01*
X145461732Y-95757612D01*
X145500000Y-95750000D01*
X145700000Y-95750000D01*
X145738268Y-95757612D01*
X145738268Y-95757612D01*
G37*
D12*
X145600000Y-96000000D03*
D11*
G36*
X146388268Y-103707612D02*
G01*
X146420711Y-103729289D01*
X146442388Y-103761732D01*
X146450000Y-103800000D01*
X146450000Y-104000000D01*
X146442388Y-104038268D01*
X146420711Y-104070711D01*
X146388268Y-104092388D01*
X146350000Y-104100000D01*
X146050000Y-104100000D01*
X146011732Y-104092388D01*
X145979289Y-104070711D01*
X145957612Y-104038268D01*
X145950000Y-104000000D01*
X145950000Y-103800000D01*
X145957612Y-103761732D01*
X145979289Y-103729289D01*
X146011732Y-103707612D01*
X146050000Y-103700000D01*
X146350000Y-103700000D01*
X146388268Y-103707612D01*
X146388268Y-103707612D01*
G37*
D12*
X146200000Y-103900000D03*
D11*
G36*
X146388268Y-102907612D02*
G01*
X146420711Y-102929289D01*
X146442388Y-102961732D01*
X146450000Y-103000000D01*
X146450000Y-103200000D01*
X146442388Y-103238268D01*
X146420711Y-103270711D01*
X146388268Y-103292388D01*
X146350000Y-103300000D01*
X146050000Y-103300000D01*
X146011732Y-103292388D01*
X145979289Y-103270711D01*
X145957612Y-103238268D01*
X145950000Y-103200000D01*
X145950000Y-103000000D01*
X145957612Y-102961732D01*
X145979289Y-102929289D01*
X146011732Y-102907612D01*
X146050000Y-102900000D01*
X146350000Y-102900000D01*
X146388268Y-102907612D01*
X146388268Y-102907612D01*
G37*
D12*
X146200000Y-103100000D03*
D11*
G36*
X146538268Y-93757612D02*
G01*
X146570711Y-93779289D01*
X146592388Y-93811732D01*
X146600000Y-93850000D01*
X146600000Y-94150000D01*
X146592388Y-94188268D01*
X146570711Y-94220711D01*
X146538268Y-94242388D01*
X146500000Y-94250000D01*
X146300000Y-94250000D01*
X146261732Y-94242388D01*
X146229289Y-94220711D01*
X146207612Y-94188268D01*
X146200000Y-94150000D01*
X146200000Y-93850000D01*
X146207612Y-93811732D01*
X146229289Y-93779289D01*
X146261732Y-93757612D01*
X146300000Y-93750000D01*
X146500000Y-93750000D01*
X146538268Y-93757612D01*
X146538268Y-93757612D01*
G37*
D12*
X146400000Y-94000000D03*
D11*
G36*
X145738268Y-93757612D02*
G01*
X145770711Y-93779289D01*
X145792388Y-93811732D01*
X145800000Y-93850000D01*
X145800000Y-94150000D01*
X145792388Y-94188268D01*
X145770711Y-94220711D01*
X145738268Y-94242388D01*
X145700000Y-94250000D01*
X145500000Y-94250000D01*
X145461732Y-94242388D01*
X145429289Y-94220711D01*
X145407612Y-94188268D01*
X145400000Y-94150000D01*
X145400000Y-93850000D01*
X145407612Y-93811732D01*
X145429289Y-93779289D01*
X145461732Y-93757612D01*
X145500000Y-93750000D01*
X145700000Y-93750000D01*
X145738268Y-93757612D01*
X145738268Y-93757612D01*
G37*
D12*
X145600000Y-94000000D03*
D11*
G36*
X146538268Y-94757612D02*
G01*
X146570711Y-94779289D01*
X146592388Y-94811732D01*
X146600000Y-94850000D01*
X146600000Y-95150000D01*
X146592388Y-95188268D01*
X146570711Y-95220711D01*
X146538268Y-95242388D01*
X146500000Y-95250000D01*
X146300000Y-95250000D01*
X146261732Y-95242388D01*
X146229289Y-95220711D01*
X146207612Y-95188268D01*
X146200000Y-95150000D01*
X146200000Y-94850000D01*
X146207612Y-94811732D01*
X146229289Y-94779289D01*
X146261732Y-94757612D01*
X146300000Y-94750000D01*
X146500000Y-94750000D01*
X146538268Y-94757612D01*
X146538268Y-94757612D01*
G37*
D12*
X146400000Y-95000000D03*
D11*
G36*
X145738268Y-94757612D02*
G01*
X145770711Y-94779289D01*
X145792388Y-94811732D01*
X145800000Y-94850000D01*
X145800000Y-95150000D01*
X145792388Y-95188268D01*
X145770711Y-95220711D01*
X145738268Y-95242388D01*
X145700000Y-95250000D01*
X145500000Y-95250000D01*
X145461732Y-95242388D01*
X145429289Y-95220711D01*
X145407612Y-95188268D01*
X145400000Y-95150000D01*
X145400000Y-94850000D01*
X145407612Y-94811732D01*
X145429289Y-94779289D01*
X145461732Y-94757612D01*
X145500000Y-94750000D01*
X145700000Y-94750000D01*
X145738268Y-94757612D01*
X145738268Y-94757612D01*
G37*
D12*
X145600000Y-95000000D03*
D13*
X151200000Y-108100000D03*
X148800000Y-108100000D03*
D14*
X153200000Y-105650000D03*
X146800000Y-105650000D03*
D15*
X151300000Y-105425000D03*
X150650000Y-105425000D03*
X150000000Y-105425000D03*
X149350000Y-105425000D03*
X148700000Y-105425000D03*
D11*
G36*
X154291970Y-94663321D02*
G01*
X154348744Y-94701256D01*
X154386679Y-94758030D01*
X154400000Y-94825000D01*
X154400000Y-95175000D01*
X154386679Y-95241970D01*
X154348744Y-95298744D01*
X154291970Y-95336679D01*
X154225000Y-95350000D01*
X153775000Y-95350000D01*
X153708030Y-95336679D01*
X153651256Y-95298744D01*
X153613321Y-95241970D01*
X153600000Y-95175000D01*
X153600000Y-94825000D01*
X153613321Y-94758030D01*
X153651256Y-94701256D01*
X153708030Y-94663321D01*
X153775000Y-94650000D01*
X154225000Y-94650000D01*
X154291970Y-94663321D01*
X154291970Y-94663321D01*
G37*
D16*
X154000000Y-95000000D03*
D11*
G36*
X154291970Y-93263321D02*
G01*
X154348744Y-93301256D01*
X154386679Y-93358030D01*
X154400000Y-93425000D01*
X154400000Y-93775000D01*
X154386679Y-93841970D01*
X154348744Y-93898744D01*
X154291970Y-93936679D01*
X154225000Y-93950000D01*
X153775000Y-93950000D01*
X153708030Y-93936679D01*
X153651256Y-93898744D01*
X153613321Y-93841970D01*
X153600000Y-93775000D01*
X153600000Y-93425000D01*
X153613321Y-93358030D01*
X153651256Y-93301256D01*
X153708030Y-93263321D01*
X153775000Y-93250000D01*
X154225000Y-93250000D01*
X154291970Y-93263321D01*
X154291970Y-93263321D01*
G37*
D16*
X154000000Y-93600000D03*
D11*
G36*
X151538268Y-99757612D02*
G01*
X151570711Y-99779289D01*
X151592388Y-99811732D01*
X151600000Y-99850000D01*
X151600000Y-100150000D01*
X151592388Y-100188268D01*
X151570711Y-100220711D01*
X151538268Y-100242388D01*
X151500000Y-100250000D01*
X151300000Y-100250000D01*
X151261732Y-100242388D01*
X151229289Y-100220711D01*
X151207612Y-100188268D01*
X151200000Y-100150000D01*
X151200000Y-99850000D01*
X151207612Y-99811732D01*
X151229289Y-99779289D01*
X151261732Y-99757612D01*
X151300000Y-99750000D01*
X151500000Y-99750000D01*
X151538268Y-99757612D01*
X151538268Y-99757612D01*
G37*
D12*
X151400000Y-100000000D03*
D11*
G36*
X152338268Y-99757612D02*
G01*
X152370711Y-99779289D01*
X152392388Y-99811732D01*
X152400000Y-99850000D01*
X152400000Y-100150000D01*
X152392388Y-100188268D01*
X152370711Y-100220711D01*
X152338268Y-100242388D01*
X152300000Y-100250000D01*
X152100000Y-100250000D01*
X152061732Y-100242388D01*
X152029289Y-100220711D01*
X152007612Y-100188268D01*
X152000000Y-100150000D01*
X152000000Y-99850000D01*
X152007612Y-99811732D01*
X152029289Y-99779289D01*
X152061732Y-99757612D01*
X152100000Y-99750000D01*
X152300000Y-99750000D01*
X152338268Y-99757612D01*
X152338268Y-99757612D01*
G37*
D12*
X152200000Y-100000000D03*
D11*
G36*
X151538268Y-100757612D02*
G01*
X151570711Y-100779289D01*
X151592388Y-100811732D01*
X151600000Y-100850000D01*
X151600000Y-101150000D01*
X151592388Y-101188268D01*
X151570711Y-101220711D01*
X151538268Y-101242388D01*
X151500000Y-101250000D01*
X151300000Y-101250000D01*
X151261732Y-101242388D01*
X151229289Y-101220711D01*
X151207612Y-101188268D01*
X151200000Y-101150000D01*
X151200000Y-100850000D01*
X151207612Y-100811732D01*
X151229289Y-100779289D01*
X151261732Y-100757612D01*
X151300000Y-100750000D01*
X151500000Y-100750000D01*
X151538268Y-100757612D01*
X151538268Y-100757612D01*
G37*
D12*
X151400000Y-101000000D03*
D11*
G36*
X152338268Y-100757612D02*
G01*
X152370711Y-100779289D01*
X152392388Y-100811732D01*
X152400000Y-100850000D01*
X152400000Y-101150000D01*
X152392388Y-101188268D01*
X152370711Y-101220711D01*
X152338268Y-101242388D01*
X152300000Y-101250000D01*
X152100000Y-101250000D01*
X152061732Y-101242388D01*
X152029289Y-101220711D01*
X152007612Y-101188268D01*
X152000000Y-101150000D01*
X152000000Y-100850000D01*
X152007612Y-100811732D01*
X152029289Y-100779289D01*
X152061732Y-100757612D01*
X152100000Y-100750000D01*
X152300000Y-100750000D01*
X152338268Y-100757612D01*
X152338268Y-100757612D01*
G37*
D12*
X152200000Y-101000000D03*
D11*
G36*
X148788268Y-100707612D02*
G01*
X148820711Y-100729289D01*
X148842388Y-100761732D01*
X148850000Y-100800000D01*
X148850000Y-101000000D01*
X148842388Y-101038268D01*
X148820711Y-101070711D01*
X148788268Y-101092388D01*
X148750000Y-101100000D01*
X148450000Y-101100000D01*
X148411732Y-101092388D01*
X148379289Y-101070711D01*
X148357612Y-101038268D01*
X148350000Y-101000000D01*
X148350000Y-100800000D01*
X148357612Y-100761732D01*
X148379289Y-100729289D01*
X148411732Y-100707612D01*
X148450000Y-100700000D01*
X148750000Y-100700000D01*
X148788268Y-100707612D01*
X148788268Y-100707612D01*
G37*
D12*
X148600000Y-100900000D03*
D11*
G36*
X148788268Y-99907612D02*
G01*
X148820711Y-99929289D01*
X148842388Y-99961732D01*
X148850000Y-100000000D01*
X148850000Y-100200000D01*
X148842388Y-100238268D01*
X148820711Y-100270711D01*
X148788268Y-100292388D01*
X148750000Y-100300000D01*
X148450000Y-100300000D01*
X148411732Y-100292388D01*
X148379289Y-100270711D01*
X148357612Y-100238268D01*
X148350000Y-100200000D01*
X148350000Y-100000000D01*
X148357612Y-99961732D01*
X148379289Y-99929289D01*
X148411732Y-99907612D01*
X148450000Y-99900000D01*
X148750000Y-99900000D01*
X148788268Y-99907612D01*
X148788268Y-99907612D01*
G37*
D12*
X148600000Y-100100000D03*
D17*
X149600000Y-100100000D03*
X150400000Y-100100000D03*
X150400000Y-100900000D03*
X149600000Y-100900000D03*
D18*
X152799080Y-91527160D03*
X147200920Y-91527160D03*
D19*
X148501400Y-95200000D03*
X149502160Y-95200000D03*
X150497840Y-95200000D03*
X151498600Y-95200000D03*
M02*
