G04 #@! TF.GenerationSoftware,KiCad,Pcbnew,5.99.0-unknown-c3175b4~86~ubuntu16.04.1*
G04 #@! TF.CreationDate,2020-03-16T03:04:42+00:00*
G04 #@! TF.ProjectId,kuiick,6b756969-636b-42e6-9b69-6361645f7063,rev?*
G04 #@! TF.SameCoordinates,Original*
G04 #@! TF.FileFunction,Paste,Bot*
G04 #@! TF.FilePolarity,Positive*
%FSLAX46Y46*%
G04 Gerber Fmt 4.6, Leading zero omitted, Abs format (unit mm)*
G04 Created by KiCad (PCBNEW 5.99.0-unknown-c3175b4~86~ubuntu16.04.1) date 2020-03-16 03:04:42*
%MOMM*%
%LPD*%
G04 APERTURE LIST*
%ADD10C,0.100000*%
%ADD11C,0.600000*%
%ADD12C,0.700000*%
%ADD13C,0.400000*%
%ADD14C,0.250000*%
%ADD15C,0.930000*%
G04 APERTURE END LIST*
D10*
G36*
X147107403Y-91206418D02*
G01*
X147156066Y-91238934D01*
X147188582Y-91287597D01*
X147200000Y-91345000D01*
X147200000Y-91645000D01*
X147188582Y-91702403D01*
X147156066Y-91751066D01*
X147107403Y-91783582D01*
X147050000Y-91795000D01*
X145750000Y-91795000D01*
X145692597Y-91783582D01*
X145643934Y-91751066D01*
X145611418Y-91702403D01*
X145600000Y-91645000D01*
X145600000Y-91345000D01*
X145611418Y-91287597D01*
X145643934Y-91238934D01*
X145692597Y-91206418D01*
X145750000Y-91195000D01*
X147050000Y-91195000D01*
X147107403Y-91206418D01*
X147107403Y-91206418D01*
G37*
D11*
X146400000Y-91495000D03*
D10*
G36*
X147107403Y-92476418D02*
G01*
X147156066Y-92508934D01*
X147188582Y-92557597D01*
X147200000Y-92615000D01*
X147200000Y-92915000D01*
X147188582Y-92972403D01*
X147156066Y-93021066D01*
X147107403Y-93053582D01*
X147050000Y-93065000D01*
X145750000Y-93065000D01*
X145692597Y-93053582D01*
X145643934Y-93021066D01*
X145611418Y-92972403D01*
X145600000Y-92915000D01*
X145600000Y-92615000D01*
X145611418Y-92557597D01*
X145643934Y-92508934D01*
X145692597Y-92476418D01*
X145750000Y-92465000D01*
X147050000Y-92465000D01*
X147107403Y-92476418D01*
X147107403Y-92476418D01*
G37*
D11*
X146400000Y-92765000D03*
D10*
G36*
X147107403Y-93746418D02*
G01*
X147156066Y-93778934D01*
X147188582Y-93827597D01*
X147200000Y-93885000D01*
X147200000Y-94185000D01*
X147188582Y-94242403D01*
X147156066Y-94291066D01*
X147107403Y-94323582D01*
X147050000Y-94335000D01*
X145750000Y-94335000D01*
X145692597Y-94323582D01*
X145643934Y-94291066D01*
X145611418Y-94242403D01*
X145600000Y-94185000D01*
X145600000Y-93885000D01*
X145611418Y-93827597D01*
X145643934Y-93778934D01*
X145692597Y-93746418D01*
X145750000Y-93735000D01*
X147050000Y-93735000D01*
X147107403Y-93746418D01*
X147107403Y-93746418D01*
G37*
D11*
X146400000Y-94035000D03*
D10*
G36*
X147107403Y-95016418D02*
G01*
X147156066Y-95048934D01*
X147188582Y-95097597D01*
X147200000Y-95155000D01*
X147200000Y-95455000D01*
X147188582Y-95512403D01*
X147156066Y-95561066D01*
X147107403Y-95593582D01*
X147050000Y-95605000D01*
X145750000Y-95605000D01*
X145692597Y-95593582D01*
X145643934Y-95561066D01*
X145611418Y-95512403D01*
X145600000Y-95455000D01*
X145600000Y-95155000D01*
X145611418Y-95097597D01*
X145643934Y-95048934D01*
X145692597Y-95016418D01*
X145750000Y-95005000D01*
X147050000Y-95005000D01*
X147107403Y-95016418D01*
X147107403Y-95016418D01*
G37*
D11*
X146400000Y-95305000D03*
D10*
G36*
X154307403Y-95016418D02*
G01*
X154356066Y-95048934D01*
X154388582Y-95097597D01*
X154400000Y-95155000D01*
X154400000Y-95455000D01*
X154388582Y-95512403D01*
X154356066Y-95561066D01*
X154307403Y-95593582D01*
X154250000Y-95605000D01*
X152950000Y-95605000D01*
X152892597Y-95593582D01*
X152843934Y-95561066D01*
X152811418Y-95512403D01*
X152800000Y-95455000D01*
X152800000Y-95155000D01*
X152811418Y-95097597D01*
X152843934Y-95048934D01*
X152892597Y-95016418D01*
X152950000Y-95005000D01*
X154250000Y-95005000D01*
X154307403Y-95016418D01*
X154307403Y-95016418D01*
G37*
D11*
X153600000Y-95305000D03*
D10*
G36*
X154307403Y-93746418D02*
G01*
X154356066Y-93778934D01*
X154388582Y-93827597D01*
X154400000Y-93885000D01*
X154400000Y-94185000D01*
X154388582Y-94242403D01*
X154356066Y-94291066D01*
X154307403Y-94323582D01*
X154250000Y-94335000D01*
X152950000Y-94335000D01*
X152892597Y-94323582D01*
X152843934Y-94291066D01*
X152811418Y-94242403D01*
X152800000Y-94185000D01*
X152800000Y-93885000D01*
X152811418Y-93827597D01*
X152843934Y-93778934D01*
X152892597Y-93746418D01*
X152950000Y-93735000D01*
X154250000Y-93735000D01*
X154307403Y-93746418D01*
X154307403Y-93746418D01*
G37*
D11*
X153600000Y-94035000D03*
D10*
G36*
X154307403Y-92476418D02*
G01*
X154356066Y-92508934D01*
X154388582Y-92557597D01*
X154400000Y-92615000D01*
X154400000Y-92915000D01*
X154388582Y-92972403D01*
X154356066Y-93021066D01*
X154307403Y-93053582D01*
X154250000Y-93065000D01*
X152950000Y-93065000D01*
X152892597Y-93053582D01*
X152843934Y-93021066D01*
X152811418Y-92972403D01*
X152800000Y-92915000D01*
X152800000Y-92615000D01*
X152811418Y-92557597D01*
X152843934Y-92508934D01*
X152892597Y-92476418D01*
X152950000Y-92465000D01*
X154250000Y-92465000D01*
X154307403Y-92476418D01*
X154307403Y-92476418D01*
G37*
D11*
X153600000Y-92765000D03*
D10*
G36*
X154307403Y-91206418D02*
G01*
X154356066Y-91238934D01*
X154388582Y-91287597D01*
X154400000Y-91345000D01*
X154400000Y-91645000D01*
X154388582Y-91702403D01*
X154356066Y-91751066D01*
X154307403Y-91783582D01*
X154250000Y-91795000D01*
X152950000Y-91795000D01*
X152892597Y-91783582D01*
X152843934Y-91751066D01*
X152811418Y-91702403D01*
X152800000Y-91645000D01*
X152800000Y-91345000D01*
X152811418Y-91287597D01*
X152843934Y-91238934D01*
X152892597Y-91206418D01*
X152950000Y-91195000D01*
X154250000Y-91195000D01*
X154307403Y-91206418D01*
X154307403Y-91206418D01*
G37*
D11*
X153600000Y-91495000D03*
D10*
G36*
X149891970Y-106263321D02*
G01*
X149948744Y-106301256D01*
X149986679Y-106358030D01*
X150000000Y-106425000D01*
X150000000Y-106775000D01*
X149986679Y-106841970D01*
X149948744Y-106898744D01*
X149891970Y-106936679D01*
X149825000Y-106950000D01*
X149375000Y-106950000D01*
X149308030Y-106936679D01*
X149251256Y-106898744D01*
X149213321Y-106841970D01*
X149200000Y-106775000D01*
X149200000Y-106425000D01*
X149213321Y-106358030D01*
X149251256Y-106301256D01*
X149308030Y-106263321D01*
X149375000Y-106250000D01*
X149825000Y-106250000D01*
X149891970Y-106263321D01*
X149891970Y-106263321D01*
G37*
D12*
X149600000Y-106600000D03*
D10*
G36*
X149891970Y-104863321D02*
G01*
X149948744Y-104901256D01*
X149986679Y-104958030D01*
X150000000Y-105025000D01*
X150000000Y-105375000D01*
X149986679Y-105441970D01*
X149948744Y-105498744D01*
X149891970Y-105536679D01*
X149825000Y-105550000D01*
X149375000Y-105550000D01*
X149308030Y-105536679D01*
X149251256Y-105498744D01*
X149213321Y-105441970D01*
X149200000Y-105375000D01*
X149200000Y-105025000D01*
X149213321Y-104958030D01*
X149251256Y-104901256D01*
X149308030Y-104863321D01*
X149375000Y-104850000D01*
X149825000Y-104850000D01*
X149891970Y-104863321D01*
X149891970Y-104863321D01*
G37*
D12*
X149600000Y-105200000D03*
D10*
G36*
X149038268Y-103857612D02*
G01*
X149070711Y-103879289D01*
X149092388Y-103911732D01*
X149100000Y-103950000D01*
X149100000Y-104250000D01*
X149092388Y-104288268D01*
X149070711Y-104320711D01*
X149038268Y-104342388D01*
X149000000Y-104350000D01*
X148800000Y-104350000D01*
X148761732Y-104342388D01*
X148729289Y-104320711D01*
X148707612Y-104288268D01*
X148700000Y-104250000D01*
X148700000Y-103950000D01*
X148707612Y-103911732D01*
X148729289Y-103879289D01*
X148761732Y-103857612D01*
X148800000Y-103850000D01*
X149000000Y-103850000D01*
X149038268Y-103857612D01*
X149038268Y-103857612D01*
G37*
D13*
X148900000Y-104100000D03*
D10*
G36*
X148238268Y-103857612D02*
G01*
X148270711Y-103879289D01*
X148292388Y-103911732D01*
X148300000Y-103950000D01*
X148300000Y-104250000D01*
X148292388Y-104288268D01*
X148270711Y-104320711D01*
X148238268Y-104342388D01*
X148200000Y-104350000D01*
X148000000Y-104350000D01*
X147961732Y-104342388D01*
X147929289Y-104320711D01*
X147907612Y-104288268D01*
X147900000Y-104250000D01*
X147900000Y-103950000D01*
X147907612Y-103911732D01*
X147929289Y-103879289D01*
X147961732Y-103857612D01*
X148000000Y-103850000D01*
X148200000Y-103850000D01*
X148238268Y-103857612D01*
X148238268Y-103857612D01*
G37*
D13*
X148100000Y-104100000D03*
D10*
G36*
X146588268Y-103207612D02*
G01*
X146620711Y-103229289D01*
X146642388Y-103261732D01*
X146650000Y-103300000D01*
X146650000Y-103500000D01*
X146642388Y-103538268D01*
X146620711Y-103570711D01*
X146588268Y-103592388D01*
X146550000Y-103600000D01*
X146250000Y-103600000D01*
X146211732Y-103592388D01*
X146179289Y-103570711D01*
X146157612Y-103538268D01*
X146150000Y-103500000D01*
X146150000Y-103300000D01*
X146157612Y-103261732D01*
X146179289Y-103229289D01*
X146211732Y-103207612D01*
X146250000Y-103200000D01*
X146550000Y-103200000D01*
X146588268Y-103207612D01*
X146588268Y-103207612D01*
G37*
D13*
X146400000Y-103400000D03*
D10*
G36*
X146588268Y-102407612D02*
G01*
X146620711Y-102429289D01*
X146642388Y-102461732D01*
X146650000Y-102500000D01*
X146650000Y-102700000D01*
X146642388Y-102738268D01*
X146620711Y-102770711D01*
X146588268Y-102792388D01*
X146550000Y-102800000D01*
X146250000Y-102800000D01*
X146211732Y-102792388D01*
X146179289Y-102770711D01*
X146157612Y-102738268D01*
X146150000Y-102700000D01*
X146150000Y-102500000D01*
X146157612Y-102461732D01*
X146179289Y-102429289D01*
X146211732Y-102407612D01*
X146250000Y-102400000D01*
X146550000Y-102400000D01*
X146588268Y-102407612D01*
X146588268Y-102407612D01*
G37*
D13*
X146400000Y-102600000D03*
D10*
G36*
X146488268Y-98407612D02*
G01*
X146520711Y-98429289D01*
X146542388Y-98461732D01*
X146550000Y-98500000D01*
X146550000Y-98700000D01*
X146542388Y-98738268D01*
X146520711Y-98770711D01*
X146488268Y-98792388D01*
X146450000Y-98800000D01*
X146150000Y-98800000D01*
X146111732Y-98792388D01*
X146079289Y-98770711D01*
X146057612Y-98738268D01*
X146050000Y-98700000D01*
X146050000Y-98500000D01*
X146057612Y-98461732D01*
X146079289Y-98429289D01*
X146111732Y-98407612D01*
X146150000Y-98400000D01*
X146450000Y-98400000D01*
X146488268Y-98407612D01*
X146488268Y-98407612D01*
G37*
D13*
X146300000Y-98600000D03*
D10*
G36*
X146488268Y-97607612D02*
G01*
X146520711Y-97629289D01*
X146542388Y-97661732D01*
X146550000Y-97700000D01*
X146550000Y-97900000D01*
X146542388Y-97938268D01*
X146520711Y-97970711D01*
X146488268Y-97992388D01*
X146450000Y-98000000D01*
X146150000Y-98000000D01*
X146111732Y-97992388D01*
X146079289Y-97970711D01*
X146057612Y-97938268D01*
X146050000Y-97900000D01*
X146050000Y-97700000D01*
X146057612Y-97661732D01*
X146079289Y-97629289D01*
X146111732Y-97607612D01*
X146150000Y-97600000D01*
X146450000Y-97600000D01*
X146488268Y-97607612D01*
X146488268Y-97607612D01*
G37*
D13*
X146300000Y-97800000D03*
D10*
G36*
X153041970Y-105613321D02*
G01*
X153098744Y-105651256D01*
X153136679Y-105708030D01*
X153150000Y-105775000D01*
X153150000Y-106225000D01*
X153136679Y-106291970D01*
X153098744Y-106348744D01*
X153041970Y-106386679D01*
X152975000Y-106400000D01*
X152625000Y-106400000D01*
X152558030Y-106386679D01*
X152501256Y-106348744D01*
X152463321Y-106291970D01*
X152450000Y-106225000D01*
X152450000Y-105775000D01*
X152463321Y-105708030D01*
X152501256Y-105651256D01*
X152558030Y-105613321D01*
X152625000Y-105600000D01*
X152975000Y-105600000D01*
X153041970Y-105613321D01*
X153041970Y-105613321D01*
G37*
D12*
X152800000Y-106000000D03*
D10*
G36*
X154441970Y-105613321D02*
G01*
X154498744Y-105651256D01*
X154536679Y-105708030D01*
X154550000Y-105775000D01*
X154550000Y-106225000D01*
X154536679Y-106291970D01*
X154498744Y-106348744D01*
X154441970Y-106386679D01*
X154375000Y-106400000D01*
X154025000Y-106400000D01*
X153958030Y-106386679D01*
X153901256Y-106348744D01*
X153863321Y-106291970D01*
X153850000Y-106225000D01*
X153850000Y-105775000D01*
X153863321Y-105708030D01*
X153901256Y-105651256D01*
X153958030Y-105613321D01*
X154025000Y-105600000D01*
X154375000Y-105600000D01*
X154441970Y-105613321D01*
X154441970Y-105613321D01*
G37*
D12*
X154200000Y-106000000D03*
D10*
G36*
X152836418Y-101629758D02*
G01*
X152856694Y-101643306D01*
X152870242Y-101663582D01*
X152875000Y-101687500D01*
X152875000Y-101812500D01*
X152870242Y-101836418D01*
X152856694Y-101856694D01*
X152836418Y-101870242D01*
X152812500Y-101875000D01*
X152062500Y-101875000D01*
X152038582Y-101870242D01*
X152018306Y-101856694D01*
X152004758Y-101836418D01*
X152000000Y-101812500D01*
X152000000Y-101687500D01*
X152004758Y-101663582D01*
X152018306Y-101643306D01*
X152038582Y-101629758D01*
X152062500Y-101625000D01*
X152812500Y-101625000D01*
X152836418Y-101629758D01*
X152836418Y-101629758D01*
G37*
D14*
X152437500Y-101750000D03*
D10*
G36*
X152836418Y-101129758D02*
G01*
X152856694Y-101143306D01*
X152870242Y-101163582D01*
X152875000Y-101187500D01*
X152875000Y-101312500D01*
X152870242Y-101336418D01*
X152856694Y-101356694D01*
X152836418Y-101370242D01*
X152812500Y-101375000D01*
X152062500Y-101375000D01*
X152038582Y-101370242D01*
X152018306Y-101356694D01*
X152004758Y-101336418D01*
X152000000Y-101312500D01*
X152000000Y-101187500D01*
X152004758Y-101163582D01*
X152018306Y-101143306D01*
X152038582Y-101129758D01*
X152062500Y-101125000D01*
X152812500Y-101125000D01*
X152836418Y-101129758D01*
X152836418Y-101129758D01*
G37*
D14*
X152437500Y-101250000D03*
D10*
G36*
X152836418Y-100629758D02*
G01*
X152856694Y-100643306D01*
X152870242Y-100663582D01*
X152875000Y-100687500D01*
X152875000Y-100812500D01*
X152870242Y-100836418D01*
X152856694Y-100856694D01*
X152836418Y-100870242D01*
X152812500Y-100875000D01*
X152062500Y-100875000D01*
X152038582Y-100870242D01*
X152018306Y-100856694D01*
X152004758Y-100836418D01*
X152000000Y-100812500D01*
X152000000Y-100687500D01*
X152004758Y-100663582D01*
X152018306Y-100643306D01*
X152038582Y-100629758D01*
X152062500Y-100625000D01*
X152812500Y-100625000D01*
X152836418Y-100629758D01*
X152836418Y-100629758D01*
G37*
D14*
X152437500Y-100750000D03*
D10*
G36*
X152836418Y-100129758D02*
G01*
X152856694Y-100143306D01*
X152870242Y-100163582D01*
X152875000Y-100187500D01*
X152875000Y-100312500D01*
X152870242Y-100336418D01*
X152856694Y-100356694D01*
X152836418Y-100370242D01*
X152812500Y-100375000D01*
X152062500Y-100375000D01*
X152038582Y-100370242D01*
X152018306Y-100356694D01*
X152004758Y-100336418D01*
X152000000Y-100312500D01*
X152000000Y-100187500D01*
X152004758Y-100163582D01*
X152018306Y-100143306D01*
X152038582Y-100129758D01*
X152062500Y-100125000D01*
X152812500Y-100125000D01*
X152836418Y-100129758D01*
X152836418Y-100129758D01*
G37*
D14*
X152437500Y-100250000D03*
D10*
G36*
X152836418Y-99629758D02*
G01*
X152856694Y-99643306D01*
X152870242Y-99663582D01*
X152875000Y-99687500D01*
X152875000Y-99812500D01*
X152870242Y-99836418D01*
X152856694Y-99856694D01*
X152836418Y-99870242D01*
X152812500Y-99875000D01*
X152062500Y-99875000D01*
X152038582Y-99870242D01*
X152018306Y-99856694D01*
X152004758Y-99836418D01*
X152000000Y-99812500D01*
X152000000Y-99687500D01*
X152004758Y-99663582D01*
X152018306Y-99643306D01*
X152038582Y-99629758D01*
X152062500Y-99625000D01*
X152812500Y-99625000D01*
X152836418Y-99629758D01*
X152836418Y-99629758D01*
G37*
D14*
X152437500Y-99750000D03*
D10*
G36*
X152836418Y-99129758D02*
G01*
X152856694Y-99143306D01*
X152870242Y-99163582D01*
X152875000Y-99187500D01*
X152875000Y-99312500D01*
X152870242Y-99336418D01*
X152856694Y-99356694D01*
X152836418Y-99370242D01*
X152812500Y-99375000D01*
X152062500Y-99375000D01*
X152038582Y-99370242D01*
X152018306Y-99356694D01*
X152004758Y-99336418D01*
X152000000Y-99312500D01*
X152000000Y-99187500D01*
X152004758Y-99163582D01*
X152018306Y-99143306D01*
X152038582Y-99129758D01*
X152062500Y-99125000D01*
X152812500Y-99125000D01*
X152836418Y-99129758D01*
X152836418Y-99129758D01*
G37*
D14*
X152437500Y-99250000D03*
D10*
G36*
X152836418Y-98629758D02*
G01*
X152856694Y-98643306D01*
X152870242Y-98663582D01*
X152875000Y-98687500D01*
X152875000Y-98812500D01*
X152870242Y-98836418D01*
X152856694Y-98856694D01*
X152836418Y-98870242D01*
X152812500Y-98875000D01*
X152062500Y-98875000D01*
X152038582Y-98870242D01*
X152018306Y-98856694D01*
X152004758Y-98836418D01*
X152000000Y-98812500D01*
X152000000Y-98687500D01*
X152004758Y-98663582D01*
X152018306Y-98643306D01*
X152038582Y-98629758D01*
X152062500Y-98625000D01*
X152812500Y-98625000D01*
X152836418Y-98629758D01*
X152836418Y-98629758D01*
G37*
D14*
X152437500Y-98750000D03*
D10*
G36*
X152836418Y-98129758D02*
G01*
X152856694Y-98143306D01*
X152870242Y-98163582D01*
X152875000Y-98187500D01*
X152875000Y-98312500D01*
X152870242Y-98336418D01*
X152856694Y-98356694D01*
X152836418Y-98370242D01*
X152812500Y-98375000D01*
X152062500Y-98375000D01*
X152038582Y-98370242D01*
X152018306Y-98356694D01*
X152004758Y-98336418D01*
X152000000Y-98312500D01*
X152000000Y-98187500D01*
X152004758Y-98163582D01*
X152018306Y-98143306D01*
X152038582Y-98129758D01*
X152062500Y-98125000D01*
X152812500Y-98125000D01*
X152836418Y-98129758D01*
X152836418Y-98129758D01*
G37*
D14*
X152437500Y-98250000D03*
D10*
G36*
X151836418Y-97129758D02*
G01*
X151856694Y-97143306D01*
X151870242Y-97163582D01*
X151875000Y-97187500D01*
X151875000Y-97937500D01*
X151870242Y-97961418D01*
X151856694Y-97981694D01*
X151836418Y-97995242D01*
X151812500Y-98000000D01*
X151687500Y-98000000D01*
X151663582Y-97995242D01*
X151643306Y-97981694D01*
X151629758Y-97961418D01*
X151625000Y-97937500D01*
X151625000Y-97187500D01*
X151629758Y-97163582D01*
X151643306Y-97143306D01*
X151663582Y-97129758D01*
X151687500Y-97125000D01*
X151812500Y-97125000D01*
X151836418Y-97129758D01*
X151836418Y-97129758D01*
G37*
D14*
X151750000Y-97562500D03*
D10*
G36*
X151336418Y-97129758D02*
G01*
X151356694Y-97143306D01*
X151370242Y-97163582D01*
X151375000Y-97187500D01*
X151375000Y-97937500D01*
X151370242Y-97961418D01*
X151356694Y-97981694D01*
X151336418Y-97995242D01*
X151312500Y-98000000D01*
X151187500Y-98000000D01*
X151163582Y-97995242D01*
X151143306Y-97981694D01*
X151129758Y-97961418D01*
X151125000Y-97937500D01*
X151125000Y-97187500D01*
X151129758Y-97163582D01*
X151143306Y-97143306D01*
X151163582Y-97129758D01*
X151187500Y-97125000D01*
X151312500Y-97125000D01*
X151336418Y-97129758D01*
X151336418Y-97129758D01*
G37*
D14*
X151250000Y-97562500D03*
D10*
G36*
X150836418Y-97129758D02*
G01*
X150856694Y-97143306D01*
X150870242Y-97163582D01*
X150875000Y-97187500D01*
X150875000Y-97937500D01*
X150870242Y-97961418D01*
X150856694Y-97981694D01*
X150836418Y-97995242D01*
X150812500Y-98000000D01*
X150687500Y-98000000D01*
X150663582Y-97995242D01*
X150643306Y-97981694D01*
X150629758Y-97961418D01*
X150625000Y-97937500D01*
X150625000Y-97187500D01*
X150629758Y-97163582D01*
X150643306Y-97143306D01*
X150663582Y-97129758D01*
X150687500Y-97125000D01*
X150812500Y-97125000D01*
X150836418Y-97129758D01*
X150836418Y-97129758D01*
G37*
D14*
X150750000Y-97562500D03*
D10*
G36*
X150336418Y-97129758D02*
G01*
X150356694Y-97143306D01*
X150370242Y-97163582D01*
X150375000Y-97187500D01*
X150375000Y-97937500D01*
X150370242Y-97961418D01*
X150356694Y-97981694D01*
X150336418Y-97995242D01*
X150312500Y-98000000D01*
X150187500Y-98000000D01*
X150163582Y-97995242D01*
X150143306Y-97981694D01*
X150129758Y-97961418D01*
X150125000Y-97937500D01*
X150125000Y-97187500D01*
X150129758Y-97163582D01*
X150143306Y-97143306D01*
X150163582Y-97129758D01*
X150187500Y-97125000D01*
X150312500Y-97125000D01*
X150336418Y-97129758D01*
X150336418Y-97129758D01*
G37*
D14*
X150250000Y-97562500D03*
D10*
G36*
X149836418Y-97129758D02*
G01*
X149856694Y-97143306D01*
X149870242Y-97163582D01*
X149875000Y-97187500D01*
X149875000Y-97937500D01*
X149870242Y-97961418D01*
X149856694Y-97981694D01*
X149836418Y-97995242D01*
X149812500Y-98000000D01*
X149687500Y-98000000D01*
X149663582Y-97995242D01*
X149643306Y-97981694D01*
X149629758Y-97961418D01*
X149625000Y-97937500D01*
X149625000Y-97187500D01*
X149629758Y-97163582D01*
X149643306Y-97143306D01*
X149663582Y-97129758D01*
X149687500Y-97125000D01*
X149812500Y-97125000D01*
X149836418Y-97129758D01*
X149836418Y-97129758D01*
G37*
D14*
X149750000Y-97562500D03*
D10*
G36*
X149336418Y-97129758D02*
G01*
X149356694Y-97143306D01*
X149370242Y-97163582D01*
X149375000Y-97187500D01*
X149375000Y-97937500D01*
X149370242Y-97961418D01*
X149356694Y-97981694D01*
X149336418Y-97995242D01*
X149312500Y-98000000D01*
X149187500Y-98000000D01*
X149163582Y-97995242D01*
X149143306Y-97981694D01*
X149129758Y-97961418D01*
X149125000Y-97937500D01*
X149125000Y-97187500D01*
X149129758Y-97163582D01*
X149143306Y-97143306D01*
X149163582Y-97129758D01*
X149187500Y-97125000D01*
X149312500Y-97125000D01*
X149336418Y-97129758D01*
X149336418Y-97129758D01*
G37*
D14*
X149250000Y-97562500D03*
D10*
G36*
X148836418Y-97129758D02*
G01*
X148856694Y-97143306D01*
X148870242Y-97163582D01*
X148875000Y-97187500D01*
X148875000Y-97937500D01*
X148870242Y-97961418D01*
X148856694Y-97981694D01*
X148836418Y-97995242D01*
X148812500Y-98000000D01*
X148687500Y-98000000D01*
X148663582Y-97995242D01*
X148643306Y-97981694D01*
X148629758Y-97961418D01*
X148625000Y-97937500D01*
X148625000Y-97187500D01*
X148629758Y-97163582D01*
X148643306Y-97143306D01*
X148663582Y-97129758D01*
X148687500Y-97125000D01*
X148812500Y-97125000D01*
X148836418Y-97129758D01*
X148836418Y-97129758D01*
G37*
D14*
X148750000Y-97562500D03*
D10*
G36*
X148336418Y-97129758D02*
G01*
X148356694Y-97143306D01*
X148370242Y-97163582D01*
X148375000Y-97187500D01*
X148375000Y-97937500D01*
X148370242Y-97961418D01*
X148356694Y-97981694D01*
X148336418Y-97995242D01*
X148312500Y-98000000D01*
X148187500Y-98000000D01*
X148163582Y-97995242D01*
X148143306Y-97981694D01*
X148129758Y-97961418D01*
X148125000Y-97937500D01*
X148125000Y-97187500D01*
X148129758Y-97163582D01*
X148143306Y-97143306D01*
X148163582Y-97129758D01*
X148187500Y-97125000D01*
X148312500Y-97125000D01*
X148336418Y-97129758D01*
X148336418Y-97129758D01*
G37*
D14*
X148250000Y-97562500D03*
D10*
G36*
X147961418Y-98129758D02*
G01*
X147981694Y-98143306D01*
X147995242Y-98163582D01*
X148000000Y-98187500D01*
X148000000Y-98312500D01*
X147995242Y-98336418D01*
X147981694Y-98356694D01*
X147961418Y-98370242D01*
X147937500Y-98375000D01*
X147187500Y-98375000D01*
X147163582Y-98370242D01*
X147143306Y-98356694D01*
X147129758Y-98336418D01*
X147125000Y-98312500D01*
X147125000Y-98187500D01*
X147129758Y-98163582D01*
X147143306Y-98143306D01*
X147163582Y-98129758D01*
X147187500Y-98125000D01*
X147937500Y-98125000D01*
X147961418Y-98129758D01*
X147961418Y-98129758D01*
G37*
D14*
X147562500Y-98250000D03*
D10*
G36*
X147961418Y-98629758D02*
G01*
X147981694Y-98643306D01*
X147995242Y-98663582D01*
X148000000Y-98687500D01*
X148000000Y-98812500D01*
X147995242Y-98836418D01*
X147981694Y-98856694D01*
X147961418Y-98870242D01*
X147937500Y-98875000D01*
X147187500Y-98875000D01*
X147163582Y-98870242D01*
X147143306Y-98856694D01*
X147129758Y-98836418D01*
X147125000Y-98812500D01*
X147125000Y-98687500D01*
X147129758Y-98663582D01*
X147143306Y-98643306D01*
X147163582Y-98629758D01*
X147187500Y-98625000D01*
X147937500Y-98625000D01*
X147961418Y-98629758D01*
X147961418Y-98629758D01*
G37*
D14*
X147562500Y-98750000D03*
D10*
G36*
X147961418Y-99129758D02*
G01*
X147981694Y-99143306D01*
X147995242Y-99163582D01*
X148000000Y-99187500D01*
X148000000Y-99312500D01*
X147995242Y-99336418D01*
X147981694Y-99356694D01*
X147961418Y-99370242D01*
X147937500Y-99375000D01*
X147187500Y-99375000D01*
X147163582Y-99370242D01*
X147143306Y-99356694D01*
X147129758Y-99336418D01*
X147125000Y-99312500D01*
X147125000Y-99187500D01*
X147129758Y-99163582D01*
X147143306Y-99143306D01*
X147163582Y-99129758D01*
X147187500Y-99125000D01*
X147937500Y-99125000D01*
X147961418Y-99129758D01*
X147961418Y-99129758D01*
G37*
D14*
X147562500Y-99250000D03*
D10*
G36*
X147961418Y-99629758D02*
G01*
X147981694Y-99643306D01*
X147995242Y-99663582D01*
X148000000Y-99687500D01*
X148000000Y-99812500D01*
X147995242Y-99836418D01*
X147981694Y-99856694D01*
X147961418Y-99870242D01*
X147937500Y-99875000D01*
X147187500Y-99875000D01*
X147163582Y-99870242D01*
X147143306Y-99856694D01*
X147129758Y-99836418D01*
X147125000Y-99812500D01*
X147125000Y-99687500D01*
X147129758Y-99663582D01*
X147143306Y-99643306D01*
X147163582Y-99629758D01*
X147187500Y-99625000D01*
X147937500Y-99625000D01*
X147961418Y-99629758D01*
X147961418Y-99629758D01*
G37*
D14*
X147562500Y-99750000D03*
D10*
G36*
X147961418Y-100129758D02*
G01*
X147981694Y-100143306D01*
X147995242Y-100163582D01*
X148000000Y-100187500D01*
X148000000Y-100312500D01*
X147995242Y-100336418D01*
X147981694Y-100356694D01*
X147961418Y-100370242D01*
X147937500Y-100375000D01*
X147187500Y-100375000D01*
X147163582Y-100370242D01*
X147143306Y-100356694D01*
X147129758Y-100336418D01*
X147125000Y-100312500D01*
X147125000Y-100187500D01*
X147129758Y-100163582D01*
X147143306Y-100143306D01*
X147163582Y-100129758D01*
X147187500Y-100125000D01*
X147937500Y-100125000D01*
X147961418Y-100129758D01*
X147961418Y-100129758D01*
G37*
D14*
X147562500Y-100250000D03*
D10*
G36*
X147961418Y-100629758D02*
G01*
X147981694Y-100643306D01*
X147995242Y-100663582D01*
X148000000Y-100687500D01*
X148000000Y-100812500D01*
X147995242Y-100836418D01*
X147981694Y-100856694D01*
X147961418Y-100870242D01*
X147937500Y-100875000D01*
X147187500Y-100875000D01*
X147163582Y-100870242D01*
X147143306Y-100856694D01*
X147129758Y-100836418D01*
X147125000Y-100812500D01*
X147125000Y-100687500D01*
X147129758Y-100663582D01*
X147143306Y-100643306D01*
X147163582Y-100629758D01*
X147187500Y-100625000D01*
X147937500Y-100625000D01*
X147961418Y-100629758D01*
X147961418Y-100629758D01*
G37*
D14*
X147562500Y-100750000D03*
D10*
G36*
X147961418Y-101129758D02*
G01*
X147981694Y-101143306D01*
X147995242Y-101163582D01*
X148000000Y-101187500D01*
X148000000Y-101312500D01*
X147995242Y-101336418D01*
X147981694Y-101356694D01*
X147961418Y-101370242D01*
X147937500Y-101375000D01*
X147187500Y-101375000D01*
X147163582Y-101370242D01*
X147143306Y-101356694D01*
X147129758Y-101336418D01*
X147125000Y-101312500D01*
X147125000Y-101187500D01*
X147129758Y-101163582D01*
X147143306Y-101143306D01*
X147163582Y-101129758D01*
X147187500Y-101125000D01*
X147937500Y-101125000D01*
X147961418Y-101129758D01*
X147961418Y-101129758D01*
G37*
D14*
X147562500Y-101250000D03*
D10*
G36*
X147961418Y-101629758D02*
G01*
X147981694Y-101643306D01*
X147995242Y-101663582D01*
X148000000Y-101687500D01*
X148000000Y-101812500D01*
X147995242Y-101836418D01*
X147981694Y-101856694D01*
X147961418Y-101870242D01*
X147937500Y-101875000D01*
X147187500Y-101875000D01*
X147163582Y-101870242D01*
X147143306Y-101856694D01*
X147129758Y-101836418D01*
X147125000Y-101812500D01*
X147125000Y-101687500D01*
X147129758Y-101663582D01*
X147143306Y-101643306D01*
X147163582Y-101629758D01*
X147187500Y-101625000D01*
X147937500Y-101625000D01*
X147961418Y-101629758D01*
X147961418Y-101629758D01*
G37*
D14*
X147562500Y-101750000D03*
D10*
G36*
X148336418Y-102004758D02*
G01*
X148356694Y-102018306D01*
X148370242Y-102038582D01*
X148375000Y-102062500D01*
X148375000Y-102812500D01*
X148370242Y-102836418D01*
X148356694Y-102856694D01*
X148336418Y-102870242D01*
X148312500Y-102875000D01*
X148187500Y-102875000D01*
X148163582Y-102870242D01*
X148143306Y-102856694D01*
X148129758Y-102836418D01*
X148125000Y-102812500D01*
X148125000Y-102062500D01*
X148129758Y-102038582D01*
X148143306Y-102018306D01*
X148163582Y-102004758D01*
X148187500Y-102000000D01*
X148312500Y-102000000D01*
X148336418Y-102004758D01*
X148336418Y-102004758D01*
G37*
D14*
X148250000Y-102437500D03*
D10*
G36*
X148836418Y-102004758D02*
G01*
X148856694Y-102018306D01*
X148870242Y-102038582D01*
X148875000Y-102062500D01*
X148875000Y-102812500D01*
X148870242Y-102836418D01*
X148856694Y-102856694D01*
X148836418Y-102870242D01*
X148812500Y-102875000D01*
X148687500Y-102875000D01*
X148663582Y-102870242D01*
X148643306Y-102856694D01*
X148629758Y-102836418D01*
X148625000Y-102812500D01*
X148625000Y-102062500D01*
X148629758Y-102038582D01*
X148643306Y-102018306D01*
X148663582Y-102004758D01*
X148687500Y-102000000D01*
X148812500Y-102000000D01*
X148836418Y-102004758D01*
X148836418Y-102004758D01*
G37*
D14*
X148750000Y-102437500D03*
D10*
G36*
X149336418Y-102004758D02*
G01*
X149356694Y-102018306D01*
X149370242Y-102038582D01*
X149375000Y-102062500D01*
X149375000Y-102812500D01*
X149370242Y-102836418D01*
X149356694Y-102856694D01*
X149336418Y-102870242D01*
X149312500Y-102875000D01*
X149187500Y-102875000D01*
X149163582Y-102870242D01*
X149143306Y-102856694D01*
X149129758Y-102836418D01*
X149125000Y-102812500D01*
X149125000Y-102062500D01*
X149129758Y-102038582D01*
X149143306Y-102018306D01*
X149163582Y-102004758D01*
X149187500Y-102000000D01*
X149312500Y-102000000D01*
X149336418Y-102004758D01*
X149336418Y-102004758D01*
G37*
D14*
X149250000Y-102437500D03*
D10*
G36*
X149836418Y-102004758D02*
G01*
X149856694Y-102018306D01*
X149870242Y-102038582D01*
X149875000Y-102062500D01*
X149875000Y-102812500D01*
X149870242Y-102836418D01*
X149856694Y-102856694D01*
X149836418Y-102870242D01*
X149812500Y-102875000D01*
X149687500Y-102875000D01*
X149663582Y-102870242D01*
X149643306Y-102856694D01*
X149629758Y-102836418D01*
X149625000Y-102812500D01*
X149625000Y-102062500D01*
X149629758Y-102038582D01*
X149643306Y-102018306D01*
X149663582Y-102004758D01*
X149687500Y-102000000D01*
X149812500Y-102000000D01*
X149836418Y-102004758D01*
X149836418Y-102004758D01*
G37*
D14*
X149750000Y-102437500D03*
D10*
G36*
X150336418Y-102004758D02*
G01*
X150356694Y-102018306D01*
X150370242Y-102038582D01*
X150375000Y-102062500D01*
X150375000Y-102812500D01*
X150370242Y-102836418D01*
X150356694Y-102856694D01*
X150336418Y-102870242D01*
X150312500Y-102875000D01*
X150187500Y-102875000D01*
X150163582Y-102870242D01*
X150143306Y-102856694D01*
X150129758Y-102836418D01*
X150125000Y-102812500D01*
X150125000Y-102062500D01*
X150129758Y-102038582D01*
X150143306Y-102018306D01*
X150163582Y-102004758D01*
X150187500Y-102000000D01*
X150312500Y-102000000D01*
X150336418Y-102004758D01*
X150336418Y-102004758D01*
G37*
D14*
X150250000Y-102437500D03*
D10*
G36*
X150836418Y-102004758D02*
G01*
X150856694Y-102018306D01*
X150870242Y-102038582D01*
X150875000Y-102062500D01*
X150875000Y-102812500D01*
X150870242Y-102836418D01*
X150856694Y-102856694D01*
X150836418Y-102870242D01*
X150812500Y-102875000D01*
X150687500Y-102875000D01*
X150663582Y-102870242D01*
X150643306Y-102856694D01*
X150629758Y-102836418D01*
X150625000Y-102812500D01*
X150625000Y-102062500D01*
X150629758Y-102038582D01*
X150643306Y-102018306D01*
X150663582Y-102004758D01*
X150687500Y-102000000D01*
X150812500Y-102000000D01*
X150836418Y-102004758D01*
X150836418Y-102004758D01*
G37*
D14*
X150750000Y-102437500D03*
D10*
G36*
X151336418Y-102004758D02*
G01*
X151356694Y-102018306D01*
X151370242Y-102038582D01*
X151375000Y-102062500D01*
X151375000Y-102812500D01*
X151370242Y-102836418D01*
X151356694Y-102856694D01*
X151336418Y-102870242D01*
X151312500Y-102875000D01*
X151187500Y-102875000D01*
X151163582Y-102870242D01*
X151143306Y-102856694D01*
X151129758Y-102836418D01*
X151125000Y-102812500D01*
X151125000Y-102062500D01*
X151129758Y-102038582D01*
X151143306Y-102018306D01*
X151163582Y-102004758D01*
X151187500Y-102000000D01*
X151312500Y-102000000D01*
X151336418Y-102004758D01*
X151336418Y-102004758D01*
G37*
D14*
X151250000Y-102437500D03*
D10*
G36*
X151836418Y-102004758D02*
G01*
X151856694Y-102018306D01*
X151870242Y-102038582D01*
X151875000Y-102062500D01*
X151875000Y-102812500D01*
X151870242Y-102836418D01*
X151856694Y-102856694D01*
X151836418Y-102870242D01*
X151812500Y-102875000D01*
X151687500Y-102875000D01*
X151663582Y-102870242D01*
X151643306Y-102856694D01*
X151629758Y-102836418D01*
X151625000Y-102812500D01*
X151625000Y-102062500D01*
X151629758Y-102038582D01*
X151643306Y-102018306D01*
X151663582Y-102004758D01*
X151687500Y-102000000D01*
X151812500Y-102000000D01*
X151836418Y-102004758D01*
X151836418Y-102004758D01*
G37*
D14*
X151750000Y-102437500D03*
D10*
G36*
X149171474Y-98402698D02*
G01*
X149246902Y-98453098D01*
X149297302Y-98528526D01*
X149315000Y-98617500D01*
X149315000Y-99082500D01*
X149297302Y-99171474D01*
X149246902Y-99246902D01*
X149171474Y-99297302D01*
X149082500Y-99315000D01*
X148617500Y-99315000D01*
X148528526Y-99297302D01*
X148453098Y-99246902D01*
X148402698Y-99171474D01*
X148385000Y-99082500D01*
X148385000Y-98617500D01*
X148402698Y-98528526D01*
X148453098Y-98453098D01*
X148528526Y-98402698D01*
X148617500Y-98385000D01*
X149082500Y-98385000D01*
X149171474Y-98402698D01*
X149171474Y-98402698D01*
G37*
D15*
X148850000Y-98850000D03*
D10*
G36*
X150321474Y-98402698D02*
G01*
X150396902Y-98453098D01*
X150447302Y-98528526D01*
X150465000Y-98617500D01*
X150465000Y-99082500D01*
X150447302Y-99171474D01*
X150396902Y-99246902D01*
X150321474Y-99297302D01*
X150232500Y-99315000D01*
X149767500Y-99315000D01*
X149678526Y-99297302D01*
X149603098Y-99246902D01*
X149552698Y-99171474D01*
X149535000Y-99082500D01*
X149535000Y-98617500D01*
X149552698Y-98528526D01*
X149603098Y-98453098D01*
X149678526Y-98402698D01*
X149767500Y-98385000D01*
X150232500Y-98385000D01*
X150321474Y-98402698D01*
X150321474Y-98402698D01*
G37*
D15*
X150000000Y-98850000D03*
D10*
G36*
X151471474Y-98402698D02*
G01*
X151546902Y-98453098D01*
X151597302Y-98528526D01*
X151615000Y-98617500D01*
X151615000Y-99082500D01*
X151597302Y-99171474D01*
X151546902Y-99246902D01*
X151471474Y-99297302D01*
X151382500Y-99315000D01*
X150917500Y-99315000D01*
X150828526Y-99297302D01*
X150753098Y-99246902D01*
X150702698Y-99171474D01*
X150685000Y-99082500D01*
X150685000Y-98617500D01*
X150702698Y-98528526D01*
X150753098Y-98453098D01*
X150828526Y-98402698D01*
X150917500Y-98385000D01*
X151382500Y-98385000D01*
X151471474Y-98402698D01*
X151471474Y-98402698D01*
G37*
D15*
X151150000Y-98850000D03*
D10*
G36*
X149171474Y-99552698D02*
G01*
X149246902Y-99603098D01*
X149297302Y-99678526D01*
X149315000Y-99767500D01*
X149315000Y-100232500D01*
X149297302Y-100321474D01*
X149246902Y-100396902D01*
X149171474Y-100447302D01*
X149082500Y-100465000D01*
X148617500Y-100465000D01*
X148528526Y-100447302D01*
X148453098Y-100396902D01*
X148402698Y-100321474D01*
X148385000Y-100232500D01*
X148385000Y-99767500D01*
X148402698Y-99678526D01*
X148453098Y-99603098D01*
X148528526Y-99552698D01*
X148617500Y-99535000D01*
X149082500Y-99535000D01*
X149171474Y-99552698D01*
X149171474Y-99552698D01*
G37*
D15*
X148850000Y-100000000D03*
D10*
G36*
X150321474Y-99552698D02*
G01*
X150396902Y-99603098D01*
X150447302Y-99678526D01*
X150465000Y-99767500D01*
X150465000Y-100232500D01*
X150447302Y-100321474D01*
X150396902Y-100396902D01*
X150321474Y-100447302D01*
X150232500Y-100465000D01*
X149767500Y-100465000D01*
X149678526Y-100447302D01*
X149603098Y-100396902D01*
X149552698Y-100321474D01*
X149535000Y-100232500D01*
X149535000Y-99767500D01*
X149552698Y-99678526D01*
X149603098Y-99603098D01*
X149678526Y-99552698D01*
X149767500Y-99535000D01*
X150232500Y-99535000D01*
X150321474Y-99552698D01*
X150321474Y-99552698D01*
G37*
D15*
X150000000Y-100000000D03*
D10*
G36*
X151471474Y-99552698D02*
G01*
X151546902Y-99603098D01*
X151597302Y-99678526D01*
X151615000Y-99767500D01*
X151615000Y-100232500D01*
X151597302Y-100321474D01*
X151546902Y-100396902D01*
X151471474Y-100447302D01*
X151382500Y-100465000D01*
X150917500Y-100465000D01*
X150828526Y-100447302D01*
X150753098Y-100396902D01*
X150702698Y-100321474D01*
X150685000Y-100232500D01*
X150685000Y-99767500D01*
X150702698Y-99678526D01*
X150753098Y-99603098D01*
X150828526Y-99552698D01*
X150917500Y-99535000D01*
X151382500Y-99535000D01*
X151471474Y-99552698D01*
X151471474Y-99552698D01*
G37*
D15*
X151150000Y-100000000D03*
D10*
G36*
X149171474Y-100702698D02*
G01*
X149246902Y-100753098D01*
X149297302Y-100828526D01*
X149315000Y-100917500D01*
X149315000Y-101382500D01*
X149297302Y-101471474D01*
X149246902Y-101546902D01*
X149171474Y-101597302D01*
X149082500Y-101615000D01*
X148617500Y-101615000D01*
X148528526Y-101597302D01*
X148453098Y-101546902D01*
X148402698Y-101471474D01*
X148385000Y-101382500D01*
X148385000Y-100917500D01*
X148402698Y-100828526D01*
X148453098Y-100753098D01*
X148528526Y-100702698D01*
X148617500Y-100685000D01*
X149082500Y-100685000D01*
X149171474Y-100702698D01*
X149171474Y-100702698D01*
G37*
D15*
X148850000Y-101150000D03*
D10*
G36*
X150321474Y-100702698D02*
G01*
X150396902Y-100753098D01*
X150447302Y-100828526D01*
X150465000Y-100917500D01*
X150465000Y-101382500D01*
X150447302Y-101471474D01*
X150396902Y-101546902D01*
X150321474Y-101597302D01*
X150232500Y-101615000D01*
X149767500Y-101615000D01*
X149678526Y-101597302D01*
X149603098Y-101546902D01*
X149552698Y-101471474D01*
X149535000Y-101382500D01*
X149535000Y-100917500D01*
X149552698Y-100828526D01*
X149603098Y-100753098D01*
X149678526Y-100702698D01*
X149767500Y-100685000D01*
X150232500Y-100685000D01*
X150321474Y-100702698D01*
X150321474Y-100702698D01*
G37*
D15*
X150000000Y-101150000D03*
D10*
G36*
X151471474Y-100702698D02*
G01*
X151546902Y-100753098D01*
X151597302Y-100828526D01*
X151615000Y-100917500D01*
X151615000Y-101382500D01*
X151597302Y-101471474D01*
X151546902Y-101546902D01*
X151471474Y-101597302D01*
X151382500Y-101615000D01*
X150917500Y-101615000D01*
X150828526Y-101597302D01*
X150753098Y-101546902D01*
X150702698Y-101471474D01*
X150685000Y-101382500D01*
X150685000Y-100917500D01*
X150702698Y-100828526D01*
X150753098Y-100753098D01*
X150828526Y-100702698D01*
X150917500Y-100685000D01*
X151382500Y-100685000D01*
X151471474Y-100702698D01*
X151471474Y-100702698D01*
G37*
D15*
X151150000Y-101150000D03*
M02*
