G04 #@! TF.GenerationSoftware,KiCad,Pcbnew,5.99.0-unknown-c3175b4~86~ubuntu16.04.1*
G04 #@! TF.CreationDate,2020-03-24T03:28:14+00:00*
G04 #@! TF.ProjectId,kuiick,6b756969-636b-42e6-9b69-6361645f7063,rev?*
G04 #@! TF.SameCoordinates,Original*
G04 #@! TF.FileFunction,Soldermask,Bot*
G04 #@! TF.FilePolarity,Negative*
%FSLAX46Y46*%
G04 Gerber Fmt 4.6, Leading zero omitted, Abs format (unit mm)*
G04 Created by KiCad (PCBNEW 5.99.0-unknown-c3175b4~86~ubuntu16.04.1) date 2020-03-24 03:28:14*
%MOMM*%
%LPD*%
G04 APERTURE LIST*
%ADD10C,0.010583*%
%ADD11C,0.100000*%
G04 APERTURE END LIST*
D10*
G36*
X154558333Y-104241667D02*
G01*
X153500000Y-105300000D01*
X152970834Y-104241667D01*
X153881000Y-104241667D01*
X153500000Y-104622667D01*
X153500000Y-104770833D01*
X154029167Y-104241667D01*
X153500000Y-103183334D01*
X154558333Y-104241667D01*
X154558333Y-104241667D01*
G37*
X154558333Y-104241667D02*
X153500000Y-105300000D01*
X152970834Y-104241667D01*
X153881000Y-104241667D01*
X153500000Y-104622667D01*
X153500000Y-104770833D01*
X154029167Y-104241667D01*
X153500000Y-103183334D01*
X154558333Y-104241667D01*
D11*
G36*
X143699902Y-107989283D02*
G01*
X143744637Y-107989595D01*
X143788460Y-107998590D01*
X143838360Y-108003835D01*
X143880132Y-108017408D01*
X143917723Y-108025124D01*
X143964851Y-108044935D01*
X144018488Y-108062363D01*
X144051099Y-108081191D01*
X144080614Y-108093598D01*
X144128301Y-108125763D01*
X144182511Y-108157061D01*
X144205826Y-108178054D01*
X144227101Y-108192404D01*
X144272183Y-108237802D01*
X144323261Y-108283793D01*
X144338003Y-108304083D01*
X144351608Y-108317784D01*
X144390643Y-108376537D01*
X144434586Y-108437019D01*
X144442221Y-108454168D01*
X144449388Y-108464955D01*
X144478865Y-108536472D01*
X144511621Y-108610042D01*
X144514211Y-108622225D01*
X144516724Y-108628323D01*
X144533292Y-108711997D01*
X144550999Y-108795301D01*
X144550999Y-108984699D01*
X144548115Y-108998269D01*
X144548030Y-109004331D01*
X144529342Y-109086585D01*
X144511621Y-109169958D01*
X144509129Y-109175555D01*
X144509078Y-109175780D01*
X144437210Y-109337197D01*
X144437078Y-109337385D01*
X144434586Y-109342981D01*
X144384480Y-109411946D01*
X144335357Y-109481582D01*
X144330585Y-109486126D01*
X144323261Y-109496207D01*
X144263396Y-109550110D01*
X144207396Y-109603438D01*
X144196464Y-109610376D01*
X144182511Y-109622939D01*
X144117764Y-109660321D01*
X144058211Y-109698114D01*
X144040209Y-109705097D01*
X144018488Y-109717637D01*
X143953115Y-109738878D01*
X143893468Y-109762014D01*
X143868200Y-109766469D01*
X143838360Y-109776165D01*
X143776095Y-109782709D01*
X143719460Y-109792695D01*
X143687459Y-109792025D01*
X143650000Y-109795962D01*
X143593902Y-109790066D01*
X143542799Y-109788996D01*
X143505323Y-109780756D01*
X143461640Y-109776165D01*
X143413917Y-109760659D01*
X143370225Y-109751052D01*
X143329230Y-109733142D01*
X143281512Y-109717637D01*
X143243473Y-109695675D01*
X143208310Y-109680313D01*
X143166337Y-109651141D01*
X143117489Y-109622939D01*
X143089504Y-109597741D01*
X143063215Y-109579470D01*
X143023257Y-109538092D01*
X142976739Y-109496207D01*
X142958296Y-109470823D01*
X142940473Y-109452366D01*
X142905821Y-109398597D01*
X142865414Y-109342981D01*
X142855212Y-109320066D01*
X142844754Y-109303839D01*
X142818789Y-109238261D01*
X142788379Y-109169958D01*
X142784476Y-109151596D01*
X142779707Y-109139551D01*
X142765740Y-109063448D01*
X142749001Y-108984699D01*
X142749001Y-108972246D01*
X142747811Y-108965762D01*
X142749001Y-108880535D01*
X142749001Y-108795301D01*
X142750275Y-108789308D01*
X142750278Y-108789077D01*
X142787015Y-108616246D01*
X142787105Y-108616036D01*
X142788379Y-108610042D01*
X142823042Y-108532188D01*
X142856622Y-108453839D01*
X142860348Y-108448397D01*
X142865414Y-108437019D01*
X142912746Y-108371872D01*
X142956452Y-108308041D01*
X142965706Y-108298979D01*
X142976739Y-108283793D01*
X143032297Y-108233769D01*
X143082693Y-108184417D01*
X143098848Y-108173846D01*
X143117489Y-108157061D01*
X143177026Y-108122687D01*
X143230551Y-108087662D01*
X143254340Y-108078050D01*
X143281512Y-108062363D01*
X143341045Y-108043019D01*
X143394376Y-108021472D01*
X143425820Y-108015474D01*
X143461640Y-108003835D01*
X143517744Y-107997938D01*
X143567945Y-107988362D01*
X143606312Y-107988630D01*
X143650000Y-107984038D01*
X143699902Y-107989283D01*
X143699902Y-107989283D01*
G37*
G36*
X156399902Y-107989283D02*
G01*
X156444637Y-107989595D01*
X156488460Y-107998590D01*
X156538360Y-108003835D01*
X156580132Y-108017408D01*
X156617723Y-108025124D01*
X156664851Y-108044935D01*
X156718488Y-108062363D01*
X156751099Y-108081191D01*
X156780614Y-108093598D01*
X156828301Y-108125763D01*
X156882511Y-108157061D01*
X156905826Y-108178054D01*
X156927101Y-108192404D01*
X156972183Y-108237802D01*
X157023261Y-108283793D01*
X157038003Y-108304083D01*
X157051608Y-108317784D01*
X157090643Y-108376537D01*
X157134586Y-108437019D01*
X157142221Y-108454168D01*
X157149388Y-108464955D01*
X157178865Y-108536472D01*
X157211621Y-108610042D01*
X157214211Y-108622225D01*
X157216724Y-108628323D01*
X157233292Y-108711997D01*
X157250999Y-108795301D01*
X157250999Y-108984699D01*
X157248115Y-108998269D01*
X157248030Y-109004331D01*
X157229342Y-109086585D01*
X157211621Y-109169958D01*
X157209129Y-109175555D01*
X157209078Y-109175780D01*
X157137210Y-109337197D01*
X157137078Y-109337385D01*
X157134586Y-109342981D01*
X157084480Y-109411946D01*
X157035357Y-109481582D01*
X157030585Y-109486126D01*
X157023261Y-109496207D01*
X156963396Y-109550110D01*
X156907396Y-109603438D01*
X156896464Y-109610376D01*
X156882511Y-109622939D01*
X156817764Y-109660321D01*
X156758211Y-109698114D01*
X156740209Y-109705097D01*
X156718488Y-109717637D01*
X156653115Y-109738878D01*
X156593468Y-109762014D01*
X156568200Y-109766469D01*
X156538360Y-109776165D01*
X156476095Y-109782709D01*
X156419460Y-109792695D01*
X156387459Y-109792025D01*
X156350000Y-109795962D01*
X156293902Y-109790066D01*
X156242799Y-109788996D01*
X156205323Y-109780756D01*
X156161640Y-109776165D01*
X156113917Y-109760659D01*
X156070225Y-109751052D01*
X156029230Y-109733142D01*
X155981512Y-109717637D01*
X155943473Y-109695675D01*
X155908310Y-109680313D01*
X155866337Y-109651141D01*
X155817489Y-109622939D01*
X155789504Y-109597741D01*
X155763215Y-109579470D01*
X155723257Y-109538092D01*
X155676739Y-109496207D01*
X155658296Y-109470823D01*
X155640473Y-109452366D01*
X155605821Y-109398597D01*
X155565414Y-109342981D01*
X155555212Y-109320066D01*
X155544754Y-109303839D01*
X155518789Y-109238261D01*
X155488379Y-109169958D01*
X155484476Y-109151596D01*
X155479707Y-109139551D01*
X155465740Y-109063448D01*
X155449001Y-108984699D01*
X155449001Y-108972246D01*
X155447811Y-108965762D01*
X155449001Y-108880535D01*
X155449001Y-108795301D01*
X155450275Y-108789308D01*
X155450278Y-108789077D01*
X155487015Y-108616246D01*
X155487105Y-108616036D01*
X155488379Y-108610042D01*
X155523042Y-108532188D01*
X155556622Y-108453839D01*
X155560348Y-108448397D01*
X155565414Y-108437019D01*
X155612746Y-108371872D01*
X155656452Y-108308041D01*
X155665706Y-108298979D01*
X155676739Y-108283793D01*
X155732297Y-108233769D01*
X155782693Y-108184417D01*
X155798848Y-108173846D01*
X155817489Y-108157061D01*
X155877026Y-108122687D01*
X155930551Y-108087662D01*
X155954340Y-108078050D01*
X155981512Y-108062363D01*
X156041045Y-108043019D01*
X156094376Y-108021472D01*
X156125820Y-108015474D01*
X156161640Y-108003835D01*
X156217744Y-107997938D01*
X156267945Y-107988362D01*
X156306312Y-107988630D01*
X156350000Y-107984038D01*
X156399902Y-107989283D01*
X156399902Y-107989283D01*
G37*
G36*
X146748661Y-107649249D02*
G01*
X146774813Y-107649409D01*
X146819397Y-107662742D01*
X146856049Y-107669734D01*
X146879196Y-107680626D01*
X146912305Y-107690528D01*
X146944281Y-107711254D01*
X146970582Y-107723630D01*
X146996659Y-107745203D01*
X147032731Y-107768583D01*
X147052116Y-107791080D01*
X147068114Y-107804315D01*
X147092822Y-107838322D01*
X147126408Y-107877301D01*
X147135215Y-107896671D01*
X147142519Y-107906724D01*
X147160940Y-107953250D01*
X147185806Y-108007940D01*
X147187627Y-108020653D01*
X147189117Y-108024417D01*
X147196235Y-108080763D01*
X147201000Y-108114033D01*
X147201000Y-109084467D01*
X147184035Y-109197984D01*
X147169646Y-109228633D01*
X147167590Y-109239408D01*
X147147014Y-109276835D01*
X147123045Y-109327888D01*
X147112192Y-109340176D01*
X147108540Y-109346820D01*
X147071324Y-109386451D01*
X147028047Y-109435453D01*
X146955252Y-109481384D01*
X146915011Y-109506921D01*
X146914529Y-109507077D01*
X146906677Y-109512032D01*
X146845254Y-109529587D01*
X146794623Y-109546038D01*
X146785736Y-109546597D01*
X146768693Y-109551468D01*
X146713652Y-109551132D01*
X146668294Y-109553985D01*
X146651339Y-109550751D01*
X146625187Y-109550591D01*
X146580603Y-109537258D01*
X146543951Y-109530266D01*
X146520804Y-109519374D01*
X146487695Y-109509472D01*
X146455720Y-109488747D01*
X146429420Y-109476371D01*
X146403343Y-109454798D01*
X146367270Y-109431417D01*
X146347885Y-109408919D01*
X146331885Y-109395683D01*
X146307177Y-109361675D01*
X146273593Y-109322699D01*
X146264786Y-109303329D01*
X146257482Y-109293276D01*
X146239061Y-109246750D01*
X146214195Y-109192060D01*
X146212374Y-109179347D01*
X146210884Y-109175583D01*
X146203761Y-109119206D01*
X146199001Y-109085967D01*
X146199001Y-109081528D01*
X146199000Y-109081520D01*
X146199000Y-108115534D01*
X146215965Y-108002017D01*
X146230355Y-107971368D01*
X146232410Y-107960593D01*
X146252984Y-107923169D01*
X146276955Y-107872112D01*
X146287809Y-107859822D01*
X146291460Y-107853181D01*
X146328661Y-107813566D01*
X146371953Y-107764547D01*
X146444814Y-107718575D01*
X146484989Y-107693079D01*
X146485471Y-107692923D01*
X146493323Y-107687968D01*
X146554746Y-107670413D01*
X146605377Y-107653962D01*
X146614264Y-107653403D01*
X146631307Y-107648532D01*
X146686348Y-107648868D01*
X146731706Y-107646015D01*
X146748661Y-107649249D01*
X146748661Y-107649249D01*
G37*
G36*
X153348661Y-107649249D02*
G01*
X153374813Y-107649409D01*
X153419397Y-107662742D01*
X153456049Y-107669734D01*
X153479196Y-107680626D01*
X153512305Y-107690528D01*
X153544281Y-107711254D01*
X153570582Y-107723630D01*
X153596659Y-107745203D01*
X153632731Y-107768583D01*
X153652116Y-107791080D01*
X153668114Y-107804315D01*
X153692822Y-107838322D01*
X153726408Y-107877301D01*
X153735215Y-107896671D01*
X153742519Y-107906724D01*
X153760940Y-107953250D01*
X153785806Y-108007940D01*
X153787627Y-108020653D01*
X153789117Y-108024417D01*
X153796235Y-108080763D01*
X153801000Y-108114033D01*
X153801000Y-109084467D01*
X153784035Y-109197984D01*
X153769646Y-109228633D01*
X153767590Y-109239408D01*
X153747014Y-109276835D01*
X153723045Y-109327888D01*
X153712192Y-109340176D01*
X153708540Y-109346820D01*
X153671324Y-109386451D01*
X153628047Y-109435453D01*
X153555252Y-109481384D01*
X153515011Y-109506921D01*
X153514529Y-109507077D01*
X153506677Y-109512032D01*
X153445254Y-109529587D01*
X153394623Y-109546038D01*
X153385736Y-109546597D01*
X153368693Y-109551468D01*
X153313652Y-109551132D01*
X153268294Y-109553985D01*
X153251339Y-109550751D01*
X153225187Y-109550591D01*
X153180603Y-109537258D01*
X153143951Y-109530266D01*
X153120804Y-109519374D01*
X153087695Y-109509472D01*
X153055720Y-109488747D01*
X153029420Y-109476371D01*
X153003343Y-109454798D01*
X152967270Y-109431417D01*
X152947885Y-109408919D01*
X152931885Y-109395683D01*
X152907177Y-109361675D01*
X152873593Y-109322699D01*
X152864786Y-109303329D01*
X152857482Y-109293276D01*
X152839061Y-109246750D01*
X152814195Y-109192060D01*
X152812374Y-109179347D01*
X152810884Y-109175583D01*
X152803761Y-109119206D01*
X152799001Y-109085967D01*
X152799001Y-109081528D01*
X152799000Y-109081520D01*
X152799000Y-108115534D01*
X152815965Y-108002017D01*
X152830355Y-107971368D01*
X152832410Y-107960593D01*
X152852984Y-107923169D01*
X152876955Y-107872112D01*
X152887809Y-107859822D01*
X152891460Y-107853181D01*
X152928661Y-107813566D01*
X152971953Y-107764547D01*
X153044814Y-107718575D01*
X153084989Y-107693079D01*
X153085471Y-107692923D01*
X153093323Y-107687968D01*
X153154746Y-107670413D01*
X153205377Y-107653962D01*
X153214264Y-107653403D01*
X153231307Y-107648532D01*
X153286348Y-107648868D01*
X153331706Y-107646015D01*
X153348661Y-107649249D01*
X153348661Y-107649249D01*
G37*
G36*
X156538360Y-105463835D02*
G01*
X156619397Y-105490166D01*
X156706663Y-105517848D01*
X156709655Y-105519493D01*
X156718488Y-105522363D01*
X156790466Y-105563919D01*
X156861499Y-105602970D01*
X156868986Y-105609253D01*
X156882511Y-105617061D01*
X156940259Y-105669057D01*
X156996857Y-105716549D01*
X157006962Y-105729118D01*
X157023261Y-105743793D01*
X157065454Y-105801867D01*
X157107579Y-105854260D01*
X157117994Y-105874182D01*
X157134586Y-105897019D01*
X157161297Y-105957012D01*
X157189439Y-106010843D01*
X157197582Y-106038510D01*
X157211621Y-106070042D01*
X157223992Y-106128241D01*
X157239328Y-106180349D01*
X157242518Y-106215401D01*
X157250999Y-106255301D01*
X157250999Y-106308592D01*
X157255343Y-106356324D01*
X157250999Y-106397653D01*
X157250999Y-106444699D01*
X157241217Y-106490721D01*
X157236873Y-106532047D01*
X157222702Y-106577827D01*
X157211621Y-106629958D01*
X157195028Y-106667226D01*
X157184622Y-106700843D01*
X157158789Y-106748620D01*
X157134586Y-106802981D01*
X157114298Y-106830905D01*
X157100580Y-106856276D01*
X157061859Y-106903082D01*
X157023261Y-106956207D01*
X157002284Y-106975095D01*
X156987952Y-106992419D01*
X156935845Y-107034917D01*
X156882511Y-107082939D01*
X156863524Y-107093901D01*
X156851025Y-107104095D01*
X156785780Y-107138786D01*
X156718488Y-107177637D01*
X156703636Y-107182463D01*
X156695003Y-107187053D01*
X156617430Y-107210473D01*
X156538360Y-107236165D01*
X156529114Y-107237137D01*
X156525851Y-107238122D01*
X156434710Y-107247059D01*
X156397211Y-107251000D01*
X156302789Y-107251000D01*
X156161640Y-107236165D01*
X156080603Y-107209834D01*
X155993337Y-107182152D01*
X155990345Y-107180507D01*
X155981512Y-107177637D01*
X155909534Y-107136081D01*
X155838501Y-107097030D01*
X155831014Y-107090747D01*
X155817489Y-107082939D01*
X155759741Y-107030943D01*
X155703143Y-106983451D01*
X155693038Y-106970882D01*
X155676739Y-106956207D01*
X155634546Y-106898133D01*
X155592421Y-106845740D01*
X155582006Y-106825818D01*
X155565414Y-106802981D01*
X155538703Y-106742988D01*
X155510561Y-106689157D01*
X155502418Y-106661490D01*
X155488379Y-106629958D01*
X155476008Y-106571759D01*
X155460672Y-106519651D01*
X155457482Y-106484599D01*
X155449001Y-106444699D01*
X155449001Y-106391408D01*
X155444657Y-106343676D01*
X155449001Y-106302347D01*
X155449001Y-106255301D01*
X155458783Y-106209279D01*
X155463127Y-106167953D01*
X155477298Y-106122173D01*
X155488379Y-106070042D01*
X155504972Y-106032774D01*
X155515378Y-105999157D01*
X155541211Y-105951380D01*
X155565414Y-105897019D01*
X155585702Y-105869095D01*
X155599420Y-105843724D01*
X155638141Y-105796918D01*
X155676739Y-105743793D01*
X155697716Y-105724905D01*
X155712048Y-105707581D01*
X155764155Y-105665083D01*
X155817489Y-105617061D01*
X155836476Y-105606099D01*
X155848975Y-105595905D01*
X155914220Y-105561214D01*
X155981512Y-105522363D01*
X155996364Y-105517537D01*
X156004997Y-105512947D01*
X156082570Y-105489527D01*
X156161640Y-105463835D01*
X156170886Y-105462863D01*
X156174149Y-105461878D01*
X156265290Y-105452941D01*
X156302789Y-105449000D01*
X156397211Y-105449000D01*
X156538360Y-105463835D01*
X156538360Y-105463835D01*
G37*
G36*
X143838360Y-105463835D02*
G01*
X143919397Y-105490166D01*
X144006663Y-105517848D01*
X144009655Y-105519493D01*
X144018488Y-105522363D01*
X144090466Y-105563919D01*
X144161499Y-105602970D01*
X144168986Y-105609253D01*
X144182511Y-105617061D01*
X144240259Y-105669057D01*
X144296857Y-105716549D01*
X144306962Y-105729118D01*
X144323261Y-105743793D01*
X144365454Y-105801867D01*
X144407579Y-105854260D01*
X144417994Y-105874182D01*
X144434586Y-105897019D01*
X144461297Y-105957012D01*
X144489439Y-106010843D01*
X144497582Y-106038510D01*
X144511621Y-106070042D01*
X144523992Y-106128241D01*
X144539328Y-106180349D01*
X144542518Y-106215401D01*
X144550999Y-106255301D01*
X144550999Y-106308592D01*
X144555343Y-106356324D01*
X144550999Y-106397653D01*
X144550999Y-106444699D01*
X144541217Y-106490721D01*
X144536873Y-106532047D01*
X144522702Y-106577827D01*
X144511621Y-106629958D01*
X144495028Y-106667226D01*
X144484622Y-106700843D01*
X144458789Y-106748620D01*
X144434586Y-106802981D01*
X144414298Y-106830905D01*
X144400580Y-106856276D01*
X144361859Y-106903082D01*
X144323261Y-106956207D01*
X144302284Y-106975095D01*
X144287952Y-106992419D01*
X144235845Y-107034917D01*
X144182511Y-107082939D01*
X144163524Y-107093901D01*
X144151025Y-107104095D01*
X144085780Y-107138786D01*
X144018488Y-107177637D01*
X144003636Y-107182463D01*
X143995003Y-107187053D01*
X143917430Y-107210473D01*
X143838360Y-107236165D01*
X143829114Y-107237137D01*
X143825851Y-107238122D01*
X143734710Y-107247059D01*
X143697211Y-107251000D01*
X143602789Y-107251000D01*
X143461640Y-107236165D01*
X143380603Y-107209834D01*
X143293337Y-107182152D01*
X143290345Y-107180507D01*
X143281512Y-107177637D01*
X143209534Y-107136081D01*
X143138501Y-107097030D01*
X143131014Y-107090747D01*
X143117489Y-107082939D01*
X143059741Y-107030943D01*
X143003143Y-106983451D01*
X142993038Y-106970882D01*
X142976739Y-106956207D01*
X142934546Y-106898133D01*
X142892421Y-106845740D01*
X142882006Y-106825818D01*
X142865414Y-106802981D01*
X142838703Y-106742988D01*
X142810561Y-106689157D01*
X142802418Y-106661490D01*
X142788379Y-106629958D01*
X142776008Y-106571759D01*
X142760672Y-106519651D01*
X142757482Y-106484599D01*
X142749001Y-106444699D01*
X142749001Y-106391408D01*
X142744657Y-106343676D01*
X142749001Y-106302347D01*
X142749001Y-106255301D01*
X142758783Y-106209279D01*
X142763127Y-106167953D01*
X142777298Y-106122173D01*
X142788379Y-106070042D01*
X142804972Y-106032774D01*
X142815378Y-105999157D01*
X142841211Y-105951380D01*
X142865414Y-105897019D01*
X142885702Y-105869095D01*
X142899420Y-105843724D01*
X142938141Y-105796918D01*
X142976739Y-105743793D01*
X142997716Y-105724905D01*
X143012048Y-105707581D01*
X143064155Y-105665083D01*
X143117489Y-105617061D01*
X143136476Y-105606099D01*
X143148975Y-105595905D01*
X143214220Y-105561214D01*
X143281512Y-105522363D01*
X143296364Y-105517537D01*
X143304997Y-105512947D01*
X143382570Y-105489527D01*
X143461640Y-105463835D01*
X143470886Y-105462863D01*
X143474149Y-105461878D01*
X143565290Y-105452941D01*
X143602789Y-105449000D01*
X143697211Y-105449000D01*
X143838360Y-105463835D01*
X143838360Y-105463835D01*
G37*
G36*
X154370824Y-105548001D02*
G01*
X154371571Y-105548001D01*
X154375460Y-105548775D01*
X154446978Y-105560709D01*
X154453672Y-105564332D01*
X154459752Y-105565541D01*
X154476135Y-105576488D01*
X154513310Y-105596606D01*
X154524603Y-105608874D01*
X154534508Y-105615492D01*
X154544601Y-105630597D01*
X154564396Y-105652100D01*
X154574767Y-105675742D01*
X154584459Y-105690248D01*
X154587222Y-105704137D01*
X154595758Y-105723598D01*
X154603434Y-105785178D01*
X154603434Y-106212225D01*
X154601999Y-106220824D01*
X154601999Y-106221571D01*
X154601225Y-106225460D01*
X154589291Y-106296978D01*
X154585668Y-106303672D01*
X154584459Y-106309752D01*
X154573512Y-106326135D01*
X154553394Y-106363310D01*
X154541126Y-106374603D01*
X154534508Y-106384508D01*
X154519403Y-106394601D01*
X154497900Y-106414396D01*
X154474258Y-106424767D01*
X154459752Y-106434459D01*
X154445863Y-106437222D01*
X154426402Y-106445758D01*
X154364822Y-106453434D01*
X154037775Y-106453434D01*
X154029176Y-106451999D01*
X154028429Y-106451999D01*
X154024540Y-106451225D01*
X153953022Y-106439291D01*
X153946328Y-106435668D01*
X153940248Y-106434459D01*
X153923865Y-106423512D01*
X153886690Y-106403394D01*
X153875397Y-106391126D01*
X153865492Y-106384508D01*
X153855399Y-106369403D01*
X153835604Y-106347900D01*
X153825233Y-106324258D01*
X153815541Y-106309752D01*
X153812778Y-106295863D01*
X153804242Y-106276402D01*
X153796566Y-106214822D01*
X153796566Y-105787775D01*
X153798001Y-105779176D01*
X153798001Y-105778429D01*
X153798775Y-105774540D01*
X153810709Y-105703022D01*
X153814332Y-105696328D01*
X153815541Y-105690248D01*
X153826488Y-105673865D01*
X153846606Y-105636690D01*
X153858874Y-105625397D01*
X153865492Y-105615492D01*
X153880597Y-105605399D01*
X153902100Y-105585604D01*
X153925742Y-105575233D01*
X153940248Y-105565541D01*
X153954137Y-105562778D01*
X153973598Y-105554242D01*
X154035178Y-105546566D01*
X154362225Y-105546566D01*
X154370824Y-105548001D01*
X154370824Y-105548001D01*
G37*
G36*
X152970824Y-105548001D02*
G01*
X152971571Y-105548001D01*
X152975460Y-105548775D01*
X153046978Y-105560709D01*
X153053672Y-105564332D01*
X153059752Y-105565541D01*
X153076135Y-105576488D01*
X153113310Y-105596606D01*
X153124603Y-105608874D01*
X153134508Y-105615492D01*
X153144601Y-105630597D01*
X153164396Y-105652100D01*
X153174767Y-105675742D01*
X153184459Y-105690248D01*
X153187222Y-105704137D01*
X153195758Y-105723598D01*
X153203434Y-105785178D01*
X153203434Y-106212225D01*
X153201999Y-106220824D01*
X153201999Y-106221571D01*
X153201225Y-106225460D01*
X153189291Y-106296978D01*
X153185668Y-106303672D01*
X153184459Y-106309752D01*
X153173512Y-106326135D01*
X153153394Y-106363310D01*
X153141126Y-106374603D01*
X153134508Y-106384508D01*
X153119403Y-106394601D01*
X153097900Y-106414396D01*
X153074258Y-106424767D01*
X153059752Y-106434459D01*
X153045863Y-106437222D01*
X153026402Y-106445758D01*
X152964822Y-106453434D01*
X152637775Y-106453434D01*
X152629176Y-106451999D01*
X152628429Y-106451999D01*
X152624540Y-106451225D01*
X152553022Y-106439291D01*
X152546328Y-106435668D01*
X152540248Y-106434459D01*
X152523865Y-106423512D01*
X152486690Y-106403394D01*
X152475397Y-106391126D01*
X152465492Y-106384508D01*
X152455399Y-106369403D01*
X152435604Y-106347900D01*
X152425233Y-106324258D01*
X152415541Y-106309752D01*
X152412778Y-106295863D01*
X152404242Y-106276402D01*
X152396566Y-106214822D01*
X152396566Y-105787775D01*
X152398001Y-105779176D01*
X152398001Y-105778429D01*
X152398775Y-105774540D01*
X152410709Y-105703022D01*
X152414332Y-105696328D01*
X152415541Y-105690248D01*
X152426488Y-105673865D01*
X152446606Y-105636690D01*
X152458874Y-105625397D01*
X152465492Y-105615492D01*
X152480597Y-105605399D01*
X152502100Y-105585604D01*
X152525742Y-105575233D01*
X152540248Y-105565541D01*
X152554137Y-105562778D01*
X152573598Y-105554242D01*
X152635178Y-105546566D01*
X152962225Y-105546566D01*
X152970824Y-105548001D01*
X152970824Y-105548001D01*
G37*
G36*
X148958327Y-104622878D02*
G01*
X149031544Y-104646566D01*
X149262225Y-104646566D01*
X149270824Y-104648001D01*
X149271571Y-104648001D01*
X149275460Y-104648775D01*
X149346978Y-104660709D01*
X149353672Y-104664332D01*
X149359752Y-104665541D01*
X149376135Y-104676488D01*
X149413310Y-104696606D01*
X149424603Y-104708874D01*
X149434508Y-104715492D01*
X149444601Y-104730597D01*
X149464396Y-104752100D01*
X149474767Y-104775742D01*
X149484459Y-104790248D01*
X149487222Y-104804137D01*
X149495758Y-104823598D01*
X149503434Y-104885178D01*
X149503434Y-105312225D01*
X149501999Y-105320824D01*
X149501999Y-105321571D01*
X149501225Y-105325460D01*
X149489291Y-105396978D01*
X149485668Y-105403672D01*
X149484459Y-105409752D01*
X149473512Y-105426135D01*
X149453394Y-105463310D01*
X149441126Y-105474603D01*
X149434508Y-105484508D01*
X149419403Y-105494601D01*
X149397900Y-105514396D01*
X149374258Y-105524767D01*
X149359752Y-105534459D01*
X149345863Y-105537222D01*
X149326402Y-105545758D01*
X149264822Y-105553434D01*
X148937775Y-105553434D01*
X148929176Y-105551999D01*
X148928429Y-105551999D01*
X148924540Y-105551225D01*
X148853022Y-105539291D01*
X148846328Y-105535668D01*
X148840248Y-105534459D01*
X148823865Y-105523512D01*
X148786690Y-105503394D01*
X148775397Y-105491126D01*
X148765492Y-105484508D01*
X148755399Y-105469403D01*
X148735604Y-105447900D01*
X148725233Y-105424258D01*
X148715541Y-105409752D01*
X148712778Y-105395863D01*
X148704242Y-105376402D01*
X148696566Y-105314822D01*
X148696566Y-104887775D01*
X148698001Y-104879176D01*
X148698001Y-104878429D01*
X148698775Y-104874540D01*
X148710709Y-104803022D01*
X148714332Y-104796328D01*
X148715541Y-104790248D01*
X148726488Y-104773865D01*
X148746606Y-104736690D01*
X148758874Y-104725397D01*
X148765492Y-104715492D01*
X148780597Y-104705399D01*
X148802100Y-104685604D01*
X148825743Y-104675233D01*
X148840248Y-104665541D01*
X148854136Y-104662779D01*
X148873597Y-104654242D01*
X148879663Y-104653486D01*
X148944269Y-104625436D01*
X148951703Y-104614333D01*
X148958327Y-104622878D01*
X148958327Y-104622878D01*
G37*
G36*
X150670824Y-104648001D02*
G01*
X150671571Y-104648001D01*
X150675460Y-104648775D01*
X150746978Y-104660709D01*
X150753672Y-104664332D01*
X150759752Y-104665541D01*
X150776135Y-104676488D01*
X150813310Y-104696606D01*
X150824603Y-104708874D01*
X150834508Y-104715492D01*
X150844601Y-104730597D01*
X150864396Y-104752100D01*
X150874767Y-104775742D01*
X150884459Y-104790248D01*
X150887222Y-104804137D01*
X150895758Y-104823598D01*
X150903434Y-104885178D01*
X150903434Y-105312225D01*
X150901999Y-105320824D01*
X150901999Y-105321571D01*
X150901225Y-105325460D01*
X150889291Y-105396978D01*
X150885668Y-105403672D01*
X150884459Y-105409752D01*
X150873512Y-105426135D01*
X150853394Y-105463310D01*
X150841126Y-105474603D01*
X150834508Y-105484508D01*
X150819403Y-105494601D01*
X150797900Y-105514396D01*
X150774258Y-105524767D01*
X150759752Y-105534459D01*
X150745863Y-105537222D01*
X150726402Y-105545758D01*
X150664822Y-105553434D01*
X150337775Y-105553434D01*
X150329176Y-105551999D01*
X150328429Y-105551999D01*
X150324540Y-105551225D01*
X150253022Y-105539291D01*
X150246328Y-105535668D01*
X150240248Y-105534459D01*
X150223865Y-105523512D01*
X150186690Y-105503394D01*
X150175397Y-105491126D01*
X150165492Y-105484508D01*
X150155399Y-105469403D01*
X150135604Y-105447900D01*
X150125233Y-105424258D01*
X150115541Y-105409752D01*
X150112778Y-105395863D01*
X150104242Y-105376402D01*
X150096566Y-105314822D01*
X150096566Y-104887775D01*
X150098001Y-104879176D01*
X150098001Y-104878429D01*
X150098775Y-104874540D01*
X150110709Y-104803022D01*
X150114332Y-104796328D01*
X150115541Y-104790248D01*
X150126488Y-104773865D01*
X150146606Y-104736690D01*
X150158874Y-104725397D01*
X150165492Y-104715492D01*
X150180597Y-104705399D01*
X150202100Y-104685604D01*
X150225742Y-104675233D01*
X150240248Y-104665541D01*
X150254137Y-104662778D01*
X150273598Y-104654242D01*
X150335178Y-104646566D01*
X150662225Y-104646566D01*
X150670824Y-104648001D01*
X150670824Y-104648001D01*
G37*
G36*
X143838360Y-102923835D02*
G01*
X143919397Y-102950166D01*
X144006663Y-102977848D01*
X144009655Y-102979493D01*
X144018488Y-102982363D01*
X144090466Y-103023919D01*
X144161499Y-103062970D01*
X144168986Y-103069253D01*
X144182511Y-103077061D01*
X144240259Y-103129057D01*
X144296857Y-103176549D01*
X144306962Y-103189118D01*
X144323261Y-103203793D01*
X144365454Y-103261867D01*
X144407579Y-103314260D01*
X144417994Y-103334182D01*
X144434586Y-103357019D01*
X144461297Y-103417012D01*
X144489439Y-103470843D01*
X144497582Y-103498510D01*
X144511621Y-103530042D01*
X144523992Y-103588241D01*
X144539328Y-103640349D01*
X144542518Y-103675401D01*
X144550999Y-103715301D01*
X144550999Y-103768592D01*
X144555343Y-103816324D01*
X144550999Y-103857653D01*
X144550999Y-103904699D01*
X144541217Y-103950721D01*
X144536873Y-103992047D01*
X144522702Y-104037827D01*
X144511621Y-104089958D01*
X144495028Y-104127226D01*
X144484622Y-104160843D01*
X144458789Y-104208620D01*
X144434586Y-104262981D01*
X144414298Y-104290905D01*
X144400580Y-104316276D01*
X144361859Y-104363082D01*
X144323261Y-104416207D01*
X144302284Y-104435095D01*
X144287952Y-104452419D01*
X144235845Y-104494917D01*
X144182511Y-104542939D01*
X144163524Y-104553901D01*
X144151025Y-104564095D01*
X144085780Y-104598786D01*
X144018488Y-104637637D01*
X144003636Y-104642463D01*
X143995003Y-104647053D01*
X143917430Y-104670473D01*
X143838360Y-104696165D01*
X143829114Y-104697137D01*
X143825851Y-104698122D01*
X143734710Y-104707059D01*
X143697211Y-104711000D01*
X143602789Y-104711000D01*
X143461640Y-104696165D01*
X143380603Y-104669834D01*
X143293337Y-104642152D01*
X143290345Y-104640507D01*
X143281512Y-104637637D01*
X143209534Y-104596081D01*
X143138501Y-104557030D01*
X143131014Y-104550747D01*
X143117489Y-104542939D01*
X143059741Y-104490943D01*
X143003143Y-104443451D01*
X142993038Y-104430882D01*
X142976739Y-104416207D01*
X142934546Y-104358133D01*
X142892421Y-104305740D01*
X142882006Y-104285818D01*
X142865414Y-104262981D01*
X142838703Y-104202988D01*
X142810561Y-104149157D01*
X142802418Y-104121490D01*
X142788379Y-104089958D01*
X142776008Y-104031759D01*
X142760672Y-103979651D01*
X142757482Y-103944599D01*
X142749001Y-103904699D01*
X142749001Y-103851408D01*
X142744657Y-103803676D01*
X142749001Y-103762347D01*
X142749001Y-103715301D01*
X142758783Y-103669279D01*
X142763127Y-103627953D01*
X142777298Y-103582173D01*
X142788379Y-103530042D01*
X142804972Y-103492774D01*
X142815378Y-103459157D01*
X142841211Y-103411380D01*
X142865414Y-103357019D01*
X142885702Y-103329095D01*
X142899420Y-103303724D01*
X142938141Y-103256918D01*
X142976739Y-103203793D01*
X142997716Y-103184905D01*
X143012048Y-103167581D01*
X143064155Y-103125083D01*
X143117489Y-103077061D01*
X143136476Y-103066099D01*
X143148975Y-103055905D01*
X143214220Y-103021214D01*
X143281512Y-102982363D01*
X143296364Y-102977537D01*
X143304997Y-102972947D01*
X143382570Y-102949527D01*
X143461640Y-102923835D01*
X143470886Y-102922863D01*
X143474149Y-102921878D01*
X143565290Y-102912941D01*
X143602789Y-102909000D01*
X143697211Y-102909000D01*
X143838360Y-102923835D01*
X143838360Y-102923835D01*
G37*
G36*
X156538360Y-102923835D02*
G01*
X156619397Y-102950166D01*
X156706663Y-102977848D01*
X156709655Y-102979493D01*
X156718488Y-102982363D01*
X156790466Y-103023919D01*
X156861499Y-103062970D01*
X156868986Y-103069253D01*
X156882511Y-103077061D01*
X156940259Y-103129057D01*
X156996857Y-103176549D01*
X157006962Y-103189118D01*
X157023261Y-103203793D01*
X157065454Y-103261867D01*
X157107579Y-103314260D01*
X157117994Y-103334182D01*
X157134586Y-103357019D01*
X157161297Y-103417012D01*
X157189439Y-103470843D01*
X157197582Y-103498510D01*
X157211621Y-103530042D01*
X157223992Y-103588241D01*
X157239328Y-103640349D01*
X157242518Y-103675401D01*
X157250999Y-103715301D01*
X157250999Y-103768592D01*
X157255343Y-103816324D01*
X157250999Y-103857653D01*
X157250999Y-103904699D01*
X157241217Y-103950721D01*
X157236873Y-103992047D01*
X157222702Y-104037827D01*
X157211621Y-104089958D01*
X157195028Y-104127226D01*
X157184622Y-104160843D01*
X157158789Y-104208620D01*
X157134586Y-104262981D01*
X157114298Y-104290905D01*
X157100580Y-104316276D01*
X157061859Y-104363082D01*
X157023261Y-104416207D01*
X157002284Y-104435095D01*
X156987952Y-104452419D01*
X156935845Y-104494917D01*
X156882511Y-104542939D01*
X156863524Y-104553901D01*
X156851025Y-104564095D01*
X156785780Y-104598786D01*
X156718488Y-104637637D01*
X156703636Y-104642463D01*
X156695003Y-104647053D01*
X156617430Y-104670473D01*
X156538360Y-104696165D01*
X156529114Y-104697137D01*
X156525851Y-104698122D01*
X156434710Y-104707059D01*
X156397211Y-104711000D01*
X156302789Y-104711000D01*
X156161640Y-104696165D01*
X156080603Y-104669834D01*
X155993337Y-104642152D01*
X155990345Y-104640507D01*
X155981512Y-104637637D01*
X155909534Y-104596081D01*
X155838501Y-104557030D01*
X155831014Y-104550747D01*
X155817489Y-104542939D01*
X155759741Y-104490943D01*
X155703143Y-104443451D01*
X155693038Y-104430882D01*
X155676739Y-104416207D01*
X155634546Y-104358133D01*
X155592421Y-104305740D01*
X155582006Y-104285818D01*
X155565414Y-104262981D01*
X155538703Y-104202988D01*
X155510561Y-104149157D01*
X155502418Y-104121490D01*
X155488379Y-104089958D01*
X155476008Y-104031759D01*
X155460672Y-103979651D01*
X155457482Y-103944599D01*
X155449001Y-103904699D01*
X155449001Y-103851408D01*
X155444657Y-103803676D01*
X155449001Y-103762347D01*
X155449001Y-103715301D01*
X155458783Y-103669279D01*
X155463127Y-103627953D01*
X155477298Y-103582173D01*
X155488379Y-103530042D01*
X155504972Y-103492774D01*
X155515378Y-103459157D01*
X155541211Y-103411380D01*
X155565414Y-103357019D01*
X155585702Y-103329095D01*
X155599420Y-103303724D01*
X155638141Y-103256918D01*
X155676739Y-103203793D01*
X155697716Y-103184905D01*
X155712048Y-103167581D01*
X155764155Y-103125083D01*
X155817489Y-103077061D01*
X155836476Y-103066099D01*
X155848975Y-103055905D01*
X155914220Y-103021214D01*
X155981512Y-102982363D01*
X155996364Y-102977537D01*
X156004997Y-102972947D01*
X156082570Y-102949527D01*
X156161640Y-102923835D01*
X156170886Y-102922863D01*
X156174149Y-102921878D01*
X156265290Y-102912941D01*
X156302789Y-102909000D01*
X156397211Y-102909000D01*
X156538360Y-102923835D01*
X156538360Y-102923835D01*
G37*
G36*
X149053760Y-103808134D02*
G01*
X149056020Y-103809533D01*
X149056958Y-103809720D01*
X149064997Y-103815091D01*
X149101953Y-103837973D01*
X149104714Y-103841630D01*
X149106906Y-103843094D01*
X149115248Y-103855578D01*
X149134303Y-103880812D01*
X149135495Y-103885881D01*
X149140280Y-103893042D01*
X149151999Y-103951959D01*
X149151999Y-103956050D01*
X149154448Y-103966462D01*
X149154448Y-104236456D01*
X149141866Y-104303760D01*
X149140467Y-104306020D01*
X149140280Y-104306958D01*
X149134909Y-104314997D01*
X149112027Y-104351953D01*
X149108370Y-104354714D01*
X149106906Y-104356906D01*
X149094422Y-104365248D01*
X149069188Y-104384303D01*
X149064119Y-104385495D01*
X149056958Y-104390280D01*
X148999838Y-104401642D01*
X148942207Y-104434380D01*
X148864202Y-104404448D01*
X148813544Y-104404448D01*
X148746240Y-104391866D01*
X148743980Y-104390467D01*
X148743042Y-104390280D01*
X148735003Y-104384909D01*
X148698047Y-104362027D01*
X148695286Y-104358370D01*
X148693094Y-104356906D01*
X148684752Y-104344422D01*
X148665697Y-104319188D01*
X148664505Y-104314119D01*
X148659720Y-104306958D01*
X148648001Y-104248041D01*
X148648001Y-104243950D01*
X148645552Y-104233538D01*
X148645552Y-103963544D01*
X148658134Y-103896240D01*
X148659533Y-103893980D01*
X148659720Y-103893042D01*
X148665091Y-103885003D01*
X148687973Y-103848047D01*
X148691630Y-103845286D01*
X148693094Y-103843094D01*
X148705578Y-103834752D01*
X148730812Y-103815697D01*
X148735881Y-103814505D01*
X148743042Y-103809720D01*
X148801959Y-103798001D01*
X148806050Y-103798001D01*
X148816462Y-103795552D01*
X148986456Y-103795552D01*
X149053760Y-103808134D01*
X149053760Y-103808134D01*
G37*
G36*
X148253760Y-103808134D02*
G01*
X148256020Y-103809533D01*
X148256958Y-103809720D01*
X148264997Y-103815091D01*
X148301953Y-103837973D01*
X148304714Y-103841630D01*
X148306906Y-103843094D01*
X148315248Y-103855578D01*
X148334303Y-103880812D01*
X148335495Y-103885881D01*
X148340280Y-103893042D01*
X148351999Y-103951959D01*
X148351999Y-103956050D01*
X148354448Y-103966462D01*
X148354448Y-104236456D01*
X148341866Y-104303760D01*
X148340467Y-104306020D01*
X148340280Y-104306958D01*
X148334909Y-104314997D01*
X148312027Y-104351953D01*
X148308370Y-104354714D01*
X148306906Y-104356906D01*
X148294422Y-104365248D01*
X148269188Y-104384303D01*
X148264119Y-104385495D01*
X148256958Y-104390280D01*
X148198041Y-104401999D01*
X148193950Y-104401999D01*
X148183538Y-104404448D01*
X148013544Y-104404448D01*
X147946240Y-104391866D01*
X147943980Y-104390467D01*
X147943042Y-104390280D01*
X147935003Y-104384909D01*
X147898047Y-104362027D01*
X147895286Y-104358370D01*
X147893094Y-104356906D01*
X147884752Y-104344422D01*
X147865697Y-104319188D01*
X147864505Y-104314119D01*
X147859720Y-104306958D01*
X147848001Y-104248041D01*
X147848001Y-104243950D01*
X147845552Y-104233538D01*
X147845552Y-103963544D01*
X147858134Y-103896240D01*
X147859533Y-103893980D01*
X147859720Y-103893042D01*
X147865091Y-103885003D01*
X147887973Y-103848047D01*
X147891630Y-103845286D01*
X147893094Y-103843094D01*
X147905578Y-103834752D01*
X147930812Y-103815697D01*
X147935881Y-103814505D01*
X147943042Y-103809720D01*
X148001959Y-103798001D01*
X148006050Y-103798001D01*
X148016462Y-103795552D01*
X148186456Y-103795552D01*
X148253760Y-103808134D01*
X148253760Y-103808134D01*
G37*
G36*
X146603760Y-103158134D02*
G01*
X146606020Y-103159533D01*
X146606958Y-103159720D01*
X146614997Y-103165091D01*
X146651953Y-103187973D01*
X146654714Y-103191630D01*
X146656906Y-103193094D01*
X146665248Y-103205578D01*
X146684303Y-103230812D01*
X146685495Y-103235881D01*
X146690280Y-103243042D01*
X146701999Y-103301959D01*
X146701999Y-103306050D01*
X146704448Y-103316462D01*
X146704448Y-103486456D01*
X146691866Y-103553760D01*
X146690467Y-103556020D01*
X146690280Y-103556958D01*
X146684909Y-103564997D01*
X146662027Y-103601953D01*
X146658370Y-103604714D01*
X146656906Y-103606906D01*
X146644422Y-103615248D01*
X146619188Y-103634303D01*
X146614119Y-103635495D01*
X146606958Y-103640280D01*
X146548041Y-103651999D01*
X146543950Y-103651999D01*
X146533538Y-103654448D01*
X146263544Y-103654448D01*
X146196240Y-103641866D01*
X146193980Y-103640467D01*
X146193042Y-103640280D01*
X146185003Y-103634909D01*
X146148047Y-103612027D01*
X146145286Y-103608370D01*
X146143094Y-103606906D01*
X146134752Y-103594422D01*
X146115697Y-103569188D01*
X146114505Y-103564119D01*
X146109720Y-103556958D01*
X146098001Y-103498041D01*
X146098001Y-103493950D01*
X146095552Y-103483538D01*
X146095552Y-103313544D01*
X146108134Y-103246240D01*
X146109533Y-103243980D01*
X146109720Y-103243042D01*
X146115091Y-103235003D01*
X146137973Y-103198047D01*
X146141630Y-103195286D01*
X146143094Y-103193094D01*
X146155578Y-103184752D01*
X146180812Y-103165697D01*
X146185881Y-103164505D01*
X146193042Y-103159720D01*
X146251959Y-103148001D01*
X146256050Y-103148001D01*
X146266462Y-103145552D01*
X146536456Y-103145552D01*
X146603760Y-103158134D01*
X146603760Y-103158134D01*
G37*
G36*
X148355561Y-97081809D02*
G01*
X148393104Y-97106895D01*
X148396067Y-97111329D01*
X148450111Y-97156495D01*
X148519995Y-97165272D01*
X148603933Y-97111329D01*
X148606896Y-97106895D01*
X148644439Y-97081809D01*
X148701034Y-97070552D01*
X148798966Y-97070552D01*
X148855561Y-97081809D01*
X148893104Y-97106895D01*
X148896067Y-97111329D01*
X148950111Y-97156495D01*
X149019995Y-97165272D01*
X149103933Y-97111329D01*
X149106896Y-97106895D01*
X149144439Y-97081809D01*
X149201034Y-97070552D01*
X149298966Y-97070552D01*
X149355561Y-97081809D01*
X149393104Y-97106895D01*
X149396067Y-97111329D01*
X149450111Y-97156495D01*
X149519995Y-97165272D01*
X149603933Y-97111329D01*
X149606896Y-97106895D01*
X149644439Y-97081809D01*
X149701034Y-97070552D01*
X149798966Y-97070552D01*
X149855561Y-97081809D01*
X149893104Y-97106895D01*
X149896067Y-97111329D01*
X149950111Y-97156495D01*
X150019995Y-97165272D01*
X150103933Y-97111329D01*
X150106896Y-97106895D01*
X150144439Y-97081809D01*
X150201034Y-97070552D01*
X150298966Y-97070552D01*
X150355561Y-97081809D01*
X150393104Y-97106895D01*
X150396067Y-97111329D01*
X150450111Y-97156495D01*
X150519995Y-97165272D01*
X150603933Y-97111329D01*
X150606896Y-97106895D01*
X150644439Y-97081809D01*
X150701034Y-97070552D01*
X150798966Y-97070552D01*
X150855561Y-97081809D01*
X150893104Y-97106895D01*
X150896067Y-97111329D01*
X150950111Y-97156495D01*
X151019995Y-97165272D01*
X151103933Y-97111329D01*
X151106896Y-97106895D01*
X151144439Y-97081809D01*
X151201034Y-97070552D01*
X151298966Y-97070552D01*
X151355561Y-97081809D01*
X151393104Y-97106895D01*
X151396067Y-97111329D01*
X151450111Y-97156495D01*
X151519995Y-97165272D01*
X151603933Y-97111329D01*
X151606896Y-97106895D01*
X151644439Y-97081809D01*
X151701034Y-97070552D01*
X151798966Y-97070552D01*
X151855561Y-97081809D01*
X151893105Y-97106895D01*
X151918191Y-97144439D01*
X151929448Y-97201034D01*
X151929448Y-97936276D01*
X151930692Y-97936276D01*
X151935826Y-97993626D01*
X151979036Y-98049246D01*
X152063724Y-98067669D01*
X152063724Y-98070552D01*
X152798966Y-98070552D01*
X152855561Y-98081809D01*
X152893105Y-98106895D01*
X152918191Y-98144439D01*
X152929448Y-98201034D01*
X152929448Y-98298966D01*
X152918191Y-98355561D01*
X152893105Y-98393104D01*
X152888671Y-98396067D01*
X152843505Y-98450111D01*
X152834728Y-98519995D01*
X152888671Y-98603933D01*
X152893105Y-98606896D01*
X152918191Y-98644439D01*
X152929448Y-98701034D01*
X152929448Y-98798966D01*
X152918191Y-98855561D01*
X152893105Y-98893104D01*
X152888671Y-98896067D01*
X152843505Y-98950111D01*
X152834728Y-99019995D01*
X152888671Y-99103933D01*
X152893105Y-99106896D01*
X152918191Y-99144439D01*
X152929448Y-99201034D01*
X152929448Y-99298966D01*
X152918191Y-99355561D01*
X152893105Y-99393104D01*
X152888671Y-99396067D01*
X152843505Y-99450111D01*
X152834728Y-99519995D01*
X152888671Y-99603933D01*
X152893105Y-99606896D01*
X152918191Y-99644439D01*
X152929448Y-99701034D01*
X152929448Y-99798966D01*
X152918191Y-99855561D01*
X152893105Y-99893104D01*
X152888671Y-99896067D01*
X152843505Y-99950111D01*
X152834728Y-100019995D01*
X152888671Y-100103933D01*
X152893105Y-100106896D01*
X152918191Y-100144439D01*
X152929448Y-100201034D01*
X152929448Y-100298966D01*
X152918191Y-100355561D01*
X152893105Y-100393104D01*
X152888671Y-100396067D01*
X152843505Y-100450111D01*
X152834728Y-100519995D01*
X152888671Y-100603933D01*
X152893105Y-100606896D01*
X152918191Y-100644439D01*
X152929448Y-100701034D01*
X152929448Y-100798966D01*
X152918191Y-100855561D01*
X152893105Y-100893104D01*
X152888671Y-100896067D01*
X152843505Y-100950111D01*
X152834728Y-101019995D01*
X152888671Y-101103933D01*
X152893105Y-101106896D01*
X152918191Y-101144439D01*
X152929448Y-101201034D01*
X152929448Y-101298966D01*
X152918191Y-101355561D01*
X152893105Y-101393104D01*
X152888671Y-101396067D01*
X152843505Y-101450111D01*
X152834728Y-101519995D01*
X152888671Y-101603933D01*
X152893105Y-101606896D01*
X152918191Y-101644439D01*
X152929448Y-101701034D01*
X152929448Y-101798966D01*
X152918191Y-101855561D01*
X152893105Y-101893105D01*
X152855561Y-101918191D01*
X152798966Y-101929448D01*
X152063724Y-101929448D01*
X152063724Y-101930692D01*
X152006374Y-101935826D01*
X151950754Y-101979036D01*
X151932331Y-102063724D01*
X151929448Y-102063724D01*
X151929448Y-102798966D01*
X151918191Y-102855561D01*
X151893105Y-102893105D01*
X151855561Y-102918191D01*
X151798966Y-102929448D01*
X151701034Y-102929448D01*
X151644439Y-102918191D01*
X151606896Y-102893105D01*
X151603933Y-102888671D01*
X151549889Y-102843505D01*
X151480005Y-102834728D01*
X151396067Y-102888671D01*
X151393104Y-102893105D01*
X151355561Y-102918191D01*
X151298966Y-102929448D01*
X151201034Y-102929448D01*
X151144439Y-102918191D01*
X151106896Y-102893105D01*
X151103933Y-102888671D01*
X151049889Y-102843505D01*
X150980005Y-102834728D01*
X150896067Y-102888671D01*
X150893104Y-102893105D01*
X150855561Y-102918191D01*
X150798966Y-102929448D01*
X150701034Y-102929448D01*
X150644439Y-102918191D01*
X150606896Y-102893105D01*
X150603933Y-102888671D01*
X150549889Y-102843505D01*
X150480005Y-102834728D01*
X150396067Y-102888671D01*
X150393104Y-102893105D01*
X150355561Y-102918191D01*
X150298966Y-102929448D01*
X150201034Y-102929448D01*
X150144439Y-102918191D01*
X150106896Y-102893105D01*
X150103933Y-102888671D01*
X150049889Y-102843505D01*
X149980005Y-102834728D01*
X149896067Y-102888671D01*
X149893104Y-102893105D01*
X149855561Y-102918191D01*
X149798966Y-102929448D01*
X149701034Y-102929448D01*
X149644439Y-102918191D01*
X149606896Y-102893105D01*
X149603933Y-102888671D01*
X149549889Y-102843505D01*
X149480005Y-102834728D01*
X149396067Y-102888671D01*
X149393104Y-102893105D01*
X149355561Y-102918191D01*
X149298966Y-102929448D01*
X149201034Y-102929448D01*
X149144439Y-102918191D01*
X149106896Y-102893105D01*
X149103933Y-102888671D01*
X149049889Y-102843505D01*
X148980005Y-102834728D01*
X148896067Y-102888671D01*
X148893104Y-102893105D01*
X148855561Y-102918191D01*
X148798966Y-102929448D01*
X148701034Y-102929448D01*
X148644439Y-102918191D01*
X148606896Y-102893105D01*
X148603933Y-102888671D01*
X148549889Y-102843505D01*
X148480005Y-102834728D01*
X148396067Y-102888671D01*
X148393104Y-102893105D01*
X148355561Y-102918191D01*
X148298966Y-102929448D01*
X148201034Y-102929448D01*
X148144439Y-102918191D01*
X148106895Y-102893105D01*
X148081809Y-102855561D01*
X148070552Y-102798966D01*
X148070552Y-102063724D01*
X148069308Y-102063724D01*
X148064174Y-102006374D01*
X148020964Y-101950754D01*
X147936276Y-101932331D01*
X147936276Y-101929448D01*
X147201034Y-101929448D01*
X147144439Y-101918191D01*
X147106895Y-101893105D01*
X147081809Y-101855561D01*
X147070552Y-101798966D01*
X147070552Y-101701034D01*
X147081809Y-101644439D01*
X147106895Y-101606896D01*
X147111329Y-101603933D01*
X147156495Y-101549889D01*
X147160249Y-101519994D01*
X147959727Y-101519994D01*
X148013672Y-101603933D01*
X148035433Y-101618473D01*
X148092470Y-101636332D01*
X148061323Y-101680071D01*
X148054448Y-101720955D01*
X148054448Y-101811276D01*
X148055692Y-101811276D01*
X148060826Y-101868626D01*
X148104036Y-101924246D01*
X148188724Y-101942669D01*
X148188724Y-101945552D01*
X148276858Y-101945552D01*
X148344438Y-101925709D01*
X148363846Y-101903311D01*
X148382747Y-101966393D01*
X148396068Y-101986329D01*
X148450112Y-102031495D01*
X148519996Y-102040272D01*
X148603932Y-101986330D01*
X148614815Y-101970043D01*
X148630177Y-101920982D01*
X148867126Y-101920982D01*
X148886919Y-101972637D01*
X148896066Y-101986327D01*
X148950109Y-102031494D01*
X149019992Y-102040273D01*
X149103934Y-101986327D01*
X149113081Y-101972637D01*
X149129254Y-101920982D01*
X149367126Y-101920982D01*
X149386919Y-101972637D01*
X149396066Y-101986327D01*
X149450109Y-102031494D01*
X149519992Y-102040273D01*
X149603934Y-101986327D01*
X149613081Y-101972637D01*
X149629254Y-101920982D01*
X149867126Y-101920982D01*
X149886919Y-101972637D01*
X149896066Y-101986327D01*
X149950109Y-102031494D01*
X150019992Y-102040273D01*
X150103934Y-101986327D01*
X150113081Y-101972637D01*
X150129254Y-101920982D01*
X150367126Y-101920982D01*
X150386919Y-101972637D01*
X150396066Y-101986327D01*
X150450109Y-102031494D01*
X150519992Y-102040273D01*
X150603934Y-101986327D01*
X150613081Y-101972637D01*
X150629254Y-101920982D01*
X150867126Y-101920982D01*
X150886919Y-101972637D01*
X150896066Y-101986327D01*
X150950109Y-102031494D01*
X151019992Y-102040273D01*
X151103934Y-101986327D01*
X151113081Y-101972637D01*
X151134126Y-101905422D01*
X151124443Y-101870126D01*
X151367349Y-101870126D01*
X151384791Y-101969452D01*
X151396067Y-101986328D01*
X151450110Y-102031494D01*
X151519994Y-102040273D01*
X151603933Y-101986328D01*
X151618473Y-101964567D01*
X151636332Y-101907530D01*
X151680071Y-101938677D01*
X151720955Y-101945552D01*
X151811276Y-101945552D01*
X151811276Y-101944308D01*
X151868626Y-101939174D01*
X151924246Y-101895964D01*
X151942669Y-101811276D01*
X151945552Y-101811276D01*
X151945552Y-101723142D01*
X151925709Y-101655562D01*
X151903311Y-101636154D01*
X151966393Y-101617253D01*
X151986329Y-101603932D01*
X152031495Y-101549888D01*
X152040272Y-101480004D01*
X151986330Y-101396068D01*
X151970043Y-101385185D01*
X151902829Y-101364138D01*
X151834906Y-101382771D01*
X151787839Y-101435168D01*
X151776994Y-101470483D01*
X151773345Y-101494687D01*
X151782892Y-101564469D01*
X151814156Y-101601053D01*
X151802764Y-101599415D01*
X151728922Y-101638122D01*
X151705152Y-101663740D01*
X151696964Y-101676964D01*
X151683326Y-101687263D01*
X151661987Y-101710261D01*
X151658456Y-101712300D01*
X151609852Y-101763275D01*
X151600611Y-101811218D01*
X151568487Y-101782363D01*
X151491300Y-101772302D01*
X151485398Y-101773419D01*
X151470669Y-101776883D01*
X151467091Y-101776883D01*
X151465484Y-101777187D01*
X151402772Y-101809249D01*
X151367349Y-101870126D01*
X151124443Y-101870126D01*
X151115491Y-101837499D01*
X151063093Y-101790434D01*
X151009147Y-101778194D01*
X150990853Y-101778194D01*
X150923273Y-101798037D01*
X150877150Y-101851267D01*
X150867126Y-101920982D01*
X150629254Y-101920982D01*
X150634126Y-101905422D01*
X150615491Y-101837499D01*
X150563093Y-101790434D01*
X150509147Y-101778194D01*
X150490853Y-101778194D01*
X150423273Y-101798037D01*
X150377150Y-101851267D01*
X150367126Y-101920982D01*
X150129254Y-101920982D01*
X150134126Y-101905422D01*
X150115491Y-101837499D01*
X150063093Y-101790434D01*
X150009147Y-101778194D01*
X149990853Y-101778194D01*
X149923273Y-101798037D01*
X149877150Y-101851267D01*
X149867126Y-101920982D01*
X149629254Y-101920982D01*
X149634126Y-101905422D01*
X149615491Y-101837499D01*
X149563093Y-101790434D01*
X149509147Y-101778194D01*
X149490853Y-101778194D01*
X149423273Y-101798037D01*
X149377150Y-101851267D01*
X149367126Y-101920982D01*
X149129254Y-101920982D01*
X149134126Y-101905422D01*
X149115491Y-101837499D01*
X149063093Y-101790434D01*
X149009147Y-101778194D01*
X148990853Y-101778194D01*
X148923273Y-101798037D01*
X148877150Y-101851267D01*
X148867126Y-101920982D01*
X148630177Y-101920982D01*
X148635862Y-101902829D01*
X148617229Y-101834906D01*
X148564832Y-101787839D01*
X148529517Y-101776994D01*
X148505313Y-101773345D01*
X148435531Y-101782892D01*
X148398947Y-101814156D01*
X148400585Y-101802764D01*
X148361878Y-101728922D01*
X148336260Y-101705152D01*
X148323036Y-101696964D01*
X148312737Y-101683326D01*
X148289739Y-101661987D01*
X148287700Y-101658456D01*
X148236725Y-101609852D01*
X148188782Y-101600611D01*
X148217637Y-101568487D01*
X148227698Y-101491300D01*
X148226581Y-101485398D01*
X148223117Y-101470669D01*
X148223117Y-101467091D01*
X148222813Y-101465484D01*
X148190751Y-101402772D01*
X148129874Y-101367349D01*
X148030548Y-101384791D01*
X148013672Y-101396067D01*
X147968506Y-101450110D01*
X147959727Y-101519994D01*
X147160249Y-101519994D01*
X147165272Y-101480005D01*
X147111329Y-101396067D01*
X147106895Y-101393104D01*
X147081809Y-101355561D01*
X147070552Y-101298966D01*
X147070552Y-101201034D01*
X147081809Y-101144439D01*
X147106895Y-101106896D01*
X147111329Y-101103933D01*
X147156495Y-101049889D01*
X147160249Y-101019992D01*
X147959727Y-101019992D01*
X148013673Y-101103934D01*
X148027363Y-101113081D01*
X148094578Y-101134126D01*
X148162501Y-101115491D01*
X148209566Y-101063093D01*
X148221806Y-101009147D01*
X148221806Y-100990853D01*
X151778194Y-100990853D01*
X151778194Y-101009147D01*
X151798037Y-101076727D01*
X151851267Y-101122850D01*
X151920982Y-101132874D01*
X151972637Y-101113081D01*
X151986327Y-101103934D01*
X152031494Y-101049891D01*
X152040273Y-100980008D01*
X151986327Y-100896066D01*
X151972637Y-100886919D01*
X151905422Y-100865874D01*
X151837499Y-100884509D01*
X151790434Y-100936907D01*
X151778194Y-100990853D01*
X148221806Y-100990853D01*
X148201963Y-100923273D01*
X148148733Y-100877150D01*
X148079018Y-100867126D01*
X148027363Y-100886919D01*
X148013673Y-100896066D01*
X147968506Y-100950109D01*
X147959727Y-101019992D01*
X147160249Y-101019992D01*
X147165272Y-100980005D01*
X147111329Y-100896067D01*
X147106895Y-100893104D01*
X147081809Y-100855561D01*
X147070552Y-100798966D01*
X147070552Y-100701034D01*
X147081809Y-100644439D01*
X147106895Y-100606896D01*
X147111329Y-100603933D01*
X147156495Y-100549889D01*
X147160249Y-100519992D01*
X147959727Y-100519992D01*
X148013673Y-100603934D01*
X148027363Y-100613081D01*
X148094578Y-100634126D01*
X148162501Y-100615491D01*
X148209566Y-100563093D01*
X148221806Y-100509147D01*
X148221806Y-100490853D01*
X151778194Y-100490853D01*
X151778194Y-100509147D01*
X151798037Y-100576727D01*
X151851267Y-100622850D01*
X151920982Y-100632874D01*
X151972637Y-100613081D01*
X151986327Y-100603934D01*
X152031494Y-100549891D01*
X152040273Y-100480008D01*
X151986327Y-100396066D01*
X151972637Y-100386919D01*
X151905422Y-100365874D01*
X151837499Y-100384509D01*
X151790434Y-100436907D01*
X151778194Y-100490853D01*
X148221806Y-100490853D01*
X148201963Y-100423273D01*
X148148733Y-100377150D01*
X148079018Y-100367126D01*
X148027363Y-100386919D01*
X148013673Y-100396066D01*
X147968506Y-100450109D01*
X147959727Y-100519992D01*
X147160249Y-100519992D01*
X147165272Y-100480005D01*
X147111329Y-100396067D01*
X147106895Y-100393104D01*
X147081809Y-100355561D01*
X147070552Y-100298966D01*
X147070552Y-100201034D01*
X147081809Y-100144439D01*
X147106895Y-100106896D01*
X147111329Y-100103933D01*
X147156495Y-100049889D01*
X147160249Y-100019992D01*
X147959727Y-100019992D01*
X148013673Y-100103934D01*
X148027363Y-100113081D01*
X148094578Y-100134126D01*
X148162501Y-100115491D01*
X148209566Y-100063093D01*
X148221806Y-100009147D01*
X148221806Y-99990853D01*
X151778194Y-99990853D01*
X151778194Y-100009147D01*
X151798037Y-100076727D01*
X151851267Y-100122850D01*
X151920982Y-100132874D01*
X151972637Y-100113081D01*
X151986327Y-100103934D01*
X152031494Y-100049891D01*
X152040273Y-99980008D01*
X151986327Y-99896066D01*
X151972637Y-99886919D01*
X151905422Y-99865874D01*
X151837499Y-99884509D01*
X151790434Y-99936907D01*
X151778194Y-99990853D01*
X148221806Y-99990853D01*
X148201963Y-99923273D01*
X148148733Y-99877150D01*
X148079018Y-99867126D01*
X148027363Y-99886919D01*
X148013673Y-99896066D01*
X147968506Y-99950109D01*
X147959727Y-100019992D01*
X147160249Y-100019992D01*
X147165272Y-99980005D01*
X147111329Y-99896067D01*
X147106895Y-99893104D01*
X147081809Y-99855561D01*
X147070552Y-99798966D01*
X147070552Y-99701034D01*
X147081809Y-99644439D01*
X147106895Y-99606896D01*
X147111329Y-99603933D01*
X147156495Y-99549889D01*
X147160249Y-99519992D01*
X147959727Y-99519992D01*
X148013673Y-99603934D01*
X148027363Y-99613081D01*
X148094578Y-99634126D01*
X148162501Y-99615491D01*
X148209566Y-99563093D01*
X148221806Y-99509147D01*
X148221806Y-99490853D01*
X151778194Y-99490853D01*
X151778194Y-99509147D01*
X151798037Y-99576727D01*
X151851267Y-99622850D01*
X151920982Y-99632874D01*
X151972637Y-99613081D01*
X151986327Y-99603934D01*
X152031494Y-99549891D01*
X152040273Y-99480008D01*
X151986327Y-99396066D01*
X151972637Y-99386919D01*
X151905422Y-99365874D01*
X151837499Y-99384509D01*
X151790434Y-99436907D01*
X151778194Y-99490853D01*
X148221806Y-99490853D01*
X148201963Y-99423273D01*
X148148733Y-99377150D01*
X148079018Y-99367126D01*
X148027363Y-99386919D01*
X148013673Y-99396066D01*
X147968506Y-99450109D01*
X147959727Y-99519992D01*
X147160249Y-99519992D01*
X147165272Y-99480005D01*
X147111329Y-99396067D01*
X147106895Y-99393104D01*
X147081809Y-99355561D01*
X147070552Y-99298966D01*
X147070552Y-99201034D01*
X147081809Y-99144439D01*
X147106895Y-99106896D01*
X147111329Y-99103933D01*
X147156495Y-99049889D01*
X147160249Y-99019992D01*
X147959727Y-99019992D01*
X148013673Y-99103934D01*
X148027363Y-99113081D01*
X148094578Y-99134126D01*
X148162501Y-99115491D01*
X148209566Y-99063093D01*
X148221806Y-99009147D01*
X148221806Y-98990853D01*
X151778194Y-98990853D01*
X151778194Y-99009147D01*
X151798037Y-99076727D01*
X151851267Y-99122850D01*
X151920982Y-99132874D01*
X151972637Y-99113081D01*
X151986327Y-99103934D01*
X152031494Y-99049891D01*
X152040273Y-98980008D01*
X151986327Y-98896066D01*
X151972637Y-98886919D01*
X151905422Y-98865874D01*
X151837499Y-98884509D01*
X151790434Y-98936907D01*
X151778194Y-98990853D01*
X148221806Y-98990853D01*
X148201963Y-98923273D01*
X148148733Y-98877150D01*
X148079018Y-98867126D01*
X148027363Y-98886919D01*
X148013673Y-98896066D01*
X147968506Y-98950109D01*
X147959727Y-99019992D01*
X147160249Y-99019992D01*
X147165272Y-98980005D01*
X147111329Y-98896067D01*
X147106895Y-98893104D01*
X147081809Y-98855561D01*
X147070552Y-98798966D01*
X147070552Y-98701034D01*
X147081809Y-98644439D01*
X147106895Y-98606896D01*
X147111329Y-98603933D01*
X147156495Y-98549889D01*
X147160249Y-98519996D01*
X147959728Y-98519996D01*
X148013670Y-98603932D01*
X148029957Y-98614815D01*
X148097171Y-98635862D01*
X148165094Y-98617229D01*
X148212161Y-98564832D01*
X148223006Y-98529517D01*
X148226655Y-98505313D01*
X148217108Y-98435531D01*
X148185844Y-98398947D01*
X148197236Y-98400585D01*
X148271078Y-98361878D01*
X148294848Y-98336260D01*
X148303036Y-98323036D01*
X148316674Y-98312737D01*
X148338013Y-98289739D01*
X148341544Y-98287700D01*
X148390148Y-98236725D01*
X148399389Y-98188782D01*
X148431513Y-98217637D01*
X148508700Y-98227698D01*
X148514602Y-98226581D01*
X148529331Y-98223117D01*
X148532909Y-98223117D01*
X148534516Y-98222813D01*
X148597228Y-98190751D01*
X148632651Y-98129874D01*
X148626453Y-98094578D01*
X148865874Y-98094578D01*
X148884509Y-98162501D01*
X148936907Y-98209566D01*
X148990853Y-98221806D01*
X149009147Y-98221806D01*
X149076727Y-98201963D01*
X149122850Y-98148733D01*
X149130636Y-98094578D01*
X149365874Y-98094578D01*
X149384509Y-98162501D01*
X149436907Y-98209566D01*
X149490853Y-98221806D01*
X149509147Y-98221806D01*
X149576727Y-98201963D01*
X149622850Y-98148733D01*
X149630636Y-98094578D01*
X149865874Y-98094578D01*
X149884509Y-98162501D01*
X149936907Y-98209566D01*
X149990853Y-98221806D01*
X150009147Y-98221806D01*
X150076727Y-98201963D01*
X150122850Y-98148733D01*
X150130636Y-98094578D01*
X150365874Y-98094578D01*
X150384509Y-98162501D01*
X150436907Y-98209566D01*
X150490853Y-98221806D01*
X150509147Y-98221806D01*
X150576727Y-98201963D01*
X150622850Y-98148733D01*
X150630636Y-98094578D01*
X150865874Y-98094578D01*
X150884509Y-98162501D01*
X150936907Y-98209566D01*
X150990853Y-98221806D01*
X151009147Y-98221806D01*
X151076727Y-98201963D01*
X151122850Y-98148733D01*
X151130263Y-98097171D01*
X151364138Y-98097171D01*
X151382771Y-98165094D01*
X151435168Y-98212161D01*
X151470483Y-98223006D01*
X151494687Y-98226655D01*
X151564469Y-98217108D01*
X151601053Y-98185844D01*
X151599415Y-98197236D01*
X151638122Y-98271078D01*
X151663740Y-98294848D01*
X151676964Y-98303036D01*
X151687263Y-98316674D01*
X151710261Y-98338013D01*
X151712300Y-98341544D01*
X151763275Y-98390148D01*
X151811218Y-98399389D01*
X151782363Y-98431513D01*
X151772302Y-98508700D01*
X151773419Y-98514602D01*
X151776883Y-98529331D01*
X151776883Y-98532909D01*
X151777187Y-98534516D01*
X151809249Y-98597228D01*
X151870126Y-98632651D01*
X151969452Y-98615209D01*
X151986328Y-98603933D01*
X152031494Y-98549890D01*
X152040273Y-98480006D01*
X151986328Y-98396067D01*
X151964567Y-98381527D01*
X151907530Y-98363668D01*
X151938677Y-98319929D01*
X151945552Y-98279045D01*
X151945552Y-98188724D01*
X151944308Y-98188724D01*
X151939174Y-98131374D01*
X151895964Y-98075754D01*
X151811276Y-98057331D01*
X151811276Y-98054448D01*
X151723142Y-98054448D01*
X151655562Y-98074291D01*
X151636154Y-98096689D01*
X151617253Y-98033607D01*
X151603932Y-98013671D01*
X151549888Y-97968505D01*
X151480004Y-97959728D01*
X151396068Y-98013670D01*
X151385185Y-98029957D01*
X151364138Y-98097171D01*
X151130263Y-98097171D01*
X151132874Y-98079018D01*
X151113081Y-98027363D01*
X151103934Y-98013673D01*
X151049891Y-97968506D01*
X150980008Y-97959727D01*
X150896066Y-98013673D01*
X150886919Y-98027363D01*
X150865874Y-98094578D01*
X150630636Y-98094578D01*
X150632874Y-98079018D01*
X150613081Y-98027363D01*
X150603934Y-98013673D01*
X150549891Y-97968506D01*
X150480008Y-97959727D01*
X150396066Y-98013673D01*
X150386919Y-98027363D01*
X150365874Y-98094578D01*
X150130636Y-98094578D01*
X150132874Y-98079018D01*
X150113081Y-98027363D01*
X150103934Y-98013673D01*
X150049891Y-97968506D01*
X149980008Y-97959727D01*
X149896066Y-98013673D01*
X149886919Y-98027363D01*
X149865874Y-98094578D01*
X149630636Y-98094578D01*
X149632874Y-98079018D01*
X149613081Y-98027363D01*
X149603934Y-98013673D01*
X149549891Y-97968506D01*
X149480008Y-97959727D01*
X149396066Y-98013673D01*
X149386919Y-98027363D01*
X149365874Y-98094578D01*
X149130636Y-98094578D01*
X149132874Y-98079018D01*
X149113081Y-98027363D01*
X149103934Y-98013673D01*
X149049891Y-97968506D01*
X148980008Y-97959727D01*
X148896066Y-98013673D01*
X148886919Y-98027363D01*
X148865874Y-98094578D01*
X148626453Y-98094578D01*
X148615209Y-98030548D01*
X148603933Y-98013672D01*
X148549890Y-97968506D01*
X148480006Y-97959727D01*
X148396067Y-98013672D01*
X148381527Y-98035433D01*
X148363668Y-98092470D01*
X148319929Y-98061323D01*
X148279045Y-98054448D01*
X148188724Y-98054448D01*
X148188724Y-98055692D01*
X148131374Y-98060826D01*
X148075754Y-98104036D01*
X148057331Y-98188724D01*
X148054448Y-98188724D01*
X148054448Y-98276858D01*
X148074291Y-98344438D01*
X148096689Y-98363846D01*
X148033607Y-98382747D01*
X148013671Y-98396068D01*
X147968505Y-98450112D01*
X147959728Y-98519996D01*
X147160249Y-98519996D01*
X147165272Y-98480005D01*
X147111329Y-98396067D01*
X147106895Y-98393104D01*
X147081809Y-98355561D01*
X147070552Y-98298966D01*
X147070552Y-98201034D01*
X147081809Y-98144439D01*
X147106895Y-98106895D01*
X147144439Y-98081809D01*
X147201034Y-98070552D01*
X147936276Y-98070552D01*
X147936276Y-98069308D01*
X147993626Y-98064174D01*
X148049246Y-98020964D01*
X148067669Y-97936276D01*
X148070552Y-97936276D01*
X148070552Y-97201034D01*
X148081809Y-97144439D01*
X148106895Y-97106895D01*
X148144439Y-97081809D01*
X148201034Y-97070552D01*
X148298966Y-97070552D01*
X148355561Y-97081809D01*
X148355561Y-97081809D01*
G37*
G36*
X146603760Y-102358134D02*
G01*
X146606020Y-102359533D01*
X146606958Y-102359720D01*
X146614997Y-102365091D01*
X146651953Y-102387973D01*
X146654714Y-102391630D01*
X146656906Y-102393094D01*
X146665248Y-102405578D01*
X146684303Y-102430812D01*
X146685495Y-102435881D01*
X146690280Y-102443042D01*
X146701999Y-102501959D01*
X146701999Y-102506050D01*
X146704448Y-102516462D01*
X146704448Y-102686456D01*
X146691866Y-102753760D01*
X146690467Y-102756020D01*
X146690280Y-102756958D01*
X146684909Y-102764997D01*
X146662027Y-102801953D01*
X146658370Y-102804714D01*
X146656906Y-102806906D01*
X146644422Y-102815248D01*
X146619188Y-102834303D01*
X146614119Y-102835495D01*
X146606958Y-102840280D01*
X146548041Y-102851999D01*
X146543950Y-102851999D01*
X146533538Y-102854448D01*
X146263544Y-102854448D01*
X146196240Y-102841866D01*
X146193980Y-102840467D01*
X146193042Y-102840280D01*
X146185003Y-102834909D01*
X146148047Y-102812027D01*
X146145286Y-102808370D01*
X146143094Y-102806906D01*
X146134752Y-102794422D01*
X146115697Y-102769188D01*
X146114505Y-102764119D01*
X146109720Y-102756958D01*
X146098001Y-102698041D01*
X146098001Y-102693950D01*
X146095552Y-102683538D01*
X146095552Y-102513544D01*
X146108134Y-102446240D01*
X146109533Y-102443980D01*
X146109720Y-102443042D01*
X146115091Y-102435003D01*
X146137973Y-102398047D01*
X146141630Y-102395286D01*
X146143094Y-102393094D01*
X146155578Y-102384752D01*
X146180812Y-102365697D01*
X146185881Y-102364505D01*
X146193042Y-102359720D01*
X146251959Y-102348001D01*
X146256050Y-102348001D01*
X146266462Y-102345552D01*
X146536456Y-102345552D01*
X146603760Y-102358134D01*
X146603760Y-102358134D01*
G37*
G36*
X156538360Y-100383835D02*
G01*
X156619397Y-100410166D01*
X156706663Y-100437848D01*
X156709655Y-100439493D01*
X156718488Y-100442363D01*
X156790466Y-100483919D01*
X156861499Y-100522970D01*
X156868986Y-100529253D01*
X156882511Y-100537061D01*
X156940259Y-100589057D01*
X156996857Y-100636549D01*
X157006962Y-100649118D01*
X157023261Y-100663793D01*
X157065454Y-100721867D01*
X157107579Y-100774260D01*
X157117994Y-100794182D01*
X157134586Y-100817019D01*
X157161297Y-100877012D01*
X157189439Y-100930843D01*
X157197582Y-100958510D01*
X157211621Y-100990042D01*
X157223992Y-101048241D01*
X157239328Y-101100349D01*
X157242518Y-101135401D01*
X157250999Y-101175301D01*
X157250999Y-101228592D01*
X157255343Y-101276324D01*
X157250999Y-101317653D01*
X157250999Y-101364699D01*
X157241217Y-101410721D01*
X157236873Y-101452047D01*
X157222702Y-101497827D01*
X157211621Y-101549958D01*
X157195028Y-101587226D01*
X157184622Y-101620843D01*
X157158789Y-101668620D01*
X157134586Y-101722981D01*
X157114298Y-101750905D01*
X157100580Y-101776276D01*
X157061859Y-101823082D01*
X157023261Y-101876207D01*
X157002284Y-101895095D01*
X156987952Y-101912419D01*
X156935845Y-101954917D01*
X156882511Y-102002939D01*
X156863524Y-102013901D01*
X156851025Y-102024095D01*
X156785780Y-102058786D01*
X156718488Y-102097637D01*
X156703636Y-102102463D01*
X156695003Y-102107053D01*
X156617430Y-102130473D01*
X156538360Y-102156165D01*
X156529114Y-102157137D01*
X156525851Y-102158122D01*
X156434710Y-102167059D01*
X156397211Y-102171000D01*
X156302789Y-102171000D01*
X156161640Y-102156165D01*
X156080603Y-102129834D01*
X155993337Y-102102152D01*
X155990345Y-102100507D01*
X155981512Y-102097637D01*
X155909534Y-102056081D01*
X155838501Y-102017030D01*
X155831014Y-102010747D01*
X155817489Y-102002939D01*
X155759741Y-101950943D01*
X155703143Y-101903451D01*
X155693038Y-101890882D01*
X155676739Y-101876207D01*
X155634546Y-101818133D01*
X155592421Y-101765740D01*
X155582006Y-101745818D01*
X155565414Y-101722981D01*
X155538703Y-101662988D01*
X155510561Y-101609157D01*
X155502418Y-101581490D01*
X155488379Y-101549958D01*
X155476008Y-101491759D01*
X155460672Y-101439651D01*
X155457482Y-101404599D01*
X155449001Y-101364699D01*
X155449001Y-101311408D01*
X155444657Y-101263676D01*
X155449001Y-101222347D01*
X155449001Y-101175301D01*
X155458783Y-101129279D01*
X155463127Y-101087953D01*
X155477298Y-101042173D01*
X155488379Y-100990042D01*
X155504972Y-100952774D01*
X155515378Y-100919157D01*
X155541211Y-100871380D01*
X155565414Y-100817019D01*
X155585702Y-100789095D01*
X155599420Y-100763724D01*
X155638141Y-100716918D01*
X155676739Y-100663793D01*
X155697716Y-100644905D01*
X155712048Y-100627581D01*
X155764155Y-100585083D01*
X155817489Y-100537061D01*
X155836476Y-100526099D01*
X155848975Y-100515905D01*
X155914220Y-100481214D01*
X155981512Y-100442363D01*
X155996364Y-100437537D01*
X156004997Y-100432947D01*
X156082570Y-100409527D01*
X156161640Y-100383835D01*
X156170886Y-100382863D01*
X156174149Y-100381878D01*
X156265290Y-100372941D01*
X156302789Y-100369000D01*
X156397211Y-100369000D01*
X156538360Y-100383835D01*
X156538360Y-100383835D01*
G37*
G36*
X143838360Y-100383835D02*
G01*
X143919397Y-100410166D01*
X144006663Y-100437848D01*
X144009655Y-100439493D01*
X144018488Y-100442363D01*
X144090466Y-100483919D01*
X144161499Y-100522970D01*
X144168986Y-100529253D01*
X144182511Y-100537061D01*
X144240259Y-100589057D01*
X144296857Y-100636549D01*
X144306962Y-100649118D01*
X144323261Y-100663793D01*
X144365454Y-100721867D01*
X144407579Y-100774260D01*
X144417994Y-100794182D01*
X144434586Y-100817019D01*
X144461297Y-100877012D01*
X144489439Y-100930843D01*
X144497582Y-100958510D01*
X144511621Y-100990042D01*
X144523992Y-101048241D01*
X144539328Y-101100349D01*
X144542518Y-101135401D01*
X144550999Y-101175301D01*
X144550999Y-101228592D01*
X144555343Y-101276324D01*
X144550999Y-101317653D01*
X144550999Y-101364699D01*
X144541217Y-101410721D01*
X144536873Y-101452047D01*
X144522702Y-101497827D01*
X144511621Y-101549958D01*
X144495028Y-101587226D01*
X144484622Y-101620843D01*
X144458789Y-101668620D01*
X144434586Y-101722981D01*
X144414298Y-101750905D01*
X144400580Y-101776276D01*
X144361859Y-101823082D01*
X144323261Y-101876207D01*
X144302284Y-101895095D01*
X144287952Y-101912419D01*
X144235845Y-101954917D01*
X144182511Y-102002939D01*
X144163524Y-102013901D01*
X144151025Y-102024095D01*
X144085780Y-102058786D01*
X144018488Y-102097637D01*
X144003636Y-102102463D01*
X143995003Y-102107053D01*
X143917430Y-102130473D01*
X143838360Y-102156165D01*
X143829114Y-102157137D01*
X143825851Y-102158122D01*
X143734710Y-102167059D01*
X143697211Y-102171000D01*
X143602789Y-102171000D01*
X143461640Y-102156165D01*
X143380603Y-102129834D01*
X143293337Y-102102152D01*
X143290345Y-102100507D01*
X143281512Y-102097637D01*
X143209534Y-102056081D01*
X143138501Y-102017030D01*
X143131014Y-102010747D01*
X143117489Y-102002939D01*
X143059741Y-101950943D01*
X143003143Y-101903451D01*
X142993038Y-101890882D01*
X142976739Y-101876207D01*
X142934546Y-101818133D01*
X142892421Y-101765740D01*
X142882006Y-101745818D01*
X142865414Y-101722981D01*
X142838703Y-101662988D01*
X142810561Y-101609157D01*
X142802418Y-101581490D01*
X142788379Y-101549958D01*
X142776008Y-101491759D01*
X142760672Y-101439651D01*
X142757482Y-101404599D01*
X142749001Y-101364699D01*
X142749001Y-101311408D01*
X142744657Y-101263676D01*
X142749001Y-101222347D01*
X142749001Y-101175301D01*
X142758783Y-101129279D01*
X142763127Y-101087953D01*
X142777298Y-101042173D01*
X142788379Y-100990042D01*
X142804972Y-100952774D01*
X142815378Y-100919157D01*
X142841211Y-100871380D01*
X142865414Y-100817019D01*
X142885702Y-100789095D01*
X142899420Y-100763724D01*
X142938141Y-100716918D01*
X142976739Y-100663793D01*
X142997716Y-100644905D01*
X143012048Y-100627581D01*
X143064155Y-100585083D01*
X143117489Y-100537061D01*
X143136476Y-100526099D01*
X143148975Y-100515905D01*
X143214220Y-100481214D01*
X143281512Y-100442363D01*
X143296364Y-100437537D01*
X143304997Y-100432947D01*
X143382570Y-100409527D01*
X143461640Y-100383835D01*
X143470886Y-100382863D01*
X143474149Y-100381878D01*
X143565290Y-100372941D01*
X143602789Y-100369000D01*
X143697211Y-100369000D01*
X143838360Y-100383835D01*
X143838360Y-100383835D01*
G37*
G36*
X156538360Y-97843835D02*
G01*
X156619397Y-97870166D01*
X156706663Y-97897848D01*
X156709655Y-97899493D01*
X156718488Y-97902363D01*
X156790466Y-97943919D01*
X156861499Y-97982970D01*
X156868986Y-97989253D01*
X156882511Y-97997061D01*
X156940259Y-98049057D01*
X156996857Y-98096549D01*
X157006962Y-98109118D01*
X157023261Y-98123793D01*
X157065454Y-98181867D01*
X157107579Y-98234260D01*
X157117994Y-98254182D01*
X157134586Y-98277019D01*
X157161297Y-98337012D01*
X157189439Y-98390843D01*
X157197582Y-98418510D01*
X157211621Y-98450042D01*
X157223992Y-98508241D01*
X157239328Y-98560349D01*
X157242518Y-98595401D01*
X157250999Y-98635301D01*
X157250999Y-98688592D01*
X157255343Y-98736324D01*
X157250999Y-98777653D01*
X157250999Y-98824699D01*
X157241217Y-98870721D01*
X157236873Y-98912047D01*
X157222702Y-98957827D01*
X157211621Y-99009958D01*
X157195028Y-99047226D01*
X157184622Y-99080843D01*
X157158789Y-99128620D01*
X157134586Y-99182981D01*
X157114298Y-99210905D01*
X157100580Y-99236276D01*
X157061859Y-99283082D01*
X157023261Y-99336207D01*
X157002284Y-99355095D01*
X156987952Y-99372419D01*
X156935845Y-99414917D01*
X156882511Y-99462939D01*
X156863524Y-99473901D01*
X156851025Y-99484095D01*
X156785780Y-99518786D01*
X156718488Y-99557637D01*
X156703636Y-99562463D01*
X156695003Y-99567053D01*
X156617430Y-99590473D01*
X156538360Y-99616165D01*
X156529114Y-99617137D01*
X156525851Y-99618122D01*
X156434710Y-99627059D01*
X156397211Y-99631000D01*
X156302789Y-99631000D01*
X156161640Y-99616165D01*
X156080603Y-99589834D01*
X155993337Y-99562152D01*
X155990345Y-99560507D01*
X155981512Y-99557637D01*
X155909534Y-99516081D01*
X155838501Y-99477030D01*
X155831014Y-99470747D01*
X155817489Y-99462939D01*
X155759741Y-99410943D01*
X155703143Y-99363451D01*
X155693038Y-99350882D01*
X155676739Y-99336207D01*
X155634546Y-99278133D01*
X155592421Y-99225740D01*
X155582006Y-99205818D01*
X155565414Y-99182981D01*
X155538703Y-99122988D01*
X155510561Y-99069157D01*
X155502418Y-99041490D01*
X155488379Y-99009958D01*
X155476008Y-98951759D01*
X155460672Y-98899651D01*
X155457482Y-98864599D01*
X155449001Y-98824699D01*
X155449001Y-98771408D01*
X155444657Y-98723676D01*
X155449001Y-98682347D01*
X155449001Y-98635301D01*
X155458783Y-98589279D01*
X155463127Y-98547953D01*
X155477298Y-98502173D01*
X155488379Y-98450042D01*
X155504972Y-98412774D01*
X155515378Y-98379157D01*
X155541211Y-98331380D01*
X155565414Y-98277019D01*
X155585702Y-98249095D01*
X155599420Y-98223724D01*
X155638141Y-98176918D01*
X155676739Y-98123793D01*
X155697716Y-98104905D01*
X155712048Y-98087581D01*
X155764155Y-98045083D01*
X155817489Y-97997061D01*
X155836476Y-97986099D01*
X155848975Y-97975905D01*
X155914220Y-97941214D01*
X155981512Y-97902363D01*
X155996364Y-97897537D01*
X156004997Y-97892947D01*
X156082570Y-97869527D01*
X156161640Y-97843835D01*
X156170886Y-97842863D01*
X156174149Y-97841878D01*
X156265290Y-97832941D01*
X156302789Y-97829000D01*
X156397211Y-97829000D01*
X156538360Y-97843835D01*
X156538360Y-97843835D01*
G37*
G36*
X143838360Y-97843835D02*
G01*
X143919397Y-97870166D01*
X144006663Y-97897848D01*
X144009655Y-97899493D01*
X144018488Y-97902363D01*
X144090466Y-97943919D01*
X144161499Y-97982970D01*
X144168986Y-97989253D01*
X144182511Y-97997061D01*
X144240259Y-98049057D01*
X144296857Y-98096549D01*
X144306962Y-98109118D01*
X144323261Y-98123793D01*
X144365454Y-98181867D01*
X144407579Y-98234260D01*
X144417994Y-98254182D01*
X144434586Y-98277019D01*
X144461297Y-98337012D01*
X144489439Y-98390843D01*
X144497582Y-98418510D01*
X144511621Y-98450042D01*
X144523992Y-98508241D01*
X144539328Y-98560349D01*
X144542518Y-98595401D01*
X144550999Y-98635301D01*
X144550999Y-98688592D01*
X144555343Y-98736324D01*
X144550999Y-98777653D01*
X144550999Y-98824699D01*
X144541217Y-98870721D01*
X144536873Y-98912047D01*
X144522702Y-98957827D01*
X144511621Y-99009958D01*
X144495028Y-99047226D01*
X144484622Y-99080843D01*
X144458789Y-99128620D01*
X144434586Y-99182981D01*
X144414298Y-99210905D01*
X144400580Y-99236276D01*
X144361859Y-99283082D01*
X144323261Y-99336207D01*
X144302284Y-99355095D01*
X144287952Y-99372419D01*
X144235845Y-99414917D01*
X144182511Y-99462939D01*
X144163524Y-99473901D01*
X144151025Y-99484095D01*
X144085780Y-99518786D01*
X144018488Y-99557637D01*
X144003636Y-99562463D01*
X143995003Y-99567053D01*
X143917430Y-99590473D01*
X143838360Y-99616165D01*
X143829114Y-99617137D01*
X143825851Y-99618122D01*
X143734710Y-99627059D01*
X143697211Y-99631000D01*
X143602789Y-99631000D01*
X143461640Y-99616165D01*
X143380603Y-99589834D01*
X143293337Y-99562152D01*
X143290345Y-99560507D01*
X143281512Y-99557637D01*
X143209534Y-99516081D01*
X143138501Y-99477030D01*
X143131014Y-99470747D01*
X143117489Y-99462939D01*
X143059741Y-99410943D01*
X143003143Y-99363451D01*
X142993038Y-99350882D01*
X142976739Y-99336207D01*
X142934546Y-99278133D01*
X142892421Y-99225740D01*
X142882006Y-99205818D01*
X142865414Y-99182981D01*
X142838703Y-99122988D01*
X142810561Y-99069157D01*
X142802418Y-99041490D01*
X142788379Y-99009958D01*
X142776008Y-98951759D01*
X142760672Y-98899651D01*
X142757482Y-98864599D01*
X142749001Y-98824699D01*
X142749001Y-98771408D01*
X142744657Y-98723676D01*
X142749001Y-98682347D01*
X142749001Y-98635301D01*
X142758783Y-98589279D01*
X142763127Y-98547953D01*
X142777298Y-98502173D01*
X142788379Y-98450042D01*
X142804972Y-98412774D01*
X142815378Y-98379157D01*
X142841211Y-98331380D01*
X142865414Y-98277019D01*
X142885702Y-98249095D01*
X142899420Y-98223724D01*
X142938141Y-98176918D01*
X142976739Y-98123793D01*
X142997716Y-98104905D01*
X143012048Y-98087581D01*
X143064155Y-98045083D01*
X143117489Y-97997061D01*
X143136476Y-97986099D01*
X143148975Y-97975905D01*
X143214220Y-97941214D01*
X143281512Y-97902363D01*
X143296364Y-97897537D01*
X143304997Y-97892947D01*
X143382570Y-97869527D01*
X143461640Y-97843835D01*
X143470886Y-97842863D01*
X143474149Y-97841878D01*
X143565290Y-97832941D01*
X143602789Y-97829000D01*
X143697211Y-97829000D01*
X143838360Y-97843835D01*
X143838360Y-97843835D01*
G37*
G36*
X146503760Y-98358134D02*
G01*
X146506020Y-98359533D01*
X146506958Y-98359720D01*
X146514997Y-98365091D01*
X146551953Y-98387973D01*
X146554714Y-98391630D01*
X146556906Y-98393094D01*
X146565248Y-98405578D01*
X146584303Y-98430812D01*
X146585495Y-98435881D01*
X146590280Y-98443042D01*
X146601999Y-98501959D01*
X146601999Y-98506050D01*
X146604448Y-98516462D01*
X146604448Y-98686456D01*
X146591866Y-98753760D01*
X146590467Y-98756020D01*
X146590280Y-98756958D01*
X146584909Y-98764997D01*
X146562027Y-98801953D01*
X146558370Y-98804714D01*
X146556906Y-98806906D01*
X146544422Y-98815248D01*
X146519188Y-98834303D01*
X146514119Y-98835495D01*
X146506958Y-98840280D01*
X146448041Y-98851999D01*
X146443950Y-98851999D01*
X146433538Y-98854448D01*
X146163544Y-98854448D01*
X146096240Y-98841866D01*
X146093980Y-98840467D01*
X146093042Y-98840280D01*
X146085003Y-98834909D01*
X146048047Y-98812027D01*
X146045286Y-98808370D01*
X146043094Y-98806906D01*
X146034752Y-98794422D01*
X146015697Y-98769188D01*
X146014505Y-98764119D01*
X146009720Y-98756958D01*
X145998001Y-98698041D01*
X145998001Y-98693950D01*
X145995552Y-98683538D01*
X145995552Y-98513544D01*
X146008134Y-98446240D01*
X146009533Y-98443980D01*
X146009720Y-98443042D01*
X146015091Y-98435003D01*
X146037973Y-98398047D01*
X146041630Y-98395286D01*
X146043094Y-98393094D01*
X146055578Y-98384752D01*
X146080812Y-98365697D01*
X146085881Y-98364505D01*
X146093042Y-98359720D01*
X146151959Y-98348001D01*
X146156050Y-98348001D01*
X146166462Y-98345552D01*
X146436456Y-98345552D01*
X146503760Y-98358134D01*
X146503760Y-98358134D01*
G37*
G36*
X146503760Y-97558134D02*
G01*
X146506020Y-97559533D01*
X146506958Y-97559720D01*
X146514997Y-97565091D01*
X146551953Y-97587973D01*
X146554714Y-97591630D01*
X146556906Y-97593094D01*
X146565248Y-97605578D01*
X146584303Y-97630812D01*
X146585495Y-97635881D01*
X146590280Y-97643042D01*
X146601999Y-97701959D01*
X146601999Y-97706050D01*
X146604448Y-97716462D01*
X146604448Y-97886456D01*
X146591866Y-97953760D01*
X146590467Y-97956020D01*
X146590280Y-97956958D01*
X146584909Y-97964997D01*
X146562027Y-98001953D01*
X146558370Y-98004714D01*
X146556906Y-98006906D01*
X146544422Y-98015248D01*
X146519188Y-98034303D01*
X146514119Y-98035495D01*
X146506958Y-98040280D01*
X146448041Y-98051999D01*
X146443950Y-98051999D01*
X146433538Y-98054448D01*
X146163544Y-98054448D01*
X146096240Y-98041866D01*
X146093980Y-98040467D01*
X146093042Y-98040280D01*
X146085003Y-98034909D01*
X146048047Y-98012027D01*
X146045286Y-98008370D01*
X146043094Y-98006906D01*
X146034752Y-97994422D01*
X146015697Y-97969188D01*
X146014505Y-97964119D01*
X146009720Y-97956958D01*
X145998001Y-97898041D01*
X145998001Y-97893950D01*
X145995552Y-97883538D01*
X145995552Y-97713544D01*
X146008134Y-97646240D01*
X146009533Y-97643980D01*
X146009720Y-97643042D01*
X146015091Y-97635003D01*
X146037973Y-97598047D01*
X146041630Y-97595286D01*
X146043094Y-97593094D01*
X146055578Y-97584752D01*
X146080812Y-97565697D01*
X146085881Y-97564505D01*
X146093042Y-97559720D01*
X146151959Y-97548001D01*
X146156050Y-97548001D01*
X146166462Y-97545552D01*
X146436456Y-97545552D01*
X146503760Y-97558134D01*
X146503760Y-97558134D01*
G37*
G36*
X143838360Y-95303835D02*
G01*
X143919397Y-95330166D01*
X144006663Y-95357848D01*
X144009655Y-95359493D01*
X144018488Y-95362363D01*
X144090466Y-95403919D01*
X144161499Y-95442970D01*
X144168986Y-95449253D01*
X144182511Y-95457061D01*
X144240259Y-95509057D01*
X144296857Y-95556549D01*
X144306962Y-95569118D01*
X144323261Y-95583793D01*
X144365454Y-95641867D01*
X144407579Y-95694260D01*
X144417994Y-95714182D01*
X144434586Y-95737019D01*
X144461297Y-95797012D01*
X144489439Y-95850843D01*
X144497582Y-95878510D01*
X144511621Y-95910042D01*
X144523992Y-95968241D01*
X144539328Y-96020349D01*
X144542518Y-96055401D01*
X144550999Y-96095301D01*
X144550999Y-96148592D01*
X144555343Y-96196324D01*
X144550999Y-96237653D01*
X144550999Y-96284699D01*
X144541217Y-96330721D01*
X144536873Y-96372047D01*
X144522702Y-96417827D01*
X144511621Y-96469958D01*
X144495028Y-96507226D01*
X144484622Y-96540843D01*
X144458789Y-96588620D01*
X144434586Y-96642981D01*
X144414298Y-96670905D01*
X144400580Y-96696276D01*
X144361859Y-96743082D01*
X144323261Y-96796207D01*
X144302284Y-96815095D01*
X144287952Y-96832419D01*
X144235845Y-96874917D01*
X144182511Y-96922939D01*
X144163524Y-96933901D01*
X144151025Y-96944095D01*
X144085780Y-96978786D01*
X144018488Y-97017637D01*
X144003636Y-97022463D01*
X143995003Y-97027053D01*
X143917430Y-97050473D01*
X143838360Y-97076165D01*
X143829114Y-97077137D01*
X143825851Y-97078122D01*
X143734710Y-97087059D01*
X143697211Y-97091000D01*
X143602789Y-97091000D01*
X143461640Y-97076165D01*
X143380603Y-97049834D01*
X143293337Y-97022152D01*
X143290345Y-97020507D01*
X143281512Y-97017637D01*
X143209534Y-96976081D01*
X143138501Y-96937030D01*
X143131014Y-96930747D01*
X143117489Y-96922939D01*
X143059741Y-96870943D01*
X143003143Y-96823451D01*
X142993038Y-96810882D01*
X142976739Y-96796207D01*
X142934546Y-96738133D01*
X142892421Y-96685740D01*
X142882006Y-96665818D01*
X142865414Y-96642981D01*
X142838703Y-96582988D01*
X142810561Y-96529157D01*
X142802418Y-96501490D01*
X142788379Y-96469958D01*
X142776008Y-96411759D01*
X142760672Y-96359651D01*
X142757482Y-96324599D01*
X142749001Y-96284699D01*
X142749001Y-96231408D01*
X142744657Y-96183676D01*
X142749001Y-96142347D01*
X142749001Y-96095301D01*
X142758783Y-96049279D01*
X142763127Y-96007953D01*
X142777298Y-95962173D01*
X142788379Y-95910042D01*
X142804972Y-95872774D01*
X142815378Y-95839157D01*
X142841211Y-95791380D01*
X142865414Y-95737019D01*
X142885702Y-95709095D01*
X142899420Y-95683724D01*
X142938141Y-95636918D01*
X142976739Y-95583793D01*
X142997716Y-95564905D01*
X143012048Y-95547581D01*
X143064155Y-95505083D01*
X143117489Y-95457061D01*
X143136476Y-95446099D01*
X143148975Y-95435905D01*
X143214220Y-95401214D01*
X143281512Y-95362363D01*
X143296364Y-95357537D01*
X143304997Y-95352947D01*
X143382570Y-95329527D01*
X143461640Y-95303835D01*
X143470886Y-95302863D01*
X143474149Y-95301878D01*
X143565290Y-95292941D01*
X143602789Y-95289000D01*
X143697211Y-95289000D01*
X143838360Y-95303835D01*
X143838360Y-95303835D01*
G37*
G36*
X156538360Y-95303835D02*
G01*
X156619397Y-95330166D01*
X156706663Y-95357848D01*
X156709655Y-95359493D01*
X156718488Y-95362363D01*
X156790466Y-95403919D01*
X156861499Y-95442970D01*
X156868986Y-95449253D01*
X156882511Y-95457061D01*
X156940259Y-95509057D01*
X156996857Y-95556549D01*
X157006962Y-95569118D01*
X157023261Y-95583793D01*
X157065454Y-95641867D01*
X157107579Y-95694260D01*
X157117994Y-95714182D01*
X157134586Y-95737019D01*
X157161297Y-95797012D01*
X157189439Y-95850843D01*
X157197582Y-95878510D01*
X157211621Y-95910042D01*
X157223992Y-95968241D01*
X157239328Y-96020349D01*
X157242518Y-96055401D01*
X157250999Y-96095301D01*
X157250999Y-96148592D01*
X157255343Y-96196324D01*
X157250999Y-96237653D01*
X157250999Y-96284699D01*
X157241217Y-96330721D01*
X157236873Y-96372047D01*
X157222702Y-96417827D01*
X157211621Y-96469958D01*
X157195028Y-96507226D01*
X157184622Y-96540843D01*
X157158789Y-96588620D01*
X157134586Y-96642981D01*
X157114298Y-96670905D01*
X157100580Y-96696276D01*
X157061859Y-96743082D01*
X157023261Y-96796207D01*
X157002284Y-96815095D01*
X156987952Y-96832419D01*
X156935845Y-96874917D01*
X156882511Y-96922939D01*
X156863524Y-96933901D01*
X156851025Y-96944095D01*
X156785780Y-96978786D01*
X156718488Y-97017637D01*
X156703636Y-97022463D01*
X156695003Y-97027053D01*
X156617430Y-97050473D01*
X156538360Y-97076165D01*
X156529114Y-97077137D01*
X156525851Y-97078122D01*
X156434710Y-97087059D01*
X156397211Y-97091000D01*
X156302789Y-97091000D01*
X156161640Y-97076165D01*
X156080603Y-97049834D01*
X155993337Y-97022152D01*
X155990345Y-97020507D01*
X155981512Y-97017637D01*
X155909534Y-96976081D01*
X155838501Y-96937030D01*
X155831014Y-96930747D01*
X155817489Y-96922939D01*
X155759741Y-96870943D01*
X155703143Y-96823451D01*
X155693038Y-96810882D01*
X155676739Y-96796207D01*
X155634546Y-96738133D01*
X155592421Y-96685740D01*
X155582006Y-96665818D01*
X155565414Y-96642981D01*
X155538703Y-96582988D01*
X155510561Y-96529157D01*
X155502418Y-96501490D01*
X155488379Y-96469958D01*
X155476008Y-96411759D01*
X155460672Y-96359651D01*
X155457482Y-96324599D01*
X155449001Y-96284699D01*
X155449001Y-96231408D01*
X155444657Y-96183676D01*
X155449001Y-96142347D01*
X155449001Y-96095301D01*
X155458783Y-96049279D01*
X155463127Y-96007953D01*
X155477298Y-95962173D01*
X155488379Y-95910042D01*
X155504972Y-95872774D01*
X155515378Y-95839157D01*
X155541211Y-95791380D01*
X155565414Y-95737019D01*
X155585702Y-95709095D01*
X155599420Y-95683724D01*
X155638141Y-95636918D01*
X155676739Y-95583793D01*
X155697716Y-95564905D01*
X155712048Y-95547581D01*
X155764155Y-95505083D01*
X155817489Y-95457061D01*
X155836476Y-95446099D01*
X155848975Y-95435905D01*
X155914220Y-95401214D01*
X155981512Y-95362363D01*
X155996364Y-95357537D01*
X156004997Y-95352947D01*
X156082570Y-95329527D01*
X156161640Y-95303835D01*
X156170886Y-95302863D01*
X156174149Y-95301878D01*
X156265290Y-95292941D01*
X156302789Y-95289000D01*
X156397211Y-95289000D01*
X156538360Y-95303835D01*
X156538360Y-95303835D01*
G37*
G36*
X147046483Y-94553001D02*
G01*
X147047061Y-94553001D01*
X147051575Y-94553899D01*
X147117492Y-94565522D01*
X147121426Y-94567793D01*
X147125487Y-94568601D01*
X147142405Y-94579905D01*
X147178879Y-94600963D01*
X147185207Y-94608504D01*
X147191974Y-94613026D01*
X147203598Y-94630422D01*
X147220797Y-94650920D01*
X147223142Y-94659673D01*
X147236399Y-94679513D01*
X147251999Y-94757939D01*
X147251999Y-94767367D01*
X147253715Y-94773771D01*
X147253715Y-95041751D01*
X147251999Y-95051483D01*
X147251999Y-95052061D01*
X147251101Y-95056575D01*
X147239478Y-95122492D01*
X147237207Y-95126426D01*
X147236399Y-95130487D01*
X147225095Y-95147405D01*
X147204037Y-95183879D01*
X147196496Y-95190207D01*
X147191974Y-95196974D01*
X147174578Y-95208598D01*
X147154080Y-95225797D01*
X147145327Y-95228142D01*
X147125487Y-95241399D01*
X147047061Y-95256999D01*
X147037633Y-95256999D01*
X147031229Y-95258715D01*
X145763249Y-95258715D01*
X145753517Y-95256999D01*
X145752939Y-95256999D01*
X145748425Y-95256101D01*
X145682508Y-95244478D01*
X145678574Y-95242207D01*
X145674513Y-95241399D01*
X145657595Y-95230095D01*
X145621121Y-95209037D01*
X145614793Y-95201496D01*
X145608026Y-95196974D01*
X145596402Y-95179578D01*
X145579203Y-95159080D01*
X145576858Y-95150327D01*
X145563601Y-95130487D01*
X145548001Y-95052061D01*
X145548001Y-95042633D01*
X145546285Y-95036229D01*
X145546285Y-94768249D01*
X145548001Y-94758517D01*
X145548001Y-94757939D01*
X145548899Y-94753425D01*
X145560522Y-94687508D01*
X145562793Y-94683574D01*
X145563601Y-94679513D01*
X145574905Y-94662595D01*
X145595963Y-94626121D01*
X145603504Y-94619793D01*
X145608026Y-94613026D01*
X145625422Y-94601402D01*
X145645920Y-94584203D01*
X145654673Y-94581858D01*
X145674513Y-94568601D01*
X145752939Y-94553001D01*
X145762367Y-94553001D01*
X145768771Y-94551285D01*
X147036751Y-94551285D01*
X147046483Y-94553001D01*
X147046483Y-94553001D01*
G37*
G36*
X154246483Y-94553001D02*
G01*
X154247061Y-94553001D01*
X154251575Y-94553899D01*
X154317492Y-94565522D01*
X154321426Y-94567793D01*
X154325487Y-94568601D01*
X154342405Y-94579905D01*
X154378879Y-94600963D01*
X154385207Y-94608504D01*
X154391974Y-94613026D01*
X154403598Y-94630422D01*
X154420797Y-94650920D01*
X154423142Y-94659673D01*
X154436399Y-94679513D01*
X154451999Y-94757939D01*
X154451999Y-94767367D01*
X154453715Y-94773771D01*
X154453715Y-95041751D01*
X154451999Y-95051483D01*
X154451999Y-95052061D01*
X154451101Y-95056575D01*
X154439478Y-95122492D01*
X154437207Y-95126426D01*
X154436399Y-95130487D01*
X154425095Y-95147405D01*
X154404037Y-95183879D01*
X154396496Y-95190207D01*
X154391974Y-95196974D01*
X154374578Y-95208598D01*
X154354080Y-95225797D01*
X154345327Y-95228142D01*
X154325487Y-95241399D01*
X154247061Y-95256999D01*
X154237633Y-95256999D01*
X154231229Y-95258715D01*
X152963249Y-95258715D01*
X152953517Y-95256999D01*
X152952939Y-95256999D01*
X152948425Y-95256101D01*
X152882508Y-95244478D01*
X152878574Y-95242207D01*
X152874513Y-95241399D01*
X152857595Y-95230095D01*
X152821121Y-95209037D01*
X152814793Y-95201496D01*
X152808026Y-95196974D01*
X152796402Y-95179578D01*
X152779203Y-95159080D01*
X152776858Y-95150327D01*
X152763601Y-95130487D01*
X152748001Y-95052061D01*
X152748001Y-95042633D01*
X152746285Y-95036229D01*
X152746285Y-94768249D01*
X152748001Y-94758517D01*
X152748001Y-94757939D01*
X152748899Y-94753425D01*
X152760522Y-94687508D01*
X152762793Y-94683574D01*
X152763601Y-94679513D01*
X152774905Y-94662595D01*
X152795963Y-94626121D01*
X152803504Y-94619793D01*
X152808026Y-94613026D01*
X152825422Y-94601402D01*
X152845920Y-94584203D01*
X152854673Y-94581858D01*
X152874513Y-94568601D01*
X152952939Y-94553001D01*
X152962367Y-94553001D01*
X152968771Y-94551285D01*
X154236751Y-94551285D01*
X154246483Y-94553001D01*
X154246483Y-94553001D01*
G37*
G36*
X156538360Y-92763835D02*
G01*
X156619397Y-92790166D01*
X156706663Y-92817848D01*
X156709655Y-92819493D01*
X156718488Y-92822363D01*
X156790466Y-92863919D01*
X156861499Y-92902970D01*
X156868986Y-92909253D01*
X156882511Y-92917061D01*
X156940259Y-92969057D01*
X156996857Y-93016549D01*
X157006962Y-93029118D01*
X157023261Y-93043793D01*
X157065454Y-93101867D01*
X157107579Y-93154260D01*
X157117994Y-93174182D01*
X157134586Y-93197019D01*
X157161297Y-93257012D01*
X157189439Y-93310843D01*
X157197582Y-93338510D01*
X157211621Y-93370042D01*
X157223992Y-93428241D01*
X157239328Y-93480349D01*
X157242518Y-93515401D01*
X157250999Y-93555301D01*
X157250999Y-93608592D01*
X157255343Y-93656324D01*
X157250999Y-93697653D01*
X157250999Y-93744699D01*
X157241217Y-93790721D01*
X157236873Y-93832047D01*
X157222702Y-93877827D01*
X157211621Y-93929958D01*
X157195028Y-93967226D01*
X157184622Y-94000843D01*
X157158789Y-94048620D01*
X157134586Y-94102981D01*
X157114298Y-94130905D01*
X157100580Y-94156276D01*
X157061859Y-94203082D01*
X157023261Y-94256207D01*
X157002284Y-94275095D01*
X156987952Y-94292419D01*
X156935845Y-94334917D01*
X156882511Y-94382939D01*
X156863524Y-94393901D01*
X156851025Y-94404095D01*
X156785780Y-94438786D01*
X156718488Y-94477637D01*
X156703636Y-94482463D01*
X156695003Y-94487053D01*
X156617430Y-94510473D01*
X156538360Y-94536165D01*
X156529114Y-94537137D01*
X156525851Y-94538122D01*
X156434710Y-94547059D01*
X156397211Y-94551000D01*
X156302789Y-94551000D01*
X156161640Y-94536165D01*
X156080603Y-94509834D01*
X155993337Y-94482152D01*
X155990345Y-94480507D01*
X155981512Y-94477637D01*
X155909534Y-94436081D01*
X155838501Y-94397030D01*
X155831014Y-94390747D01*
X155817489Y-94382939D01*
X155759741Y-94330943D01*
X155703143Y-94283451D01*
X155693038Y-94270882D01*
X155676739Y-94256207D01*
X155634546Y-94198133D01*
X155592421Y-94145740D01*
X155582006Y-94125818D01*
X155565414Y-94102981D01*
X155538703Y-94042988D01*
X155510561Y-93989157D01*
X155502418Y-93961490D01*
X155488379Y-93929958D01*
X155476008Y-93871759D01*
X155460672Y-93819651D01*
X155457482Y-93784599D01*
X155449001Y-93744699D01*
X155449001Y-93691408D01*
X155444657Y-93643676D01*
X155449001Y-93602347D01*
X155449001Y-93555301D01*
X155458783Y-93509279D01*
X155463127Y-93467953D01*
X155477298Y-93422173D01*
X155488379Y-93370042D01*
X155504972Y-93332774D01*
X155515378Y-93299157D01*
X155541211Y-93251380D01*
X155565414Y-93197019D01*
X155585702Y-93169095D01*
X155599420Y-93143724D01*
X155638141Y-93096918D01*
X155676739Y-93043793D01*
X155697716Y-93024905D01*
X155712048Y-93007581D01*
X155764155Y-92965083D01*
X155817489Y-92917061D01*
X155836476Y-92906099D01*
X155848975Y-92895905D01*
X155914220Y-92861214D01*
X155981512Y-92822363D01*
X155996364Y-92817537D01*
X156004997Y-92812947D01*
X156082570Y-92789527D01*
X156161640Y-92763835D01*
X156170886Y-92762863D01*
X156174149Y-92761878D01*
X156265290Y-92752941D01*
X156302789Y-92749000D01*
X156397211Y-92749000D01*
X156538360Y-92763835D01*
X156538360Y-92763835D01*
G37*
G36*
X143838360Y-92763835D02*
G01*
X143919397Y-92790166D01*
X144006663Y-92817848D01*
X144009655Y-92819493D01*
X144018488Y-92822363D01*
X144090466Y-92863919D01*
X144161499Y-92902970D01*
X144168986Y-92909253D01*
X144182511Y-92917061D01*
X144240259Y-92969057D01*
X144296857Y-93016549D01*
X144306962Y-93029118D01*
X144323261Y-93043793D01*
X144365454Y-93101867D01*
X144407579Y-93154260D01*
X144417994Y-93174182D01*
X144434586Y-93197019D01*
X144461297Y-93257012D01*
X144489439Y-93310843D01*
X144497582Y-93338510D01*
X144511621Y-93370042D01*
X144523992Y-93428241D01*
X144539328Y-93480349D01*
X144542518Y-93515401D01*
X144550999Y-93555301D01*
X144550999Y-93608592D01*
X144555343Y-93656324D01*
X144550999Y-93697653D01*
X144550999Y-93744699D01*
X144541217Y-93790721D01*
X144536873Y-93832047D01*
X144522702Y-93877827D01*
X144511621Y-93929958D01*
X144495028Y-93967226D01*
X144484622Y-94000843D01*
X144458789Y-94048620D01*
X144434586Y-94102981D01*
X144414298Y-94130905D01*
X144400580Y-94156276D01*
X144361859Y-94203082D01*
X144323261Y-94256207D01*
X144302284Y-94275095D01*
X144287952Y-94292419D01*
X144235845Y-94334917D01*
X144182511Y-94382939D01*
X144163524Y-94393901D01*
X144151025Y-94404095D01*
X144085780Y-94438786D01*
X144018488Y-94477637D01*
X144003636Y-94482463D01*
X143995003Y-94487053D01*
X143917430Y-94510473D01*
X143838360Y-94536165D01*
X143829114Y-94537137D01*
X143825851Y-94538122D01*
X143734710Y-94547059D01*
X143697211Y-94551000D01*
X143602789Y-94551000D01*
X143461640Y-94536165D01*
X143380603Y-94509834D01*
X143293337Y-94482152D01*
X143290345Y-94480507D01*
X143281512Y-94477637D01*
X143209534Y-94436081D01*
X143138501Y-94397030D01*
X143131014Y-94390747D01*
X143117489Y-94382939D01*
X143059741Y-94330943D01*
X143003143Y-94283451D01*
X142993038Y-94270882D01*
X142976739Y-94256207D01*
X142934546Y-94198133D01*
X142892421Y-94145740D01*
X142882006Y-94125818D01*
X142865414Y-94102981D01*
X142838703Y-94042988D01*
X142810561Y-93989157D01*
X142802418Y-93961490D01*
X142788379Y-93929958D01*
X142776008Y-93871759D01*
X142760672Y-93819651D01*
X142757482Y-93784599D01*
X142749001Y-93744699D01*
X142749001Y-93691408D01*
X142744657Y-93643676D01*
X142749001Y-93602347D01*
X142749001Y-93555301D01*
X142758783Y-93509279D01*
X142763127Y-93467953D01*
X142777298Y-93422173D01*
X142788379Y-93370042D01*
X142804972Y-93332774D01*
X142815378Y-93299157D01*
X142841211Y-93251380D01*
X142865414Y-93197019D01*
X142885702Y-93169095D01*
X142899420Y-93143724D01*
X142938141Y-93096918D01*
X142976739Y-93043793D01*
X142997716Y-93024905D01*
X143012048Y-93007581D01*
X143064155Y-92965083D01*
X143117489Y-92917061D01*
X143136476Y-92906099D01*
X143148975Y-92895905D01*
X143214220Y-92861214D01*
X143281512Y-92822363D01*
X143296364Y-92817537D01*
X143304997Y-92812947D01*
X143382570Y-92789527D01*
X143461640Y-92763835D01*
X143470886Y-92762863D01*
X143474149Y-92761878D01*
X143565290Y-92752941D01*
X143602789Y-92749000D01*
X143697211Y-92749000D01*
X143838360Y-92763835D01*
X143838360Y-92763835D01*
G37*
G36*
X147046483Y-93283001D02*
G01*
X147047061Y-93283001D01*
X147051575Y-93283899D01*
X147117492Y-93295522D01*
X147121426Y-93297793D01*
X147125487Y-93298601D01*
X147142405Y-93309905D01*
X147178879Y-93330963D01*
X147185207Y-93338504D01*
X147191974Y-93343026D01*
X147203598Y-93360422D01*
X147220797Y-93380920D01*
X147223142Y-93389673D01*
X147236399Y-93409513D01*
X147251999Y-93487939D01*
X147251999Y-93497367D01*
X147253715Y-93503771D01*
X147253715Y-93771751D01*
X147251999Y-93781483D01*
X147251999Y-93782061D01*
X147251101Y-93786575D01*
X147239478Y-93852492D01*
X147237207Y-93856426D01*
X147236399Y-93860487D01*
X147225095Y-93877405D01*
X147204037Y-93913879D01*
X147196496Y-93920207D01*
X147191974Y-93926974D01*
X147174578Y-93938598D01*
X147154080Y-93955797D01*
X147145327Y-93958142D01*
X147125487Y-93971399D01*
X147047061Y-93986999D01*
X147037633Y-93986999D01*
X147031229Y-93988715D01*
X145763249Y-93988715D01*
X145753517Y-93986999D01*
X145752939Y-93986999D01*
X145748425Y-93986101D01*
X145682508Y-93974478D01*
X145678574Y-93972207D01*
X145674513Y-93971399D01*
X145657595Y-93960095D01*
X145621121Y-93939037D01*
X145614793Y-93931496D01*
X145608026Y-93926974D01*
X145596402Y-93909578D01*
X145579203Y-93889080D01*
X145576858Y-93880327D01*
X145563601Y-93860487D01*
X145548001Y-93782061D01*
X145548001Y-93772633D01*
X145546285Y-93766229D01*
X145546285Y-93498249D01*
X145548001Y-93488517D01*
X145548001Y-93487939D01*
X145548899Y-93483425D01*
X145560522Y-93417508D01*
X145562793Y-93413574D01*
X145563601Y-93409513D01*
X145574905Y-93392595D01*
X145595963Y-93356121D01*
X145603504Y-93349793D01*
X145608026Y-93343026D01*
X145625422Y-93331402D01*
X145645920Y-93314203D01*
X145654673Y-93311858D01*
X145674513Y-93298601D01*
X145752939Y-93283001D01*
X145762367Y-93283001D01*
X145768771Y-93281285D01*
X147036751Y-93281285D01*
X147046483Y-93283001D01*
X147046483Y-93283001D01*
G37*
G36*
X154246483Y-93283001D02*
G01*
X154247061Y-93283001D01*
X154251575Y-93283899D01*
X154317492Y-93295522D01*
X154321426Y-93297793D01*
X154325487Y-93298601D01*
X154342405Y-93309905D01*
X154378879Y-93330963D01*
X154385207Y-93338504D01*
X154391974Y-93343026D01*
X154403598Y-93360422D01*
X154420797Y-93380920D01*
X154423142Y-93389673D01*
X154436399Y-93409513D01*
X154451999Y-93487939D01*
X154451999Y-93497367D01*
X154453715Y-93503771D01*
X154453715Y-93771751D01*
X154451999Y-93781483D01*
X154451999Y-93782061D01*
X154451101Y-93786575D01*
X154439478Y-93852492D01*
X154437207Y-93856426D01*
X154436399Y-93860487D01*
X154425095Y-93877405D01*
X154404037Y-93913879D01*
X154396496Y-93920207D01*
X154391974Y-93926974D01*
X154374578Y-93938598D01*
X154354080Y-93955797D01*
X154345327Y-93958142D01*
X154325487Y-93971399D01*
X154247061Y-93986999D01*
X154237633Y-93986999D01*
X154231229Y-93988715D01*
X152963249Y-93988715D01*
X152953517Y-93986999D01*
X152952939Y-93986999D01*
X152948425Y-93986101D01*
X152882508Y-93974478D01*
X152878574Y-93972207D01*
X152874513Y-93971399D01*
X152857595Y-93960095D01*
X152821121Y-93939037D01*
X152814793Y-93931496D01*
X152808026Y-93926974D01*
X152796402Y-93909578D01*
X152779203Y-93889080D01*
X152776858Y-93880327D01*
X152763601Y-93860487D01*
X152748001Y-93782061D01*
X152748001Y-93772633D01*
X152746285Y-93766229D01*
X152746285Y-93498249D01*
X152748001Y-93488517D01*
X152748001Y-93487939D01*
X152748899Y-93483425D01*
X152760522Y-93417508D01*
X152762793Y-93413574D01*
X152763601Y-93409513D01*
X152774905Y-93392595D01*
X152795963Y-93356121D01*
X152803504Y-93349793D01*
X152808026Y-93343026D01*
X152825422Y-93331402D01*
X152845920Y-93314203D01*
X152854673Y-93311858D01*
X152874513Y-93298601D01*
X152952939Y-93283001D01*
X152962367Y-93283001D01*
X152968771Y-93281285D01*
X154236751Y-93281285D01*
X154246483Y-93283001D01*
X154246483Y-93283001D01*
G37*
G36*
X154246483Y-92013001D02*
G01*
X154247061Y-92013001D01*
X154251575Y-92013899D01*
X154317492Y-92025522D01*
X154321426Y-92027793D01*
X154325487Y-92028601D01*
X154342405Y-92039905D01*
X154378879Y-92060963D01*
X154385207Y-92068504D01*
X154391974Y-92073026D01*
X154403598Y-92090422D01*
X154420797Y-92110920D01*
X154423142Y-92119673D01*
X154436399Y-92139513D01*
X154451999Y-92217939D01*
X154451999Y-92227367D01*
X154453715Y-92233771D01*
X154453715Y-92501751D01*
X154451999Y-92511483D01*
X154451999Y-92512061D01*
X154451101Y-92516575D01*
X154439478Y-92582492D01*
X154437207Y-92586426D01*
X154436399Y-92590487D01*
X154425095Y-92607405D01*
X154404037Y-92643879D01*
X154396496Y-92650207D01*
X154391974Y-92656974D01*
X154374578Y-92668598D01*
X154354080Y-92685797D01*
X154345327Y-92688142D01*
X154325487Y-92701399D01*
X154247061Y-92716999D01*
X154237633Y-92716999D01*
X154231229Y-92718715D01*
X152963249Y-92718715D01*
X152953517Y-92716999D01*
X152952939Y-92716999D01*
X152948425Y-92716101D01*
X152882508Y-92704478D01*
X152878574Y-92702207D01*
X152874513Y-92701399D01*
X152857595Y-92690095D01*
X152821121Y-92669037D01*
X152814793Y-92661496D01*
X152808026Y-92656974D01*
X152796402Y-92639578D01*
X152779203Y-92619080D01*
X152776858Y-92610327D01*
X152763601Y-92590487D01*
X152748001Y-92512061D01*
X152748001Y-92502633D01*
X152746285Y-92496229D01*
X152746285Y-92228249D01*
X152748001Y-92218517D01*
X152748001Y-92217939D01*
X152748899Y-92213425D01*
X152760522Y-92147508D01*
X152762793Y-92143574D01*
X152763601Y-92139513D01*
X152774905Y-92122595D01*
X152795963Y-92086121D01*
X152803504Y-92079793D01*
X152808026Y-92073026D01*
X152825422Y-92061402D01*
X152845920Y-92044203D01*
X152854673Y-92041858D01*
X152874513Y-92028601D01*
X152952939Y-92013001D01*
X152962367Y-92013001D01*
X152968771Y-92011285D01*
X154236751Y-92011285D01*
X154246483Y-92013001D01*
X154246483Y-92013001D01*
G37*
G36*
X147046483Y-92013001D02*
G01*
X147047061Y-92013001D01*
X147051575Y-92013899D01*
X147117492Y-92025522D01*
X147121426Y-92027793D01*
X147125487Y-92028601D01*
X147142405Y-92039905D01*
X147178879Y-92060963D01*
X147185207Y-92068504D01*
X147191974Y-92073026D01*
X147203598Y-92090422D01*
X147220797Y-92110920D01*
X147223142Y-92119673D01*
X147236399Y-92139513D01*
X147251999Y-92217939D01*
X147251999Y-92227367D01*
X147253715Y-92233771D01*
X147253715Y-92501751D01*
X147251999Y-92511483D01*
X147251999Y-92512061D01*
X147251101Y-92516575D01*
X147239478Y-92582492D01*
X147237207Y-92586426D01*
X147236399Y-92590487D01*
X147225095Y-92607405D01*
X147204037Y-92643879D01*
X147196496Y-92650207D01*
X147191974Y-92656974D01*
X147174578Y-92668598D01*
X147154080Y-92685797D01*
X147145327Y-92688142D01*
X147125487Y-92701399D01*
X147047061Y-92716999D01*
X147037633Y-92716999D01*
X147031229Y-92718715D01*
X145763249Y-92718715D01*
X145753517Y-92716999D01*
X145752939Y-92716999D01*
X145748425Y-92716101D01*
X145682508Y-92704478D01*
X145678574Y-92702207D01*
X145674513Y-92701399D01*
X145657595Y-92690095D01*
X145621121Y-92669037D01*
X145614793Y-92661496D01*
X145608026Y-92656974D01*
X145596402Y-92639578D01*
X145579203Y-92619080D01*
X145576858Y-92610327D01*
X145563601Y-92590487D01*
X145548001Y-92512061D01*
X145548001Y-92502633D01*
X145546285Y-92496229D01*
X145546285Y-92228249D01*
X145548001Y-92218517D01*
X145548001Y-92217939D01*
X145548899Y-92213425D01*
X145560522Y-92147508D01*
X145562793Y-92143574D01*
X145563601Y-92139513D01*
X145574905Y-92122595D01*
X145595963Y-92086121D01*
X145603504Y-92079793D01*
X145608026Y-92073026D01*
X145625422Y-92061402D01*
X145645920Y-92044203D01*
X145654673Y-92041858D01*
X145674513Y-92028601D01*
X145752939Y-92013001D01*
X145762367Y-92013001D01*
X145768771Y-92011285D01*
X147036751Y-92011285D01*
X147046483Y-92013001D01*
X147046483Y-92013001D01*
G37*
G36*
X143838360Y-90223835D02*
G01*
X143919397Y-90250166D01*
X144006663Y-90277848D01*
X144009655Y-90279493D01*
X144018488Y-90282363D01*
X144090466Y-90323919D01*
X144161499Y-90362970D01*
X144168986Y-90369253D01*
X144182511Y-90377061D01*
X144240259Y-90429057D01*
X144296857Y-90476549D01*
X144306962Y-90489118D01*
X144323261Y-90503793D01*
X144365454Y-90561867D01*
X144407579Y-90614260D01*
X144417994Y-90634182D01*
X144434586Y-90657019D01*
X144461297Y-90717012D01*
X144489439Y-90770843D01*
X144497582Y-90798510D01*
X144511621Y-90830042D01*
X144523992Y-90888241D01*
X144539328Y-90940349D01*
X144542518Y-90975401D01*
X144550999Y-91015301D01*
X144550999Y-91068592D01*
X144555343Y-91116324D01*
X144550999Y-91157653D01*
X144550999Y-91204699D01*
X144541217Y-91250721D01*
X144536873Y-91292047D01*
X144522702Y-91337827D01*
X144511621Y-91389958D01*
X144495028Y-91427226D01*
X144484622Y-91460843D01*
X144458789Y-91508620D01*
X144434586Y-91562981D01*
X144414298Y-91590905D01*
X144400580Y-91616276D01*
X144361859Y-91663082D01*
X144323261Y-91716207D01*
X144302284Y-91735095D01*
X144287952Y-91752419D01*
X144235845Y-91794917D01*
X144182511Y-91842939D01*
X144163524Y-91853901D01*
X144151025Y-91864095D01*
X144085780Y-91898786D01*
X144018488Y-91937637D01*
X144003636Y-91942463D01*
X143995003Y-91947053D01*
X143917430Y-91970473D01*
X143838360Y-91996165D01*
X143829114Y-91997137D01*
X143825851Y-91998122D01*
X143734710Y-92007059D01*
X143697211Y-92011000D01*
X143602789Y-92011000D01*
X143461640Y-91996165D01*
X143380603Y-91969834D01*
X143293337Y-91942152D01*
X143290345Y-91940507D01*
X143281512Y-91937637D01*
X143209534Y-91896081D01*
X143138501Y-91857030D01*
X143131014Y-91850747D01*
X143117489Y-91842939D01*
X143059741Y-91790943D01*
X143003143Y-91743451D01*
X142993038Y-91730882D01*
X142976739Y-91716207D01*
X142934546Y-91658133D01*
X142892421Y-91605740D01*
X142882006Y-91585818D01*
X142865414Y-91562981D01*
X142838703Y-91502988D01*
X142810561Y-91449157D01*
X142802418Y-91421490D01*
X142788379Y-91389958D01*
X142776008Y-91331759D01*
X142760672Y-91279651D01*
X142757482Y-91244599D01*
X142749001Y-91204699D01*
X142749001Y-91151408D01*
X142744657Y-91103676D01*
X142749001Y-91062347D01*
X142749001Y-91015301D01*
X142758783Y-90969279D01*
X142763127Y-90927953D01*
X142777298Y-90882173D01*
X142788379Y-90830042D01*
X142804972Y-90792774D01*
X142815378Y-90759157D01*
X142841211Y-90711380D01*
X142865414Y-90657019D01*
X142885702Y-90629095D01*
X142899420Y-90603724D01*
X142938141Y-90556918D01*
X142976739Y-90503793D01*
X142997716Y-90484905D01*
X143012048Y-90467581D01*
X143064155Y-90425083D01*
X143117489Y-90377061D01*
X143136476Y-90366099D01*
X143148975Y-90355905D01*
X143214220Y-90321214D01*
X143281512Y-90282363D01*
X143296364Y-90277537D01*
X143304997Y-90272947D01*
X143382570Y-90249527D01*
X143461640Y-90223835D01*
X143470886Y-90222863D01*
X143474149Y-90221878D01*
X143565290Y-90212941D01*
X143602789Y-90209000D01*
X143697211Y-90209000D01*
X143838360Y-90223835D01*
X143838360Y-90223835D01*
G37*
G36*
X156538360Y-90223835D02*
G01*
X156619397Y-90250166D01*
X156706663Y-90277848D01*
X156709655Y-90279493D01*
X156718488Y-90282363D01*
X156790466Y-90323919D01*
X156861499Y-90362970D01*
X156868986Y-90369253D01*
X156882511Y-90377061D01*
X156940259Y-90429057D01*
X156996857Y-90476549D01*
X157006962Y-90489118D01*
X157023261Y-90503793D01*
X157065454Y-90561867D01*
X157107579Y-90614260D01*
X157117994Y-90634182D01*
X157134586Y-90657019D01*
X157161297Y-90717012D01*
X157189439Y-90770843D01*
X157197582Y-90798510D01*
X157211621Y-90830042D01*
X157223992Y-90888241D01*
X157239328Y-90940349D01*
X157242518Y-90975401D01*
X157250999Y-91015301D01*
X157250999Y-91068592D01*
X157255343Y-91116324D01*
X157250999Y-91157653D01*
X157250999Y-91204699D01*
X157241217Y-91250721D01*
X157236873Y-91292047D01*
X157222702Y-91337827D01*
X157211621Y-91389958D01*
X157195028Y-91427226D01*
X157184622Y-91460843D01*
X157158789Y-91508620D01*
X157134586Y-91562981D01*
X157114298Y-91590905D01*
X157100580Y-91616276D01*
X157061859Y-91663082D01*
X157023261Y-91716207D01*
X157002284Y-91735095D01*
X156987952Y-91752419D01*
X156935845Y-91794917D01*
X156882511Y-91842939D01*
X156863524Y-91853901D01*
X156851025Y-91864095D01*
X156785780Y-91898786D01*
X156718488Y-91937637D01*
X156703636Y-91942463D01*
X156695003Y-91947053D01*
X156617430Y-91970473D01*
X156538360Y-91996165D01*
X156529114Y-91997137D01*
X156525851Y-91998122D01*
X156434710Y-92007059D01*
X156397211Y-92011000D01*
X156302789Y-92011000D01*
X156161640Y-91996165D01*
X156080603Y-91969834D01*
X155993337Y-91942152D01*
X155990345Y-91940507D01*
X155981512Y-91937637D01*
X155909534Y-91896081D01*
X155838501Y-91857030D01*
X155831014Y-91850747D01*
X155817489Y-91842939D01*
X155759741Y-91790943D01*
X155703143Y-91743451D01*
X155693038Y-91730882D01*
X155676739Y-91716207D01*
X155634546Y-91658133D01*
X155592421Y-91605740D01*
X155582006Y-91585818D01*
X155565414Y-91562981D01*
X155538703Y-91502988D01*
X155510561Y-91449157D01*
X155502418Y-91421490D01*
X155488379Y-91389958D01*
X155476008Y-91331759D01*
X155460672Y-91279651D01*
X155457482Y-91244599D01*
X155449001Y-91204699D01*
X155449001Y-91151408D01*
X155444657Y-91103676D01*
X155449001Y-91062347D01*
X155449001Y-91015301D01*
X155458783Y-90969279D01*
X155463127Y-90927953D01*
X155477298Y-90882173D01*
X155488379Y-90830042D01*
X155504972Y-90792774D01*
X155515378Y-90759157D01*
X155541211Y-90711380D01*
X155565414Y-90657019D01*
X155585702Y-90629095D01*
X155599420Y-90603724D01*
X155638141Y-90556918D01*
X155676739Y-90503793D01*
X155697716Y-90484905D01*
X155712048Y-90467581D01*
X155764155Y-90425083D01*
X155817489Y-90377061D01*
X155836476Y-90366099D01*
X155848975Y-90355905D01*
X155914220Y-90321214D01*
X155981512Y-90282363D01*
X155996364Y-90277537D01*
X156004997Y-90272947D01*
X156082570Y-90249527D01*
X156161640Y-90223835D01*
X156170886Y-90222863D01*
X156174149Y-90221878D01*
X156265290Y-90212941D01*
X156302789Y-90209000D01*
X156397211Y-90209000D01*
X156538360Y-90223835D01*
X156538360Y-90223835D01*
G37*
G36*
X147046483Y-90743001D02*
G01*
X147047061Y-90743001D01*
X147051575Y-90743899D01*
X147117492Y-90755522D01*
X147121426Y-90757793D01*
X147125487Y-90758601D01*
X147142405Y-90769905D01*
X147178879Y-90790963D01*
X147185207Y-90798504D01*
X147191974Y-90803026D01*
X147203598Y-90820422D01*
X147220797Y-90840920D01*
X147223142Y-90849673D01*
X147236399Y-90869513D01*
X147251999Y-90947939D01*
X147251999Y-90957367D01*
X147253715Y-90963771D01*
X147253715Y-91231751D01*
X147251999Y-91241483D01*
X147251999Y-91242061D01*
X147251101Y-91246575D01*
X147239478Y-91312492D01*
X147237207Y-91316426D01*
X147236399Y-91320487D01*
X147225095Y-91337405D01*
X147204037Y-91373879D01*
X147196496Y-91380207D01*
X147191974Y-91386974D01*
X147174578Y-91398598D01*
X147154080Y-91415797D01*
X147145327Y-91418142D01*
X147125487Y-91431399D01*
X147047061Y-91446999D01*
X147037633Y-91446999D01*
X147031229Y-91448715D01*
X145763249Y-91448715D01*
X145753517Y-91446999D01*
X145752939Y-91446999D01*
X145748425Y-91446101D01*
X145682508Y-91434478D01*
X145678574Y-91432207D01*
X145674513Y-91431399D01*
X145657595Y-91420095D01*
X145621121Y-91399037D01*
X145614793Y-91391496D01*
X145608026Y-91386974D01*
X145596402Y-91369578D01*
X145579203Y-91349080D01*
X145576858Y-91340327D01*
X145563601Y-91320487D01*
X145548001Y-91242061D01*
X145548001Y-91232633D01*
X145546285Y-91226229D01*
X145546285Y-90958249D01*
X145548001Y-90948517D01*
X145548001Y-90947939D01*
X145548899Y-90943425D01*
X145560522Y-90877508D01*
X145562793Y-90873574D01*
X145563601Y-90869513D01*
X145574905Y-90852595D01*
X145595963Y-90816121D01*
X145603504Y-90809793D01*
X145608026Y-90803026D01*
X145625422Y-90791402D01*
X145645920Y-90774203D01*
X145654673Y-90771858D01*
X145674513Y-90758601D01*
X145752939Y-90743001D01*
X145762367Y-90743001D01*
X145768771Y-90741285D01*
X147036751Y-90741285D01*
X147046483Y-90743001D01*
X147046483Y-90743001D01*
G37*
G36*
X154246483Y-90743001D02*
G01*
X154247061Y-90743001D01*
X154251575Y-90743899D01*
X154317492Y-90755522D01*
X154321426Y-90757793D01*
X154325487Y-90758601D01*
X154342405Y-90769905D01*
X154378879Y-90790963D01*
X154385207Y-90798504D01*
X154391974Y-90803026D01*
X154403598Y-90820422D01*
X154420797Y-90840920D01*
X154423142Y-90849673D01*
X154436399Y-90869513D01*
X154451999Y-90947939D01*
X154451999Y-90957367D01*
X154453715Y-90963771D01*
X154453715Y-91231751D01*
X154451999Y-91241483D01*
X154451999Y-91242061D01*
X154451101Y-91246575D01*
X154439478Y-91312492D01*
X154437207Y-91316426D01*
X154436399Y-91320487D01*
X154425095Y-91337405D01*
X154404037Y-91373879D01*
X154396496Y-91380207D01*
X154391974Y-91386974D01*
X154374578Y-91398598D01*
X154354080Y-91415797D01*
X154345327Y-91418142D01*
X154325487Y-91431399D01*
X154247061Y-91446999D01*
X154237633Y-91446999D01*
X154231229Y-91448715D01*
X152963249Y-91448715D01*
X152953517Y-91446999D01*
X152952939Y-91446999D01*
X152948425Y-91446101D01*
X152882508Y-91434478D01*
X152878574Y-91432207D01*
X152874513Y-91431399D01*
X152857595Y-91420095D01*
X152821121Y-91399037D01*
X152814793Y-91391496D01*
X152808026Y-91386974D01*
X152796402Y-91369578D01*
X152779203Y-91349080D01*
X152776858Y-91340327D01*
X152763601Y-91320487D01*
X152748001Y-91242061D01*
X152748001Y-91232633D01*
X152746285Y-91226229D01*
X152746285Y-90958249D01*
X152748001Y-90948517D01*
X152748001Y-90947939D01*
X152748899Y-90943425D01*
X152760522Y-90877508D01*
X152762793Y-90873574D01*
X152763601Y-90869513D01*
X152774905Y-90852595D01*
X152795963Y-90816121D01*
X152803504Y-90809793D01*
X152808026Y-90803026D01*
X152825422Y-90791402D01*
X152845920Y-90774203D01*
X152854673Y-90771858D01*
X152874513Y-90758601D01*
X152952939Y-90743001D01*
X152962367Y-90743001D01*
X152968771Y-90741285D01*
X154236751Y-90741285D01*
X154246483Y-90743001D01*
X154246483Y-90743001D01*
G37*
M02*
