G04 #@! TF.GenerationSoftware,KiCad,Pcbnew,5.99.0-unknown-c3175b4~86~ubuntu16.04.1*
G04 #@! TF.CreationDate,2020-03-16T03:04:43+00:00*
G04 #@! TF.ProjectId,kuiick,6b756969-636b-42e6-9b69-6361645f7063,rev?*
G04 #@! TF.SameCoordinates,Original*
G04 #@! TF.FileFunction,Soldermask,Bot*
G04 #@! TF.FilePolarity,Negative*
%FSLAX46Y46*%
G04 Gerber Fmt 4.6, Leading zero omitted, Abs format (unit mm)*
G04 Created by KiCad (PCBNEW 5.99.0-unknown-c3175b4~86~ubuntu16.04.1) date 2020-03-16 03:04:43*
%MOMM*%
%LPD*%
G04 APERTURE LIST*
%ADD10C,0.100000*%
G04 APERTURE END LIST*
D10*
G36*
X153348661Y-107149249D02*
G01*
X153374813Y-107149409D01*
X153419397Y-107162742D01*
X153456049Y-107169734D01*
X153479196Y-107180626D01*
X153512305Y-107190528D01*
X153544281Y-107211254D01*
X153570582Y-107223630D01*
X153596659Y-107245203D01*
X153632731Y-107268583D01*
X153652116Y-107291080D01*
X153668114Y-107304315D01*
X153692822Y-107338322D01*
X153726408Y-107377301D01*
X153735215Y-107396671D01*
X153742519Y-107406724D01*
X153760940Y-107453250D01*
X153785806Y-107507940D01*
X153787627Y-107520653D01*
X153789117Y-107524417D01*
X153796235Y-107580763D01*
X153801000Y-107614033D01*
X153801000Y-108584467D01*
X153784035Y-108697984D01*
X153769646Y-108728633D01*
X153767590Y-108739408D01*
X153747014Y-108776835D01*
X153723045Y-108827888D01*
X153712192Y-108840176D01*
X153708540Y-108846820D01*
X153671324Y-108886451D01*
X153628047Y-108935453D01*
X153555252Y-108981384D01*
X153515011Y-109006921D01*
X153514529Y-109007077D01*
X153506677Y-109012032D01*
X153445254Y-109029587D01*
X153394623Y-109046038D01*
X153385736Y-109046597D01*
X153368693Y-109051468D01*
X153313652Y-109051132D01*
X153268294Y-109053985D01*
X153251339Y-109050751D01*
X153225187Y-109050591D01*
X153180603Y-109037258D01*
X153143951Y-109030266D01*
X153120804Y-109019374D01*
X153087695Y-109009472D01*
X153055720Y-108988747D01*
X153029420Y-108976371D01*
X153003343Y-108954798D01*
X152967270Y-108931417D01*
X152947885Y-108908919D01*
X152931885Y-108895683D01*
X152907177Y-108861675D01*
X152873593Y-108822699D01*
X152864786Y-108803329D01*
X152857482Y-108793276D01*
X152839061Y-108746750D01*
X152814195Y-108692060D01*
X152812374Y-108679347D01*
X152810884Y-108675583D01*
X152803761Y-108619206D01*
X152799001Y-108585967D01*
X152799001Y-108581528D01*
X152799000Y-108581520D01*
X152799000Y-107615534D01*
X152815965Y-107502017D01*
X152830355Y-107471368D01*
X152832410Y-107460593D01*
X152852984Y-107423169D01*
X152876955Y-107372112D01*
X152887809Y-107359822D01*
X152891460Y-107353181D01*
X152928661Y-107313566D01*
X152971953Y-107264547D01*
X153044814Y-107218575D01*
X153084989Y-107193079D01*
X153085471Y-107192923D01*
X153093323Y-107187968D01*
X153154746Y-107170413D01*
X153205377Y-107153962D01*
X153214264Y-107153403D01*
X153231307Y-107148532D01*
X153286348Y-107148868D01*
X153331706Y-107146015D01*
X153348661Y-107149249D01*
X153348661Y-107149249D01*
G37*
G36*
X146748661Y-107149249D02*
G01*
X146774813Y-107149409D01*
X146819397Y-107162742D01*
X146856049Y-107169734D01*
X146879196Y-107180626D01*
X146912305Y-107190528D01*
X146944281Y-107211254D01*
X146970582Y-107223630D01*
X146996659Y-107245203D01*
X147032731Y-107268583D01*
X147052116Y-107291080D01*
X147068114Y-107304315D01*
X147092822Y-107338322D01*
X147126408Y-107377301D01*
X147135215Y-107396671D01*
X147142519Y-107406724D01*
X147160940Y-107453250D01*
X147185806Y-107507940D01*
X147187627Y-107520653D01*
X147189117Y-107524417D01*
X147196235Y-107580763D01*
X147201000Y-107614033D01*
X147201000Y-108584467D01*
X147184035Y-108697984D01*
X147169646Y-108728633D01*
X147167590Y-108739408D01*
X147147014Y-108776835D01*
X147123045Y-108827888D01*
X147112192Y-108840176D01*
X147108540Y-108846820D01*
X147071324Y-108886451D01*
X147028047Y-108935453D01*
X146955252Y-108981384D01*
X146915011Y-109006921D01*
X146914529Y-109007077D01*
X146906677Y-109012032D01*
X146845254Y-109029587D01*
X146794623Y-109046038D01*
X146785736Y-109046597D01*
X146768693Y-109051468D01*
X146713652Y-109051132D01*
X146668294Y-109053985D01*
X146651339Y-109050751D01*
X146625187Y-109050591D01*
X146580603Y-109037258D01*
X146543951Y-109030266D01*
X146520804Y-109019374D01*
X146487695Y-109009472D01*
X146455720Y-108988747D01*
X146429420Y-108976371D01*
X146403343Y-108954798D01*
X146367270Y-108931417D01*
X146347885Y-108908919D01*
X146331885Y-108895683D01*
X146307177Y-108861675D01*
X146273593Y-108822699D01*
X146264786Y-108803329D01*
X146257482Y-108793276D01*
X146239061Y-108746750D01*
X146214195Y-108692060D01*
X146212374Y-108679347D01*
X146210884Y-108675583D01*
X146203761Y-108619206D01*
X146199001Y-108585967D01*
X146199001Y-108581528D01*
X146199000Y-108581520D01*
X146199000Y-107615534D01*
X146215965Y-107502017D01*
X146230355Y-107471368D01*
X146232410Y-107460593D01*
X146252984Y-107423169D01*
X146276955Y-107372112D01*
X146287809Y-107359822D01*
X146291460Y-107353181D01*
X146328661Y-107313566D01*
X146371953Y-107264547D01*
X146444814Y-107218575D01*
X146484989Y-107193079D01*
X146485471Y-107192923D01*
X146493323Y-107187968D01*
X146554746Y-107170413D01*
X146605377Y-107153962D01*
X146614264Y-107153403D01*
X146631307Y-107148532D01*
X146686348Y-107148868D01*
X146731706Y-107146015D01*
X146748661Y-107149249D01*
X146748661Y-107149249D01*
G37*
G36*
X143699902Y-106719283D02*
G01*
X143744637Y-106719595D01*
X143788460Y-106728590D01*
X143838360Y-106733835D01*
X143880132Y-106747408D01*
X143917723Y-106755124D01*
X143964851Y-106774935D01*
X144018488Y-106792363D01*
X144051099Y-106811191D01*
X144080614Y-106823598D01*
X144128301Y-106855763D01*
X144182511Y-106887061D01*
X144205826Y-106908054D01*
X144227101Y-106922404D01*
X144272183Y-106967802D01*
X144323261Y-107013793D01*
X144338003Y-107034083D01*
X144351608Y-107047784D01*
X144390643Y-107106537D01*
X144434586Y-107167019D01*
X144442221Y-107184168D01*
X144449388Y-107194955D01*
X144478865Y-107266472D01*
X144511621Y-107340042D01*
X144514211Y-107352225D01*
X144516724Y-107358323D01*
X144533292Y-107441997D01*
X144550999Y-107525301D01*
X144550999Y-107714699D01*
X144548115Y-107728269D01*
X144548030Y-107734331D01*
X144529342Y-107816585D01*
X144511621Y-107899958D01*
X144509129Y-107905555D01*
X144509078Y-107905780D01*
X144437210Y-108067197D01*
X144437078Y-108067385D01*
X144434586Y-108072981D01*
X144384480Y-108141946D01*
X144335357Y-108211582D01*
X144330585Y-108216126D01*
X144323261Y-108226207D01*
X144263396Y-108280110D01*
X144207396Y-108333438D01*
X144196464Y-108340376D01*
X144182511Y-108352939D01*
X144117764Y-108390321D01*
X144058211Y-108428114D01*
X144040209Y-108435097D01*
X144018488Y-108447637D01*
X143953115Y-108468878D01*
X143893468Y-108492014D01*
X143868200Y-108496469D01*
X143838360Y-108506165D01*
X143776095Y-108512709D01*
X143719460Y-108522695D01*
X143687459Y-108522025D01*
X143650000Y-108525962D01*
X143593902Y-108520066D01*
X143542799Y-108518996D01*
X143505323Y-108510756D01*
X143461640Y-108506165D01*
X143413917Y-108490659D01*
X143370225Y-108481052D01*
X143329230Y-108463142D01*
X143281512Y-108447637D01*
X143243473Y-108425675D01*
X143208310Y-108410313D01*
X143166337Y-108381141D01*
X143117489Y-108352939D01*
X143089504Y-108327741D01*
X143063215Y-108309470D01*
X143023257Y-108268092D01*
X142976739Y-108226207D01*
X142958296Y-108200823D01*
X142940473Y-108182366D01*
X142905821Y-108128597D01*
X142865414Y-108072981D01*
X142855212Y-108050066D01*
X142844754Y-108033839D01*
X142818789Y-107968261D01*
X142788379Y-107899958D01*
X142784476Y-107881596D01*
X142779707Y-107869551D01*
X142765740Y-107793448D01*
X142749001Y-107714699D01*
X142749001Y-107702246D01*
X142747811Y-107695762D01*
X142749001Y-107610535D01*
X142749001Y-107525301D01*
X142750275Y-107519308D01*
X142750278Y-107519077D01*
X142787015Y-107346246D01*
X142787105Y-107346036D01*
X142788379Y-107340042D01*
X142823042Y-107262188D01*
X142856622Y-107183839D01*
X142860348Y-107178397D01*
X142865414Y-107167019D01*
X142912746Y-107101872D01*
X142956452Y-107038041D01*
X142965706Y-107028979D01*
X142976739Y-107013793D01*
X143032297Y-106963769D01*
X143082693Y-106914417D01*
X143098848Y-106903846D01*
X143117489Y-106887061D01*
X143177026Y-106852687D01*
X143230551Y-106817662D01*
X143254340Y-106808050D01*
X143281512Y-106792363D01*
X143341045Y-106773019D01*
X143394376Y-106751472D01*
X143425820Y-106745474D01*
X143461640Y-106733835D01*
X143517744Y-106727938D01*
X143567945Y-106718362D01*
X143606312Y-106718630D01*
X143650000Y-106714038D01*
X143699902Y-106719283D01*
X143699902Y-106719283D01*
G37*
G36*
X156399902Y-106719283D02*
G01*
X156444637Y-106719595D01*
X156488460Y-106728590D01*
X156538360Y-106733835D01*
X156580132Y-106747408D01*
X156617723Y-106755124D01*
X156664851Y-106774935D01*
X156718488Y-106792363D01*
X156751099Y-106811191D01*
X156780614Y-106823598D01*
X156828301Y-106855763D01*
X156882511Y-106887061D01*
X156905826Y-106908054D01*
X156927101Y-106922404D01*
X156972183Y-106967802D01*
X157023261Y-107013793D01*
X157038003Y-107034083D01*
X157051608Y-107047784D01*
X157090643Y-107106537D01*
X157134586Y-107167019D01*
X157142221Y-107184168D01*
X157149388Y-107194955D01*
X157178865Y-107266472D01*
X157211621Y-107340042D01*
X157214211Y-107352225D01*
X157216724Y-107358323D01*
X157233292Y-107441997D01*
X157250999Y-107525301D01*
X157250999Y-107714699D01*
X157248115Y-107728269D01*
X157248030Y-107734331D01*
X157229342Y-107816585D01*
X157211621Y-107899958D01*
X157209129Y-107905555D01*
X157209078Y-107905780D01*
X157137210Y-108067197D01*
X157137078Y-108067385D01*
X157134586Y-108072981D01*
X157084480Y-108141946D01*
X157035357Y-108211582D01*
X157030585Y-108216126D01*
X157023261Y-108226207D01*
X156963396Y-108280110D01*
X156907396Y-108333438D01*
X156896464Y-108340376D01*
X156882511Y-108352939D01*
X156817764Y-108390321D01*
X156758211Y-108428114D01*
X156740209Y-108435097D01*
X156718488Y-108447637D01*
X156653115Y-108468878D01*
X156593468Y-108492014D01*
X156568200Y-108496469D01*
X156538360Y-108506165D01*
X156476095Y-108512709D01*
X156419460Y-108522695D01*
X156387459Y-108522025D01*
X156350000Y-108525962D01*
X156293902Y-108520066D01*
X156242799Y-108518996D01*
X156205323Y-108510756D01*
X156161640Y-108506165D01*
X156113917Y-108490659D01*
X156070225Y-108481052D01*
X156029230Y-108463142D01*
X155981512Y-108447637D01*
X155943473Y-108425675D01*
X155908310Y-108410313D01*
X155866337Y-108381141D01*
X155817489Y-108352939D01*
X155789504Y-108327741D01*
X155763215Y-108309470D01*
X155723257Y-108268092D01*
X155676739Y-108226207D01*
X155658296Y-108200823D01*
X155640473Y-108182366D01*
X155605821Y-108128597D01*
X155565414Y-108072981D01*
X155555212Y-108050066D01*
X155544754Y-108033839D01*
X155518789Y-107968261D01*
X155488379Y-107899958D01*
X155484476Y-107881596D01*
X155479707Y-107869551D01*
X155465740Y-107793448D01*
X155449001Y-107714699D01*
X155449001Y-107702246D01*
X155447811Y-107695762D01*
X155449001Y-107610535D01*
X155449001Y-107525301D01*
X155450275Y-107519308D01*
X155450278Y-107519077D01*
X155487015Y-107346246D01*
X155487105Y-107346036D01*
X155488379Y-107340042D01*
X155523042Y-107262188D01*
X155556622Y-107183839D01*
X155560348Y-107178397D01*
X155565414Y-107167019D01*
X155612746Y-107101872D01*
X155656452Y-107038041D01*
X155665706Y-107028979D01*
X155676739Y-107013793D01*
X155732297Y-106963769D01*
X155782693Y-106914417D01*
X155798848Y-106903846D01*
X155817489Y-106887061D01*
X155877026Y-106852687D01*
X155930551Y-106817662D01*
X155954340Y-106808050D01*
X155981512Y-106792363D01*
X156041045Y-106773019D01*
X156094376Y-106751472D01*
X156125820Y-106745474D01*
X156161640Y-106733835D01*
X156217744Y-106727938D01*
X156267945Y-106718362D01*
X156306312Y-106718630D01*
X156350000Y-106714038D01*
X156399902Y-106719283D01*
X156399902Y-106719283D01*
G37*
G36*
X149820824Y-106198001D02*
G01*
X149821571Y-106198001D01*
X149825460Y-106198775D01*
X149896978Y-106210709D01*
X149903672Y-106214332D01*
X149909752Y-106215541D01*
X149926135Y-106226488D01*
X149963310Y-106246606D01*
X149974603Y-106258874D01*
X149984508Y-106265492D01*
X149994601Y-106280597D01*
X150014396Y-106302100D01*
X150024767Y-106325742D01*
X150034459Y-106340248D01*
X150037222Y-106354137D01*
X150045758Y-106373598D01*
X150053434Y-106435178D01*
X150053434Y-106762225D01*
X150051999Y-106770824D01*
X150051999Y-106771571D01*
X150051225Y-106775460D01*
X150039291Y-106846978D01*
X150035668Y-106853672D01*
X150034459Y-106859752D01*
X150023512Y-106876135D01*
X150003394Y-106913310D01*
X149991126Y-106924603D01*
X149984508Y-106934508D01*
X149969403Y-106944601D01*
X149947900Y-106964396D01*
X149924258Y-106974767D01*
X149909752Y-106984459D01*
X149895863Y-106987222D01*
X149876402Y-106995758D01*
X149814822Y-107003434D01*
X149387775Y-107003434D01*
X149379176Y-107001999D01*
X149378429Y-107001999D01*
X149374540Y-107001225D01*
X149303022Y-106989291D01*
X149296328Y-106985668D01*
X149290248Y-106984459D01*
X149273865Y-106973512D01*
X149236690Y-106953394D01*
X149225397Y-106941126D01*
X149215492Y-106934508D01*
X149205399Y-106919403D01*
X149185604Y-106897900D01*
X149175233Y-106874258D01*
X149165541Y-106859752D01*
X149162778Y-106845863D01*
X149154242Y-106826402D01*
X149146566Y-106764822D01*
X149146566Y-106437775D01*
X149148001Y-106429176D01*
X149148001Y-106428429D01*
X149148775Y-106424540D01*
X149160709Y-106353022D01*
X149164332Y-106346328D01*
X149165541Y-106340248D01*
X149176488Y-106323865D01*
X149196606Y-106286690D01*
X149208874Y-106275397D01*
X149215492Y-106265492D01*
X149230597Y-106255399D01*
X149252100Y-106235604D01*
X149275742Y-106225233D01*
X149290248Y-106215541D01*
X149304137Y-106212778D01*
X149323598Y-106204242D01*
X149385178Y-106196566D01*
X149812225Y-106196566D01*
X149820824Y-106198001D01*
X149820824Y-106198001D01*
G37*
G36*
X152970824Y-105548001D02*
G01*
X152971571Y-105548001D01*
X152975460Y-105548775D01*
X153046978Y-105560709D01*
X153053672Y-105564332D01*
X153059752Y-105565541D01*
X153076135Y-105576488D01*
X153113310Y-105596606D01*
X153124603Y-105608874D01*
X153134508Y-105615492D01*
X153144601Y-105630597D01*
X153164396Y-105652100D01*
X153174767Y-105675742D01*
X153184459Y-105690248D01*
X153187222Y-105704137D01*
X153195758Y-105723598D01*
X153203434Y-105785178D01*
X153203434Y-106212225D01*
X153201999Y-106220824D01*
X153201999Y-106221571D01*
X153201225Y-106225460D01*
X153189291Y-106296978D01*
X153185668Y-106303672D01*
X153184459Y-106309752D01*
X153173512Y-106326135D01*
X153153394Y-106363310D01*
X153141126Y-106374603D01*
X153134508Y-106384508D01*
X153119403Y-106394601D01*
X153097900Y-106414396D01*
X153074258Y-106424767D01*
X153059752Y-106434459D01*
X153045863Y-106437222D01*
X153026402Y-106445758D01*
X152964822Y-106453434D01*
X152637775Y-106453434D01*
X152629176Y-106451999D01*
X152628429Y-106451999D01*
X152624540Y-106451225D01*
X152553022Y-106439291D01*
X152546328Y-106435668D01*
X152540248Y-106434459D01*
X152523865Y-106423512D01*
X152486690Y-106403394D01*
X152475397Y-106391126D01*
X152465492Y-106384508D01*
X152455399Y-106369403D01*
X152435604Y-106347900D01*
X152425233Y-106324258D01*
X152415541Y-106309752D01*
X152412778Y-106295863D01*
X152404242Y-106276402D01*
X152396566Y-106214822D01*
X152396566Y-105787775D01*
X152398001Y-105779176D01*
X152398001Y-105778429D01*
X152398775Y-105774540D01*
X152410709Y-105703022D01*
X152414332Y-105696328D01*
X152415541Y-105690248D01*
X152426488Y-105673865D01*
X152446606Y-105636690D01*
X152458874Y-105625397D01*
X152465492Y-105615492D01*
X152480597Y-105605399D01*
X152502100Y-105585604D01*
X152525742Y-105575233D01*
X152540248Y-105565541D01*
X152554137Y-105562778D01*
X152573598Y-105554242D01*
X152635178Y-105546566D01*
X152962225Y-105546566D01*
X152970824Y-105548001D01*
X152970824Y-105548001D01*
G37*
G36*
X154370824Y-105548001D02*
G01*
X154371571Y-105548001D01*
X154375460Y-105548775D01*
X154446978Y-105560709D01*
X154453672Y-105564332D01*
X154459752Y-105565541D01*
X154476135Y-105576488D01*
X154513310Y-105596606D01*
X154524603Y-105608874D01*
X154534508Y-105615492D01*
X154544601Y-105630597D01*
X154564396Y-105652100D01*
X154574767Y-105675742D01*
X154584459Y-105690248D01*
X154587222Y-105704137D01*
X154595758Y-105723598D01*
X154603434Y-105785178D01*
X154603434Y-106212225D01*
X154601999Y-106220824D01*
X154601999Y-106221571D01*
X154601225Y-106225460D01*
X154589291Y-106296978D01*
X154585668Y-106303672D01*
X154584459Y-106309752D01*
X154573512Y-106326135D01*
X154553394Y-106363310D01*
X154541126Y-106374603D01*
X154534508Y-106384508D01*
X154519403Y-106394601D01*
X154497900Y-106414396D01*
X154474258Y-106424767D01*
X154459752Y-106434459D01*
X154445863Y-106437222D01*
X154426402Y-106445758D01*
X154364822Y-106453434D01*
X154037775Y-106453434D01*
X154029176Y-106451999D01*
X154028429Y-106451999D01*
X154024540Y-106451225D01*
X153953022Y-106439291D01*
X153946328Y-106435668D01*
X153940248Y-106434459D01*
X153923865Y-106423512D01*
X153886690Y-106403394D01*
X153875397Y-106391126D01*
X153865492Y-106384508D01*
X153855399Y-106369403D01*
X153835604Y-106347900D01*
X153825233Y-106324258D01*
X153815541Y-106309752D01*
X153812778Y-106295863D01*
X153804242Y-106276402D01*
X153796566Y-106214822D01*
X153796566Y-105787775D01*
X153798001Y-105779176D01*
X153798001Y-105778429D01*
X153798775Y-105774540D01*
X153810709Y-105703022D01*
X153814332Y-105696328D01*
X153815541Y-105690248D01*
X153826488Y-105673865D01*
X153846606Y-105636690D01*
X153858874Y-105625397D01*
X153865492Y-105615492D01*
X153880597Y-105605399D01*
X153902100Y-105585604D01*
X153925742Y-105575233D01*
X153940248Y-105565541D01*
X153954137Y-105562778D01*
X153973598Y-105554242D01*
X154035178Y-105546566D01*
X154362225Y-105546566D01*
X154370824Y-105548001D01*
X154370824Y-105548001D01*
G37*
G36*
X143838360Y-104193835D02*
G01*
X143919397Y-104220166D01*
X144006663Y-104247848D01*
X144009655Y-104249493D01*
X144018488Y-104252363D01*
X144090466Y-104293919D01*
X144161499Y-104332970D01*
X144168986Y-104339253D01*
X144182511Y-104347061D01*
X144240259Y-104399057D01*
X144296857Y-104446549D01*
X144306962Y-104459118D01*
X144323261Y-104473793D01*
X144365454Y-104531867D01*
X144407579Y-104584260D01*
X144417994Y-104604182D01*
X144434586Y-104627019D01*
X144461297Y-104687012D01*
X144489439Y-104740843D01*
X144497582Y-104768510D01*
X144511621Y-104800042D01*
X144523992Y-104858241D01*
X144539328Y-104910349D01*
X144542518Y-104945401D01*
X144550999Y-104985301D01*
X144550999Y-105038592D01*
X144555343Y-105086324D01*
X144550999Y-105127653D01*
X144550999Y-105174699D01*
X144541217Y-105220721D01*
X144536873Y-105262047D01*
X144522702Y-105307827D01*
X144511621Y-105359958D01*
X144495028Y-105397226D01*
X144484622Y-105430843D01*
X144458789Y-105478620D01*
X144434586Y-105532981D01*
X144414298Y-105560905D01*
X144400580Y-105586276D01*
X144361859Y-105633082D01*
X144323261Y-105686207D01*
X144302284Y-105705095D01*
X144287952Y-105722419D01*
X144235845Y-105764917D01*
X144182511Y-105812939D01*
X144163524Y-105823901D01*
X144151025Y-105834095D01*
X144085780Y-105868786D01*
X144018488Y-105907637D01*
X144003636Y-105912463D01*
X143995003Y-105917053D01*
X143917430Y-105940473D01*
X143838360Y-105966165D01*
X143829114Y-105967137D01*
X143825851Y-105968122D01*
X143734710Y-105977059D01*
X143697211Y-105981000D01*
X143602789Y-105981000D01*
X143461640Y-105966165D01*
X143380603Y-105939834D01*
X143293337Y-105912152D01*
X143290345Y-105910507D01*
X143281512Y-105907637D01*
X143209534Y-105866081D01*
X143138501Y-105827030D01*
X143131014Y-105820747D01*
X143117489Y-105812939D01*
X143059741Y-105760943D01*
X143003143Y-105713451D01*
X142993038Y-105700882D01*
X142976739Y-105686207D01*
X142934546Y-105628133D01*
X142892421Y-105575740D01*
X142882006Y-105555818D01*
X142865414Y-105532981D01*
X142838703Y-105472988D01*
X142810561Y-105419157D01*
X142802418Y-105391490D01*
X142788379Y-105359958D01*
X142776008Y-105301759D01*
X142760672Y-105249651D01*
X142757482Y-105214599D01*
X142749001Y-105174699D01*
X142749001Y-105121408D01*
X142744657Y-105073676D01*
X142749001Y-105032347D01*
X142749001Y-104985301D01*
X142758783Y-104939279D01*
X142763127Y-104897953D01*
X142777298Y-104852173D01*
X142788379Y-104800042D01*
X142804972Y-104762774D01*
X142815378Y-104729157D01*
X142841211Y-104681380D01*
X142865414Y-104627019D01*
X142885702Y-104599095D01*
X142899420Y-104573724D01*
X142938141Y-104526918D01*
X142976739Y-104473793D01*
X142997716Y-104454905D01*
X143012048Y-104437581D01*
X143064155Y-104395083D01*
X143117489Y-104347061D01*
X143136476Y-104336099D01*
X143148975Y-104325905D01*
X143214220Y-104291214D01*
X143281512Y-104252363D01*
X143296364Y-104247537D01*
X143304997Y-104242947D01*
X143382570Y-104219527D01*
X143461640Y-104193835D01*
X143470886Y-104192863D01*
X143474149Y-104191878D01*
X143565290Y-104182941D01*
X143602789Y-104179000D01*
X143697211Y-104179000D01*
X143838360Y-104193835D01*
X143838360Y-104193835D01*
G37*
G36*
X156538360Y-104193835D02*
G01*
X156619397Y-104220166D01*
X156706663Y-104247848D01*
X156709655Y-104249493D01*
X156718488Y-104252363D01*
X156790466Y-104293919D01*
X156861499Y-104332970D01*
X156868986Y-104339253D01*
X156882511Y-104347061D01*
X156940259Y-104399057D01*
X156996857Y-104446549D01*
X157006962Y-104459118D01*
X157023261Y-104473793D01*
X157065454Y-104531867D01*
X157107579Y-104584260D01*
X157117994Y-104604182D01*
X157134586Y-104627019D01*
X157161297Y-104687012D01*
X157189439Y-104740843D01*
X157197582Y-104768510D01*
X157211621Y-104800042D01*
X157223992Y-104858241D01*
X157239328Y-104910349D01*
X157242518Y-104945401D01*
X157250999Y-104985301D01*
X157250999Y-105038592D01*
X157255343Y-105086324D01*
X157250999Y-105127653D01*
X157250999Y-105174699D01*
X157241217Y-105220721D01*
X157236873Y-105262047D01*
X157222702Y-105307827D01*
X157211621Y-105359958D01*
X157195028Y-105397226D01*
X157184622Y-105430843D01*
X157158789Y-105478620D01*
X157134586Y-105532981D01*
X157114298Y-105560905D01*
X157100580Y-105586276D01*
X157061859Y-105633082D01*
X157023261Y-105686207D01*
X157002284Y-105705095D01*
X156987952Y-105722419D01*
X156935845Y-105764917D01*
X156882511Y-105812939D01*
X156863524Y-105823901D01*
X156851025Y-105834095D01*
X156785780Y-105868786D01*
X156718488Y-105907637D01*
X156703636Y-105912463D01*
X156695003Y-105917053D01*
X156617430Y-105940473D01*
X156538360Y-105966165D01*
X156529114Y-105967137D01*
X156525851Y-105968122D01*
X156434710Y-105977059D01*
X156397211Y-105981000D01*
X156302789Y-105981000D01*
X156161640Y-105966165D01*
X156080603Y-105939834D01*
X155993337Y-105912152D01*
X155990345Y-105910507D01*
X155981512Y-105907637D01*
X155909534Y-105866081D01*
X155838501Y-105827030D01*
X155831014Y-105820747D01*
X155817489Y-105812939D01*
X155759741Y-105760943D01*
X155703143Y-105713451D01*
X155693038Y-105700882D01*
X155676739Y-105686207D01*
X155634546Y-105628133D01*
X155592421Y-105575740D01*
X155582006Y-105555818D01*
X155565414Y-105532981D01*
X155538703Y-105472988D01*
X155510561Y-105419157D01*
X155502418Y-105391490D01*
X155488379Y-105359958D01*
X155476008Y-105301759D01*
X155460672Y-105249651D01*
X155457482Y-105214599D01*
X155449001Y-105174699D01*
X155449001Y-105121408D01*
X155444657Y-105073676D01*
X155449001Y-105032347D01*
X155449001Y-104985301D01*
X155458783Y-104939279D01*
X155463127Y-104897953D01*
X155477298Y-104852173D01*
X155488379Y-104800042D01*
X155504972Y-104762774D01*
X155515378Y-104729157D01*
X155541211Y-104681380D01*
X155565414Y-104627019D01*
X155585702Y-104599095D01*
X155599420Y-104573724D01*
X155638141Y-104526918D01*
X155676739Y-104473793D01*
X155697716Y-104454905D01*
X155712048Y-104437581D01*
X155764155Y-104395083D01*
X155817489Y-104347061D01*
X155836476Y-104336099D01*
X155848975Y-104325905D01*
X155914220Y-104291214D01*
X155981512Y-104252363D01*
X155996364Y-104247537D01*
X156004997Y-104242947D01*
X156082570Y-104219527D01*
X156161640Y-104193835D01*
X156170886Y-104192863D01*
X156174149Y-104191878D01*
X156265290Y-104182941D01*
X156302789Y-104179000D01*
X156397211Y-104179000D01*
X156538360Y-104193835D01*
X156538360Y-104193835D01*
G37*
G36*
X149820824Y-104798001D02*
G01*
X149821571Y-104798001D01*
X149825460Y-104798775D01*
X149896978Y-104810709D01*
X149903672Y-104814332D01*
X149909752Y-104815541D01*
X149926135Y-104826488D01*
X149963310Y-104846606D01*
X149974603Y-104858874D01*
X149984508Y-104865492D01*
X149994601Y-104880597D01*
X150014396Y-104902100D01*
X150024767Y-104925742D01*
X150034459Y-104940248D01*
X150037222Y-104954137D01*
X150045758Y-104973598D01*
X150053434Y-105035178D01*
X150053434Y-105362225D01*
X150051999Y-105370824D01*
X150051999Y-105371571D01*
X150051225Y-105375460D01*
X150039291Y-105446978D01*
X150035668Y-105453672D01*
X150034459Y-105459752D01*
X150023512Y-105476135D01*
X150003394Y-105513310D01*
X149991126Y-105524603D01*
X149984508Y-105534508D01*
X149969403Y-105544601D01*
X149947900Y-105564396D01*
X149924258Y-105574767D01*
X149909752Y-105584459D01*
X149895863Y-105587222D01*
X149876402Y-105595758D01*
X149814822Y-105603434D01*
X149387775Y-105603434D01*
X149379176Y-105601999D01*
X149378429Y-105601999D01*
X149374540Y-105601225D01*
X149303022Y-105589291D01*
X149296328Y-105585668D01*
X149290248Y-105584459D01*
X149273865Y-105573512D01*
X149236690Y-105553394D01*
X149225397Y-105541126D01*
X149215492Y-105534508D01*
X149205399Y-105519403D01*
X149185604Y-105497900D01*
X149175233Y-105474258D01*
X149165541Y-105459752D01*
X149162778Y-105445863D01*
X149154242Y-105426402D01*
X149146566Y-105364822D01*
X149146566Y-105037775D01*
X149148001Y-105029176D01*
X149148001Y-105028429D01*
X149148775Y-105024540D01*
X149160709Y-104953022D01*
X149164332Y-104946328D01*
X149165541Y-104940248D01*
X149176488Y-104923865D01*
X149196606Y-104886690D01*
X149208874Y-104875397D01*
X149215492Y-104865492D01*
X149230597Y-104855399D01*
X149252100Y-104835604D01*
X149275742Y-104825233D01*
X149290248Y-104815541D01*
X149304137Y-104812778D01*
X149323598Y-104804242D01*
X149385178Y-104796566D01*
X149812225Y-104796566D01*
X149820824Y-104798001D01*
X149820824Y-104798001D01*
G37*
G36*
X149053760Y-103808134D02*
G01*
X149056020Y-103809533D01*
X149056958Y-103809720D01*
X149064997Y-103815091D01*
X149101953Y-103837973D01*
X149104714Y-103841630D01*
X149106906Y-103843094D01*
X149115248Y-103855578D01*
X149134303Y-103880812D01*
X149135495Y-103885881D01*
X149140280Y-103893042D01*
X149151999Y-103951959D01*
X149151999Y-103956050D01*
X149154448Y-103966462D01*
X149154448Y-104236456D01*
X149141866Y-104303760D01*
X149140467Y-104306020D01*
X149140280Y-104306958D01*
X149134909Y-104314997D01*
X149112027Y-104351953D01*
X149108370Y-104354714D01*
X149106906Y-104356906D01*
X149094422Y-104365248D01*
X149069188Y-104384303D01*
X149064119Y-104385495D01*
X149056958Y-104390280D01*
X148998041Y-104401999D01*
X148993950Y-104401999D01*
X148983538Y-104404448D01*
X148813544Y-104404448D01*
X148746240Y-104391866D01*
X148743980Y-104390467D01*
X148743042Y-104390280D01*
X148735003Y-104384909D01*
X148698047Y-104362027D01*
X148695286Y-104358370D01*
X148693094Y-104356906D01*
X148684752Y-104344422D01*
X148665697Y-104319188D01*
X148664505Y-104314119D01*
X148659720Y-104306958D01*
X148648001Y-104248041D01*
X148648001Y-104243950D01*
X148645552Y-104233538D01*
X148645552Y-103963544D01*
X148658134Y-103896240D01*
X148659533Y-103893980D01*
X148659720Y-103893042D01*
X148665091Y-103885003D01*
X148687973Y-103848047D01*
X148691630Y-103845286D01*
X148693094Y-103843094D01*
X148705578Y-103834752D01*
X148730812Y-103815697D01*
X148735881Y-103814505D01*
X148743042Y-103809720D01*
X148801959Y-103798001D01*
X148806050Y-103798001D01*
X148816462Y-103795552D01*
X148986456Y-103795552D01*
X149053760Y-103808134D01*
X149053760Y-103808134D01*
G37*
G36*
X148253760Y-103808134D02*
G01*
X148256020Y-103809533D01*
X148256958Y-103809720D01*
X148264997Y-103815091D01*
X148301953Y-103837973D01*
X148304714Y-103841630D01*
X148306906Y-103843094D01*
X148315248Y-103855578D01*
X148334303Y-103880812D01*
X148335495Y-103885881D01*
X148340280Y-103893042D01*
X148351999Y-103951959D01*
X148351999Y-103956050D01*
X148354448Y-103966462D01*
X148354448Y-104236456D01*
X148341866Y-104303760D01*
X148340467Y-104306020D01*
X148340280Y-104306958D01*
X148334909Y-104314997D01*
X148312027Y-104351953D01*
X148308370Y-104354714D01*
X148306906Y-104356906D01*
X148294422Y-104365248D01*
X148269188Y-104384303D01*
X148264119Y-104385495D01*
X148256958Y-104390280D01*
X148198041Y-104401999D01*
X148193950Y-104401999D01*
X148183538Y-104404448D01*
X148013544Y-104404448D01*
X147946240Y-104391866D01*
X147943980Y-104390467D01*
X147943042Y-104390280D01*
X147935003Y-104384909D01*
X147898047Y-104362027D01*
X147895286Y-104358370D01*
X147893094Y-104356906D01*
X147884752Y-104344422D01*
X147865697Y-104319188D01*
X147864505Y-104314119D01*
X147859720Y-104306958D01*
X147848001Y-104248041D01*
X147848001Y-104243950D01*
X147845552Y-104233538D01*
X147845552Y-103963544D01*
X147858134Y-103896240D01*
X147859533Y-103893980D01*
X147859720Y-103893042D01*
X147865091Y-103885003D01*
X147887973Y-103848047D01*
X147891630Y-103845286D01*
X147893094Y-103843094D01*
X147905578Y-103834752D01*
X147930812Y-103815697D01*
X147935881Y-103814505D01*
X147943042Y-103809720D01*
X148001959Y-103798001D01*
X148006050Y-103798001D01*
X148016462Y-103795552D01*
X148186456Y-103795552D01*
X148253760Y-103808134D01*
X148253760Y-103808134D01*
G37*
G36*
X146603760Y-103158134D02*
G01*
X146606020Y-103159533D01*
X146606958Y-103159720D01*
X146614997Y-103165091D01*
X146651953Y-103187973D01*
X146654714Y-103191630D01*
X146656906Y-103193094D01*
X146665248Y-103205578D01*
X146684303Y-103230812D01*
X146685495Y-103235881D01*
X146690280Y-103243042D01*
X146701999Y-103301959D01*
X146701999Y-103306050D01*
X146704448Y-103316462D01*
X146704448Y-103486456D01*
X146691866Y-103553760D01*
X146690467Y-103556020D01*
X146690280Y-103556958D01*
X146684909Y-103564997D01*
X146662027Y-103601953D01*
X146658370Y-103604714D01*
X146656906Y-103606906D01*
X146644422Y-103615248D01*
X146619188Y-103634303D01*
X146614119Y-103635495D01*
X146606958Y-103640280D01*
X146548041Y-103651999D01*
X146543950Y-103651999D01*
X146533538Y-103654448D01*
X146263544Y-103654448D01*
X146196240Y-103641866D01*
X146193980Y-103640467D01*
X146193042Y-103640280D01*
X146185003Y-103634909D01*
X146148047Y-103612027D01*
X146145286Y-103608370D01*
X146143094Y-103606906D01*
X146134752Y-103594422D01*
X146115697Y-103569188D01*
X146114505Y-103564119D01*
X146109720Y-103556958D01*
X146098001Y-103498041D01*
X146098001Y-103493950D01*
X146095552Y-103483538D01*
X146095552Y-103313544D01*
X146108134Y-103246240D01*
X146109533Y-103243980D01*
X146109720Y-103243042D01*
X146115091Y-103235003D01*
X146137973Y-103198047D01*
X146141630Y-103195286D01*
X146143094Y-103193094D01*
X146155578Y-103184752D01*
X146180812Y-103165697D01*
X146185881Y-103164505D01*
X146193042Y-103159720D01*
X146251959Y-103148001D01*
X146256050Y-103148001D01*
X146266462Y-103145552D01*
X146536456Y-103145552D01*
X146603760Y-103158134D01*
X146603760Y-103158134D01*
G37*
G36*
X156538360Y-101653835D02*
G01*
X156619397Y-101680166D01*
X156706663Y-101707848D01*
X156709655Y-101709493D01*
X156718488Y-101712363D01*
X156790466Y-101753919D01*
X156861499Y-101792970D01*
X156868986Y-101799253D01*
X156882511Y-101807061D01*
X156940259Y-101859057D01*
X156996857Y-101906549D01*
X157006962Y-101919118D01*
X157023261Y-101933793D01*
X157065454Y-101991867D01*
X157107579Y-102044260D01*
X157117994Y-102064182D01*
X157134586Y-102087019D01*
X157161297Y-102147012D01*
X157189439Y-102200843D01*
X157197582Y-102228510D01*
X157211621Y-102260042D01*
X157223992Y-102318241D01*
X157239328Y-102370349D01*
X157242518Y-102405401D01*
X157250999Y-102445301D01*
X157250999Y-102498592D01*
X157255343Y-102546324D01*
X157250999Y-102587653D01*
X157250999Y-102634699D01*
X157241217Y-102680721D01*
X157236873Y-102722047D01*
X157222702Y-102767827D01*
X157211621Y-102819958D01*
X157195028Y-102857226D01*
X157184622Y-102890843D01*
X157158789Y-102938620D01*
X157134586Y-102992981D01*
X157114298Y-103020905D01*
X157100580Y-103046276D01*
X157061859Y-103093082D01*
X157023261Y-103146207D01*
X157002284Y-103165095D01*
X156987952Y-103182419D01*
X156935845Y-103224917D01*
X156882511Y-103272939D01*
X156863524Y-103283901D01*
X156851025Y-103294095D01*
X156785780Y-103328786D01*
X156718488Y-103367637D01*
X156703636Y-103372463D01*
X156695003Y-103377053D01*
X156617430Y-103400473D01*
X156538360Y-103426165D01*
X156529114Y-103427137D01*
X156525851Y-103428122D01*
X156434710Y-103437059D01*
X156397211Y-103441000D01*
X156302789Y-103441000D01*
X156161640Y-103426165D01*
X156080603Y-103399834D01*
X155993337Y-103372152D01*
X155990345Y-103370507D01*
X155981512Y-103367637D01*
X155909534Y-103326081D01*
X155838501Y-103287030D01*
X155831014Y-103280747D01*
X155817489Y-103272939D01*
X155759741Y-103220943D01*
X155703143Y-103173451D01*
X155693038Y-103160882D01*
X155676739Y-103146207D01*
X155634546Y-103088133D01*
X155592421Y-103035740D01*
X155582006Y-103015818D01*
X155565414Y-102992981D01*
X155538703Y-102932988D01*
X155510561Y-102879157D01*
X155502418Y-102851490D01*
X155488379Y-102819958D01*
X155476008Y-102761759D01*
X155460672Y-102709651D01*
X155457482Y-102674599D01*
X155449001Y-102634699D01*
X155449001Y-102581408D01*
X155444657Y-102533676D01*
X155449001Y-102492347D01*
X155449001Y-102445301D01*
X155458783Y-102399279D01*
X155463127Y-102357953D01*
X155477298Y-102312173D01*
X155488379Y-102260042D01*
X155504972Y-102222774D01*
X155515378Y-102189157D01*
X155541211Y-102141380D01*
X155565414Y-102087019D01*
X155585702Y-102059095D01*
X155599420Y-102033724D01*
X155638141Y-101986918D01*
X155676739Y-101933793D01*
X155697716Y-101914905D01*
X155712048Y-101897581D01*
X155764155Y-101855083D01*
X155817489Y-101807061D01*
X155836476Y-101796099D01*
X155848975Y-101785905D01*
X155914220Y-101751214D01*
X155981512Y-101712363D01*
X155996364Y-101707537D01*
X156004997Y-101702947D01*
X156082570Y-101679527D01*
X156161640Y-101653835D01*
X156170886Y-101652863D01*
X156174149Y-101651878D01*
X156265290Y-101642941D01*
X156302789Y-101639000D01*
X156397211Y-101639000D01*
X156538360Y-101653835D01*
X156538360Y-101653835D01*
G37*
G36*
X143838360Y-101653835D02*
G01*
X143919397Y-101680166D01*
X144006663Y-101707848D01*
X144009655Y-101709493D01*
X144018488Y-101712363D01*
X144090466Y-101753919D01*
X144161499Y-101792970D01*
X144168986Y-101799253D01*
X144182511Y-101807061D01*
X144240259Y-101859057D01*
X144296857Y-101906549D01*
X144306962Y-101919118D01*
X144323261Y-101933793D01*
X144365454Y-101991867D01*
X144407579Y-102044260D01*
X144417994Y-102064182D01*
X144434586Y-102087019D01*
X144461297Y-102147012D01*
X144489439Y-102200843D01*
X144497582Y-102228510D01*
X144511621Y-102260042D01*
X144523992Y-102318241D01*
X144539328Y-102370349D01*
X144542518Y-102405401D01*
X144550999Y-102445301D01*
X144550999Y-102498592D01*
X144555343Y-102546324D01*
X144550999Y-102587653D01*
X144550999Y-102634699D01*
X144541217Y-102680721D01*
X144536873Y-102722047D01*
X144522702Y-102767827D01*
X144511621Y-102819958D01*
X144495028Y-102857226D01*
X144484622Y-102890843D01*
X144458789Y-102938620D01*
X144434586Y-102992981D01*
X144414298Y-103020905D01*
X144400580Y-103046276D01*
X144361859Y-103093082D01*
X144323261Y-103146207D01*
X144302284Y-103165095D01*
X144287952Y-103182419D01*
X144235845Y-103224917D01*
X144182511Y-103272939D01*
X144163524Y-103283901D01*
X144151025Y-103294095D01*
X144085780Y-103328786D01*
X144018488Y-103367637D01*
X144003636Y-103372463D01*
X143995003Y-103377053D01*
X143917430Y-103400473D01*
X143838360Y-103426165D01*
X143829114Y-103427137D01*
X143825851Y-103428122D01*
X143734710Y-103437059D01*
X143697211Y-103441000D01*
X143602789Y-103441000D01*
X143461640Y-103426165D01*
X143380603Y-103399834D01*
X143293337Y-103372152D01*
X143290345Y-103370507D01*
X143281512Y-103367637D01*
X143209534Y-103326081D01*
X143138501Y-103287030D01*
X143131014Y-103280747D01*
X143117489Y-103272939D01*
X143059741Y-103220943D01*
X143003143Y-103173451D01*
X142993038Y-103160882D01*
X142976739Y-103146207D01*
X142934546Y-103088133D01*
X142892421Y-103035740D01*
X142882006Y-103015818D01*
X142865414Y-102992981D01*
X142838703Y-102932988D01*
X142810561Y-102879157D01*
X142802418Y-102851490D01*
X142788379Y-102819958D01*
X142776008Y-102761759D01*
X142760672Y-102709651D01*
X142757482Y-102674599D01*
X142749001Y-102634699D01*
X142749001Y-102581408D01*
X142744657Y-102533676D01*
X142749001Y-102492347D01*
X142749001Y-102445301D01*
X142758783Y-102399279D01*
X142763127Y-102357953D01*
X142777298Y-102312173D01*
X142788379Y-102260042D01*
X142804972Y-102222774D01*
X142815378Y-102189157D01*
X142841211Y-102141380D01*
X142865414Y-102087019D01*
X142885702Y-102059095D01*
X142899420Y-102033724D01*
X142938141Y-101986918D01*
X142976739Y-101933793D01*
X142997716Y-101914905D01*
X143012048Y-101897581D01*
X143064155Y-101855083D01*
X143117489Y-101807061D01*
X143136476Y-101796099D01*
X143148975Y-101785905D01*
X143214220Y-101751214D01*
X143281512Y-101712363D01*
X143296364Y-101707537D01*
X143304997Y-101702947D01*
X143382570Y-101679527D01*
X143461640Y-101653835D01*
X143470886Y-101652863D01*
X143474149Y-101651878D01*
X143565290Y-101642941D01*
X143602789Y-101639000D01*
X143697211Y-101639000D01*
X143838360Y-101653835D01*
X143838360Y-101653835D01*
G37*
G36*
X148355561Y-97081809D02*
G01*
X148393104Y-97106895D01*
X148396067Y-97111329D01*
X148450111Y-97156495D01*
X148519995Y-97165272D01*
X148603933Y-97111329D01*
X148606896Y-97106895D01*
X148644439Y-97081809D01*
X148701034Y-97070552D01*
X148798966Y-97070552D01*
X148855561Y-97081809D01*
X148893104Y-97106895D01*
X148896067Y-97111329D01*
X148950111Y-97156495D01*
X149019995Y-97165272D01*
X149103933Y-97111329D01*
X149106896Y-97106895D01*
X149144439Y-97081809D01*
X149201034Y-97070552D01*
X149298966Y-97070552D01*
X149355561Y-97081809D01*
X149393104Y-97106895D01*
X149396067Y-97111329D01*
X149450111Y-97156495D01*
X149519995Y-97165272D01*
X149603933Y-97111329D01*
X149606896Y-97106895D01*
X149644439Y-97081809D01*
X149701034Y-97070552D01*
X149798966Y-97070552D01*
X149855561Y-97081809D01*
X149893104Y-97106895D01*
X149896067Y-97111329D01*
X149950111Y-97156495D01*
X150019995Y-97165272D01*
X150103933Y-97111329D01*
X150106896Y-97106895D01*
X150144439Y-97081809D01*
X150201034Y-97070552D01*
X150298966Y-97070552D01*
X150355561Y-97081809D01*
X150393104Y-97106895D01*
X150396067Y-97111329D01*
X150450111Y-97156495D01*
X150519995Y-97165272D01*
X150603933Y-97111329D01*
X150606896Y-97106895D01*
X150644439Y-97081809D01*
X150701034Y-97070552D01*
X150798966Y-97070552D01*
X150855561Y-97081809D01*
X150893104Y-97106895D01*
X150896067Y-97111329D01*
X150950111Y-97156495D01*
X151019995Y-97165272D01*
X151103933Y-97111329D01*
X151106896Y-97106895D01*
X151144439Y-97081809D01*
X151201034Y-97070552D01*
X151298966Y-97070552D01*
X151355561Y-97081809D01*
X151393104Y-97106895D01*
X151396067Y-97111329D01*
X151450111Y-97156495D01*
X151519995Y-97165272D01*
X151603933Y-97111329D01*
X151606896Y-97106895D01*
X151644439Y-97081809D01*
X151701034Y-97070552D01*
X151798966Y-97070552D01*
X151855561Y-97081809D01*
X151893105Y-97106895D01*
X151918191Y-97144439D01*
X151929448Y-97201034D01*
X151929448Y-97936276D01*
X151930692Y-97936276D01*
X151935826Y-97993626D01*
X151979036Y-98049246D01*
X152063724Y-98067669D01*
X152063724Y-98070552D01*
X152798966Y-98070552D01*
X152855561Y-98081809D01*
X152893105Y-98106895D01*
X152918191Y-98144439D01*
X152929448Y-98201034D01*
X152929448Y-98298966D01*
X152918191Y-98355561D01*
X152893105Y-98393104D01*
X152888671Y-98396067D01*
X152843505Y-98450111D01*
X152834728Y-98519995D01*
X152888671Y-98603933D01*
X152893105Y-98606896D01*
X152918191Y-98644439D01*
X152929448Y-98701034D01*
X152929448Y-98798966D01*
X152918191Y-98855561D01*
X152893105Y-98893104D01*
X152888671Y-98896067D01*
X152843505Y-98950111D01*
X152834728Y-99019995D01*
X152888671Y-99103933D01*
X152893105Y-99106896D01*
X152918191Y-99144439D01*
X152929448Y-99201034D01*
X152929448Y-99298966D01*
X152918191Y-99355561D01*
X152893105Y-99393104D01*
X152888671Y-99396067D01*
X152843505Y-99450111D01*
X152834728Y-99519995D01*
X152888671Y-99603933D01*
X152893105Y-99606896D01*
X152918191Y-99644439D01*
X152929448Y-99701034D01*
X152929448Y-99798966D01*
X152918191Y-99855561D01*
X152893105Y-99893104D01*
X152888671Y-99896067D01*
X152843505Y-99950111D01*
X152834728Y-100019995D01*
X152888671Y-100103933D01*
X152893105Y-100106896D01*
X152918191Y-100144439D01*
X152929448Y-100201034D01*
X152929448Y-100298966D01*
X152918191Y-100355561D01*
X152893105Y-100393104D01*
X152888671Y-100396067D01*
X152843505Y-100450111D01*
X152834728Y-100519995D01*
X152888671Y-100603933D01*
X152893105Y-100606896D01*
X152918191Y-100644439D01*
X152929448Y-100701034D01*
X152929448Y-100798966D01*
X152918191Y-100855561D01*
X152893105Y-100893104D01*
X152888671Y-100896067D01*
X152843505Y-100950111D01*
X152834728Y-101019995D01*
X152888671Y-101103933D01*
X152893105Y-101106896D01*
X152918191Y-101144439D01*
X152929448Y-101201034D01*
X152929448Y-101298966D01*
X152918191Y-101355561D01*
X152893105Y-101393104D01*
X152888671Y-101396067D01*
X152843505Y-101450111D01*
X152834728Y-101519995D01*
X152888671Y-101603933D01*
X152893105Y-101606896D01*
X152918191Y-101644439D01*
X152929448Y-101701034D01*
X152929448Y-101798966D01*
X152918191Y-101855561D01*
X152893105Y-101893105D01*
X152855561Y-101918191D01*
X152798966Y-101929448D01*
X152063724Y-101929448D01*
X152063724Y-101930692D01*
X152006374Y-101935826D01*
X151950754Y-101979036D01*
X151932331Y-102063724D01*
X151929448Y-102063724D01*
X151929448Y-102798966D01*
X151918191Y-102855561D01*
X151893105Y-102893105D01*
X151855561Y-102918191D01*
X151798966Y-102929448D01*
X151701034Y-102929448D01*
X151644439Y-102918191D01*
X151606896Y-102893105D01*
X151603933Y-102888671D01*
X151549889Y-102843505D01*
X151480005Y-102834728D01*
X151396067Y-102888671D01*
X151393104Y-102893105D01*
X151355561Y-102918191D01*
X151298966Y-102929448D01*
X151201034Y-102929448D01*
X151144439Y-102918191D01*
X151106896Y-102893105D01*
X151103933Y-102888671D01*
X151049889Y-102843505D01*
X150980005Y-102834728D01*
X150896067Y-102888671D01*
X150893104Y-102893105D01*
X150855561Y-102918191D01*
X150798966Y-102929448D01*
X150701034Y-102929448D01*
X150644439Y-102918191D01*
X150606896Y-102893105D01*
X150603933Y-102888671D01*
X150549889Y-102843505D01*
X150480005Y-102834728D01*
X150396067Y-102888671D01*
X150393104Y-102893105D01*
X150355561Y-102918191D01*
X150298966Y-102929448D01*
X150201034Y-102929448D01*
X150144439Y-102918191D01*
X150106896Y-102893105D01*
X150103933Y-102888671D01*
X150049889Y-102843505D01*
X149980005Y-102834728D01*
X149896067Y-102888671D01*
X149893104Y-102893105D01*
X149855561Y-102918191D01*
X149798966Y-102929448D01*
X149701034Y-102929448D01*
X149644439Y-102918191D01*
X149606896Y-102893105D01*
X149603933Y-102888671D01*
X149549889Y-102843505D01*
X149480005Y-102834728D01*
X149396067Y-102888671D01*
X149393104Y-102893105D01*
X149355561Y-102918191D01*
X149298966Y-102929448D01*
X149201034Y-102929448D01*
X149144439Y-102918191D01*
X149106896Y-102893105D01*
X149103933Y-102888671D01*
X149049889Y-102843505D01*
X148980005Y-102834728D01*
X148896067Y-102888671D01*
X148893104Y-102893105D01*
X148855561Y-102918191D01*
X148798966Y-102929448D01*
X148701034Y-102929448D01*
X148644439Y-102918191D01*
X148606896Y-102893105D01*
X148603933Y-102888671D01*
X148549889Y-102843505D01*
X148480005Y-102834728D01*
X148396067Y-102888671D01*
X148393104Y-102893105D01*
X148355561Y-102918191D01*
X148298966Y-102929448D01*
X148201034Y-102929448D01*
X148144439Y-102918191D01*
X148106895Y-102893105D01*
X148081809Y-102855561D01*
X148070552Y-102798966D01*
X148070552Y-102063724D01*
X148069308Y-102063724D01*
X148064174Y-102006374D01*
X148020964Y-101950754D01*
X147936276Y-101932331D01*
X147936276Y-101929448D01*
X147201034Y-101929448D01*
X147144439Y-101918191D01*
X147106895Y-101893105D01*
X147081809Y-101855561D01*
X147070552Y-101798966D01*
X147070552Y-101701034D01*
X147081809Y-101644439D01*
X147106895Y-101606896D01*
X147111329Y-101603933D01*
X147156495Y-101549889D01*
X147160249Y-101519994D01*
X147959727Y-101519994D01*
X148013672Y-101603933D01*
X148035433Y-101618473D01*
X148092470Y-101636332D01*
X148061323Y-101680071D01*
X148054448Y-101720955D01*
X148054448Y-101811276D01*
X148055692Y-101811276D01*
X148060826Y-101868626D01*
X148104036Y-101924246D01*
X148188724Y-101942669D01*
X148188724Y-101945552D01*
X148276858Y-101945552D01*
X148344438Y-101925709D01*
X148363846Y-101903311D01*
X148382747Y-101966393D01*
X148396068Y-101986329D01*
X148450112Y-102031495D01*
X148519996Y-102040272D01*
X148603932Y-101986330D01*
X148614815Y-101970043D01*
X148630177Y-101920982D01*
X148867126Y-101920982D01*
X148886919Y-101972637D01*
X148896066Y-101986327D01*
X148950109Y-102031494D01*
X149019992Y-102040273D01*
X149103934Y-101986327D01*
X149113081Y-101972637D01*
X149129254Y-101920982D01*
X149367126Y-101920982D01*
X149386919Y-101972637D01*
X149396066Y-101986327D01*
X149450109Y-102031494D01*
X149519992Y-102040273D01*
X149603934Y-101986327D01*
X149613081Y-101972637D01*
X149629254Y-101920982D01*
X149867126Y-101920982D01*
X149886919Y-101972637D01*
X149896066Y-101986327D01*
X149950109Y-102031494D01*
X150019992Y-102040273D01*
X150103934Y-101986327D01*
X150113081Y-101972637D01*
X150129254Y-101920982D01*
X150367126Y-101920982D01*
X150386919Y-101972637D01*
X150396066Y-101986327D01*
X150450109Y-102031494D01*
X150519992Y-102040273D01*
X150603934Y-101986327D01*
X150613081Y-101972637D01*
X150629254Y-101920982D01*
X150867126Y-101920982D01*
X150886919Y-101972637D01*
X150896066Y-101986327D01*
X150950109Y-102031494D01*
X151019992Y-102040273D01*
X151103934Y-101986327D01*
X151113081Y-101972637D01*
X151134126Y-101905422D01*
X151124443Y-101870126D01*
X151367349Y-101870126D01*
X151384791Y-101969452D01*
X151396067Y-101986328D01*
X151450110Y-102031494D01*
X151519994Y-102040273D01*
X151603933Y-101986328D01*
X151618473Y-101964567D01*
X151636332Y-101907530D01*
X151680071Y-101938677D01*
X151720955Y-101945552D01*
X151811276Y-101945552D01*
X151811276Y-101944308D01*
X151868626Y-101939174D01*
X151924246Y-101895964D01*
X151942669Y-101811276D01*
X151945552Y-101811276D01*
X151945552Y-101723142D01*
X151925709Y-101655562D01*
X151903311Y-101636154D01*
X151966393Y-101617253D01*
X151986329Y-101603932D01*
X152031495Y-101549888D01*
X152040272Y-101480004D01*
X151986330Y-101396068D01*
X151970043Y-101385185D01*
X151902829Y-101364138D01*
X151834906Y-101382771D01*
X151787839Y-101435168D01*
X151776994Y-101470483D01*
X151773345Y-101494687D01*
X151782892Y-101564469D01*
X151814156Y-101601053D01*
X151802764Y-101599415D01*
X151728922Y-101638122D01*
X151705152Y-101663740D01*
X151696964Y-101676964D01*
X151683326Y-101687263D01*
X151661987Y-101710261D01*
X151658456Y-101712300D01*
X151609852Y-101763275D01*
X151600611Y-101811218D01*
X151568487Y-101782363D01*
X151491300Y-101772302D01*
X151485398Y-101773419D01*
X151470669Y-101776883D01*
X151467091Y-101776883D01*
X151465484Y-101777187D01*
X151402772Y-101809249D01*
X151367349Y-101870126D01*
X151124443Y-101870126D01*
X151115491Y-101837499D01*
X151063093Y-101790434D01*
X151009147Y-101778194D01*
X150990853Y-101778194D01*
X150923273Y-101798037D01*
X150877150Y-101851267D01*
X150867126Y-101920982D01*
X150629254Y-101920982D01*
X150634126Y-101905422D01*
X150615491Y-101837499D01*
X150563093Y-101790434D01*
X150509147Y-101778194D01*
X150490853Y-101778194D01*
X150423273Y-101798037D01*
X150377150Y-101851267D01*
X150367126Y-101920982D01*
X150129254Y-101920982D01*
X150134126Y-101905422D01*
X150115491Y-101837499D01*
X150063093Y-101790434D01*
X150009147Y-101778194D01*
X149990853Y-101778194D01*
X149923273Y-101798037D01*
X149877150Y-101851267D01*
X149867126Y-101920982D01*
X149629254Y-101920982D01*
X149634126Y-101905422D01*
X149615491Y-101837499D01*
X149563093Y-101790434D01*
X149509147Y-101778194D01*
X149490853Y-101778194D01*
X149423273Y-101798037D01*
X149377150Y-101851267D01*
X149367126Y-101920982D01*
X149129254Y-101920982D01*
X149134126Y-101905422D01*
X149115491Y-101837499D01*
X149063093Y-101790434D01*
X149009147Y-101778194D01*
X148990853Y-101778194D01*
X148923273Y-101798037D01*
X148877150Y-101851267D01*
X148867126Y-101920982D01*
X148630177Y-101920982D01*
X148635862Y-101902829D01*
X148617229Y-101834906D01*
X148564832Y-101787839D01*
X148529517Y-101776994D01*
X148505313Y-101773345D01*
X148435531Y-101782892D01*
X148398947Y-101814156D01*
X148400585Y-101802764D01*
X148361878Y-101728922D01*
X148336260Y-101705152D01*
X148323036Y-101696964D01*
X148312737Y-101683326D01*
X148289739Y-101661987D01*
X148287700Y-101658456D01*
X148236725Y-101609852D01*
X148188782Y-101600611D01*
X148217637Y-101568487D01*
X148227698Y-101491300D01*
X148226581Y-101485398D01*
X148223117Y-101470669D01*
X148223117Y-101467091D01*
X148222813Y-101465484D01*
X148190751Y-101402772D01*
X148129874Y-101367349D01*
X148030548Y-101384791D01*
X148013672Y-101396067D01*
X147968506Y-101450110D01*
X147959727Y-101519994D01*
X147160249Y-101519994D01*
X147165272Y-101480005D01*
X147111329Y-101396067D01*
X147106895Y-101393104D01*
X147081809Y-101355561D01*
X147070552Y-101298966D01*
X147070552Y-101201034D01*
X147081809Y-101144439D01*
X147106895Y-101106896D01*
X147111329Y-101103933D01*
X147156495Y-101049889D01*
X147160249Y-101019992D01*
X147959727Y-101019992D01*
X148013673Y-101103934D01*
X148027363Y-101113081D01*
X148094578Y-101134126D01*
X148162501Y-101115491D01*
X148209566Y-101063093D01*
X148221806Y-101009147D01*
X148221806Y-100990853D01*
X151778194Y-100990853D01*
X151778194Y-101009147D01*
X151798037Y-101076727D01*
X151851267Y-101122850D01*
X151920982Y-101132874D01*
X151972637Y-101113081D01*
X151986327Y-101103934D01*
X152031494Y-101049891D01*
X152040273Y-100980008D01*
X151986327Y-100896066D01*
X151972637Y-100886919D01*
X151905422Y-100865874D01*
X151837499Y-100884509D01*
X151790434Y-100936907D01*
X151778194Y-100990853D01*
X148221806Y-100990853D01*
X148201963Y-100923273D01*
X148148733Y-100877150D01*
X148079018Y-100867126D01*
X148027363Y-100886919D01*
X148013673Y-100896066D01*
X147968506Y-100950109D01*
X147959727Y-101019992D01*
X147160249Y-101019992D01*
X147165272Y-100980005D01*
X147111329Y-100896067D01*
X147106895Y-100893104D01*
X147081809Y-100855561D01*
X147070552Y-100798966D01*
X147070552Y-100701034D01*
X147081809Y-100644439D01*
X147106895Y-100606896D01*
X147111329Y-100603933D01*
X147156495Y-100549889D01*
X147160249Y-100519992D01*
X147959727Y-100519992D01*
X148013673Y-100603934D01*
X148027363Y-100613081D01*
X148094578Y-100634126D01*
X148162501Y-100615491D01*
X148209566Y-100563093D01*
X148221806Y-100509147D01*
X148221806Y-100490853D01*
X151778194Y-100490853D01*
X151778194Y-100509147D01*
X151798037Y-100576727D01*
X151851267Y-100622850D01*
X151920982Y-100632874D01*
X151972637Y-100613081D01*
X151986327Y-100603934D01*
X152031494Y-100549891D01*
X152040273Y-100480008D01*
X151986327Y-100396066D01*
X151972637Y-100386919D01*
X151905422Y-100365874D01*
X151837499Y-100384509D01*
X151790434Y-100436907D01*
X151778194Y-100490853D01*
X148221806Y-100490853D01*
X148201963Y-100423273D01*
X148148733Y-100377150D01*
X148079018Y-100367126D01*
X148027363Y-100386919D01*
X148013673Y-100396066D01*
X147968506Y-100450109D01*
X147959727Y-100519992D01*
X147160249Y-100519992D01*
X147165272Y-100480005D01*
X147111329Y-100396067D01*
X147106895Y-100393104D01*
X147081809Y-100355561D01*
X147070552Y-100298966D01*
X147070552Y-100201034D01*
X147081809Y-100144439D01*
X147106895Y-100106896D01*
X147111329Y-100103933D01*
X147156495Y-100049889D01*
X147160249Y-100019992D01*
X147959727Y-100019992D01*
X148013673Y-100103934D01*
X148027363Y-100113081D01*
X148094578Y-100134126D01*
X148162501Y-100115491D01*
X148209566Y-100063093D01*
X148221806Y-100009147D01*
X148221806Y-99990853D01*
X151778194Y-99990853D01*
X151778194Y-100009147D01*
X151798037Y-100076727D01*
X151851267Y-100122850D01*
X151920982Y-100132874D01*
X151972637Y-100113081D01*
X151986327Y-100103934D01*
X152031494Y-100049891D01*
X152040273Y-99980008D01*
X151986327Y-99896066D01*
X151972637Y-99886919D01*
X151905422Y-99865874D01*
X151837499Y-99884509D01*
X151790434Y-99936907D01*
X151778194Y-99990853D01*
X148221806Y-99990853D01*
X148201963Y-99923273D01*
X148148733Y-99877150D01*
X148079018Y-99867126D01*
X148027363Y-99886919D01*
X148013673Y-99896066D01*
X147968506Y-99950109D01*
X147959727Y-100019992D01*
X147160249Y-100019992D01*
X147165272Y-99980005D01*
X147111329Y-99896067D01*
X147106895Y-99893104D01*
X147081809Y-99855561D01*
X147070552Y-99798966D01*
X147070552Y-99701034D01*
X147081809Y-99644439D01*
X147106895Y-99606896D01*
X147111329Y-99603933D01*
X147156495Y-99549889D01*
X147160249Y-99519992D01*
X147959727Y-99519992D01*
X148013673Y-99603934D01*
X148027363Y-99613081D01*
X148094578Y-99634126D01*
X148162501Y-99615491D01*
X148209566Y-99563093D01*
X148221806Y-99509147D01*
X148221806Y-99490853D01*
X151778194Y-99490853D01*
X151778194Y-99509147D01*
X151798037Y-99576727D01*
X151851267Y-99622850D01*
X151920982Y-99632874D01*
X151972637Y-99613081D01*
X151986327Y-99603934D01*
X152031494Y-99549891D01*
X152040273Y-99480008D01*
X151986327Y-99396066D01*
X151972637Y-99386919D01*
X151905422Y-99365874D01*
X151837499Y-99384509D01*
X151790434Y-99436907D01*
X151778194Y-99490853D01*
X148221806Y-99490853D01*
X148201963Y-99423273D01*
X148148733Y-99377150D01*
X148079018Y-99367126D01*
X148027363Y-99386919D01*
X148013673Y-99396066D01*
X147968506Y-99450109D01*
X147959727Y-99519992D01*
X147160249Y-99519992D01*
X147165272Y-99480005D01*
X147111329Y-99396067D01*
X147106895Y-99393104D01*
X147081809Y-99355561D01*
X147070552Y-99298966D01*
X147070552Y-99201034D01*
X147081809Y-99144439D01*
X147106895Y-99106896D01*
X147111329Y-99103933D01*
X147156495Y-99049889D01*
X147160249Y-99019992D01*
X147959727Y-99019992D01*
X148013673Y-99103934D01*
X148027363Y-99113081D01*
X148094578Y-99134126D01*
X148162501Y-99115491D01*
X148209566Y-99063093D01*
X148221806Y-99009147D01*
X148221806Y-98990853D01*
X151778194Y-98990853D01*
X151778194Y-99009147D01*
X151798037Y-99076727D01*
X151851267Y-99122850D01*
X151920982Y-99132874D01*
X151972637Y-99113081D01*
X151986327Y-99103934D01*
X152031494Y-99049891D01*
X152040273Y-98980008D01*
X151986327Y-98896066D01*
X151972637Y-98886919D01*
X151905422Y-98865874D01*
X151837499Y-98884509D01*
X151790434Y-98936907D01*
X151778194Y-98990853D01*
X148221806Y-98990853D01*
X148201963Y-98923273D01*
X148148733Y-98877150D01*
X148079018Y-98867126D01*
X148027363Y-98886919D01*
X148013673Y-98896066D01*
X147968506Y-98950109D01*
X147959727Y-99019992D01*
X147160249Y-99019992D01*
X147165272Y-98980005D01*
X147111329Y-98896067D01*
X147106895Y-98893104D01*
X147081809Y-98855561D01*
X147070552Y-98798966D01*
X147070552Y-98701034D01*
X147081809Y-98644439D01*
X147106895Y-98606896D01*
X147111329Y-98603933D01*
X147156495Y-98549889D01*
X147160249Y-98519996D01*
X147959728Y-98519996D01*
X148013670Y-98603932D01*
X148029957Y-98614815D01*
X148097171Y-98635862D01*
X148165094Y-98617229D01*
X148212161Y-98564832D01*
X148223006Y-98529517D01*
X148226655Y-98505313D01*
X148217108Y-98435531D01*
X148185844Y-98398947D01*
X148197236Y-98400585D01*
X148271078Y-98361878D01*
X148294848Y-98336260D01*
X148303036Y-98323036D01*
X148316674Y-98312737D01*
X148338013Y-98289739D01*
X148341544Y-98287700D01*
X148390148Y-98236725D01*
X148399389Y-98188782D01*
X148431513Y-98217637D01*
X148508700Y-98227698D01*
X148514602Y-98226581D01*
X148529331Y-98223117D01*
X148532909Y-98223117D01*
X148534516Y-98222813D01*
X148597228Y-98190751D01*
X148632651Y-98129874D01*
X148626453Y-98094578D01*
X148865874Y-98094578D01*
X148884509Y-98162501D01*
X148936907Y-98209566D01*
X148990853Y-98221806D01*
X149009147Y-98221806D01*
X149076727Y-98201963D01*
X149122850Y-98148733D01*
X149130636Y-98094578D01*
X149365874Y-98094578D01*
X149384509Y-98162501D01*
X149436907Y-98209566D01*
X149490853Y-98221806D01*
X149509147Y-98221806D01*
X149576727Y-98201963D01*
X149622850Y-98148733D01*
X149630636Y-98094578D01*
X149865874Y-98094578D01*
X149884509Y-98162501D01*
X149936907Y-98209566D01*
X149990853Y-98221806D01*
X150009147Y-98221806D01*
X150076727Y-98201963D01*
X150122850Y-98148733D01*
X150130636Y-98094578D01*
X150365874Y-98094578D01*
X150384509Y-98162501D01*
X150436907Y-98209566D01*
X150490853Y-98221806D01*
X150509147Y-98221806D01*
X150576727Y-98201963D01*
X150622850Y-98148733D01*
X150630636Y-98094578D01*
X150865874Y-98094578D01*
X150884509Y-98162501D01*
X150936907Y-98209566D01*
X150990853Y-98221806D01*
X151009147Y-98221806D01*
X151076727Y-98201963D01*
X151122850Y-98148733D01*
X151130263Y-98097171D01*
X151364138Y-98097171D01*
X151382771Y-98165094D01*
X151435168Y-98212161D01*
X151470483Y-98223006D01*
X151494687Y-98226655D01*
X151564469Y-98217108D01*
X151601053Y-98185844D01*
X151599415Y-98197236D01*
X151638122Y-98271078D01*
X151663740Y-98294848D01*
X151676964Y-98303036D01*
X151687263Y-98316674D01*
X151710261Y-98338013D01*
X151712300Y-98341544D01*
X151763275Y-98390148D01*
X151811218Y-98399389D01*
X151782363Y-98431513D01*
X151772302Y-98508700D01*
X151773419Y-98514602D01*
X151776883Y-98529331D01*
X151776883Y-98532909D01*
X151777187Y-98534516D01*
X151809249Y-98597228D01*
X151870126Y-98632651D01*
X151969452Y-98615209D01*
X151986328Y-98603933D01*
X152031494Y-98549890D01*
X152040273Y-98480006D01*
X151986328Y-98396067D01*
X151964567Y-98381527D01*
X151907530Y-98363668D01*
X151938677Y-98319929D01*
X151945552Y-98279045D01*
X151945552Y-98188724D01*
X151944308Y-98188724D01*
X151939174Y-98131374D01*
X151895964Y-98075754D01*
X151811276Y-98057331D01*
X151811276Y-98054448D01*
X151723142Y-98054448D01*
X151655562Y-98074291D01*
X151636154Y-98096689D01*
X151617253Y-98033607D01*
X151603932Y-98013671D01*
X151549888Y-97968505D01*
X151480004Y-97959728D01*
X151396068Y-98013670D01*
X151385185Y-98029957D01*
X151364138Y-98097171D01*
X151130263Y-98097171D01*
X151132874Y-98079018D01*
X151113081Y-98027363D01*
X151103934Y-98013673D01*
X151049891Y-97968506D01*
X150980008Y-97959727D01*
X150896066Y-98013673D01*
X150886919Y-98027363D01*
X150865874Y-98094578D01*
X150630636Y-98094578D01*
X150632874Y-98079018D01*
X150613081Y-98027363D01*
X150603934Y-98013673D01*
X150549891Y-97968506D01*
X150480008Y-97959727D01*
X150396066Y-98013673D01*
X150386919Y-98027363D01*
X150365874Y-98094578D01*
X150130636Y-98094578D01*
X150132874Y-98079018D01*
X150113081Y-98027363D01*
X150103934Y-98013673D01*
X150049891Y-97968506D01*
X149980008Y-97959727D01*
X149896066Y-98013673D01*
X149886919Y-98027363D01*
X149865874Y-98094578D01*
X149630636Y-98094578D01*
X149632874Y-98079018D01*
X149613081Y-98027363D01*
X149603934Y-98013673D01*
X149549891Y-97968506D01*
X149480008Y-97959727D01*
X149396066Y-98013673D01*
X149386919Y-98027363D01*
X149365874Y-98094578D01*
X149130636Y-98094578D01*
X149132874Y-98079018D01*
X149113081Y-98027363D01*
X149103934Y-98013673D01*
X149049891Y-97968506D01*
X148980008Y-97959727D01*
X148896066Y-98013673D01*
X148886919Y-98027363D01*
X148865874Y-98094578D01*
X148626453Y-98094578D01*
X148615209Y-98030548D01*
X148603933Y-98013672D01*
X148549890Y-97968506D01*
X148480006Y-97959727D01*
X148396067Y-98013672D01*
X148381527Y-98035433D01*
X148363668Y-98092470D01*
X148319929Y-98061323D01*
X148279045Y-98054448D01*
X148188724Y-98054448D01*
X148188724Y-98055692D01*
X148131374Y-98060826D01*
X148075754Y-98104036D01*
X148057331Y-98188724D01*
X148054448Y-98188724D01*
X148054448Y-98276858D01*
X148074291Y-98344438D01*
X148096689Y-98363846D01*
X148033607Y-98382747D01*
X148013671Y-98396068D01*
X147968505Y-98450112D01*
X147959728Y-98519996D01*
X147160249Y-98519996D01*
X147165272Y-98480005D01*
X147111329Y-98396067D01*
X147106895Y-98393104D01*
X147081809Y-98355561D01*
X147070552Y-98298966D01*
X147070552Y-98201034D01*
X147081809Y-98144439D01*
X147106895Y-98106895D01*
X147144439Y-98081809D01*
X147201034Y-98070552D01*
X147936276Y-98070552D01*
X147936276Y-98069308D01*
X147993626Y-98064174D01*
X148049246Y-98020964D01*
X148067669Y-97936276D01*
X148070552Y-97936276D01*
X148070552Y-97201034D01*
X148081809Y-97144439D01*
X148106895Y-97106895D01*
X148144439Y-97081809D01*
X148201034Y-97070552D01*
X148298966Y-97070552D01*
X148355561Y-97081809D01*
X148355561Y-97081809D01*
G37*
G36*
X146603760Y-102358134D02*
G01*
X146606020Y-102359533D01*
X146606958Y-102359720D01*
X146614997Y-102365091D01*
X146651953Y-102387973D01*
X146654714Y-102391630D01*
X146656906Y-102393094D01*
X146665248Y-102405578D01*
X146684303Y-102430812D01*
X146685495Y-102435881D01*
X146690280Y-102443042D01*
X146701999Y-102501959D01*
X146701999Y-102506050D01*
X146704448Y-102516462D01*
X146704448Y-102686456D01*
X146691866Y-102753760D01*
X146690467Y-102756020D01*
X146690280Y-102756958D01*
X146684909Y-102764997D01*
X146662027Y-102801953D01*
X146658370Y-102804714D01*
X146656906Y-102806906D01*
X146644422Y-102815248D01*
X146619188Y-102834303D01*
X146614119Y-102835495D01*
X146606958Y-102840280D01*
X146548041Y-102851999D01*
X146543950Y-102851999D01*
X146533538Y-102854448D01*
X146263544Y-102854448D01*
X146196240Y-102841866D01*
X146193980Y-102840467D01*
X146193042Y-102840280D01*
X146185003Y-102834909D01*
X146148047Y-102812027D01*
X146145286Y-102808370D01*
X146143094Y-102806906D01*
X146134752Y-102794422D01*
X146115697Y-102769188D01*
X146114505Y-102764119D01*
X146109720Y-102756958D01*
X146098001Y-102698041D01*
X146098001Y-102693950D01*
X146095552Y-102683538D01*
X146095552Y-102513544D01*
X146108134Y-102446240D01*
X146109533Y-102443980D01*
X146109720Y-102443042D01*
X146115091Y-102435003D01*
X146137973Y-102398047D01*
X146141630Y-102395286D01*
X146143094Y-102393094D01*
X146155578Y-102384752D01*
X146180812Y-102365697D01*
X146185881Y-102364505D01*
X146193042Y-102359720D01*
X146251959Y-102348001D01*
X146256050Y-102348001D01*
X146266462Y-102345552D01*
X146536456Y-102345552D01*
X146603760Y-102358134D01*
X146603760Y-102358134D01*
G37*
G36*
X156538360Y-99113835D02*
G01*
X156619397Y-99140166D01*
X156706663Y-99167848D01*
X156709655Y-99169493D01*
X156718488Y-99172363D01*
X156790466Y-99213919D01*
X156861499Y-99252970D01*
X156868986Y-99259253D01*
X156882511Y-99267061D01*
X156940259Y-99319057D01*
X156996857Y-99366549D01*
X157006962Y-99379118D01*
X157023261Y-99393793D01*
X157065454Y-99451867D01*
X157107579Y-99504260D01*
X157117994Y-99524182D01*
X157134586Y-99547019D01*
X157161297Y-99607012D01*
X157189439Y-99660843D01*
X157197582Y-99688510D01*
X157211621Y-99720042D01*
X157223992Y-99778241D01*
X157239328Y-99830349D01*
X157242518Y-99865401D01*
X157250999Y-99905301D01*
X157250999Y-99958592D01*
X157255343Y-100006324D01*
X157250999Y-100047653D01*
X157250999Y-100094699D01*
X157241217Y-100140721D01*
X157236873Y-100182047D01*
X157222702Y-100227827D01*
X157211621Y-100279958D01*
X157195028Y-100317226D01*
X157184622Y-100350843D01*
X157158789Y-100398620D01*
X157134586Y-100452981D01*
X157114298Y-100480905D01*
X157100580Y-100506276D01*
X157061859Y-100553082D01*
X157023261Y-100606207D01*
X157002284Y-100625095D01*
X156987952Y-100642419D01*
X156935845Y-100684917D01*
X156882511Y-100732939D01*
X156863524Y-100743901D01*
X156851025Y-100754095D01*
X156785780Y-100788786D01*
X156718488Y-100827637D01*
X156703636Y-100832463D01*
X156695003Y-100837053D01*
X156617430Y-100860473D01*
X156538360Y-100886165D01*
X156529114Y-100887137D01*
X156525851Y-100888122D01*
X156434710Y-100897059D01*
X156397211Y-100901000D01*
X156302789Y-100901000D01*
X156161640Y-100886165D01*
X156080603Y-100859834D01*
X155993337Y-100832152D01*
X155990345Y-100830507D01*
X155981512Y-100827637D01*
X155909534Y-100786081D01*
X155838501Y-100747030D01*
X155831014Y-100740747D01*
X155817489Y-100732939D01*
X155759741Y-100680943D01*
X155703143Y-100633451D01*
X155693038Y-100620882D01*
X155676739Y-100606207D01*
X155634546Y-100548133D01*
X155592421Y-100495740D01*
X155582006Y-100475818D01*
X155565414Y-100452981D01*
X155538703Y-100392988D01*
X155510561Y-100339157D01*
X155502418Y-100311490D01*
X155488379Y-100279958D01*
X155476008Y-100221759D01*
X155460672Y-100169651D01*
X155457482Y-100134599D01*
X155449001Y-100094699D01*
X155449001Y-100041408D01*
X155444657Y-99993676D01*
X155449001Y-99952347D01*
X155449001Y-99905301D01*
X155458783Y-99859279D01*
X155463127Y-99817953D01*
X155477298Y-99772173D01*
X155488379Y-99720042D01*
X155504972Y-99682774D01*
X155515378Y-99649157D01*
X155541211Y-99601380D01*
X155565414Y-99547019D01*
X155585702Y-99519095D01*
X155599420Y-99493724D01*
X155638141Y-99446918D01*
X155676739Y-99393793D01*
X155697716Y-99374905D01*
X155712048Y-99357581D01*
X155764155Y-99315083D01*
X155817489Y-99267061D01*
X155836476Y-99256099D01*
X155848975Y-99245905D01*
X155914220Y-99211214D01*
X155981512Y-99172363D01*
X155996364Y-99167537D01*
X156004997Y-99162947D01*
X156082570Y-99139527D01*
X156161640Y-99113835D01*
X156170886Y-99112863D01*
X156174149Y-99111878D01*
X156265290Y-99102941D01*
X156302789Y-99099000D01*
X156397211Y-99099000D01*
X156538360Y-99113835D01*
X156538360Y-99113835D01*
G37*
G36*
X143838360Y-99113835D02*
G01*
X143919397Y-99140166D01*
X144006663Y-99167848D01*
X144009655Y-99169493D01*
X144018488Y-99172363D01*
X144090466Y-99213919D01*
X144161499Y-99252970D01*
X144168986Y-99259253D01*
X144182511Y-99267061D01*
X144240259Y-99319057D01*
X144296857Y-99366549D01*
X144306962Y-99379118D01*
X144323261Y-99393793D01*
X144365454Y-99451867D01*
X144407579Y-99504260D01*
X144417994Y-99524182D01*
X144434586Y-99547019D01*
X144461297Y-99607012D01*
X144489439Y-99660843D01*
X144497582Y-99688510D01*
X144511621Y-99720042D01*
X144523992Y-99778241D01*
X144539328Y-99830349D01*
X144542518Y-99865401D01*
X144550999Y-99905301D01*
X144550999Y-99958592D01*
X144555343Y-100006324D01*
X144550999Y-100047653D01*
X144550999Y-100094699D01*
X144541217Y-100140721D01*
X144536873Y-100182047D01*
X144522702Y-100227827D01*
X144511621Y-100279958D01*
X144495028Y-100317226D01*
X144484622Y-100350843D01*
X144458789Y-100398620D01*
X144434586Y-100452981D01*
X144414298Y-100480905D01*
X144400580Y-100506276D01*
X144361859Y-100553082D01*
X144323261Y-100606207D01*
X144302284Y-100625095D01*
X144287952Y-100642419D01*
X144235845Y-100684917D01*
X144182511Y-100732939D01*
X144163524Y-100743901D01*
X144151025Y-100754095D01*
X144085780Y-100788786D01*
X144018488Y-100827637D01*
X144003636Y-100832463D01*
X143995003Y-100837053D01*
X143917430Y-100860473D01*
X143838360Y-100886165D01*
X143829114Y-100887137D01*
X143825851Y-100888122D01*
X143734710Y-100897059D01*
X143697211Y-100901000D01*
X143602789Y-100901000D01*
X143461640Y-100886165D01*
X143380603Y-100859834D01*
X143293337Y-100832152D01*
X143290345Y-100830507D01*
X143281512Y-100827637D01*
X143209534Y-100786081D01*
X143138501Y-100747030D01*
X143131014Y-100740747D01*
X143117489Y-100732939D01*
X143059741Y-100680943D01*
X143003143Y-100633451D01*
X142993038Y-100620882D01*
X142976739Y-100606207D01*
X142934546Y-100548133D01*
X142892421Y-100495740D01*
X142882006Y-100475818D01*
X142865414Y-100452981D01*
X142838703Y-100392988D01*
X142810561Y-100339157D01*
X142802418Y-100311490D01*
X142788379Y-100279958D01*
X142776008Y-100221759D01*
X142760672Y-100169651D01*
X142757482Y-100134599D01*
X142749001Y-100094699D01*
X142749001Y-100041408D01*
X142744657Y-99993676D01*
X142749001Y-99952347D01*
X142749001Y-99905301D01*
X142758783Y-99859279D01*
X142763127Y-99817953D01*
X142777298Y-99772173D01*
X142788379Y-99720042D01*
X142804972Y-99682774D01*
X142815378Y-99649157D01*
X142841211Y-99601380D01*
X142865414Y-99547019D01*
X142885702Y-99519095D01*
X142899420Y-99493724D01*
X142938141Y-99446918D01*
X142976739Y-99393793D01*
X142997716Y-99374905D01*
X143012048Y-99357581D01*
X143064155Y-99315083D01*
X143117489Y-99267061D01*
X143136476Y-99256099D01*
X143148975Y-99245905D01*
X143214220Y-99211214D01*
X143281512Y-99172363D01*
X143296364Y-99167537D01*
X143304997Y-99162947D01*
X143382570Y-99139527D01*
X143461640Y-99113835D01*
X143470886Y-99112863D01*
X143474149Y-99111878D01*
X143565290Y-99102941D01*
X143602789Y-99099000D01*
X143697211Y-99099000D01*
X143838360Y-99113835D01*
X143838360Y-99113835D01*
G37*
G36*
X146503760Y-98358134D02*
G01*
X146506020Y-98359533D01*
X146506958Y-98359720D01*
X146514997Y-98365091D01*
X146551953Y-98387973D01*
X146554714Y-98391630D01*
X146556906Y-98393094D01*
X146565248Y-98405578D01*
X146584303Y-98430812D01*
X146585495Y-98435881D01*
X146590280Y-98443042D01*
X146601999Y-98501959D01*
X146601999Y-98506050D01*
X146604448Y-98516462D01*
X146604448Y-98686456D01*
X146591866Y-98753760D01*
X146590467Y-98756020D01*
X146590280Y-98756958D01*
X146584909Y-98764997D01*
X146562027Y-98801953D01*
X146558370Y-98804714D01*
X146556906Y-98806906D01*
X146544422Y-98815248D01*
X146519188Y-98834303D01*
X146514119Y-98835495D01*
X146506958Y-98840280D01*
X146448041Y-98851999D01*
X146443950Y-98851999D01*
X146433538Y-98854448D01*
X146163544Y-98854448D01*
X146096240Y-98841866D01*
X146093980Y-98840467D01*
X146093042Y-98840280D01*
X146085003Y-98834909D01*
X146048047Y-98812027D01*
X146045286Y-98808370D01*
X146043094Y-98806906D01*
X146034752Y-98794422D01*
X146015697Y-98769188D01*
X146014505Y-98764119D01*
X146009720Y-98756958D01*
X145998001Y-98698041D01*
X145998001Y-98693950D01*
X145995552Y-98683538D01*
X145995552Y-98513544D01*
X146008134Y-98446240D01*
X146009533Y-98443980D01*
X146009720Y-98443042D01*
X146015091Y-98435003D01*
X146037973Y-98398047D01*
X146041630Y-98395286D01*
X146043094Y-98393094D01*
X146055578Y-98384752D01*
X146080812Y-98365697D01*
X146085881Y-98364505D01*
X146093042Y-98359720D01*
X146151959Y-98348001D01*
X146156050Y-98348001D01*
X146166462Y-98345552D01*
X146436456Y-98345552D01*
X146503760Y-98358134D01*
X146503760Y-98358134D01*
G37*
G36*
X143838360Y-96573835D02*
G01*
X143919397Y-96600166D01*
X144006663Y-96627848D01*
X144009655Y-96629493D01*
X144018488Y-96632363D01*
X144090466Y-96673919D01*
X144161499Y-96712970D01*
X144168986Y-96719253D01*
X144182511Y-96727061D01*
X144240259Y-96779057D01*
X144296857Y-96826549D01*
X144306962Y-96839118D01*
X144323261Y-96853793D01*
X144365454Y-96911867D01*
X144407579Y-96964260D01*
X144417994Y-96984182D01*
X144434586Y-97007019D01*
X144461297Y-97067012D01*
X144489439Y-97120843D01*
X144497582Y-97148510D01*
X144511621Y-97180042D01*
X144523992Y-97238241D01*
X144539328Y-97290349D01*
X144542518Y-97325401D01*
X144550999Y-97365301D01*
X144550999Y-97418592D01*
X144555343Y-97466324D01*
X144550999Y-97507653D01*
X144550999Y-97554699D01*
X144541217Y-97600721D01*
X144536873Y-97642047D01*
X144522702Y-97687827D01*
X144511621Y-97739958D01*
X144495028Y-97777226D01*
X144484622Y-97810843D01*
X144458789Y-97858620D01*
X144434586Y-97912981D01*
X144414298Y-97940905D01*
X144400580Y-97966276D01*
X144361859Y-98013082D01*
X144323261Y-98066207D01*
X144302284Y-98085095D01*
X144287952Y-98102419D01*
X144235845Y-98144917D01*
X144182511Y-98192939D01*
X144163524Y-98203901D01*
X144151025Y-98214095D01*
X144085780Y-98248786D01*
X144018488Y-98287637D01*
X144003636Y-98292463D01*
X143995003Y-98297053D01*
X143917430Y-98320473D01*
X143838360Y-98346165D01*
X143829114Y-98347137D01*
X143825851Y-98348122D01*
X143734710Y-98357059D01*
X143697211Y-98361000D01*
X143602789Y-98361000D01*
X143461640Y-98346165D01*
X143380603Y-98319834D01*
X143293337Y-98292152D01*
X143290345Y-98290507D01*
X143281512Y-98287637D01*
X143209534Y-98246081D01*
X143138501Y-98207030D01*
X143131014Y-98200747D01*
X143117489Y-98192939D01*
X143059741Y-98140943D01*
X143003143Y-98093451D01*
X142993038Y-98080882D01*
X142976739Y-98066207D01*
X142934546Y-98008133D01*
X142892421Y-97955740D01*
X142882006Y-97935818D01*
X142865414Y-97912981D01*
X142838703Y-97852988D01*
X142810561Y-97799157D01*
X142802418Y-97771490D01*
X142788379Y-97739958D01*
X142776008Y-97681759D01*
X142760672Y-97629651D01*
X142757482Y-97594599D01*
X142749001Y-97554699D01*
X142749001Y-97501408D01*
X142744657Y-97453676D01*
X142749001Y-97412347D01*
X142749001Y-97365301D01*
X142758783Y-97319279D01*
X142763127Y-97277953D01*
X142777298Y-97232173D01*
X142788379Y-97180042D01*
X142804972Y-97142774D01*
X142815378Y-97109157D01*
X142841211Y-97061380D01*
X142865414Y-97007019D01*
X142885702Y-96979095D01*
X142899420Y-96953724D01*
X142938141Y-96906918D01*
X142976739Y-96853793D01*
X142997716Y-96834905D01*
X143012048Y-96817581D01*
X143064155Y-96775083D01*
X143117489Y-96727061D01*
X143136476Y-96716099D01*
X143148975Y-96705905D01*
X143214220Y-96671214D01*
X143281512Y-96632363D01*
X143296364Y-96627537D01*
X143304997Y-96622947D01*
X143382570Y-96599527D01*
X143461640Y-96573835D01*
X143470886Y-96572863D01*
X143474149Y-96571878D01*
X143565290Y-96562941D01*
X143602789Y-96559000D01*
X143697211Y-96559000D01*
X143838360Y-96573835D01*
X143838360Y-96573835D01*
G37*
G36*
X156538360Y-96573835D02*
G01*
X156619397Y-96600166D01*
X156706663Y-96627848D01*
X156709655Y-96629493D01*
X156718488Y-96632363D01*
X156790466Y-96673919D01*
X156861499Y-96712970D01*
X156868986Y-96719253D01*
X156882511Y-96727061D01*
X156940259Y-96779057D01*
X156996857Y-96826549D01*
X157006962Y-96839118D01*
X157023261Y-96853793D01*
X157065454Y-96911867D01*
X157107579Y-96964260D01*
X157117994Y-96984182D01*
X157134586Y-97007019D01*
X157161297Y-97067012D01*
X157189439Y-97120843D01*
X157197582Y-97148510D01*
X157211621Y-97180042D01*
X157223992Y-97238241D01*
X157239328Y-97290349D01*
X157242518Y-97325401D01*
X157250999Y-97365301D01*
X157250999Y-97418592D01*
X157255343Y-97466324D01*
X157250999Y-97507653D01*
X157250999Y-97554699D01*
X157241217Y-97600721D01*
X157236873Y-97642047D01*
X157222702Y-97687827D01*
X157211621Y-97739958D01*
X157195028Y-97777226D01*
X157184622Y-97810843D01*
X157158789Y-97858620D01*
X157134586Y-97912981D01*
X157114298Y-97940905D01*
X157100580Y-97966276D01*
X157061859Y-98013082D01*
X157023261Y-98066207D01*
X157002284Y-98085095D01*
X156987952Y-98102419D01*
X156935845Y-98144917D01*
X156882511Y-98192939D01*
X156863524Y-98203901D01*
X156851025Y-98214095D01*
X156785780Y-98248786D01*
X156718488Y-98287637D01*
X156703636Y-98292463D01*
X156695003Y-98297053D01*
X156617430Y-98320473D01*
X156538360Y-98346165D01*
X156529114Y-98347137D01*
X156525851Y-98348122D01*
X156434710Y-98357059D01*
X156397211Y-98361000D01*
X156302789Y-98361000D01*
X156161640Y-98346165D01*
X156080603Y-98319834D01*
X155993337Y-98292152D01*
X155990345Y-98290507D01*
X155981512Y-98287637D01*
X155909534Y-98246081D01*
X155838501Y-98207030D01*
X155831014Y-98200747D01*
X155817489Y-98192939D01*
X155759741Y-98140943D01*
X155703143Y-98093451D01*
X155693038Y-98080882D01*
X155676739Y-98066207D01*
X155634546Y-98008133D01*
X155592421Y-97955740D01*
X155582006Y-97935818D01*
X155565414Y-97912981D01*
X155538703Y-97852988D01*
X155510561Y-97799157D01*
X155502418Y-97771490D01*
X155488379Y-97739958D01*
X155476008Y-97681759D01*
X155460672Y-97629651D01*
X155457482Y-97594599D01*
X155449001Y-97554699D01*
X155449001Y-97501408D01*
X155444657Y-97453676D01*
X155449001Y-97412347D01*
X155449001Y-97365301D01*
X155458783Y-97319279D01*
X155463127Y-97277953D01*
X155477298Y-97232173D01*
X155488379Y-97180042D01*
X155504972Y-97142774D01*
X155515378Y-97109157D01*
X155541211Y-97061380D01*
X155565414Y-97007019D01*
X155585702Y-96979095D01*
X155599420Y-96953724D01*
X155638141Y-96906918D01*
X155676739Y-96853793D01*
X155697716Y-96834905D01*
X155712048Y-96817581D01*
X155764155Y-96775083D01*
X155817489Y-96727061D01*
X155836476Y-96716099D01*
X155848975Y-96705905D01*
X155914220Y-96671214D01*
X155981512Y-96632363D01*
X155996364Y-96627537D01*
X156004997Y-96622947D01*
X156082570Y-96599527D01*
X156161640Y-96573835D01*
X156170886Y-96572863D01*
X156174149Y-96571878D01*
X156265290Y-96562941D01*
X156302789Y-96559000D01*
X156397211Y-96559000D01*
X156538360Y-96573835D01*
X156538360Y-96573835D01*
G37*
G36*
X146503760Y-97558134D02*
G01*
X146506020Y-97559533D01*
X146506958Y-97559720D01*
X146514997Y-97565091D01*
X146551953Y-97587973D01*
X146554714Y-97591630D01*
X146556906Y-97593094D01*
X146565248Y-97605578D01*
X146584303Y-97630812D01*
X146585495Y-97635881D01*
X146590280Y-97643042D01*
X146601999Y-97701959D01*
X146601999Y-97706050D01*
X146604448Y-97716462D01*
X146604448Y-97886456D01*
X146591866Y-97953760D01*
X146590467Y-97956020D01*
X146590280Y-97956958D01*
X146584909Y-97964997D01*
X146562027Y-98001953D01*
X146558370Y-98004714D01*
X146556906Y-98006906D01*
X146544422Y-98015248D01*
X146519188Y-98034303D01*
X146514119Y-98035495D01*
X146506958Y-98040280D01*
X146448041Y-98051999D01*
X146443950Y-98051999D01*
X146433538Y-98054448D01*
X146163544Y-98054448D01*
X146096240Y-98041866D01*
X146093980Y-98040467D01*
X146093042Y-98040280D01*
X146085003Y-98034909D01*
X146048047Y-98012027D01*
X146045286Y-98008370D01*
X146043094Y-98006906D01*
X146034752Y-97994422D01*
X146015697Y-97969188D01*
X146014505Y-97964119D01*
X146009720Y-97956958D01*
X145998001Y-97898041D01*
X145998001Y-97893950D01*
X145995552Y-97883538D01*
X145995552Y-97713544D01*
X146008134Y-97646240D01*
X146009533Y-97643980D01*
X146009720Y-97643042D01*
X146015091Y-97635003D01*
X146037973Y-97598047D01*
X146041630Y-97595286D01*
X146043094Y-97593094D01*
X146055578Y-97584752D01*
X146080812Y-97565697D01*
X146085881Y-97564505D01*
X146093042Y-97559720D01*
X146151959Y-97548001D01*
X146156050Y-97548001D01*
X146166462Y-97545552D01*
X146436456Y-97545552D01*
X146503760Y-97558134D01*
X146503760Y-97558134D01*
G37*
G36*
X143838360Y-94033835D02*
G01*
X143919397Y-94060166D01*
X144006663Y-94087848D01*
X144009655Y-94089493D01*
X144018488Y-94092363D01*
X144090466Y-94133919D01*
X144161499Y-94172970D01*
X144168986Y-94179253D01*
X144182511Y-94187061D01*
X144240259Y-94239057D01*
X144296857Y-94286549D01*
X144306962Y-94299118D01*
X144323261Y-94313793D01*
X144365454Y-94371867D01*
X144407579Y-94424260D01*
X144417994Y-94444182D01*
X144434586Y-94467019D01*
X144461297Y-94527012D01*
X144489439Y-94580843D01*
X144497582Y-94608510D01*
X144511621Y-94640042D01*
X144523992Y-94698241D01*
X144539328Y-94750349D01*
X144542518Y-94785401D01*
X144550999Y-94825301D01*
X144550999Y-94878592D01*
X144555343Y-94926324D01*
X144550999Y-94967653D01*
X144550999Y-95014699D01*
X144541217Y-95060721D01*
X144536873Y-95102047D01*
X144522702Y-95147827D01*
X144511621Y-95199958D01*
X144495028Y-95237226D01*
X144484622Y-95270843D01*
X144458789Y-95318620D01*
X144434586Y-95372981D01*
X144414298Y-95400905D01*
X144400580Y-95426276D01*
X144361859Y-95473082D01*
X144323261Y-95526207D01*
X144302284Y-95545095D01*
X144287952Y-95562419D01*
X144235845Y-95604917D01*
X144182511Y-95652939D01*
X144163524Y-95663901D01*
X144151025Y-95674095D01*
X144085780Y-95708786D01*
X144018488Y-95747637D01*
X144003636Y-95752463D01*
X143995003Y-95757053D01*
X143917430Y-95780473D01*
X143838360Y-95806165D01*
X143829114Y-95807137D01*
X143825851Y-95808122D01*
X143734710Y-95817059D01*
X143697211Y-95821000D01*
X143602789Y-95821000D01*
X143461640Y-95806165D01*
X143380603Y-95779834D01*
X143293337Y-95752152D01*
X143290345Y-95750507D01*
X143281512Y-95747637D01*
X143209534Y-95706081D01*
X143138501Y-95667030D01*
X143131014Y-95660747D01*
X143117489Y-95652939D01*
X143059741Y-95600943D01*
X143003143Y-95553451D01*
X142993038Y-95540882D01*
X142976739Y-95526207D01*
X142934546Y-95468133D01*
X142892421Y-95415740D01*
X142882006Y-95395818D01*
X142865414Y-95372981D01*
X142838703Y-95312988D01*
X142810561Y-95259157D01*
X142802418Y-95231490D01*
X142788379Y-95199958D01*
X142776008Y-95141759D01*
X142760672Y-95089651D01*
X142757482Y-95054599D01*
X142749001Y-95014699D01*
X142749001Y-94961408D01*
X142744657Y-94913676D01*
X142749001Y-94872347D01*
X142749001Y-94825301D01*
X142758783Y-94779279D01*
X142763127Y-94737953D01*
X142777298Y-94692173D01*
X142788379Y-94640042D01*
X142804972Y-94602774D01*
X142815378Y-94569157D01*
X142841211Y-94521380D01*
X142865414Y-94467019D01*
X142885702Y-94439095D01*
X142899420Y-94413724D01*
X142938141Y-94366918D01*
X142976739Y-94313793D01*
X142997716Y-94294905D01*
X143012048Y-94277581D01*
X143064155Y-94235083D01*
X143117489Y-94187061D01*
X143136476Y-94176099D01*
X143148975Y-94165905D01*
X143214220Y-94131214D01*
X143281512Y-94092363D01*
X143296364Y-94087537D01*
X143304997Y-94082947D01*
X143382570Y-94059527D01*
X143461640Y-94033835D01*
X143470886Y-94032863D01*
X143474149Y-94031878D01*
X143565290Y-94022941D01*
X143602789Y-94019000D01*
X143697211Y-94019000D01*
X143838360Y-94033835D01*
X143838360Y-94033835D01*
G37*
G36*
X156538360Y-94033835D02*
G01*
X156619397Y-94060166D01*
X156706663Y-94087848D01*
X156709655Y-94089493D01*
X156718488Y-94092363D01*
X156790466Y-94133919D01*
X156861499Y-94172970D01*
X156868986Y-94179253D01*
X156882511Y-94187061D01*
X156940259Y-94239057D01*
X156996857Y-94286549D01*
X157006962Y-94299118D01*
X157023261Y-94313793D01*
X157065454Y-94371867D01*
X157107579Y-94424260D01*
X157117994Y-94444182D01*
X157134586Y-94467019D01*
X157161297Y-94527012D01*
X157189439Y-94580843D01*
X157197582Y-94608510D01*
X157211621Y-94640042D01*
X157223992Y-94698241D01*
X157239328Y-94750349D01*
X157242518Y-94785401D01*
X157250999Y-94825301D01*
X157250999Y-94878592D01*
X157255343Y-94926324D01*
X157250999Y-94967653D01*
X157250999Y-95014699D01*
X157241217Y-95060721D01*
X157236873Y-95102047D01*
X157222702Y-95147827D01*
X157211621Y-95199958D01*
X157195028Y-95237226D01*
X157184622Y-95270843D01*
X157158789Y-95318620D01*
X157134586Y-95372981D01*
X157114298Y-95400905D01*
X157100580Y-95426276D01*
X157061859Y-95473082D01*
X157023261Y-95526207D01*
X157002284Y-95545095D01*
X156987952Y-95562419D01*
X156935845Y-95604917D01*
X156882511Y-95652939D01*
X156863524Y-95663901D01*
X156851025Y-95674095D01*
X156785780Y-95708786D01*
X156718488Y-95747637D01*
X156703636Y-95752463D01*
X156695003Y-95757053D01*
X156617430Y-95780473D01*
X156538360Y-95806165D01*
X156529114Y-95807137D01*
X156525851Y-95808122D01*
X156434710Y-95817059D01*
X156397211Y-95821000D01*
X156302789Y-95821000D01*
X156161640Y-95806165D01*
X156080603Y-95779834D01*
X155993337Y-95752152D01*
X155990345Y-95750507D01*
X155981512Y-95747637D01*
X155909534Y-95706081D01*
X155838501Y-95667030D01*
X155831014Y-95660747D01*
X155817489Y-95652939D01*
X155759741Y-95600943D01*
X155703143Y-95553451D01*
X155693038Y-95540882D01*
X155676739Y-95526207D01*
X155634546Y-95468133D01*
X155592421Y-95415740D01*
X155582006Y-95395818D01*
X155565414Y-95372981D01*
X155538703Y-95312988D01*
X155510561Y-95259157D01*
X155502418Y-95231490D01*
X155488379Y-95199958D01*
X155476008Y-95141759D01*
X155460672Y-95089651D01*
X155457482Y-95054599D01*
X155449001Y-95014699D01*
X155449001Y-94961408D01*
X155444657Y-94913676D01*
X155449001Y-94872347D01*
X155449001Y-94825301D01*
X155458783Y-94779279D01*
X155463127Y-94737953D01*
X155477298Y-94692173D01*
X155488379Y-94640042D01*
X155504972Y-94602774D01*
X155515378Y-94569157D01*
X155541211Y-94521380D01*
X155565414Y-94467019D01*
X155585702Y-94439095D01*
X155599420Y-94413724D01*
X155638141Y-94366918D01*
X155676739Y-94313793D01*
X155697716Y-94294905D01*
X155712048Y-94277581D01*
X155764155Y-94235083D01*
X155817489Y-94187061D01*
X155836476Y-94176099D01*
X155848975Y-94165905D01*
X155914220Y-94131214D01*
X155981512Y-94092363D01*
X155996364Y-94087537D01*
X156004997Y-94082947D01*
X156082570Y-94059527D01*
X156161640Y-94033835D01*
X156170886Y-94032863D01*
X156174149Y-94031878D01*
X156265290Y-94022941D01*
X156302789Y-94019000D01*
X156397211Y-94019000D01*
X156538360Y-94033835D01*
X156538360Y-94033835D01*
G37*
G36*
X154246483Y-94953001D02*
G01*
X154247061Y-94953001D01*
X154251575Y-94953899D01*
X154317492Y-94965522D01*
X154321426Y-94967793D01*
X154325487Y-94968601D01*
X154342405Y-94979905D01*
X154378879Y-95000963D01*
X154385207Y-95008504D01*
X154391974Y-95013026D01*
X154403598Y-95030422D01*
X154420797Y-95050920D01*
X154423142Y-95059673D01*
X154436399Y-95079513D01*
X154451999Y-95157939D01*
X154451999Y-95167367D01*
X154453715Y-95173771D01*
X154453715Y-95441751D01*
X154451999Y-95451483D01*
X154451999Y-95452061D01*
X154451101Y-95456575D01*
X154439478Y-95522492D01*
X154437207Y-95526426D01*
X154436399Y-95530487D01*
X154425095Y-95547405D01*
X154404037Y-95583879D01*
X154396496Y-95590207D01*
X154391974Y-95596974D01*
X154374578Y-95608598D01*
X154354080Y-95625797D01*
X154345327Y-95628142D01*
X154325487Y-95641399D01*
X154247061Y-95656999D01*
X154237633Y-95656999D01*
X154231229Y-95658715D01*
X152963249Y-95658715D01*
X152953517Y-95656999D01*
X152952939Y-95656999D01*
X152948425Y-95656101D01*
X152882508Y-95644478D01*
X152878574Y-95642207D01*
X152874513Y-95641399D01*
X152857595Y-95630095D01*
X152821121Y-95609037D01*
X152814793Y-95601496D01*
X152808026Y-95596974D01*
X152796402Y-95579578D01*
X152779203Y-95559080D01*
X152776858Y-95550327D01*
X152763601Y-95530487D01*
X152748001Y-95452061D01*
X152748001Y-95442633D01*
X152746285Y-95436229D01*
X152746285Y-95168249D01*
X152748001Y-95158517D01*
X152748001Y-95157939D01*
X152748899Y-95153425D01*
X152760522Y-95087508D01*
X152762793Y-95083574D01*
X152763601Y-95079513D01*
X152774905Y-95062595D01*
X152795963Y-95026121D01*
X152803504Y-95019793D01*
X152808026Y-95013026D01*
X152825422Y-95001402D01*
X152845920Y-94984203D01*
X152854673Y-94981858D01*
X152874513Y-94968601D01*
X152952939Y-94953001D01*
X152962367Y-94953001D01*
X152968771Y-94951285D01*
X154236751Y-94951285D01*
X154246483Y-94953001D01*
X154246483Y-94953001D01*
G37*
G36*
X147046483Y-94953001D02*
G01*
X147047061Y-94953001D01*
X147051575Y-94953899D01*
X147117492Y-94965522D01*
X147121426Y-94967793D01*
X147125487Y-94968601D01*
X147142405Y-94979905D01*
X147178879Y-95000963D01*
X147185207Y-95008504D01*
X147191974Y-95013026D01*
X147203598Y-95030422D01*
X147220797Y-95050920D01*
X147223142Y-95059673D01*
X147236399Y-95079513D01*
X147251999Y-95157939D01*
X147251999Y-95167367D01*
X147253715Y-95173771D01*
X147253715Y-95441751D01*
X147251999Y-95451483D01*
X147251999Y-95452061D01*
X147251101Y-95456575D01*
X147239478Y-95522492D01*
X147237207Y-95526426D01*
X147236399Y-95530487D01*
X147225095Y-95547405D01*
X147204037Y-95583879D01*
X147196496Y-95590207D01*
X147191974Y-95596974D01*
X147174578Y-95608598D01*
X147154080Y-95625797D01*
X147145327Y-95628142D01*
X147125487Y-95641399D01*
X147047061Y-95656999D01*
X147037633Y-95656999D01*
X147031229Y-95658715D01*
X145763249Y-95658715D01*
X145753517Y-95656999D01*
X145752939Y-95656999D01*
X145748425Y-95656101D01*
X145682508Y-95644478D01*
X145678574Y-95642207D01*
X145674513Y-95641399D01*
X145657595Y-95630095D01*
X145621121Y-95609037D01*
X145614793Y-95601496D01*
X145608026Y-95596974D01*
X145596402Y-95579578D01*
X145579203Y-95559080D01*
X145576858Y-95550327D01*
X145563601Y-95530487D01*
X145548001Y-95452061D01*
X145548001Y-95442633D01*
X145546285Y-95436229D01*
X145546285Y-95168249D01*
X145548001Y-95158517D01*
X145548001Y-95157939D01*
X145548899Y-95153425D01*
X145560522Y-95087508D01*
X145562793Y-95083574D01*
X145563601Y-95079513D01*
X145574905Y-95062595D01*
X145595963Y-95026121D01*
X145603504Y-95019793D01*
X145608026Y-95013026D01*
X145625422Y-95001402D01*
X145645920Y-94984203D01*
X145654673Y-94981858D01*
X145674513Y-94968601D01*
X145752939Y-94953001D01*
X145762367Y-94953001D01*
X145768771Y-94951285D01*
X147036751Y-94951285D01*
X147046483Y-94953001D01*
X147046483Y-94953001D01*
G37*
G36*
X147046483Y-93683001D02*
G01*
X147047061Y-93683001D01*
X147051575Y-93683899D01*
X147117492Y-93695522D01*
X147121426Y-93697793D01*
X147125487Y-93698601D01*
X147142405Y-93709905D01*
X147178879Y-93730963D01*
X147185207Y-93738504D01*
X147191974Y-93743026D01*
X147203598Y-93760422D01*
X147220797Y-93780920D01*
X147223142Y-93789673D01*
X147236399Y-93809513D01*
X147251999Y-93887939D01*
X147251999Y-93897367D01*
X147253715Y-93903771D01*
X147253715Y-94171751D01*
X147251999Y-94181483D01*
X147251999Y-94182061D01*
X147251101Y-94186575D01*
X147239478Y-94252492D01*
X147237207Y-94256426D01*
X147236399Y-94260487D01*
X147225095Y-94277405D01*
X147204037Y-94313879D01*
X147196496Y-94320207D01*
X147191974Y-94326974D01*
X147174578Y-94338598D01*
X147154080Y-94355797D01*
X147145327Y-94358142D01*
X147125487Y-94371399D01*
X147047061Y-94386999D01*
X147037633Y-94386999D01*
X147031229Y-94388715D01*
X145763249Y-94388715D01*
X145753517Y-94386999D01*
X145752939Y-94386999D01*
X145748425Y-94386101D01*
X145682508Y-94374478D01*
X145678574Y-94372207D01*
X145674513Y-94371399D01*
X145657595Y-94360095D01*
X145621121Y-94339037D01*
X145614793Y-94331496D01*
X145608026Y-94326974D01*
X145596402Y-94309578D01*
X145579203Y-94289080D01*
X145576858Y-94280327D01*
X145563601Y-94260487D01*
X145548001Y-94182061D01*
X145548001Y-94172633D01*
X145546285Y-94166229D01*
X145546285Y-93898249D01*
X145548001Y-93888517D01*
X145548001Y-93887939D01*
X145548899Y-93883425D01*
X145560522Y-93817508D01*
X145562793Y-93813574D01*
X145563601Y-93809513D01*
X145574905Y-93792595D01*
X145595963Y-93756121D01*
X145603504Y-93749793D01*
X145608026Y-93743026D01*
X145625422Y-93731402D01*
X145645920Y-93714203D01*
X145654673Y-93711858D01*
X145674513Y-93698601D01*
X145752939Y-93683001D01*
X145762367Y-93683001D01*
X145768771Y-93681285D01*
X147036751Y-93681285D01*
X147046483Y-93683001D01*
X147046483Y-93683001D01*
G37*
G36*
X154246483Y-93683001D02*
G01*
X154247061Y-93683001D01*
X154251575Y-93683899D01*
X154317492Y-93695522D01*
X154321426Y-93697793D01*
X154325487Y-93698601D01*
X154342405Y-93709905D01*
X154378879Y-93730963D01*
X154385207Y-93738504D01*
X154391974Y-93743026D01*
X154403598Y-93760422D01*
X154420797Y-93780920D01*
X154423142Y-93789673D01*
X154436399Y-93809513D01*
X154451999Y-93887939D01*
X154451999Y-93897367D01*
X154453715Y-93903771D01*
X154453715Y-94171751D01*
X154451999Y-94181483D01*
X154451999Y-94182061D01*
X154451101Y-94186575D01*
X154439478Y-94252492D01*
X154437207Y-94256426D01*
X154436399Y-94260487D01*
X154425095Y-94277405D01*
X154404037Y-94313879D01*
X154396496Y-94320207D01*
X154391974Y-94326974D01*
X154374578Y-94338598D01*
X154354080Y-94355797D01*
X154345327Y-94358142D01*
X154325487Y-94371399D01*
X154247061Y-94386999D01*
X154237633Y-94386999D01*
X154231229Y-94388715D01*
X152963249Y-94388715D01*
X152953517Y-94386999D01*
X152952939Y-94386999D01*
X152948425Y-94386101D01*
X152882508Y-94374478D01*
X152878574Y-94372207D01*
X152874513Y-94371399D01*
X152857595Y-94360095D01*
X152821121Y-94339037D01*
X152814793Y-94331496D01*
X152808026Y-94326974D01*
X152796402Y-94309578D01*
X152779203Y-94289080D01*
X152776858Y-94280327D01*
X152763601Y-94260487D01*
X152748001Y-94182061D01*
X152748001Y-94172633D01*
X152746285Y-94166229D01*
X152746285Y-93898249D01*
X152748001Y-93888517D01*
X152748001Y-93887939D01*
X152748899Y-93883425D01*
X152760522Y-93817508D01*
X152762793Y-93813574D01*
X152763601Y-93809513D01*
X152774905Y-93792595D01*
X152795963Y-93756121D01*
X152803504Y-93749793D01*
X152808026Y-93743026D01*
X152825422Y-93731402D01*
X152845920Y-93714203D01*
X152854673Y-93711858D01*
X152874513Y-93698601D01*
X152952939Y-93683001D01*
X152962367Y-93683001D01*
X152968771Y-93681285D01*
X154236751Y-93681285D01*
X154246483Y-93683001D01*
X154246483Y-93683001D01*
G37*
G36*
X143838360Y-91493835D02*
G01*
X143919397Y-91520166D01*
X144006663Y-91547848D01*
X144009655Y-91549493D01*
X144018488Y-91552363D01*
X144090466Y-91593919D01*
X144161499Y-91632970D01*
X144168986Y-91639253D01*
X144182511Y-91647061D01*
X144240259Y-91699057D01*
X144296857Y-91746549D01*
X144306962Y-91759118D01*
X144323261Y-91773793D01*
X144365454Y-91831867D01*
X144407579Y-91884260D01*
X144417994Y-91904182D01*
X144434586Y-91927019D01*
X144461297Y-91987012D01*
X144489439Y-92040843D01*
X144497582Y-92068510D01*
X144511621Y-92100042D01*
X144523992Y-92158241D01*
X144539328Y-92210349D01*
X144542518Y-92245401D01*
X144550999Y-92285301D01*
X144550999Y-92338592D01*
X144555343Y-92386324D01*
X144550999Y-92427653D01*
X144550999Y-92474699D01*
X144541217Y-92520721D01*
X144536873Y-92562047D01*
X144522702Y-92607827D01*
X144511621Y-92659958D01*
X144495028Y-92697226D01*
X144484622Y-92730843D01*
X144458789Y-92778620D01*
X144434586Y-92832981D01*
X144414298Y-92860905D01*
X144400580Y-92886276D01*
X144361859Y-92933082D01*
X144323261Y-92986207D01*
X144302284Y-93005095D01*
X144287952Y-93022419D01*
X144235845Y-93064917D01*
X144182511Y-93112939D01*
X144163524Y-93123901D01*
X144151025Y-93134095D01*
X144085780Y-93168786D01*
X144018488Y-93207637D01*
X144003636Y-93212463D01*
X143995003Y-93217053D01*
X143917430Y-93240473D01*
X143838360Y-93266165D01*
X143829114Y-93267137D01*
X143825851Y-93268122D01*
X143734710Y-93277059D01*
X143697211Y-93281000D01*
X143602789Y-93281000D01*
X143461640Y-93266165D01*
X143380603Y-93239834D01*
X143293337Y-93212152D01*
X143290345Y-93210507D01*
X143281512Y-93207637D01*
X143209534Y-93166081D01*
X143138501Y-93127030D01*
X143131014Y-93120747D01*
X143117489Y-93112939D01*
X143059741Y-93060943D01*
X143003143Y-93013451D01*
X142993038Y-93000882D01*
X142976739Y-92986207D01*
X142934546Y-92928133D01*
X142892421Y-92875740D01*
X142882006Y-92855818D01*
X142865414Y-92832981D01*
X142838703Y-92772988D01*
X142810561Y-92719157D01*
X142802418Y-92691490D01*
X142788379Y-92659958D01*
X142776008Y-92601759D01*
X142760672Y-92549651D01*
X142757482Y-92514599D01*
X142749001Y-92474699D01*
X142749001Y-92421408D01*
X142744657Y-92373676D01*
X142749001Y-92332347D01*
X142749001Y-92285301D01*
X142758783Y-92239279D01*
X142763127Y-92197953D01*
X142777298Y-92152173D01*
X142788379Y-92100042D01*
X142804972Y-92062774D01*
X142815378Y-92029157D01*
X142841211Y-91981380D01*
X142865414Y-91927019D01*
X142885702Y-91899095D01*
X142899420Y-91873724D01*
X142938141Y-91826918D01*
X142976739Y-91773793D01*
X142997716Y-91754905D01*
X143012048Y-91737581D01*
X143064155Y-91695083D01*
X143117489Y-91647061D01*
X143136476Y-91636099D01*
X143148975Y-91625905D01*
X143214220Y-91591214D01*
X143281512Y-91552363D01*
X143296364Y-91547537D01*
X143304997Y-91542947D01*
X143382570Y-91519527D01*
X143461640Y-91493835D01*
X143470886Y-91492863D01*
X143474149Y-91491878D01*
X143565290Y-91482941D01*
X143602789Y-91479000D01*
X143697211Y-91479000D01*
X143838360Y-91493835D01*
X143838360Y-91493835D01*
G37*
G36*
X156538360Y-91493835D02*
G01*
X156619397Y-91520166D01*
X156706663Y-91547848D01*
X156709655Y-91549493D01*
X156718488Y-91552363D01*
X156790466Y-91593919D01*
X156861499Y-91632970D01*
X156868986Y-91639253D01*
X156882511Y-91647061D01*
X156940259Y-91699057D01*
X156996857Y-91746549D01*
X157006962Y-91759118D01*
X157023261Y-91773793D01*
X157065454Y-91831867D01*
X157107579Y-91884260D01*
X157117994Y-91904182D01*
X157134586Y-91927019D01*
X157161297Y-91987012D01*
X157189439Y-92040843D01*
X157197582Y-92068510D01*
X157211621Y-92100042D01*
X157223992Y-92158241D01*
X157239328Y-92210349D01*
X157242518Y-92245401D01*
X157250999Y-92285301D01*
X157250999Y-92338592D01*
X157255343Y-92386324D01*
X157250999Y-92427653D01*
X157250999Y-92474699D01*
X157241217Y-92520721D01*
X157236873Y-92562047D01*
X157222702Y-92607827D01*
X157211621Y-92659958D01*
X157195028Y-92697226D01*
X157184622Y-92730843D01*
X157158789Y-92778620D01*
X157134586Y-92832981D01*
X157114298Y-92860905D01*
X157100580Y-92886276D01*
X157061859Y-92933082D01*
X157023261Y-92986207D01*
X157002284Y-93005095D01*
X156987952Y-93022419D01*
X156935845Y-93064917D01*
X156882511Y-93112939D01*
X156863524Y-93123901D01*
X156851025Y-93134095D01*
X156785780Y-93168786D01*
X156718488Y-93207637D01*
X156703636Y-93212463D01*
X156695003Y-93217053D01*
X156617430Y-93240473D01*
X156538360Y-93266165D01*
X156529114Y-93267137D01*
X156525851Y-93268122D01*
X156434710Y-93277059D01*
X156397211Y-93281000D01*
X156302789Y-93281000D01*
X156161640Y-93266165D01*
X156080603Y-93239834D01*
X155993337Y-93212152D01*
X155990345Y-93210507D01*
X155981512Y-93207637D01*
X155909534Y-93166081D01*
X155838501Y-93127030D01*
X155831014Y-93120747D01*
X155817489Y-93112939D01*
X155759741Y-93060943D01*
X155703143Y-93013451D01*
X155693038Y-93000882D01*
X155676739Y-92986207D01*
X155634546Y-92928133D01*
X155592421Y-92875740D01*
X155582006Y-92855818D01*
X155565414Y-92832981D01*
X155538703Y-92772988D01*
X155510561Y-92719157D01*
X155502418Y-92691490D01*
X155488379Y-92659958D01*
X155476008Y-92601759D01*
X155460672Y-92549651D01*
X155457482Y-92514599D01*
X155449001Y-92474699D01*
X155449001Y-92421408D01*
X155444657Y-92373676D01*
X155449001Y-92332347D01*
X155449001Y-92285301D01*
X155458783Y-92239279D01*
X155463127Y-92197953D01*
X155477298Y-92152173D01*
X155488379Y-92100042D01*
X155504972Y-92062774D01*
X155515378Y-92029157D01*
X155541211Y-91981380D01*
X155565414Y-91927019D01*
X155585702Y-91899095D01*
X155599420Y-91873724D01*
X155638141Y-91826918D01*
X155676739Y-91773793D01*
X155697716Y-91754905D01*
X155712048Y-91737581D01*
X155764155Y-91695083D01*
X155817489Y-91647061D01*
X155836476Y-91636099D01*
X155848975Y-91625905D01*
X155914220Y-91591214D01*
X155981512Y-91552363D01*
X155996364Y-91547537D01*
X156004997Y-91542947D01*
X156082570Y-91519527D01*
X156161640Y-91493835D01*
X156170886Y-91492863D01*
X156174149Y-91491878D01*
X156265290Y-91482941D01*
X156302789Y-91479000D01*
X156397211Y-91479000D01*
X156538360Y-91493835D01*
X156538360Y-91493835D01*
G37*
G36*
X147046483Y-92413001D02*
G01*
X147047061Y-92413001D01*
X147051575Y-92413899D01*
X147117492Y-92425522D01*
X147121426Y-92427793D01*
X147125487Y-92428601D01*
X147142405Y-92439905D01*
X147178879Y-92460963D01*
X147185207Y-92468504D01*
X147191974Y-92473026D01*
X147203598Y-92490422D01*
X147220797Y-92510920D01*
X147223142Y-92519673D01*
X147236399Y-92539513D01*
X147251999Y-92617939D01*
X147251999Y-92627367D01*
X147253715Y-92633771D01*
X147253715Y-92901751D01*
X147251999Y-92911483D01*
X147251999Y-92912061D01*
X147251101Y-92916575D01*
X147239478Y-92982492D01*
X147237207Y-92986426D01*
X147236399Y-92990487D01*
X147225095Y-93007405D01*
X147204037Y-93043879D01*
X147196496Y-93050207D01*
X147191974Y-93056974D01*
X147174578Y-93068598D01*
X147154080Y-93085797D01*
X147145327Y-93088142D01*
X147125487Y-93101399D01*
X147047061Y-93116999D01*
X147037633Y-93116999D01*
X147031229Y-93118715D01*
X145763249Y-93118715D01*
X145753517Y-93116999D01*
X145752939Y-93116999D01*
X145748425Y-93116101D01*
X145682508Y-93104478D01*
X145678574Y-93102207D01*
X145674513Y-93101399D01*
X145657595Y-93090095D01*
X145621121Y-93069037D01*
X145614793Y-93061496D01*
X145608026Y-93056974D01*
X145596402Y-93039578D01*
X145579203Y-93019080D01*
X145576858Y-93010327D01*
X145563601Y-92990487D01*
X145548001Y-92912061D01*
X145548001Y-92902633D01*
X145546285Y-92896229D01*
X145546285Y-92628249D01*
X145548001Y-92618517D01*
X145548001Y-92617939D01*
X145548899Y-92613425D01*
X145560522Y-92547508D01*
X145562793Y-92543574D01*
X145563601Y-92539513D01*
X145574905Y-92522595D01*
X145595963Y-92486121D01*
X145603504Y-92479793D01*
X145608026Y-92473026D01*
X145625422Y-92461402D01*
X145645920Y-92444203D01*
X145654673Y-92441858D01*
X145674513Y-92428601D01*
X145752939Y-92413001D01*
X145762367Y-92413001D01*
X145768771Y-92411285D01*
X147036751Y-92411285D01*
X147046483Y-92413001D01*
X147046483Y-92413001D01*
G37*
G36*
X154246483Y-92413001D02*
G01*
X154247061Y-92413001D01*
X154251575Y-92413899D01*
X154317492Y-92425522D01*
X154321426Y-92427793D01*
X154325487Y-92428601D01*
X154342405Y-92439905D01*
X154378879Y-92460963D01*
X154385207Y-92468504D01*
X154391974Y-92473026D01*
X154403598Y-92490422D01*
X154420797Y-92510920D01*
X154423142Y-92519673D01*
X154436399Y-92539513D01*
X154451999Y-92617939D01*
X154451999Y-92627367D01*
X154453715Y-92633771D01*
X154453715Y-92901751D01*
X154451999Y-92911483D01*
X154451999Y-92912061D01*
X154451101Y-92916575D01*
X154439478Y-92982492D01*
X154437207Y-92986426D01*
X154436399Y-92990487D01*
X154425095Y-93007405D01*
X154404037Y-93043879D01*
X154396496Y-93050207D01*
X154391974Y-93056974D01*
X154374578Y-93068598D01*
X154354080Y-93085797D01*
X154345327Y-93088142D01*
X154325487Y-93101399D01*
X154247061Y-93116999D01*
X154237633Y-93116999D01*
X154231229Y-93118715D01*
X152963249Y-93118715D01*
X152953517Y-93116999D01*
X152952939Y-93116999D01*
X152948425Y-93116101D01*
X152882508Y-93104478D01*
X152878574Y-93102207D01*
X152874513Y-93101399D01*
X152857595Y-93090095D01*
X152821121Y-93069037D01*
X152814793Y-93061496D01*
X152808026Y-93056974D01*
X152796402Y-93039578D01*
X152779203Y-93019080D01*
X152776858Y-93010327D01*
X152763601Y-92990487D01*
X152748001Y-92912061D01*
X152748001Y-92902633D01*
X152746285Y-92896229D01*
X152746285Y-92628249D01*
X152748001Y-92618517D01*
X152748001Y-92617939D01*
X152748899Y-92613425D01*
X152760522Y-92547508D01*
X152762793Y-92543574D01*
X152763601Y-92539513D01*
X152774905Y-92522595D01*
X152795963Y-92486121D01*
X152803504Y-92479793D01*
X152808026Y-92473026D01*
X152825422Y-92461402D01*
X152845920Y-92444203D01*
X152854673Y-92441858D01*
X152874513Y-92428601D01*
X152952939Y-92413001D01*
X152962367Y-92413001D01*
X152968771Y-92411285D01*
X154236751Y-92411285D01*
X154246483Y-92413001D01*
X154246483Y-92413001D01*
G37*
G36*
X147046483Y-91143001D02*
G01*
X147047061Y-91143001D01*
X147051575Y-91143899D01*
X147117492Y-91155522D01*
X147121426Y-91157793D01*
X147125487Y-91158601D01*
X147142405Y-91169905D01*
X147178879Y-91190963D01*
X147185207Y-91198504D01*
X147191974Y-91203026D01*
X147203598Y-91220422D01*
X147220797Y-91240920D01*
X147223142Y-91249673D01*
X147236399Y-91269513D01*
X147251999Y-91347939D01*
X147251999Y-91357367D01*
X147253715Y-91363771D01*
X147253715Y-91631751D01*
X147251999Y-91641483D01*
X147251999Y-91642061D01*
X147251101Y-91646575D01*
X147239478Y-91712492D01*
X147237207Y-91716426D01*
X147236399Y-91720487D01*
X147225095Y-91737405D01*
X147204037Y-91773879D01*
X147196496Y-91780207D01*
X147191974Y-91786974D01*
X147174578Y-91798598D01*
X147154080Y-91815797D01*
X147145327Y-91818142D01*
X147125487Y-91831399D01*
X147047061Y-91846999D01*
X147037633Y-91846999D01*
X147031229Y-91848715D01*
X145763249Y-91848715D01*
X145753517Y-91846999D01*
X145752939Y-91846999D01*
X145748425Y-91846101D01*
X145682508Y-91834478D01*
X145678574Y-91832207D01*
X145674513Y-91831399D01*
X145657595Y-91820095D01*
X145621121Y-91799037D01*
X145614793Y-91791496D01*
X145608026Y-91786974D01*
X145596402Y-91769578D01*
X145579203Y-91749080D01*
X145576858Y-91740327D01*
X145563601Y-91720487D01*
X145548001Y-91642061D01*
X145548001Y-91632633D01*
X145546285Y-91626229D01*
X145546285Y-91358249D01*
X145548001Y-91348517D01*
X145548001Y-91347939D01*
X145548899Y-91343425D01*
X145560522Y-91277508D01*
X145562793Y-91273574D01*
X145563601Y-91269513D01*
X145574905Y-91252595D01*
X145595963Y-91216121D01*
X145603504Y-91209793D01*
X145608026Y-91203026D01*
X145625422Y-91191402D01*
X145645920Y-91174203D01*
X145654673Y-91171858D01*
X145674513Y-91158601D01*
X145752939Y-91143001D01*
X145762367Y-91143001D01*
X145768771Y-91141285D01*
X147036751Y-91141285D01*
X147046483Y-91143001D01*
X147046483Y-91143001D01*
G37*
G36*
X154246483Y-91143001D02*
G01*
X154247061Y-91143001D01*
X154251575Y-91143899D01*
X154317492Y-91155522D01*
X154321426Y-91157793D01*
X154325487Y-91158601D01*
X154342405Y-91169905D01*
X154378879Y-91190963D01*
X154385207Y-91198504D01*
X154391974Y-91203026D01*
X154403598Y-91220422D01*
X154420797Y-91240920D01*
X154423142Y-91249673D01*
X154436399Y-91269513D01*
X154451999Y-91347939D01*
X154451999Y-91357367D01*
X154453715Y-91363771D01*
X154453715Y-91631751D01*
X154451999Y-91641483D01*
X154451999Y-91642061D01*
X154451101Y-91646575D01*
X154439478Y-91712492D01*
X154437207Y-91716426D01*
X154436399Y-91720487D01*
X154425095Y-91737405D01*
X154404037Y-91773879D01*
X154396496Y-91780207D01*
X154391974Y-91786974D01*
X154374578Y-91798598D01*
X154354080Y-91815797D01*
X154345327Y-91818142D01*
X154325487Y-91831399D01*
X154247061Y-91846999D01*
X154237633Y-91846999D01*
X154231229Y-91848715D01*
X152963249Y-91848715D01*
X152953517Y-91846999D01*
X152952939Y-91846999D01*
X152948425Y-91846101D01*
X152882508Y-91834478D01*
X152878574Y-91832207D01*
X152874513Y-91831399D01*
X152857595Y-91820095D01*
X152821121Y-91799037D01*
X152814793Y-91791496D01*
X152808026Y-91786974D01*
X152796402Y-91769578D01*
X152779203Y-91749080D01*
X152776858Y-91740327D01*
X152763601Y-91720487D01*
X152748001Y-91642061D01*
X152748001Y-91632633D01*
X152746285Y-91626229D01*
X152746285Y-91358249D01*
X152748001Y-91348517D01*
X152748001Y-91347939D01*
X152748899Y-91343425D01*
X152760522Y-91277508D01*
X152762793Y-91273574D01*
X152763601Y-91269513D01*
X152774905Y-91252595D01*
X152795963Y-91216121D01*
X152803504Y-91209793D01*
X152808026Y-91203026D01*
X152825422Y-91191402D01*
X152845920Y-91174203D01*
X152854673Y-91171858D01*
X152874513Y-91158601D01*
X152952939Y-91143001D01*
X152962367Y-91143001D01*
X152968771Y-91141285D01*
X154236751Y-91141285D01*
X154246483Y-91143001D01*
X154246483Y-91143001D01*
G37*
M02*
