G04 #@! TF.GenerationSoftware,KiCad,Pcbnew,5.99.0-unknown-c3175b4~86~ubuntu16.04.1*
G04 #@! TF.CreationDate,2020-03-24T03:28:14+00:00*
G04 #@! TF.ProjectId,kuiick,6b756969-636b-42e6-9b69-6361645f7063,rev?*
G04 #@! TF.SameCoordinates,Original*
G04 #@! TF.FileFunction,Soldermask,Top*
G04 #@! TF.FilePolarity,Negative*
%FSLAX46Y46*%
G04 Gerber Fmt 4.6, Leading zero omitted, Abs format (unit mm)*
G04 Created by KiCad (PCBNEW 5.99.0-unknown-c3175b4~86~ubuntu16.04.1) date 2020-03-24 03:28:14*
%MOMM*%
%LPD*%
G04 APERTURE LIST*
%ADD10C,0.100000*%
G04 APERTURE END LIST*
D10*
G36*
X143699902Y-107989283D02*
G01*
X143744637Y-107989595D01*
X143788460Y-107998590D01*
X143838360Y-108003835D01*
X143880132Y-108017408D01*
X143917723Y-108025124D01*
X143964851Y-108044935D01*
X144018488Y-108062363D01*
X144051099Y-108081191D01*
X144080614Y-108093598D01*
X144128301Y-108125763D01*
X144182511Y-108157061D01*
X144205826Y-108178054D01*
X144227101Y-108192404D01*
X144272183Y-108237802D01*
X144323261Y-108283793D01*
X144338003Y-108304083D01*
X144351608Y-108317784D01*
X144390643Y-108376537D01*
X144434586Y-108437019D01*
X144442221Y-108454168D01*
X144449388Y-108464955D01*
X144478865Y-108536472D01*
X144511621Y-108610042D01*
X144514211Y-108622225D01*
X144516724Y-108628323D01*
X144533292Y-108711997D01*
X144550999Y-108795301D01*
X144550999Y-108984699D01*
X144548115Y-108998269D01*
X144548030Y-109004331D01*
X144529342Y-109086585D01*
X144511621Y-109169958D01*
X144509129Y-109175555D01*
X144509078Y-109175780D01*
X144437210Y-109337197D01*
X144437078Y-109337385D01*
X144434586Y-109342981D01*
X144384480Y-109411946D01*
X144335357Y-109481582D01*
X144330585Y-109486126D01*
X144323261Y-109496207D01*
X144263396Y-109550110D01*
X144207396Y-109603438D01*
X144196464Y-109610376D01*
X144182511Y-109622939D01*
X144117764Y-109660321D01*
X144058211Y-109698114D01*
X144040209Y-109705097D01*
X144018488Y-109717637D01*
X143953115Y-109738878D01*
X143893468Y-109762014D01*
X143868200Y-109766469D01*
X143838360Y-109776165D01*
X143776095Y-109782709D01*
X143719460Y-109792695D01*
X143687459Y-109792025D01*
X143650000Y-109795962D01*
X143593902Y-109790066D01*
X143542799Y-109788996D01*
X143505323Y-109780756D01*
X143461640Y-109776165D01*
X143413917Y-109760659D01*
X143370225Y-109751052D01*
X143329230Y-109733142D01*
X143281512Y-109717637D01*
X143243473Y-109695675D01*
X143208310Y-109680313D01*
X143166337Y-109651141D01*
X143117489Y-109622939D01*
X143089504Y-109597741D01*
X143063215Y-109579470D01*
X143023257Y-109538092D01*
X142976739Y-109496207D01*
X142958296Y-109470823D01*
X142940473Y-109452366D01*
X142905821Y-109398597D01*
X142865414Y-109342981D01*
X142855212Y-109320066D01*
X142844754Y-109303839D01*
X142818789Y-109238261D01*
X142788379Y-109169958D01*
X142784476Y-109151596D01*
X142779707Y-109139551D01*
X142765740Y-109063448D01*
X142749001Y-108984699D01*
X142749001Y-108972246D01*
X142747811Y-108965762D01*
X142749001Y-108880535D01*
X142749001Y-108795301D01*
X142750275Y-108789308D01*
X142750278Y-108789077D01*
X142787015Y-108616246D01*
X142787105Y-108616036D01*
X142788379Y-108610042D01*
X142823042Y-108532188D01*
X142856622Y-108453839D01*
X142860348Y-108448397D01*
X142865414Y-108437019D01*
X142912746Y-108371872D01*
X142956452Y-108308041D01*
X142965706Y-108298979D01*
X142976739Y-108283793D01*
X143032297Y-108233769D01*
X143082693Y-108184417D01*
X143098848Y-108173846D01*
X143117489Y-108157061D01*
X143177026Y-108122687D01*
X143230551Y-108087662D01*
X143254340Y-108078050D01*
X143281512Y-108062363D01*
X143341045Y-108043019D01*
X143394376Y-108021472D01*
X143425820Y-108015474D01*
X143461640Y-108003835D01*
X143517744Y-107997938D01*
X143567945Y-107988362D01*
X143606312Y-107988630D01*
X143650000Y-107984038D01*
X143699902Y-107989283D01*
X143699902Y-107989283D01*
G37*
G36*
X156399902Y-107989283D02*
G01*
X156444637Y-107989595D01*
X156488460Y-107998590D01*
X156538360Y-108003835D01*
X156580132Y-108017408D01*
X156617723Y-108025124D01*
X156664851Y-108044935D01*
X156718488Y-108062363D01*
X156751099Y-108081191D01*
X156780614Y-108093598D01*
X156828301Y-108125763D01*
X156882511Y-108157061D01*
X156905826Y-108178054D01*
X156927101Y-108192404D01*
X156972183Y-108237802D01*
X157023261Y-108283793D01*
X157038003Y-108304083D01*
X157051608Y-108317784D01*
X157090643Y-108376537D01*
X157134586Y-108437019D01*
X157142221Y-108454168D01*
X157149388Y-108464955D01*
X157178865Y-108536472D01*
X157211621Y-108610042D01*
X157214211Y-108622225D01*
X157216724Y-108628323D01*
X157233292Y-108711997D01*
X157250999Y-108795301D01*
X157250999Y-108984699D01*
X157248115Y-108998269D01*
X157248030Y-109004331D01*
X157229342Y-109086585D01*
X157211621Y-109169958D01*
X157209129Y-109175555D01*
X157209078Y-109175780D01*
X157137210Y-109337197D01*
X157137078Y-109337385D01*
X157134586Y-109342981D01*
X157084480Y-109411946D01*
X157035357Y-109481582D01*
X157030585Y-109486126D01*
X157023261Y-109496207D01*
X156963396Y-109550110D01*
X156907396Y-109603438D01*
X156896464Y-109610376D01*
X156882511Y-109622939D01*
X156817764Y-109660321D01*
X156758211Y-109698114D01*
X156740209Y-109705097D01*
X156718488Y-109717637D01*
X156653115Y-109738878D01*
X156593468Y-109762014D01*
X156568200Y-109766469D01*
X156538360Y-109776165D01*
X156476095Y-109782709D01*
X156419460Y-109792695D01*
X156387459Y-109792025D01*
X156350000Y-109795962D01*
X156293902Y-109790066D01*
X156242799Y-109788996D01*
X156205323Y-109780756D01*
X156161640Y-109776165D01*
X156113917Y-109760659D01*
X156070225Y-109751052D01*
X156029230Y-109733142D01*
X155981512Y-109717637D01*
X155943473Y-109695675D01*
X155908310Y-109680313D01*
X155866337Y-109651141D01*
X155817489Y-109622939D01*
X155789504Y-109597741D01*
X155763215Y-109579470D01*
X155723257Y-109538092D01*
X155676739Y-109496207D01*
X155658296Y-109470823D01*
X155640473Y-109452366D01*
X155605821Y-109398597D01*
X155565414Y-109342981D01*
X155555212Y-109320066D01*
X155544754Y-109303839D01*
X155518789Y-109238261D01*
X155488379Y-109169958D01*
X155484476Y-109151596D01*
X155479707Y-109139551D01*
X155465740Y-109063448D01*
X155449001Y-108984699D01*
X155449001Y-108972246D01*
X155447811Y-108965762D01*
X155449001Y-108880535D01*
X155449001Y-108795301D01*
X155450275Y-108789308D01*
X155450278Y-108789077D01*
X155487015Y-108616246D01*
X155487105Y-108616036D01*
X155488379Y-108610042D01*
X155523042Y-108532188D01*
X155556622Y-108453839D01*
X155560348Y-108448397D01*
X155565414Y-108437019D01*
X155612746Y-108371872D01*
X155656452Y-108308041D01*
X155665706Y-108298979D01*
X155676739Y-108283793D01*
X155732297Y-108233769D01*
X155782693Y-108184417D01*
X155798848Y-108173846D01*
X155817489Y-108157061D01*
X155877026Y-108122687D01*
X155930551Y-108087662D01*
X155954340Y-108078050D01*
X155981512Y-108062363D01*
X156041045Y-108043019D01*
X156094376Y-108021472D01*
X156125820Y-108015474D01*
X156161640Y-108003835D01*
X156217744Y-107997938D01*
X156267945Y-107988362D01*
X156306312Y-107988630D01*
X156350000Y-107984038D01*
X156399902Y-107989283D01*
X156399902Y-107989283D01*
G37*
G36*
X152169899Y-107601959D02*
G01*
X152186769Y-107613231D01*
X152198041Y-107630101D01*
X152204448Y-107662312D01*
X152204448Y-109537688D01*
X152201707Y-109551468D01*
X152198041Y-109569899D01*
X152186769Y-109586769D01*
X152169899Y-109598041D01*
X152150000Y-109601999D01*
X152137688Y-109604448D01*
X150262312Y-109604448D01*
X150230101Y-109598041D01*
X150213231Y-109586769D01*
X150201959Y-109569899D01*
X150195552Y-109537688D01*
X150195552Y-107662312D01*
X150201959Y-107630101D01*
X150213231Y-107613231D01*
X150230101Y-107601959D01*
X150262312Y-107595552D01*
X152137688Y-107595552D01*
X152169899Y-107601959D01*
X152169899Y-107601959D01*
G37*
G36*
X149769899Y-107601959D02*
G01*
X149786769Y-107613231D01*
X149798041Y-107630101D01*
X149804448Y-107662312D01*
X149804448Y-109537688D01*
X149801707Y-109551468D01*
X149798041Y-109569899D01*
X149786769Y-109586769D01*
X149769899Y-109598041D01*
X149750000Y-109601999D01*
X149737688Y-109604448D01*
X147862312Y-109604448D01*
X147830101Y-109598041D01*
X147813231Y-109586769D01*
X147801959Y-109569899D01*
X147795552Y-109537688D01*
X147795552Y-107662312D01*
X147801959Y-107630101D01*
X147813231Y-107613231D01*
X147830101Y-107601959D01*
X147862312Y-107595552D01*
X149737688Y-107595552D01*
X149769899Y-107601959D01*
X149769899Y-107601959D01*
G37*
G36*
X153348661Y-107649249D02*
G01*
X153374813Y-107649409D01*
X153419397Y-107662742D01*
X153456049Y-107669734D01*
X153479196Y-107680626D01*
X153512305Y-107690528D01*
X153544281Y-107711254D01*
X153570582Y-107723630D01*
X153596659Y-107745203D01*
X153632731Y-107768583D01*
X153652116Y-107791080D01*
X153668114Y-107804315D01*
X153692822Y-107838322D01*
X153726408Y-107877301D01*
X153735215Y-107896671D01*
X153742519Y-107906724D01*
X153760940Y-107953250D01*
X153785806Y-108007940D01*
X153787627Y-108020653D01*
X153789117Y-108024417D01*
X153796235Y-108080763D01*
X153801000Y-108114033D01*
X153801000Y-109084467D01*
X153784035Y-109197984D01*
X153769646Y-109228633D01*
X153767590Y-109239408D01*
X153747014Y-109276835D01*
X153723045Y-109327888D01*
X153712192Y-109340176D01*
X153708540Y-109346820D01*
X153671324Y-109386451D01*
X153628047Y-109435453D01*
X153555252Y-109481384D01*
X153515011Y-109506921D01*
X153514529Y-109507077D01*
X153506677Y-109512032D01*
X153445254Y-109529587D01*
X153394623Y-109546038D01*
X153385736Y-109546597D01*
X153368693Y-109551468D01*
X153313652Y-109551132D01*
X153268294Y-109553985D01*
X153251339Y-109550751D01*
X153225187Y-109550591D01*
X153180603Y-109537258D01*
X153143951Y-109530266D01*
X153120804Y-109519374D01*
X153087695Y-109509472D01*
X153055720Y-109488747D01*
X153029420Y-109476371D01*
X153003343Y-109454798D01*
X152967270Y-109431417D01*
X152947885Y-109408919D01*
X152931885Y-109395683D01*
X152907177Y-109361675D01*
X152873593Y-109322699D01*
X152864786Y-109303329D01*
X152857482Y-109293276D01*
X152839061Y-109246750D01*
X152814195Y-109192060D01*
X152812374Y-109179347D01*
X152810884Y-109175583D01*
X152803761Y-109119206D01*
X152799001Y-109085967D01*
X152799001Y-109081528D01*
X152799000Y-109081520D01*
X152799000Y-108115534D01*
X152815965Y-108002017D01*
X152830355Y-107971368D01*
X152832410Y-107960593D01*
X152852984Y-107923169D01*
X152876955Y-107872112D01*
X152887809Y-107859822D01*
X152891460Y-107853181D01*
X152928661Y-107813566D01*
X152971953Y-107764547D01*
X153044814Y-107718575D01*
X153084989Y-107693079D01*
X153085471Y-107692923D01*
X153093323Y-107687968D01*
X153154746Y-107670413D01*
X153205377Y-107653962D01*
X153214264Y-107653403D01*
X153231307Y-107648532D01*
X153286348Y-107648868D01*
X153331706Y-107646015D01*
X153348661Y-107649249D01*
X153348661Y-107649249D01*
G37*
G36*
X146748661Y-107649249D02*
G01*
X146774813Y-107649409D01*
X146819397Y-107662742D01*
X146856049Y-107669734D01*
X146879196Y-107680626D01*
X146912305Y-107690528D01*
X146944281Y-107711254D01*
X146970582Y-107723630D01*
X146996659Y-107745203D01*
X147032731Y-107768583D01*
X147052116Y-107791080D01*
X147068114Y-107804315D01*
X147092822Y-107838322D01*
X147126408Y-107877301D01*
X147135215Y-107896671D01*
X147142519Y-107906724D01*
X147160940Y-107953250D01*
X147185806Y-108007940D01*
X147187627Y-108020653D01*
X147189117Y-108024417D01*
X147196235Y-108080763D01*
X147201000Y-108114033D01*
X147201000Y-109084467D01*
X147184035Y-109197984D01*
X147169646Y-109228633D01*
X147167590Y-109239408D01*
X147147014Y-109276835D01*
X147123045Y-109327888D01*
X147112192Y-109340176D01*
X147108540Y-109346820D01*
X147071324Y-109386451D01*
X147028047Y-109435453D01*
X146955252Y-109481384D01*
X146915011Y-109506921D01*
X146914529Y-109507077D01*
X146906677Y-109512032D01*
X146845254Y-109529587D01*
X146794623Y-109546038D01*
X146785736Y-109546597D01*
X146768693Y-109551468D01*
X146713652Y-109551132D01*
X146668294Y-109553985D01*
X146651339Y-109550751D01*
X146625187Y-109550591D01*
X146580603Y-109537258D01*
X146543951Y-109530266D01*
X146520804Y-109519374D01*
X146487695Y-109509472D01*
X146455720Y-109488747D01*
X146429420Y-109476371D01*
X146403343Y-109454798D01*
X146367270Y-109431417D01*
X146347885Y-109408919D01*
X146331885Y-109395683D01*
X146307177Y-109361675D01*
X146273593Y-109322699D01*
X146264786Y-109303329D01*
X146257482Y-109293276D01*
X146239061Y-109246750D01*
X146214195Y-109192060D01*
X146212374Y-109179347D01*
X146210884Y-109175583D01*
X146203761Y-109119206D01*
X146199001Y-109085967D01*
X146199001Y-109081528D01*
X146199000Y-109081520D01*
X146199000Y-108115534D01*
X146215965Y-108002017D01*
X146230355Y-107971368D01*
X146232410Y-107960593D01*
X146252984Y-107923169D01*
X146276955Y-107872112D01*
X146287809Y-107859822D01*
X146291460Y-107853181D01*
X146328661Y-107813566D01*
X146371953Y-107764547D01*
X146444814Y-107718575D01*
X146484989Y-107693079D01*
X146485471Y-107692923D01*
X146493323Y-107687968D01*
X146554746Y-107670413D01*
X146605377Y-107653962D01*
X146614264Y-107653403D01*
X146631307Y-107648532D01*
X146686348Y-107648868D01*
X146731706Y-107646015D01*
X146748661Y-107649249D01*
X146748661Y-107649249D01*
G37*
G36*
X143838360Y-105463835D02*
G01*
X143919397Y-105490166D01*
X144006663Y-105517848D01*
X144009655Y-105519493D01*
X144018488Y-105522363D01*
X144090466Y-105563919D01*
X144161499Y-105602970D01*
X144168986Y-105609253D01*
X144182511Y-105617061D01*
X144240259Y-105669057D01*
X144296857Y-105716549D01*
X144306962Y-105729118D01*
X144323261Y-105743793D01*
X144365454Y-105801867D01*
X144407579Y-105854260D01*
X144417994Y-105874182D01*
X144434586Y-105897019D01*
X144461297Y-105957012D01*
X144489439Y-106010843D01*
X144497582Y-106038510D01*
X144511621Y-106070042D01*
X144523992Y-106128241D01*
X144539328Y-106180349D01*
X144542518Y-106215401D01*
X144550999Y-106255301D01*
X144550999Y-106308592D01*
X144555343Y-106356324D01*
X144550999Y-106397653D01*
X144550999Y-106444699D01*
X144541217Y-106490721D01*
X144536873Y-106532047D01*
X144522702Y-106577827D01*
X144511621Y-106629958D01*
X144495028Y-106667226D01*
X144484622Y-106700843D01*
X144458789Y-106748620D01*
X144434586Y-106802981D01*
X144414298Y-106830905D01*
X144400580Y-106856276D01*
X144361859Y-106903082D01*
X144323261Y-106956207D01*
X144302284Y-106975095D01*
X144287952Y-106992419D01*
X144235845Y-107034917D01*
X144182511Y-107082939D01*
X144163524Y-107093901D01*
X144151025Y-107104095D01*
X144085780Y-107138786D01*
X144018488Y-107177637D01*
X144003636Y-107182463D01*
X143995003Y-107187053D01*
X143917430Y-107210473D01*
X143838360Y-107236165D01*
X143829114Y-107237137D01*
X143825851Y-107238122D01*
X143734710Y-107247059D01*
X143697211Y-107251000D01*
X143602789Y-107251000D01*
X143461640Y-107236165D01*
X143380603Y-107209834D01*
X143293337Y-107182152D01*
X143290345Y-107180507D01*
X143281512Y-107177637D01*
X143209534Y-107136081D01*
X143138501Y-107097030D01*
X143131014Y-107090747D01*
X143117489Y-107082939D01*
X143059741Y-107030943D01*
X143003143Y-106983451D01*
X142993038Y-106970882D01*
X142976739Y-106956207D01*
X142934546Y-106898133D01*
X142892421Y-106845740D01*
X142882006Y-106825818D01*
X142865414Y-106802981D01*
X142838703Y-106742988D01*
X142810561Y-106689157D01*
X142802418Y-106661490D01*
X142788379Y-106629958D01*
X142776008Y-106571759D01*
X142760672Y-106519651D01*
X142757482Y-106484599D01*
X142749001Y-106444699D01*
X142749001Y-106391408D01*
X142744657Y-106343676D01*
X142749001Y-106302347D01*
X142749001Y-106255301D01*
X142758783Y-106209279D01*
X142763127Y-106167953D01*
X142777298Y-106122173D01*
X142788379Y-106070042D01*
X142804972Y-106032774D01*
X142815378Y-105999157D01*
X142841211Y-105951380D01*
X142865414Y-105897019D01*
X142885702Y-105869095D01*
X142899420Y-105843724D01*
X142938141Y-105796918D01*
X142976739Y-105743793D01*
X142997716Y-105724905D01*
X143012048Y-105707581D01*
X143064155Y-105665083D01*
X143117489Y-105617061D01*
X143136476Y-105606099D01*
X143148975Y-105595905D01*
X143214220Y-105561214D01*
X143281512Y-105522363D01*
X143296364Y-105517537D01*
X143304997Y-105512947D01*
X143382570Y-105489527D01*
X143461640Y-105463835D01*
X143470886Y-105462863D01*
X143474149Y-105461878D01*
X143565290Y-105452941D01*
X143602789Y-105449000D01*
X143697211Y-105449000D01*
X143838360Y-105463835D01*
X143838360Y-105463835D01*
G37*
G36*
X156538360Y-105463835D02*
G01*
X156619397Y-105490166D01*
X156706663Y-105517848D01*
X156709655Y-105519493D01*
X156718488Y-105522363D01*
X156790466Y-105563919D01*
X156861499Y-105602970D01*
X156868986Y-105609253D01*
X156882511Y-105617061D01*
X156940259Y-105669057D01*
X156996857Y-105716549D01*
X157006962Y-105729118D01*
X157023261Y-105743793D01*
X157065454Y-105801867D01*
X157107579Y-105854260D01*
X157117994Y-105874182D01*
X157134586Y-105897019D01*
X157161297Y-105957012D01*
X157189439Y-106010843D01*
X157197582Y-106038510D01*
X157211621Y-106070042D01*
X157223992Y-106128241D01*
X157239328Y-106180349D01*
X157242518Y-106215401D01*
X157250999Y-106255301D01*
X157250999Y-106308592D01*
X157255343Y-106356324D01*
X157250999Y-106397653D01*
X157250999Y-106444699D01*
X157241217Y-106490721D01*
X157236873Y-106532047D01*
X157222702Y-106577827D01*
X157211621Y-106629958D01*
X157195028Y-106667226D01*
X157184622Y-106700843D01*
X157158789Y-106748620D01*
X157134586Y-106802981D01*
X157114298Y-106830905D01*
X157100580Y-106856276D01*
X157061859Y-106903082D01*
X157023261Y-106956207D01*
X157002284Y-106975095D01*
X156987952Y-106992419D01*
X156935845Y-107034917D01*
X156882511Y-107082939D01*
X156863524Y-107093901D01*
X156851025Y-107104095D01*
X156785780Y-107138786D01*
X156718488Y-107177637D01*
X156703636Y-107182463D01*
X156695003Y-107187053D01*
X156617430Y-107210473D01*
X156538360Y-107236165D01*
X156529114Y-107237137D01*
X156525851Y-107238122D01*
X156434710Y-107247059D01*
X156397211Y-107251000D01*
X156302789Y-107251000D01*
X156161640Y-107236165D01*
X156080603Y-107209834D01*
X155993337Y-107182152D01*
X155990345Y-107180507D01*
X155981512Y-107177637D01*
X155909534Y-107136081D01*
X155838501Y-107097030D01*
X155831014Y-107090747D01*
X155817489Y-107082939D01*
X155759741Y-107030943D01*
X155703143Y-106983451D01*
X155693038Y-106970882D01*
X155676739Y-106956207D01*
X155634546Y-106898133D01*
X155592421Y-106845740D01*
X155582006Y-106825818D01*
X155565414Y-106802981D01*
X155538703Y-106742988D01*
X155510561Y-106689157D01*
X155502418Y-106661490D01*
X155488379Y-106629958D01*
X155476008Y-106571759D01*
X155460672Y-106519651D01*
X155457482Y-106484599D01*
X155449001Y-106444699D01*
X155449001Y-106391408D01*
X155444657Y-106343676D01*
X155449001Y-106302347D01*
X155449001Y-106255301D01*
X155458783Y-106209279D01*
X155463127Y-106167953D01*
X155477298Y-106122173D01*
X155488379Y-106070042D01*
X155504972Y-106032774D01*
X155515378Y-105999157D01*
X155541211Y-105951380D01*
X155565414Y-105897019D01*
X155585702Y-105869095D01*
X155599420Y-105843724D01*
X155638141Y-105796918D01*
X155676739Y-105743793D01*
X155697716Y-105724905D01*
X155712048Y-105707581D01*
X155764155Y-105665083D01*
X155817489Y-105617061D01*
X155836476Y-105606099D01*
X155848975Y-105595905D01*
X155914220Y-105561214D01*
X155981512Y-105522363D01*
X155996364Y-105517537D01*
X156004997Y-105512947D01*
X156082570Y-105489527D01*
X156161640Y-105463835D01*
X156170886Y-105462863D01*
X156174149Y-105461878D01*
X156265290Y-105452941D01*
X156302789Y-105449000D01*
X156397211Y-105449000D01*
X156538360Y-105463835D01*
X156538360Y-105463835D01*
G37*
G36*
X147619899Y-105401959D02*
G01*
X147636769Y-105413231D01*
X147648041Y-105430101D01*
X147654448Y-105462312D01*
X147654448Y-106837688D01*
X147651999Y-106850000D01*
X147648041Y-106869899D01*
X147636769Y-106886769D01*
X147619899Y-106898041D01*
X147600000Y-106901999D01*
X147587688Y-106904448D01*
X146012312Y-106904448D01*
X145980101Y-106898041D01*
X145963231Y-106886769D01*
X145951959Y-106869899D01*
X145945552Y-106837688D01*
X145945552Y-105462312D01*
X145951959Y-105430101D01*
X145963231Y-105413231D01*
X145980101Y-105401959D01*
X146012312Y-105395552D01*
X147587688Y-105395552D01*
X147619899Y-105401959D01*
X147619899Y-105401959D01*
G37*
G36*
X154019899Y-105401959D02*
G01*
X154036769Y-105413231D01*
X154048041Y-105430101D01*
X154054448Y-105462312D01*
X154054448Y-106837688D01*
X154051999Y-106850000D01*
X154048041Y-106869899D01*
X154036769Y-106886769D01*
X154019899Y-106898041D01*
X154000000Y-106901999D01*
X153987688Y-106904448D01*
X152412312Y-106904448D01*
X152380101Y-106898041D01*
X152363231Y-106886769D01*
X152351959Y-106869899D01*
X152345552Y-106837688D01*
X152345552Y-105462312D01*
X152351959Y-105430101D01*
X152363231Y-105413231D01*
X152380101Y-105401959D01*
X152412312Y-105395552D01*
X153987688Y-105395552D01*
X154019899Y-105401959D01*
X154019899Y-105401959D01*
G37*
G36*
X148900000Y-105198001D02*
G01*
X148919899Y-105201959D01*
X148936769Y-105213231D01*
X148936770Y-105213232D01*
X148955555Y-105225784D01*
X149022770Y-105246829D01*
X149094445Y-105225784D01*
X149113230Y-105213232D01*
X149113231Y-105213231D01*
X149130101Y-105201959D01*
X149150000Y-105198001D01*
X149162312Y-105195552D01*
X149537688Y-105195552D01*
X149550000Y-105198001D01*
X149569899Y-105201959D01*
X149586769Y-105213231D01*
X149586770Y-105213232D01*
X149605555Y-105225784D01*
X149672770Y-105246829D01*
X149744445Y-105225784D01*
X149763230Y-105213232D01*
X149763231Y-105213231D01*
X149780101Y-105201959D01*
X149800000Y-105198001D01*
X149812312Y-105195552D01*
X150187688Y-105195552D01*
X150200000Y-105198001D01*
X150219899Y-105201959D01*
X150236769Y-105213231D01*
X150236770Y-105213232D01*
X150255555Y-105225784D01*
X150322770Y-105246829D01*
X150394445Y-105225784D01*
X150413230Y-105213232D01*
X150413231Y-105213231D01*
X150430101Y-105201959D01*
X150450000Y-105198001D01*
X150462312Y-105195552D01*
X150837688Y-105195552D01*
X150850000Y-105198001D01*
X150869899Y-105201959D01*
X150886769Y-105213231D01*
X150886770Y-105213232D01*
X150905555Y-105225784D01*
X150972770Y-105246829D01*
X151044445Y-105225784D01*
X151063230Y-105213232D01*
X151063231Y-105213231D01*
X151080101Y-105201959D01*
X151100000Y-105198001D01*
X151112312Y-105195552D01*
X151487688Y-105195552D01*
X151519899Y-105201959D01*
X151536769Y-105213231D01*
X151548041Y-105230101D01*
X151554448Y-105262312D01*
X151554448Y-106587688D01*
X151551999Y-106600000D01*
X151548041Y-106619899D01*
X151536769Y-106636769D01*
X151519899Y-106648041D01*
X151500000Y-106651999D01*
X151487688Y-106654448D01*
X151112312Y-106654448D01*
X151100000Y-106651999D01*
X151080101Y-106648041D01*
X151063231Y-106636769D01*
X151063230Y-106636768D01*
X151044445Y-106624216D01*
X150977230Y-106603171D01*
X150905555Y-106624216D01*
X150886770Y-106636768D01*
X150886769Y-106636769D01*
X150869899Y-106648041D01*
X150850000Y-106651999D01*
X150837688Y-106654448D01*
X150462312Y-106654448D01*
X150450000Y-106651999D01*
X150430101Y-106648041D01*
X150413231Y-106636769D01*
X150413230Y-106636768D01*
X150394445Y-106624216D01*
X150327230Y-106603171D01*
X150255555Y-106624216D01*
X150236770Y-106636768D01*
X150236769Y-106636769D01*
X150219899Y-106648041D01*
X150200000Y-106651999D01*
X150187688Y-106654448D01*
X149812312Y-106654448D01*
X149800000Y-106651999D01*
X149780101Y-106648041D01*
X149763231Y-106636769D01*
X149763230Y-106636768D01*
X149744445Y-106624216D01*
X149677230Y-106603171D01*
X149605555Y-106624216D01*
X149586770Y-106636768D01*
X149586769Y-106636769D01*
X149569899Y-106648041D01*
X149550000Y-106651999D01*
X149537688Y-106654448D01*
X149162312Y-106654448D01*
X149150000Y-106651999D01*
X149130101Y-106648041D01*
X149113231Y-106636769D01*
X149113230Y-106636768D01*
X149094445Y-106624216D01*
X149027230Y-106603171D01*
X148955555Y-106624216D01*
X148936770Y-106636768D01*
X148936769Y-106636769D01*
X148919899Y-106648041D01*
X148900000Y-106651999D01*
X148887688Y-106654448D01*
X148512312Y-106654448D01*
X148480101Y-106648041D01*
X148463231Y-106636769D01*
X148451959Y-106619899D01*
X148445552Y-106587688D01*
X148445552Y-105262312D01*
X148451959Y-105230101D01*
X148463231Y-105213231D01*
X148480101Y-105201959D01*
X148512312Y-105195552D01*
X148887688Y-105195552D01*
X148900000Y-105198001D01*
X148900000Y-105198001D01*
G37*
G36*
X143838360Y-102923835D02*
G01*
X143919397Y-102950166D01*
X144006663Y-102977848D01*
X144009655Y-102979493D01*
X144018488Y-102982363D01*
X144090466Y-103023919D01*
X144161499Y-103062970D01*
X144168986Y-103069253D01*
X144182511Y-103077061D01*
X144240259Y-103129057D01*
X144296857Y-103176549D01*
X144306962Y-103189118D01*
X144323261Y-103203793D01*
X144365454Y-103261867D01*
X144407579Y-103314260D01*
X144417994Y-103334182D01*
X144434586Y-103357019D01*
X144461297Y-103417012D01*
X144489439Y-103470843D01*
X144497582Y-103498510D01*
X144511621Y-103530042D01*
X144523992Y-103588241D01*
X144539328Y-103640349D01*
X144542518Y-103675401D01*
X144550999Y-103715301D01*
X144550999Y-103768592D01*
X144555343Y-103816324D01*
X144550999Y-103857653D01*
X144550999Y-103904699D01*
X144541217Y-103950721D01*
X144536873Y-103992047D01*
X144522702Y-104037827D01*
X144511621Y-104089958D01*
X144495028Y-104127226D01*
X144484622Y-104160843D01*
X144458789Y-104208620D01*
X144434586Y-104262981D01*
X144414298Y-104290905D01*
X144400580Y-104316276D01*
X144361859Y-104363082D01*
X144323261Y-104416207D01*
X144302284Y-104435095D01*
X144287952Y-104452419D01*
X144235845Y-104494917D01*
X144182511Y-104542939D01*
X144163524Y-104553901D01*
X144151025Y-104564095D01*
X144085780Y-104598786D01*
X144018488Y-104637637D01*
X144003636Y-104642463D01*
X143995003Y-104647053D01*
X143917430Y-104670473D01*
X143838360Y-104696165D01*
X143829114Y-104697137D01*
X143825851Y-104698122D01*
X143734710Y-104707059D01*
X143697211Y-104711000D01*
X143602789Y-104711000D01*
X143461640Y-104696165D01*
X143380603Y-104669834D01*
X143293337Y-104642152D01*
X143290345Y-104640507D01*
X143281512Y-104637637D01*
X143209534Y-104596081D01*
X143138501Y-104557030D01*
X143131014Y-104550747D01*
X143117489Y-104542939D01*
X143059741Y-104490943D01*
X143003143Y-104443451D01*
X142993038Y-104430882D01*
X142976739Y-104416207D01*
X142934546Y-104358133D01*
X142892421Y-104305740D01*
X142882006Y-104285818D01*
X142865414Y-104262981D01*
X142838703Y-104202988D01*
X142810561Y-104149157D01*
X142802418Y-104121490D01*
X142788379Y-104089958D01*
X142776008Y-104031759D01*
X142760672Y-103979651D01*
X142757482Y-103944599D01*
X142749001Y-103904699D01*
X142749001Y-103851408D01*
X142744657Y-103803676D01*
X142749001Y-103762347D01*
X142749001Y-103715301D01*
X142758783Y-103669279D01*
X142763127Y-103627953D01*
X142777298Y-103582173D01*
X142788379Y-103530042D01*
X142804972Y-103492774D01*
X142815378Y-103459157D01*
X142841211Y-103411380D01*
X142865414Y-103357019D01*
X142885702Y-103329095D01*
X142899420Y-103303724D01*
X142938141Y-103256918D01*
X142976739Y-103203793D01*
X142997716Y-103184905D01*
X143012048Y-103167581D01*
X143064155Y-103125083D01*
X143117489Y-103077061D01*
X143136476Y-103066099D01*
X143148975Y-103055905D01*
X143214220Y-103021214D01*
X143281512Y-102982363D01*
X143296364Y-102977537D01*
X143304997Y-102972947D01*
X143382570Y-102949527D01*
X143461640Y-102923835D01*
X143470886Y-102922863D01*
X143474149Y-102921878D01*
X143565290Y-102912941D01*
X143602789Y-102909000D01*
X143697211Y-102909000D01*
X143838360Y-102923835D01*
X143838360Y-102923835D01*
G37*
G36*
X156538360Y-102923835D02*
G01*
X156619397Y-102950166D01*
X156706663Y-102977848D01*
X156709655Y-102979493D01*
X156718488Y-102982363D01*
X156790466Y-103023919D01*
X156861499Y-103062970D01*
X156868986Y-103069253D01*
X156882511Y-103077061D01*
X156940259Y-103129057D01*
X156996857Y-103176549D01*
X157006962Y-103189118D01*
X157023261Y-103203793D01*
X157065454Y-103261867D01*
X157107579Y-103314260D01*
X157117994Y-103334182D01*
X157134586Y-103357019D01*
X157161297Y-103417012D01*
X157189439Y-103470843D01*
X157197582Y-103498510D01*
X157211621Y-103530042D01*
X157223992Y-103588241D01*
X157239328Y-103640349D01*
X157242518Y-103675401D01*
X157250999Y-103715301D01*
X157250999Y-103768592D01*
X157255343Y-103816324D01*
X157250999Y-103857653D01*
X157250999Y-103904699D01*
X157241217Y-103950721D01*
X157236873Y-103992047D01*
X157222702Y-104037827D01*
X157211621Y-104089958D01*
X157195028Y-104127226D01*
X157184622Y-104160843D01*
X157158789Y-104208620D01*
X157134586Y-104262981D01*
X157114298Y-104290905D01*
X157100580Y-104316276D01*
X157061859Y-104363082D01*
X157023261Y-104416207D01*
X157002284Y-104435095D01*
X156987952Y-104452419D01*
X156935845Y-104494917D01*
X156882511Y-104542939D01*
X156863524Y-104553901D01*
X156851025Y-104564095D01*
X156785780Y-104598786D01*
X156718488Y-104637637D01*
X156703636Y-104642463D01*
X156695003Y-104647053D01*
X156617430Y-104670473D01*
X156538360Y-104696165D01*
X156529114Y-104697137D01*
X156525851Y-104698122D01*
X156434710Y-104707059D01*
X156397211Y-104711000D01*
X156302789Y-104711000D01*
X156161640Y-104696165D01*
X156080603Y-104669834D01*
X155993337Y-104642152D01*
X155990345Y-104640507D01*
X155981512Y-104637637D01*
X155909534Y-104596081D01*
X155838501Y-104557030D01*
X155831014Y-104550747D01*
X155817489Y-104542939D01*
X155759741Y-104490943D01*
X155703143Y-104443451D01*
X155693038Y-104430882D01*
X155676739Y-104416207D01*
X155634546Y-104358133D01*
X155592421Y-104305740D01*
X155582006Y-104285818D01*
X155565414Y-104262981D01*
X155538703Y-104202988D01*
X155510561Y-104149157D01*
X155502418Y-104121490D01*
X155488379Y-104089958D01*
X155476008Y-104031759D01*
X155460672Y-103979651D01*
X155457482Y-103944599D01*
X155449001Y-103904699D01*
X155449001Y-103851408D01*
X155444657Y-103803676D01*
X155449001Y-103762347D01*
X155449001Y-103715301D01*
X155458783Y-103669279D01*
X155463127Y-103627953D01*
X155477298Y-103582173D01*
X155488379Y-103530042D01*
X155504972Y-103492774D01*
X155515378Y-103459157D01*
X155541211Y-103411380D01*
X155565414Y-103357019D01*
X155585702Y-103329095D01*
X155599420Y-103303724D01*
X155638141Y-103256918D01*
X155676739Y-103203793D01*
X155697716Y-103184905D01*
X155712048Y-103167581D01*
X155764155Y-103125083D01*
X155817489Y-103077061D01*
X155836476Y-103066099D01*
X155848975Y-103055905D01*
X155914220Y-103021214D01*
X155981512Y-102982363D01*
X155996364Y-102977537D01*
X156004997Y-102972947D01*
X156082570Y-102949527D01*
X156161640Y-102923835D01*
X156170886Y-102922863D01*
X156174149Y-102921878D01*
X156265290Y-102912941D01*
X156302789Y-102909000D01*
X156397211Y-102909000D01*
X156538360Y-102923835D01*
X156538360Y-102923835D01*
G37*
G36*
X146403760Y-103658134D02*
G01*
X146406020Y-103659533D01*
X146406958Y-103659720D01*
X146414997Y-103665091D01*
X146451953Y-103687973D01*
X146454714Y-103691630D01*
X146456906Y-103693094D01*
X146465248Y-103705578D01*
X146484303Y-103730812D01*
X146485495Y-103735881D01*
X146490280Y-103743042D01*
X146501999Y-103801959D01*
X146501999Y-103806050D01*
X146504448Y-103816462D01*
X146504448Y-103986456D01*
X146491866Y-104053760D01*
X146490467Y-104056020D01*
X146490280Y-104056958D01*
X146484909Y-104064997D01*
X146462027Y-104101953D01*
X146458370Y-104104714D01*
X146456906Y-104106906D01*
X146444422Y-104115248D01*
X146419188Y-104134303D01*
X146414119Y-104135495D01*
X146406958Y-104140280D01*
X146348041Y-104151999D01*
X146343950Y-104151999D01*
X146333538Y-104154448D01*
X146063544Y-104154448D01*
X145996240Y-104141866D01*
X145993980Y-104140467D01*
X145993042Y-104140280D01*
X145985003Y-104134909D01*
X145948047Y-104112027D01*
X145945286Y-104108370D01*
X145943094Y-104106906D01*
X145934752Y-104094422D01*
X145915697Y-104069188D01*
X145914505Y-104064119D01*
X145909720Y-104056958D01*
X145898001Y-103998041D01*
X145898001Y-103993950D01*
X145895552Y-103983538D01*
X145895552Y-103813544D01*
X145908134Y-103746240D01*
X145909533Y-103743980D01*
X145909720Y-103743042D01*
X145915091Y-103735003D01*
X145937973Y-103698047D01*
X145941630Y-103695286D01*
X145943094Y-103693094D01*
X145955578Y-103684752D01*
X145980812Y-103665697D01*
X145985881Y-103664505D01*
X145993042Y-103659720D01*
X146051959Y-103648001D01*
X146056050Y-103648001D01*
X146066462Y-103645552D01*
X146336456Y-103645552D01*
X146403760Y-103658134D01*
X146403760Y-103658134D01*
G37*
G36*
X148769899Y-102101959D02*
G01*
X148786769Y-102113231D01*
X148798041Y-102130101D01*
X148804448Y-102162312D01*
X148804448Y-103837688D01*
X148801999Y-103850000D01*
X148798041Y-103869899D01*
X148786769Y-103886769D01*
X148769899Y-103898041D01*
X148750000Y-103901999D01*
X148737688Y-103904448D01*
X147862312Y-103904448D01*
X147830101Y-103898041D01*
X147813231Y-103886769D01*
X147801959Y-103869899D01*
X147795552Y-103837688D01*
X147795552Y-102162312D01*
X147801959Y-102130101D01*
X147813231Y-102113231D01*
X147830101Y-102101959D01*
X147862312Y-102095552D01*
X148737688Y-102095552D01*
X148769899Y-102101959D01*
X148769899Y-102101959D01*
G37*
G36*
X152169899Y-102101959D02*
G01*
X152186769Y-102113231D01*
X152198041Y-102130101D01*
X152204448Y-102162312D01*
X152204448Y-103837688D01*
X152201999Y-103850000D01*
X152198041Y-103869899D01*
X152186769Y-103886769D01*
X152169899Y-103898041D01*
X152150000Y-103901999D01*
X152137688Y-103904448D01*
X151262312Y-103904448D01*
X151230101Y-103898041D01*
X151213231Y-103886769D01*
X151201959Y-103869899D01*
X151195552Y-103837688D01*
X151195552Y-102162312D01*
X151201959Y-102130101D01*
X151213231Y-102113231D01*
X151230101Y-102101959D01*
X151262312Y-102095552D01*
X152137688Y-102095552D01*
X152169899Y-102101959D01*
X152169899Y-102101959D01*
G37*
G36*
X146403760Y-102858134D02*
G01*
X146406020Y-102859533D01*
X146406958Y-102859720D01*
X146414997Y-102865091D01*
X146451953Y-102887973D01*
X146454714Y-102891630D01*
X146456906Y-102893094D01*
X146465248Y-102905578D01*
X146484303Y-102930812D01*
X146485495Y-102935881D01*
X146490280Y-102943042D01*
X146501999Y-103001959D01*
X146501999Y-103006050D01*
X146504448Y-103016462D01*
X146504448Y-103186456D01*
X146491866Y-103253760D01*
X146490467Y-103256020D01*
X146490280Y-103256958D01*
X146484909Y-103264997D01*
X146462027Y-103301953D01*
X146458370Y-103304714D01*
X146456906Y-103306906D01*
X146444422Y-103315248D01*
X146419188Y-103334303D01*
X146414119Y-103335495D01*
X146406958Y-103340280D01*
X146348041Y-103351999D01*
X146343950Y-103351999D01*
X146333538Y-103354448D01*
X146063544Y-103354448D01*
X145996240Y-103341866D01*
X145993980Y-103340467D01*
X145993042Y-103340280D01*
X145985003Y-103334909D01*
X145948047Y-103312027D01*
X145945286Y-103308370D01*
X145943094Y-103306906D01*
X145934752Y-103294422D01*
X145915697Y-103269188D01*
X145914505Y-103264119D01*
X145909720Y-103256958D01*
X145898001Y-103198041D01*
X145898001Y-103193950D01*
X145895552Y-103183538D01*
X145895552Y-103013544D01*
X145908134Y-102946240D01*
X145909533Y-102943980D01*
X145909720Y-102943042D01*
X145915091Y-102935003D01*
X145937973Y-102898047D01*
X145941630Y-102895286D01*
X145943094Y-102893094D01*
X145955578Y-102884752D01*
X145980812Y-102865697D01*
X145985881Y-102864505D01*
X145993042Y-102859720D01*
X146051959Y-102848001D01*
X146056050Y-102848001D01*
X146066462Y-102845552D01*
X146336456Y-102845552D01*
X146403760Y-102858134D01*
X146403760Y-102858134D01*
G37*
G36*
X156538360Y-100383835D02*
G01*
X156619397Y-100410166D01*
X156706663Y-100437848D01*
X156709655Y-100439493D01*
X156718488Y-100442363D01*
X156790466Y-100483919D01*
X156861499Y-100522970D01*
X156868986Y-100529253D01*
X156882511Y-100537061D01*
X156940259Y-100589057D01*
X156996857Y-100636549D01*
X157006962Y-100649118D01*
X157023261Y-100663793D01*
X157065454Y-100721867D01*
X157107579Y-100774260D01*
X157117994Y-100794182D01*
X157134586Y-100817019D01*
X157161297Y-100877012D01*
X157189439Y-100930843D01*
X157197582Y-100958510D01*
X157211621Y-100990042D01*
X157223992Y-101048241D01*
X157239328Y-101100349D01*
X157242518Y-101135401D01*
X157250999Y-101175301D01*
X157250999Y-101228592D01*
X157255343Y-101276324D01*
X157250999Y-101317653D01*
X157250999Y-101364699D01*
X157241217Y-101410721D01*
X157236873Y-101452047D01*
X157222702Y-101497827D01*
X157211621Y-101549958D01*
X157195028Y-101587226D01*
X157184622Y-101620843D01*
X157158789Y-101668620D01*
X157134586Y-101722981D01*
X157114298Y-101750905D01*
X157100580Y-101776276D01*
X157061859Y-101823082D01*
X157023261Y-101876207D01*
X157002284Y-101895095D01*
X156987952Y-101912419D01*
X156935845Y-101954917D01*
X156882511Y-102002939D01*
X156863524Y-102013901D01*
X156851025Y-102024095D01*
X156785780Y-102058786D01*
X156718488Y-102097637D01*
X156703636Y-102102463D01*
X156695003Y-102107053D01*
X156617430Y-102130473D01*
X156538360Y-102156165D01*
X156529114Y-102157137D01*
X156525851Y-102158122D01*
X156434710Y-102167059D01*
X156397211Y-102171000D01*
X156302789Y-102171000D01*
X156161640Y-102156165D01*
X156080603Y-102129834D01*
X155993337Y-102102152D01*
X155990345Y-102100507D01*
X155981512Y-102097637D01*
X155909534Y-102056081D01*
X155838501Y-102017030D01*
X155831014Y-102010747D01*
X155817489Y-102002939D01*
X155759741Y-101950943D01*
X155703143Y-101903451D01*
X155693038Y-101890882D01*
X155676739Y-101876207D01*
X155634546Y-101818133D01*
X155592421Y-101765740D01*
X155582006Y-101745818D01*
X155565414Y-101722981D01*
X155538703Y-101662988D01*
X155510561Y-101609157D01*
X155502418Y-101581490D01*
X155488379Y-101549958D01*
X155476008Y-101491759D01*
X155460672Y-101439651D01*
X155457482Y-101404599D01*
X155449001Y-101364699D01*
X155449001Y-101311408D01*
X155444657Y-101263676D01*
X155449001Y-101222347D01*
X155449001Y-101175301D01*
X155458783Y-101129279D01*
X155463127Y-101087953D01*
X155477298Y-101042173D01*
X155488379Y-100990042D01*
X155504972Y-100952774D01*
X155515378Y-100919157D01*
X155541211Y-100871380D01*
X155565414Y-100817019D01*
X155585702Y-100789095D01*
X155599420Y-100763724D01*
X155638141Y-100716918D01*
X155676739Y-100663793D01*
X155697716Y-100644905D01*
X155712048Y-100627581D01*
X155764155Y-100585083D01*
X155817489Y-100537061D01*
X155836476Y-100526099D01*
X155848975Y-100515905D01*
X155914220Y-100481214D01*
X155981512Y-100442363D01*
X155996364Y-100437537D01*
X156004997Y-100432947D01*
X156082570Y-100409527D01*
X156161640Y-100383835D01*
X156170886Y-100382863D01*
X156174149Y-100381878D01*
X156265290Y-100372941D01*
X156302789Y-100369000D01*
X156397211Y-100369000D01*
X156538360Y-100383835D01*
X156538360Y-100383835D01*
G37*
G36*
X143838360Y-100383835D02*
G01*
X143919397Y-100410166D01*
X144006663Y-100437848D01*
X144009655Y-100439493D01*
X144018488Y-100442363D01*
X144090466Y-100483919D01*
X144161499Y-100522970D01*
X144168986Y-100529253D01*
X144182511Y-100537061D01*
X144240259Y-100589057D01*
X144296857Y-100636549D01*
X144306962Y-100649118D01*
X144323261Y-100663793D01*
X144365454Y-100721867D01*
X144407579Y-100774260D01*
X144417994Y-100794182D01*
X144434586Y-100817019D01*
X144461297Y-100877012D01*
X144489439Y-100930843D01*
X144497582Y-100958510D01*
X144511621Y-100990042D01*
X144523992Y-101048241D01*
X144539328Y-101100349D01*
X144542518Y-101135401D01*
X144550999Y-101175301D01*
X144550999Y-101228592D01*
X144555343Y-101276324D01*
X144550999Y-101317653D01*
X144550999Y-101364699D01*
X144541217Y-101410721D01*
X144536873Y-101452047D01*
X144522702Y-101497827D01*
X144511621Y-101549958D01*
X144495028Y-101587226D01*
X144484622Y-101620843D01*
X144458789Y-101668620D01*
X144434586Y-101722981D01*
X144414298Y-101750905D01*
X144400580Y-101776276D01*
X144361859Y-101823082D01*
X144323261Y-101876207D01*
X144302284Y-101895095D01*
X144287952Y-101912419D01*
X144235845Y-101954917D01*
X144182511Y-102002939D01*
X144163524Y-102013901D01*
X144151025Y-102024095D01*
X144085780Y-102058786D01*
X144018488Y-102097637D01*
X144003636Y-102102463D01*
X143995003Y-102107053D01*
X143917430Y-102130473D01*
X143838360Y-102156165D01*
X143829114Y-102157137D01*
X143825851Y-102158122D01*
X143734710Y-102167059D01*
X143697211Y-102171000D01*
X143602789Y-102171000D01*
X143461640Y-102156165D01*
X143380603Y-102129834D01*
X143293337Y-102102152D01*
X143290345Y-102100507D01*
X143281512Y-102097637D01*
X143209534Y-102056081D01*
X143138501Y-102017030D01*
X143131014Y-102010747D01*
X143117489Y-102002939D01*
X143059741Y-101950943D01*
X143003143Y-101903451D01*
X142993038Y-101890882D01*
X142976739Y-101876207D01*
X142934546Y-101818133D01*
X142892421Y-101765740D01*
X142882006Y-101745818D01*
X142865414Y-101722981D01*
X142838703Y-101662988D01*
X142810561Y-101609157D01*
X142802418Y-101581490D01*
X142788379Y-101549958D01*
X142776008Y-101491759D01*
X142760672Y-101439651D01*
X142757482Y-101404599D01*
X142749001Y-101364699D01*
X142749001Y-101311408D01*
X142744657Y-101263676D01*
X142749001Y-101222347D01*
X142749001Y-101175301D01*
X142758783Y-101129279D01*
X142763127Y-101087953D01*
X142777298Y-101042173D01*
X142788379Y-100990042D01*
X142804972Y-100952774D01*
X142815378Y-100919157D01*
X142841211Y-100871380D01*
X142865414Y-100817019D01*
X142885702Y-100789095D01*
X142899420Y-100763724D01*
X142938141Y-100716918D01*
X142976739Y-100663793D01*
X142997716Y-100644905D01*
X143012048Y-100627581D01*
X143064155Y-100585083D01*
X143117489Y-100537061D01*
X143136476Y-100526099D01*
X143148975Y-100515905D01*
X143214220Y-100481214D01*
X143281512Y-100442363D01*
X143296364Y-100437537D01*
X143304997Y-100432947D01*
X143382570Y-100409527D01*
X143461640Y-100383835D01*
X143470886Y-100382863D01*
X143474149Y-100381878D01*
X143565290Y-100372941D01*
X143602789Y-100369000D01*
X143697211Y-100369000D01*
X143838360Y-100383835D01*
X143838360Y-100383835D01*
G37*
G36*
X151553760Y-100708134D02*
G01*
X151556020Y-100709533D01*
X151556958Y-100709720D01*
X151564997Y-100715091D01*
X151601953Y-100737973D01*
X151604714Y-100741630D01*
X151606906Y-100743094D01*
X151615248Y-100755578D01*
X151634303Y-100780812D01*
X151635495Y-100785881D01*
X151640280Y-100793042D01*
X151651999Y-100851959D01*
X151651999Y-100856050D01*
X151654448Y-100866462D01*
X151654448Y-101136456D01*
X151641866Y-101203760D01*
X151640467Y-101206020D01*
X151640280Y-101206958D01*
X151634909Y-101214997D01*
X151612027Y-101251953D01*
X151608370Y-101254714D01*
X151606906Y-101256906D01*
X151594422Y-101265248D01*
X151569188Y-101284303D01*
X151564119Y-101285495D01*
X151556958Y-101290280D01*
X151498041Y-101301999D01*
X151493950Y-101301999D01*
X151483538Y-101304448D01*
X151313544Y-101304448D01*
X151246240Y-101291866D01*
X151243980Y-101290467D01*
X151243042Y-101290280D01*
X151235003Y-101284909D01*
X151198047Y-101262027D01*
X151195286Y-101258370D01*
X151193094Y-101256906D01*
X151184752Y-101244422D01*
X151165697Y-101219188D01*
X151164505Y-101214119D01*
X151159720Y-101206958D01*
X151148001Y-101148041D01*
X151148001Y-101143950D01*
X151145552Y-101133538D01*
X151145552Y-100863544D01*
X151158134Y-100796240D01*
X151159533Y-100793980D01*
X151159720Y-100793042D01*
X151165091Y-100785003D01*
X151187973Y-100748047D01*
X151191630Y-100745286D01*
X151193094Y-100743094D01*
X151205578Y-100734752D01*
X151230812Y-100715697D01*
X151235881Y-100714505D01*
X151243042Y-100709720D01*
X151301959Y-100698001D01*
X151306050Y-100698001D01*
X151316462Y-100695552D01*
X151486456Y-100695552D01*
X151553760Y-100708134D01*
X151553760Y-100708134D01*
G37*
G36*
X152353760Y-100708134D02*
G01*
X152356020Y-100709533D01*
X152356958Y-100709720D01*
X152364997Y-100715091D01*
X152401953Y-100737973D01*
X152404714Y-100741630D01*
X152406906Y-100743094D01*
X152415248Y-100755578D01*
X152434303Y-100780812D01*
X152435495Y-100785881D01*
X152440280Y-100793042D01*
X152451999Y-100851959D01*
X152451999Y-100856050D01*
X152454448Y-100866462D01*
X152454448Y-101136456D01*
X152441866Y-101203760D01*
X152440467Y-101206020D01*
X152440280Y-101206958D01*
X152434909Y-101214997D01*
X152412027Y-101251953D01*
X152408370Y-101254714D01*
X152406906Y-101256906D01*
X152394422Y-101265248D01*
X152369188Y-101284303D01*
X152364119Y-101285495D01*
X152356958Y-101290280D01*
X152298041Y-101301999D01*
X152293950Y-101301999D01*
X152283538Y-101304448D01*
X152113544Y-101304448D01*
X152046240Y-101291866D01*
X152043980Y-101290467D01*
X152043042Y-101290280D01*
X152035003Y-101284909D01*
X151998047Y-101262027D01*
X151995286Y-101258370D01*
X151993094Y-101256906D01*
X151984752Y-101244422D01*
X151965697Y-101219188D01*
X151964505Y-101214119D01*
X151959720Y-101206958D01*
X151948001Y-101148041D01*
X151948001Y-101143950D01*
X151945552Y-101133538D01*
X151945552Y-100863544D01*
X151958134Y-100796240D01*
X151959533Y-100793980D01*
X151959720Y-100793042D01*
X151965091Y-100785003D01*
X151987973Y-100748047D01*
X151991630Y-100745286D01*
X151993094Y-100743094D01*
X152005578Y-100734752D01*
X152030812Y-100715697D01*
X152035881Y-100714505D01*
X152043042Y-100709720D01*
X152101959Y-100698001D01*
X152106050Y-100698001D01*
X152116462Y-100695552D01*
X152286456Y-100695552D01*
X152353760Y-100708134D01*
X152353760Y-100708134D01*
G37*
G36*
X148803760Y-100658134D02*
G01*
X148806020Y-100659533D01*
X148806958Y-100659720D01*
X148814997Y-100665091D01*
X148851953Y-100687973D01*
X148854714Y-100691630D01*
X148856906Y-100693094D01*
X148865248Y-100705578D01*
X148884303Y-100730812D01*
X148885495Y-100735881D01*
X148890280Y-100743042D01*
X148901999Y-100801959D01*
X148901999Y-100806050D01*
X148904448Y-100816462D01*
X148904448Y-100986456D01*
X148891866Y-101053760D01*
X148890467Y-101056020D01*
X148890280Y-101056958D01*
X148884909Y-101064997D01*
X148862027Y-101101953D01*
X148858370Y-101104714D01*
X148856906Y-101106906D01*
X148844422Y-101115248D01*
X148819188Y-101134303D01*
X148814119Y-101135495D01*
X148806958Y-101140280D01*
X148748041Y-101151999D01*
X148743950Y-101151999D01*
X148733538Y-101154448D01*
X148463544Y-101154448D01*
X148396240Y-101141866D01*
X148393980Y-101140467D01*
X148393042Y-101140280D01*
X148385003Y-101134909D01*
X148348047Y-101112027D01*
X148345286Y-101108370D01*
X148343094Y-101106906D01*
X148334752Y-101094422D01*
X148315697Y-101069188D01*
X148314505Y-101064119D01*
X148309720Y-101056958D01*
X148298001Y-100998041D01*
X148298001Y-100993950D01*
X148295552Y-100983538D01*
X148295552Y-100813544D01*
X148308134Y-100746240D01*
X148309533Y-100743980D01*
X148309720Y-100743042D01*
X148315091Y-100735003D01*
X148337973Y-100698047D01*
X148341630Y-100695286D01*
X148343094Y-100693094D01*
X148355578Y-100684752D01*
X148380812Y-100665697D01*
X148385881Y-100664505D01*
X148393042Y-100659720D01*
X148451959Y-100648001D01*
X148456050Y-100648001D01*
X148466462Y-100645552D01*
X148736456Y-100645552D01*
X148803760Y-100658134D01*
X148803760Y-100658134D01*
G37*
G36*
X149819899Y-100651959D02*
G01*
X149836769Y-100663231D01*
X149848041Y-100680101D01*
X149854448Y-100712312D01*
X149854448Y-101087688D01*
X149851999Y-101100000D01*
X149848041Y-101119899D01*
X149836769Y-101136769D01*
X149819899Y-101148041D01*
X149800000Y-101151999D01*
X149787688Y-101154448D01*
X149412312Y-101154448D01*
X149380101Y-101148041D01*
X149363231Y-101136769D01*
X149351959Y-101119899D01*
X149345552Y-101087688D01*
X149345552Y-100712312D01*
X149351959Y-100680101D01*
X149363231Y-100663231D01*
X149380101Y-100651959D01*
X149412312Y-100645552D01*
X149787688Y-100645552D01*
X149819899Y-100651959D01*
X149819899Y-100651959D01*
G37*
G36*
X150619899Y-100651959D02*
G01*
X150636769Y-100663231D01*
X150648041Y-100680101D01*
X150654448Y-100712312D01*
X150654448Y-101087688D01*
X150651999Y-101100000D01*
X150648041Y-101119899D01*
X150636769Y-101136769D01*
X150619899Y-101148041D01*
X150600000Y-101151999D01*
X150587688Y-101154448D01*
X150212312Y-101154448D01*
X150180101Y-101148041D01*
X150163231Y-101136769D01*
X150151959Y-101119899D01*
X150145552Y-101087688D01*
X150145552Y-100712312D01*
X150151959Y-100680101D01*
X150163231Y-100663231D01*
X150180101Y-100651959D01*
X150212312Y-100645552D01*
X150587688Y-100645552D01*
X150619899Y-100651959D01*
X150619899Y-100651959D01*
G37*
G36*
X150619899Y-99851959D02*
G01*
X150636769Y-99863231D01*
X150648041Y-99880101D01*
X150654448Y-99912312D01*
X150654448Y-100287688D01*
X150651999Y-100300000D01*
X150648041Y-100319899D01*
X150636769Y-100336769D01*
X150619899Y-100348041D01*
X150600000Y-100351999D01*
X150587688Y-100354448D01*
X150212312Y-100354448D01*
X150180101Y-100348041D01*
X150163231Y-100336769D01*
X150151959Y-100319899D01*
X150145552Y-100287688D01*
X150145552Y-99912312D01*
X150151959Y-99880101D01*
X150163231Y-99863231D01*
X150180101Y-99851959D01*
X150212312Y-99845552D01*
X150587688Y-99845552D01*
X150619899Y-99851959D01*
X150619899Y-99851959D01*
G37*
G36*
X149819899Y-99851959D02*
G01*
X149836769Y-99863231D01*
X149848041Y-99880101D01*
X149854448Y-99912312D01*
X149854448Y-100287688D01*
X149851999Y-100300000D01*
X149848041Y-100319899D01*
X149836769Y-100336769D01*
X149819899Y-100348041D01*
X149800000Y-100351999D01*
X149787688Y-100354448D01*
X149412312Y-100354448D01*
X149380101Y-100348041D01*
X149363231Y-100336769D01*
X149351959Y-100319899D01*
X149345552Y-100287688D01*
X149345552Y-99912312D01*
X149351959Y-99880101D01*
X149363231Y-99863231D01*
X149380101Y-99851959D01*
X149412312Y-99845552D01*
X149787688Y-99845552D01*
X149819899Y-99851959D01*
X149819899Y-99851959D01*
G37*
G36*
X148803760Y-99858134D02*
G01*
X148806020Y-99859533D01*
X148806958Y-99859720D01*
X148814997Y-99865091D01*
X148851953Y-99887973D01*
X148854714Y-99891630D01*
X148856906Y-99893094D01*
X148865248Y-99905578D01*
X148884303Y-99930812D01*
X148885495Y-99935881D01*
X148890280Y-99943042D01*
X148901999Y-100001959D01*
X148901999Y-100006050D01*
X148904448Y-100016462D01*
X148904448Y-100186456D01*
X148891866Y-100253760D01*
X148890467Y-100256020D01*
X148890280Y-100256958D01*
X148884909Y-100264997D01*
X148862027Y-100301953D01*
X148858370Y-100304714D01*
X148856906Y-100306906D01*
X148844422Y-100315248D01*
X148819188Y-100334303D01*
X148814119Y-100335495D01*
X148806958Y-100340280D01*
X148748041Y-100351999D01*
X148743950Y-100351999D01*
X148733538Y-100354448D01*
X148463544Y-100354448D01*
X148396240Y-100341866D01*
X148393980Y-100340467D01*
X148393042Y-100340280D01*
X148385003Y-100334909D01*
X148348047Y-100312027D01*
X148345286Y-100308370D01*
X148343094Y-100306906D01*
X148334752Y-100294422D01*
X148315697Y-100269188D01*
X148314505Y-100264119D01*
X148309720Y-100256958D01*
X148298001Y-100198041D01*
X148298001Y-100193950D01*
X148295552Y-100183538D01*
X148295552Y-100013544D01*
X148308134Y-99946240D01*
X148309533Y-99943980D01*
X148309720Y-99943042D01*
X148315091Y-99935003D01*
X148337973Y-99898047D01*
X148341630Y-99895286D01*
X148343094Y-99893094D01*
X148355578Y-99884752D01*
X148380812Y-99865697D01*
X148385881Y-99864505D01*
X148393042Y-99859720D01*
X148451959Y-99848001D01*
X148456050Y-99848001D01*
X148466462Y-99845552D01*
X148736456Y-99845552D01*
X148803760Y-99858134D01*
X148803760Y-99858134D01*
G37*
G36*
X152353760Y-99708134D02*
G01*
X152356020Y-99709533D01*
X152356958Y-99709720D01*
X152364997Y-99715091D01*
X152401953Y-99737973D01*
X152404714Y-99741630D01*
X152406906Y-99743094D01*
X152415248Y-99755578D01*
X152434303Y-99780812D01*
X152435495Y-99785881D01*
X152440280Y-99793042D01*
X152451999Y-99851959D01*
X152451999Y-99856050D01*
X152454448Y-99866462D01*
X152454448Y-100136456D01*
X152441866Y-100203760D01*
X152440467Y-100206020D01*
X152440280Y-100206958D01*
X152434909Y-100214997D01*
X152412027Y-100251953D01*
X152408370Y-100254714D01*
X152406906Y-100256906D01*
X152394422Y-100265248D01*
X152369188Y-100284303D01*
X152364119Y-100285495D01*
X152356958Y-100290280D01*
X152298041Y-100301999D01*
X152293950Y-100301999D01*
X152283538Y-100304448D01*
X152113544Y-100304448D01*
X152046240Y-100291866D01*
X152043980Y-100290467D01*
X152043042Y-100290280D01*
X152035003Y-100284909D01*
X151998047Y-100262027D01*
X151995286Y-100258370D01*
X151993094Y-100256906D01*
X151984752Y-100244422D01*
X151965697Y-100219188D01*
X151964505Y-100214119D01*
X151959720Y-100206958D01*
X151948001Y-100148041D01*
X151948001Y-100143950D01*
X151945552Y-100133538D01*
X151945552Y-99863544D01*
X151958134Y-99796240D01*
X151959533Y-99793980D01*
X151959720Y-99793042D01*
X151965091Y-99785003D01*
X151987973Y-99748047D01*
X151991630Y-99745286D01*
X151993094Y-99743094D01*
X152005578Y-99734752D01*
X152030812Y-99715697D01*
X152035881Y-99714505D01*
X152043042Y-99709720D01*
X152101959Y-99698001D01*
X152106050Y-99698001D01*
X152116462Y-99695552D01*
X152286456Y-99695552D01*
X152353760Y-99708134D01*
X152353760Y-99708134D01*
G37*
G36*
X151553760Y-99708134D02*
G01*
X151556020Y-99709533D01*
X151556958Y-99709720D01*
X151564997Y-99715091D01*
X151601953Y-99737973D01*
X151604714Y-99741630D01*
X151606906Y-99743094D01*
X151615248Y-99755578D01*
X151634303Y-99780812D01*
X151635495Y-99785881D01*
X151640280Y-99793042D01*
X151651999Y-99851959D01*
X151651999Y-99856050D01*
X151654448Y-99866462D01*
X151654448Y-100136456D01*
X151641866Y-100203760D01*
X151640467Y-100206020D01*
X151640280Y-100206958D01*
X151634909Y-100214997D01*
X151612027Y-100251953D01*
X151608370Y-100254714D01*
X151606906Y-100256906D01*
X151594422Y-100265248D01*
X151569188Y-100284303D01*
X151564119Y-100285495D01*
X151556958Y-100290280D01*
X151498041Y-100301999D01*
X151493950Y-100301999D01*
X151483538Y-100304448D01*
X151313544Y-100304448D01*
X151246240Y-100291866D01*
X151243980Y-100290467D01*
X151243042Y-100290280D01*
X151235003Y-100284909D01*
X151198047Y-100262027D01*
X151195286Y-100258370D01*
X151193094Y-100256906D01*
X151184752Y-100244422D01*
X151165697Y-100219188D01*
X151164505Y-100214119D01*
X151159720Y-100206958D01*
X151148001Y-100148041D01*
X151148001Y-100143950D01*
X151145552Y-100133538D01*
X151145552Y-99863544D01*
X151158134Y-99796240D01*
X151159533Y-99793980D01*
X151159720Y-99793042D01*
X151165091Y-99785003D01*
X151187973Y-99748047D01*
X151191630Y-99745286D01*
X151193094Y-99743094D01*
X151205578Y-99734752D01*
X151230812Y-99715697D01*
X151235881Y-99714505D01*
X151243042Y-99709720D01*
X151301959Y-99698001D01*
X151306050Y-99698001D01*
X151316462Y-99695552D01*
X151486456Y-99695552D01*
X151553760Y-99708134D01*
X151553760Y-99708134D01*
G37*
G36*
X143838360Y-97843835D02*
G01*
X143919397Y-97870166D01*
X144006663Y-97897848D01*
X144009655Y-97899493D01*
X144018488Y-97902363D01*
X144090466Y-97943919D01*
X144161499Y-97982970D01*
X144168986Y-97989253D01*
X144182511Y-97997061D01*
X144240259Y-98049057D01*
X144296857Y-98096549D01*
X144306962Y-98109118D01*
X144323261Y-98123793D01*
X144365454Y-98181867D01*
X144407579Y-98234260D01*
X144417994Y-98254182D01*
X144434586Y-98277019D01*
X144461297Y-98337012D01*
X144489439Y-98390843D01*
X144497582Y-98418510D01*
X144511621Y-98450042D01*
X144523992Y-98508241D01*
X144539328Y-98560349D01*
X144542518Y-98595401D01*
X144550999Y-98635301D01*
X144550999Y-98688592D01*
X144555343Y-98736324D01*
X144550999Y-98777653D01*
X144550999Y-98824699D01*
X144541217Y-98870721D01*
X144536873Y-98912047D01*
X144522702Y-98957827D01*
X144511621Y-99009958D01*
X144495028Y-99047226D01*
X144484622Y-99080843D01*
X144458789Y-99128620D01*
X144434586Y-99182981D01*
X144414298Y-99210905D01*
X144400580Y-99236276D01*
X144361859Y-99283082D01*
X144323261Y-99336207D01*
X144302284Y-99355095D01*
X144287952Y-99372419D01*
X144235845Y-99414917D01*
X144182511Y-99462939D01*
X144163524Y-99473901D01*
X144151025Y-99484095D01*
X144085780Y-99518786D01*
X144018488Y-99557637D01*
X144003636Y-99562463D01*
X143995003Y-99567053D01*
X143917430Y-99590473D01*
X143838360Y-99616165D01*
X143829114Y-99617137D01*
X143825851Y-99618122D01*
X143734710Y-99627059D01*
X143697211Y-99631000D01*
X143602789Y-99631000D01*
X143461640Y-99616165D01*
X143380603Y-99589834D01*
X143293337Y-99562152D01*
X143290345Y-99560507D01*
X143281512Y-99557637D01*
X143209534Y-99516081D01*
X143138501Y-99477030D01*
X143131014Y-99470747D01*
X143117489Y-99462939D01*
X143059741Y-99410943D01*
X143003143Y-99363451D01*
X142993038Y-99350882D01*
X142976739Y-99336207D01*
X142934546Y-99278133D01*
X142892421Y-99225740D01*
X142882006Y-99205818D01*
X142865414Y-99182981D01*
X142838703Y-99122988D01*
X142810561Y-99069157D01*
X142802418Y-99041490D01*
X142788379Y-99009958D01*
X142776008Y-98951759D01*
X142760672Y-98899651D01*
X142757482Y-98864599D01*
X142749001Y-98824699D01*
X142749001Y-98771408D01*
X142744657Y-98723676D01*
X142749001Y-98682347D01*
X142749001Y-98635301D01*
X142758783Y-98589279D01*
X142763127Y-98547953D01*
X142777298Y-98502173D01*
X142788379Y-98450042D01*
X142804972Y-98412774D01*
X142815378Y-98379157D01*
X142841211Y-98331380D01*
X142865414Y-98277019D01*
X142885702Y-98249095D01*
X142899420Y-98223724D01*
X142938141Y-98176918D01*
X142976739Y-98123793D01*
X142997716Y-98104905D01*
X143012048Y-98087581D01*
X143064155Y-98045083D01*
X143117489Y-97997061D01*
X143136476Y-97986099D01*
X143148975Y-97975905D01*
X143214220Y-97941214D01*
X143281512Y-97902363D01*
X143296364Y-97897537D01*
X143304997Y-97892947D01*
X143382570Y-97869527D01*
X143461640Y-97843835D01*
X143470886Y-97842863D01*
X143474149Y-97841878D01*
X143565290Y-97832941D01*
X143602789Y-97829000D01*
X143697211Y-97829000D01*
X143838360Y-97843835D01*
X143838360Y-97843835D01*
G37*
G36*
X156538360Y-97843835D02*
G01*
X156619397Y-97870166D01*
X156706663Y-97897848D01*
X156709655Y-97899493D01*
X156718488Y-97902363D01*
X156790466Y-97943919D01*
X156861499Y-97982970D01*
X156868986Y-97989253D01*
X156882511Y-97997061D01*
X156940259Y-98049057D01*
X156996857Y-98096549D01*
X157006962Y-98109118D01*
X157023261Y-98123793D01*
X157065454Y-98181867D01*
X157107579Y-98234260D01*
X157117994Y-98254182D01*
X157134586Y-98277019D01*
X157161297Y-98337012D01*
X157189439Y-98390843D01*
X157197582Y-98418510D01*
X157211621Y-98450042D01*
X157223992Y-98508241D01*
X157239328Y-98560349D01*
X157242518Y-98595401D01*
X157250999Y-98635301D01*
X157250999Y-98688592D01*
X157255343Y-98736324D01*
X157250999Y-98777653D01*
X157250999Y-98824699D01*
X157241217Y-98870721D01*
X157236873Y-98912047D01*
X157222702Y-98957827D01*
X157211621Y-99009958D01*
X157195028Y-99047226D01*
X157184622Y-99080843D01*
X157158789Y-99128620D01*
X157134586Y-99182981D01*
X157114298Y-99210905D01*
X157100580Y-99236276D01*
X157061859Y-99283082D01*
X157023261Y-99336207D01*
X157002284Y-99355095D01*
X156987952Y-99372419D01*
X156935845Y-99414917D01*
X156882511Y-99462939D01*
X156863524Y-99473901D01*
X156851025Y-99484095D01*
X156785780Y-99518786D01*
X156718488Y-99557637D01*
X156703636Y-99562463D01*
X156695003Y-99567053D01*
X156617430Y-99590473D01*
X156538360Y-99616165D01*
X156529114Y-99617137D01*
X156525851Y-99618122D01*
X156434710Y-99627059D01*
X156397211Y-99631000D01*
X156302789Y-99631000D01*
X156161640Y-99616165D01*
X156080603Y-99589834D01*
X155993337Y-99562152D01*
X155990345Y-99560507D01*
X155981512Y-99557637D01*
X155909534Y-99516081D01*
X155838501Y-99477030D01*
X155831014Y-99470747D01*
X155817489Y-99462939D01*
X155759741Y-99410943D01*
X155703143Y-99363451D01*
X155693038Y-99350882D01*
X155676739Y-99336207D01*
X155634546Y-99278133D01*
X155592421Y-99225740D01*
X155582006Y-99205818D01*
X155565414Y-99182981D01*
X155538703Y-99122988D01*
X155510561Y-99069157D01*
X155502418Y-99041490D01*
X155488379Y-99009958D01*
X155476008Y-98951759D01*
X155460672Y-98899651D01*
X155457482Y-98864599D01*
X155449001Y-98824699D01*
X155449001Y-98771408D01*
X155444657Y-98723676D01*
X155449001Y-98682347D01*
X155449001Y-98635301D01*
X155458783Y-98589279D01*
X155463127Y-98547953D01*
X155477298Y-98502173D01*
X155488379Y-98450042D01*
X155504972Y-98412774D01*
X155515378Y-98379157D01*
X155541211Y-98331380D01*
X155565414Y-98277019D01*
X155585702Y-98249095D01*
X155599420Y-98223724D01*
X155638141Y-98176918D01*
X155676739Y-98123793D01*
X155697716Y-98104905D01*
X155712048Y-98087581D01*
X155764155Y-98045083D01*
X155817489Y-97997061D01*
X155836476Y-97986099D01*
X155848975Y-97975905D01*
X155914220Y-97941214D01*
X155981512Y-97902363D01*
X155996364Y-97897537D01*
X156004997Y-97892947D01*
X156082570Y-97869527D01*
X156161640Y-97843835D01*
X156170886Y-97842863D01*
X156174149Y-97841878D01*
X156265290Y-97832941D01*
X156302789Y-97829000D01*
X156397211Y-97829000D01*
X156538360Y-97843835D01*
X156538360Y-97843835D01*
G37*
G36*
X152169899Y-97101959D02*
G01*
X152186769Y-97113231D01*
X152198041Y-97130101D01*
X152204448Y-97162312D01*
X152204448Y-98837688D01*
X152201999Y-98850000D01*
X152198041Y-98869899D01*
X152186769Y-98886769D01*
X152169899Y-98898041D01*
X152150000Y-98901999D01*
X152137688Y-98904448D01*
X151262312Y-98904448D01*
X151230101Y-98898041D01*
X151213231Y-98886769D01*
X151201959Y-98869899D01*
X151195552Y-98837688D01*
X151195552Y-97162312D01*
X151201959Y-97130101D01*
X151213231Y-97113231D01*
X151230101Y-97101959D01*
X151262312Y-97095552D01*
X152137688Y-97095552D01*
X152169899Y-97101959D01*
X152169899Y-97101959D01*
G37*
G36*
X148769899Y-97101959D02*
G01*
X148786769Y-97113231D01*
X148798041Y-97130101D01*
X148804448Y-97162312D01*
X148804448Y-98837688D01*
X148801999Y-98850000D01*
X148798041Y-98869899D01*
X148786769Y-98886769D01*
X148769899Y-98898041D01*
X148750000Y-98901999D01*
X148737688Y-98904448D01*
X147862312Y-98904448D01*
X147830101Y-98898041D01*
X147813231Y-98886769D01*
X147801959Y-98869899D01*
X147795552Y-98837688D01*
X147795552Y-97162312D01*
X147801959Y-97130101D01*
X147813231Y-97113231D01*
X147830101Y-97101959D01*
X147862312Y-97095552D01*
X148737688Y-97095552D01*
X148769899Y-97101959D01*
X148769899Y-97101959D01*
G37*
G36*
X146553760Y-97508134D02*
G01*
X146556020Y-97509533D01*
X146556958Y-97509720D01*
X146564997Y-97515091D01*
X146601953Y-97537973D01*
X146604714Y-97541630D01*
X146606906Y-97543094D01*
X146615248Y-97555578D01*
X146634303Y-97580812D01*
X146635495Y-97585881D01*
X146640280Y-97593042D01*
X146651999Y-97651959D01*
X146651999Y-97656050D01*
X146654448Y-97666462D01*
X146654448Y-97936456D01*
X146641866Y-98003760D01*
X146640467Y-98006020D01*
X146640280Y-98006958D01*
X146634909Y-98014997D01*
X146612027Y-98051953D01*
X146608370Y-98054714D01*
X146606906Y-98056906D01*
X146594422Y-98065248D01*
X146569188Y-98084303D01*
X146564119Y-98085495D01*
X146556958Y-98090280D01*
X146498041Y-98101999D01*
X146493950Y-98101999D01*
X146483538Y-98104448D01*
X146313544Y-98104448D01*
X146246240Y-98091866D01*
X146243980Y-98090467D01*
X146243042Y-98090280D01*
X146235003Y-98084909D01*
X146198047Y-98062027D01*
X146195286Y-98058370D01*
X146193094Y-98056906D01*
X146184752Y-98044422D01*
X146165697Y-98019188D01*
X146164505Y-98014119D01*
X146159720Y-98006958D01*
X146148001Y-97948041D01*
X146148001Y-97943950D01*
X146145552Y-97933538D01*
X146145552Y-97663544D01*
X146158134Y-97596240D01*
X146159533Y-97593980D01*
X146159720Y-97593042D01*
X146165091Y-97585003D01*
X146187973Y-97548047D01*
X146191630Y-97545286D01*
X146193094Y-97543094D01*
X146205578Y-97534752D01*
X146230812Y-97515697D01*
X146235881Y-97514505D01*
X146243042Y-97509720D01*
X146301959Y-97498001D01*
X146306050Y-97498001D01*
X146316462Y-97495552D01*
X146486456Y-97495552D01*
X146553760Y-97508134D01*
X146553760Y-97508134D01*
G37*
G36*
X145753760Y-97508134D02*
G01*
X145756020Y-97509533D01*
X145756958Y-97509720D01*
X145764997Y-97515091D01*
X145801953Y-97537973D01*
X145804714Y-97541630D01*
X145806906Y-97543094D01*
X145815248Y-97555578D01*
X145834303Y-97580812D01*
X145835495Y-97585881D01*
X145840280Y-97593042D01*
X145851999Y-97651959D01*
X145851999Y-97656050D01*
X145854448Y-97666462D01*
X145854448Y-97936456D01*
X145841866Y-98003760D01*
X145840467Y-98006020D01*
X145840280Y-98006958D01*
X145834909Y-98014997D01*
X145812027Y-98051953D01*
X145808370Y-98054714D01*
X145806906Y-98056906D01*
X145794422Y-98065248D01*
X145769188Y-98084303D01*
X145764119Y-98085495D01*
X145756958Y-98090280D01*
X145698041Y-98101999D01*
X145693950Y-98101999D01*
X145683538Y-98104448D01*
X145513544Y-98104448D01*
X145446240Y-98091866D01*
X145443980Y-98090467D01*
X145443042Y-98090280D01*
X145435003Y-98084909D01*
X145398047Y-98062027D01*
X145395286Y-98058370D01*
X145393094Y-98056906D01*
X145384752Y-98044422D01*
X145365697Y-98019188D01*
X145364505Y-98014119D01*
X145359720Y-98006958D01*
X145348001Y-97948041D01*
X145348001Y-97943950D01*
X145345552Y-97933538D01*
X145345552Y-97663544D01*
X145358134Y-97596240D01*
X145359533Y-97593980D01*
X145359720Y-97593042D01*
X145365091Y-97585003D01*
X145387973Y-97548047D01*
X145391630Y-97545286D01*
X145393094Y-97543094D01*
X145405578Y-97534752D01*
X145430812Y-97515697D01*
X145435881Y-97514505D01*
X145443042Y-97509720D01*
X145501959Y-97498001D01*
X145506050Y-97498001D01*
X145516462Y-97495552D01*
X145686456Y-97495552D01*
X145753760Y-97508134D01*
X145753760Y-97508134D01*
G37*
G36*
X156538360Y-95303835D02*
G01*
X156619397Y-95330166D01*
X156706663Y-95357848D01*
X156709655Y-95359493D01*
X156718488Y-95362363D01*
X156790466Y-95403919D01*
X156861499Y-95442970D01*
X156868986Y-95449253D01*
X156882511Y-95457061D01*
X156940259Y-95509057D01*
X156996857Y-95556549D01*
X157006962Y-95569118D01*
X157023261Y-95583793D01*
X157065453Y-95641866D01*
X157107579Y-95694260D01*
X157117994Y-95714182D01*
X157134586Y-95737019D01*
X157161297Y-95797012D01*
X157189439Y-95850843D01*
X157197582Y-95878510D01*
X157211621Y-95910042D01*
X157223992Y-95968241D01*
X157239328Y-96020349D01*
X157242518Y-96055401D01*
X157250999Y-96095301D01*
X157250999Y-96148592D01*
X157255343Y-96196324D01*
X157250999Y-96237653D01*
X157250999Y-96284699D01*
X157241217Y-96330721D01*
X157236873Y-96372047D01*
X157222702Y-96417827D01*
X157211621Y-96469958D01*
X157195028Y-96507226D01*
X157184622Y-96540843D01*
X157158789Y-96588620D01*
X157134586Y-96642981D01*
X157114298Y-96670905D01*
X157100580Y-96696276D01*
X157061859Y-96743082D01*
X157023261Y-96796207D01*
X157002284Y-96815095D01*
X156987952Y-96832419D01*
X156935845Y-96874917D01*
X156882511Y-96922939D01*
X156863524Y-96933901D01*
X156851025Y-96944095D01*
X156785780Y-96978786D01*
X156718488Y-97017637D01*
X156703636Y-97022463D01*
X156695003Y-97027053D01*
X156617430Y-97050473D01*
X156538360Y-97076165D01*
X156529114Y-97077137D01*
X156525851Y-97078122D01*
X156434710Y-97087059D01*
X156397211Y-97091000D01*
X156302789Y-97091000D01*
X156161640Y-97076165D01*
X156080603Y-97049834D01*
X155993337Y-97022152D01*
X155990345Y-97020507D01*
X155981512Y-97017637D01*
X155909534Y-96976081D01*
X155838501Y-96937030D01*
X155831014Y-96930747D01*
X155817489Y-96922939D01*
X155759741Y-96870943D01*
X155703143Y-96823451D01*
X155693038Y-96810882D01*
X155676739Y-96796207D01*
X155634546Y-96738133D01*
X155592421Y-96685740D01*
X155582006Y-96665818D01*
X155565414Y-96642981D01*
X155538703Y-96582988D01*
X155510561Y-96529157D01*
X155502418Y-96501490D01*
X155488379Y-96469958D01*
X155476008Y-96411759D01*
X155460672Y-96359651D01*
X155457482Y-96324599D01*
X155449001Y-96284699D01*
X155449001Y-96231408D01*
X155444657Y-96183676D01*
X155449001Y-96142347D01*
X155449001Y-96095301D01*
X155458783Y-96049279D01*
X155463127Y-96007953D01*
X155477298Y-95962173D01*
X155488379Y-95910042D01*
X155504972Y-95872774D01*
X155515378Y-95839157D01*
X155541211Y-95791380D01*
X155565414Y-95737019D01*
X155585702Y-95709095D01*
X155599420Y-95683724D01*
X155638141Y-95636918D01*
X155676739Y-95583793D01*
X155697716Y-95564905D01*
X155712048Y-95547581D01*
X155764155Y-95505083D01*
X155817489Y-95457061D01*
X155836476Y-95446099D01*
X155848975Y-95435905D01*
X155914220Y-95401214D01*
X155981512Y-95362363D01*
X155996364Y-95357537D01*
X156004997Y-95352947D01*
X156082570Y-95329527D01*
X156161640Y-95303835D01*
X156170886Y-95302863D01*
X156174149Y-95301878D01*
X156265290Y-95292941D01*
X156302789Y-95289000D01*
X156397211Y-95289000D01*
X156538360Y-95303835D01*
X156538360Y-95303835D01*
G37*
G36*
X143838360Y-95303835D02*
G01*
X143919397Y-95330166D01*
X144006663Y-95357848D01*
X144009655Y-95359493D01*
X144018488Y-95362363D01*
X144090466Y-95403919D01*
X144161499Y-95442970D01*
X144168986Y-95449253D01*
X144182511Y-95457061D01*
X144240259Y-95509057D01*
X144296857Y-95556549D01*
X144306962Y-95569118D01*
X144323261Y-95583793D01*
X144365453Y-95641866D01*
X144407579Y-95694260D01*
X144417994Y-95714182D01*
X144434586Y-95737019D01*
X144461297Y-95797012D01*
X144489439Y-95850843D01*
X144497582Y-95878510D01*
X144511621Y-95910042D01*
X144523992Y-95968241D01*
X144539328Y-96020349D01*
X144542518Y-96055401D01*
X144550999Y-96095301D01*
X144550999Y-96148592D01*
X144555343Y-96196324D01*
X144550999Y-96237653D01*
X144550999Y-96284699D01*
X144541217Y-96330721D01*
X144536873Y-96372047D01*
X144522702Y-96417827D01*
X144511621Y-96469958D01*
X144495028Y-96507226D01*
X144484622Y-96540843D01*
X144458789Y-96588620D01*
X144434586Y-96642981D01*
X144414298Y-96670905D01*
X144400580Y-96696276D01*
X144361859Y-96743082D01*
X144323261Y-96796207D01*
X144302284Y-96815095D01*
X144287952Y-96832419D01*
X144235845Y-96874917D01*
X144182511Y-96922939D01*
X144163524Y-96933901D01*
X144151025Y-96944095D01*
X144085780Y-96978786D01*
X144018488Y-97017637D01*
X144003636Y-97022463D01*
X143995003Y-97027053D01*
X143917430Y-97050473D01*
X143838360Y-97076165D01*
X143829114Y-97077137D01*
X143825851Y-97078122D01*
X143734710Y-97087059D01*
X143697211Y-97091000D01*
X143602789Y-97091000D01*
X143461640Y-97076165D01*
X143380603Y-97049834D01*
X143293337Y-97022152D01*
X143290345Y-97020507D01*
X143281512Y-97017637D01*
X143209534Y-96976081D01*
X143138501Y-96937030D01*
X143131014Y-96930747D01*
X143117489Y-96922939D01*
X143059741Y-96870943D01*
X143003143Y-96823451D01*
X142993038Y-96810882D01*
X142976739Y-96796207D01*
X142934546Y-96738133D01*
X142892421Y-96685740D01*
X142882006Y-96665818D01*
X142865414Y-96642981D01*
X142838703Y-96582988D01*
X142810561Y-96529157D01*
X142802418Y-96501490D01*
X142788379Y-96469958D01*
X142776008Y-96411759D01*
X142760672Y-96359651D01*
X142757482Y-96324599D01*
X142749001Y-96284699D01*
X142749001Y-96231408D01*
X142744657Y-96183676D01*
X142749001Y-96142347D01*
X142749001Y-96095301D01*
X142758783Y-96049279D01*
X142763127Y-96007953D01*
X142777298Y-95962173D01*
X142788379Y-95910042D01*
X142804972Y-95872774D01*
X142815378Y-95839157D01*
X142841211Y-95791380D01*
X142865414Y-95737019D01*
X142885702Y-95709095D01*
X142899420Y-95683724D01*
X142938141Y-95636918D01*
X142976739Y-95583793D01*
X142997716Y-95564905D01*
X143012048Y-95547581D01*
X143064155Y-95505083D01*
X143117489Y-95457061D01*
X143136476Y-95446099D01*
X143148975Y-95435905D01*
X143214220Y-95401214D01*
X143281512Y-95362363D01*
X143296364Y-95357537D01*
X143304997Y-95352947D01*
X143382570Y-95329527D01*
X143461640Y-95303835D01*
X143470886Y-95302863D01*
X143474149Y-95301878D01*
X143565290Y-95292941D01*
X143602789Y-95289000D01*
X143697211Y-95289000D01*
X143838360Y-95303835D01*
X143838360Y-95303835D01*
G37*
G36*
X145903760Y-95158134D02*
G01*
X145906020Y-95159533D01*
X145906958Y-95159720D01*
X145914997Y-95165091D01*
X145951953Y-95187973D01*
X145954714Y-95191630D01*
X145956906Y-95193094D01*
X145965248Y-95205578D01*
X145984303Y-95230812D01*
X145985495Y-95235881D01*
X145990280Y-95243042D01*
X146001999Y-95301959D01*
X146001999Y-95306050D01*
X146004448Y-95316462D01*
X146004448Y-95486456D01*
X145991866Y-95553760D01*
X145990467Y-95556020D01*
X145990280Y-95556958D01*
X145984909Y-95564997D01*
X145962027Y-95601953D01*
X145958370Y-95604714D01*
X145956906Y-95606906D01*
X145944422Y-95615248D01*
X145919188Y-95634303D01*
X145914119Y-95635495D01*
X145906958Y-95640280D01*
X145848041Y-95651999D01*
X145843950Y-95651999D01*
X145833538Y-95654448D01*
X145563544Y-95654448D01*
X145496240Y-95641866D01*
X145493980Y-95640467D01*
X145493042Y-95640280D01*
X145485003Y-95634909D01*
X145448047Y-95612027D01*
X145445286Y-95608370D01*
X145443094Y-95606906D01*
X145434752Y-95594422D01*
X145415697Y-95569188D01*
X145414505Y-95564119D01*
X145409720Y-95556958D01*
X145398001Y-95498041D01*
X145398001Y-95493950D01*
X145395552Y-95483538D01*
X145395552Y-95313544D01*
X145408134Y-95246240D01*
X145409533Y-95243980D01*
X145409720Y-95243042D01*
X145415091Y-95235003D01*
X145437973Y-95198047D01*
X145441630Y-95195286D01*
X145443094Y-95193094D01*
X145455578Y-95184752D01*
X145480812Y-95165697D01*
X145485881Y-95164505D01*
X145493042Y-95159720D01*
X145551959Y-95148001D01*
X145556050Y-95148001D01*
X145566462Y-95145552D01*
X145836456Y-95145552D01*
X145903760Y-95158134D01*
X145903760Y-95158134D01*
G37*
G36*
X151646483Y-93973001D02*
G01*
X151647061Y-93973001D01*
X151651575Y-93973899D01*
X151717492Y-93985522D01*
X151721426Y-93987793D01*
X151725487Y-93988601D01*
X151742405Y-93999905D01*
X151778879Y-94020963D01*
X151785207Y-94028504D01*
X151791974Y-94033026D01*
X151803598Y-94050422D01*
X151820797Y-94070920D01*
X151823142Y-94079673D01*
X151836399Y-94099513D01*
X151851999Y-94177939D01*
X151851999Y-94187367D01*
X151853715Y-94193771D01*
X151853715Y-95411751D01*
X151851999Y-95421483D01*
X151851999Y-95422061D01*
X151851101Y-95426575D01*
X151839478Y-95492492D01*
X151837207Y-95496426D01*
X151836399Y-95500487D01*
X151825095Y-95517405D01*
X151804037Y-95553879D01*
X151796496Y-95560207D01*
X151791974Y-95566974D01*
X151774578Y-95578598D01*
X151754080Y-95595797D01*
X151745327Y-95598142D01*
X151725487Y-95611399D01*
X151647061Y-95626999D01*
X151637633Y-95626999D01*
X151631229Y-95628715D01*
X151363249Y-95628715D01*
X151353517Y-95626999D01*
X151352939Y-95626999D01*
X151348425Y-95626101D01*
X151282508Y-95614478D01*
X151278574Y-95612207D01*
X151274513Y-95611399D01*
X151257595Y-95600095D01*
X151221121Y-95579037D01*
X151214793Y-95571496D01*
X151208026Y-95566974D01*
X151196402Y-95549578D01*
X151179203Y-95529080D01*
X151176858Y-95520327D01*
X151163601Y-95500487D01*
X151148001Y-95422061D01*
X151148001Y-95412633D01*
X151146285Y-95406229D01*
X151146285Y-94188249D01*
X151148001Y-94178517D01*
X151148001Y-94177939D01*
X151148899Y-94173425D01*
X151160522Y-94107508D01*
X151162793Y-94103574D01*
X151163601Y-94099513D01*
X151174905Y-94082595D01*
X151195963Y-94046121D01*
X151203504Y-94039793D01*
X151208026Y-94033026D01*
X151225422Y-94021402D01*
X151245920Y-94004203D01*
X151254673Y-94001858D01*
X151274513Y-93988601D01*
X151352939Y-93973001D01*
X151362367Y-93973001D01*
X151368771Y-93971285D01*
X151636751Y-93971285D01*
X151646483Y-93973001D01*
X151646483Y-93973001D01*
G37*
G36*
X150646483Y-93973001D02*
G01*
X150647061Y-93973001D01*
X150651575Y-93973899D01*
X150717492Y-93985522D01*
X150721426Y-93987793D01*
X150725487Y-93988601D01*
X150742405Y-93999905D01*
X150778879Y-94020963D01*
X150785207Y-94028504D01*
X150791974Y-94033026D01*
X150803598Y-94050422D01*
X150820797Y-94070920D01*
X150823142Y-94079673D01*
X150836399Y-94099513D01*
X150851999Y-94177939D01*
X150851999Y-94187367D01*
X150853715Y-94193771D01*
X150853715Y-95411751D01*
X150851999Y-95421483D01*
X150851999Y-95422061D01*
X150851101Y-95426575D01*
X150839478Y-95492492D01*
X150837207Y-95496426D01*
X150836399Y-95500487D01*
X150825095Y-95517405D01*
X150804037Y-95553879D01*
X150796496Y-95560207D01*
X150791974Y-95566974D01*
X150774578Y-95578598D01*
X150754080Y-95595797D01*
X150745327Y-95598142D01*
X150725487Y-95611399D01*
X150647061Y-95626999D01*
X150637633Y-95626999D01*
X150631229Y-95628715D01*
X150363249Y-95628715D01*
X150353517Y-95626999D01*
X150352939Y-95626999D01*
X150348425Y-95626101D01*
X150282508Y-95614478D01*
X150278574Y-95612207D01*
X150274513Y-95611399D01*
X150257595Y-95600095D01*
X150221121Y-95579037D01*
X150214793Y-95571496D01*
X150208026Y-95566974D01*
X150196402Y-95549578D01*
X150179203Y-95529080D01*
X150176858Y-95520327D01*
X150163601Y-95500487D01*
X150148001Y-95422061D01*
X150148001Y-95412633D01*
X150146285Y-95406229D01*
X150146285Y-94188249D01*
X150148001Y-94178517D01*
X150148001Y-94177939D01*
X150148899Y-94173425D01*
X150160522Y-94107508D01*
X150162793Y-94103574D01*
X150163601Y-94099513D01*
X150174905Y-94082595D01*
X150195963Y-94046121D01*
X150203504Y-94039793D01*
X150208026Y-94033026D01*
X150225422Y-94021402D01*
X150245920Y-94004203D01*
X150254673Y-94001858D01*
X150274513Y-93988601D01*
X150352939Y-93973001D01*
X150362367Y-93973001D01*
X150368771Y-93971285D01*
X150636751Y-93971285D01*
X150646483Y-93973001D01*
X150646483Y-93973001D01*
G37*
G36*
X149646483Y-93973001D02*
G01*
X149647061Y-93973001D01*
X149651575Y-93973899D01*
X149717492Y-93985522D01*
X149721426Y-93987793D01*
X149725487Y-93988601D01*
X149742405Y-93999905D01*
X149778879Y-94020963D01*
X149785207Y-94028504D01*
X149791974Y-94033026D01*
X149803598Y-94050422D01*
X149820797Y-94070920D01*
X149823142Y-94079673D01*
X149836399Y-94099513D01*
X149851999Y-94177939D01*
X149851999Y-94187367D01*
X149853715Y-94193771D01*
X149853715Y-95411751D01*
X149851999Y-95421483D01*
X149851999Y-95422061D01*
X149851101Y-95426575D01*
X149839478Y-95492492D01*
X149837207Y-95496426D01*
X149836399Y-95500487D01*
X149825095Y-95517405D01*
X149804037Y-95553879D01*
X149796496Y-95560207D01*
X149791974Y-95566974D01*
X149774578Y-95578598D01*
X149754080Y-95595797D01*
X149745327Y-95598142D01*
X149725487Y-95611399D01*
X149647061Y-95626999D01*
X149637633Y-95626999D01*
X149631229Y-95628715D01*
X149363249Y-95628715D01*
X149353517Y-95626999D01*
X149352939Y-95626999D01*
X149348425Y-95626101D01*
X149282508Y-95614478D01*
X149278574Y-95612207D01*
X149274513Y-95611399D01*
X149257595Y-95600095D01*
X149221121Y-95579037D01*
X149214793Y-95571496D01*
X149208026Y-95566974D01*
X149196402Y-95549578D01*
X149179203Y-95529080D01*
X149176858Y-95520327D01*
X149163601Y-95500487D01*
X149148001Y-95422061D01*
X149148001Y-95412633D01*
X149146285Y-95406229D01*
X149146285Y-94188249D01*
X149148001Y-94178517D01*
X149148001Y-94177939D01*
X149148899Y-94173425D01*
X149160522Y-94107508D01*
X149162793Y-94103574D01*
X149163601Y-94099513D01*
X149174905Y-94082595D01*
X149195963Y-94046121D01*
X149203504Y-94039793D01*
X149208026Y-94033026D01*
X149225422Y-94021402D01*
X149245920Y-94004203D01*
X149254673Y-94001858D01*
X149274513Y-93988601D01*
X149352939Y-93973001D01*
X149362367Y-93973001D01*
X149368771Y-93971285D01*
X149636751Y-93971285D01*
X149646483Y-93973001D01*
X149646483Y-93973001D01*
G37*
G36*
X148646483Y-93973001D02*
G01*
X148647061Y-93973001D01*
X148651575Y-93973899D01*
X148717492Y-93985522D01*
X148721426Y-93987793D01*
X148725487Y-93988601D01*
X148742405Y-93999905D01*
X148778879Y-94020963D01*
X148785207Y-94028504D01*
X148791974Y-94033026D01*
X148803598Y-94050422D01*
X148820797Y-94070920D01*
X148823142Y-94079673D01*
X148836399Y-94099513D01*
X148851999Y-94177939D01*
X148851999Y-94187367D01*
X148853715Y-94193771D01*
X148853715Y-95411751D01*
X148851999Y-95421483D01*
X148851999Y-95422061D01*
X148851101Y-95426575D01*
X148839478Y-95492492D01*
X148837207Y-95496426D01*
X148836399Y-95500487D01*
X148825095Y-95517405D01*
X148804037Y-95553879D01*
X148796496Y-95560207D01*
X148791974Y-95566974D01*
X148774578Y-95578598D01*
X148754080Y-95595797D01*
X148745327Y-95598142D01*
X148725487Y-95611399D01*
X148647061Y-95626999D01*
X148637633Y-95626999D01*
X148631229Y-95628715D01*
X148363249Y-95628715D01*
X148353517Y-95626999D01*
X148352939Y-95626999D01*
X148348425Y-95626101D01*
X148282508Y-95614478D01*
X148278574Y-95612207D01*
X148274513Y-95611399D01*
X148257595Y-95600095D01*
X148221121Y-95579037D01*
X148214793Y-95571496D01*
X148208026Y-95566974D01*
X148196402Y-95549578D01*
X148179203Y-95529080D01*
X148176858Y-95520327D01*
X148163601Y-95500487D01*
X148148001Y-95422061D01*
X148148001Y-95412633D01*
X148146285Y-95406229D01*
X148146285Y-94188249D01*
X148148001Y-94178517D01*
X148148001Y-94177939D01*
X148148899Y-94173425D01*
X148160522Y-94107508D01*
X148162793Y-94103574D01*
X148163601Y-94099513D01*
X148174905Y-94082595D01*
X148195963Y-94046121D01*
X148203504Y-94039793D01*
X148208026Y-94033026D01*
X148225422Y-94021402D01*
X148245920Y-94004203D01*
X148254673Y-94001858D01*
X148274513Y-93988601D01*
X148352939Y-93973001D01*
X148362367Y-93973001D01*
X148368771Y-93971285D01*
X148636751Y-93971285D01*
X148646483Y-93973001D01*
X148646483Y-93973001D01*
G37*
G36*
X145903760Y-94358134D02*
G01*
X145906020Y-94359533D01*
X145906958Y-94359720D01*
X145914997Y-94365091D01*
X145951953Y-94387973D01*
X145954714Y-94391630D01*
X145956906Y-94393094D01*
X145965248Y-94405578D01*
X145984303Y-94430812D01*
X145985495Y-94435881D01*
X145990280Y-94443042D01*
X146001999Y-94501959D01*
X146001999Y-94506050D01*
X146004448Y-94516462D01*
X146004448Y-94686456D01*
X145991866Y-94753760D01*
X145990467Y-94756020D01*
X145990280Y-94756958D01*
X145984909Y-94764997D01*
X145962027Y-94801953D01*
X145958370Y-94804714D01*
X145956906Y-94806906D01*
X145944422Y-94815248D01*
X145919188Y-94834303D01*
X145914119Y-94835495D01*
X145906958Y-94840280D01*
X145848041Y-94851999D01*
X145843950Y-94851999D01*
X145833538Y-94854448D01*
X145563544Y-94854448D01*
X145496240Y-94841866D01*
X145493980Y-94840467D01*
X145493042Y-94840280D01*
X145485003Y-94834909D01*
X145448047Y-94812027D01*
X145445286Y-94808370D01*
X145443094Y-94806906D01*
X145434752Y-94794422D01*
X145415697Y-94769188D01*
X145414505Y-94764119D01*
X145409720Y-94756958D01*
X145398001Y-94698041D01*
X145398001Y-94693950D01*
X145395552Y-94683538D01*
X145395552Y-94513544D01*
X145408134Y-94446240D01*
X145409533Y-94443980D01*
X145409720Y-94443042D01*
X145415091Y-94435003D01*
X145437973Y-94398047D01*
X145441630Y-94395286D01*
X145443094Y-94393094D01*
X145455578Y-94384752D01*
X145480812Y-94365697D01*
X145485881Y-94364505D01*
X145493042Y-94359720D01*
X145551959Y-94348001D01*
X145556050Y-94348001D01*
X145566462Y-94345552D01*
X145836456Y-94345552D01*
X145903760Y-94358134D01*
X145903760Y-94358134D01*
G37*
G36*
X154320824Y-93898001D02*
G01*
X154321571Y-93898001D01*
X154325460Y-93898775D01*
X154396978Y-93910709D01*
X154403672Y-93914332D01*
X154409752Y-93915541D01*
X154426135Y-93926488D01*
X154463310Y-93946606D01*
X154474603Y-93958874D01*
X154484508Y-93965492D01*
X154494601Y-93980597D01*
X154514396Y-94002100D01*
X154524767Y-94025742D01*
X154534459Y-94040248D01*
X154537222Y-94054137D01*
X154545758Y-94073598D01*
X154553434Y-94135178D01*
X154553434Y-94462225D01*
X154551999Y-94470824D01*
X154551999Y-94471571D01*
X154551225Y-94475460D01*
X154539291Y-94546978D01*
X154535668Y-94553672D01*
X154534459Y-94559752D01*
X154523512Y-94576135D01*
X154503394Y-94613310D01*
X154491126Y-94624603D01*
X154484508Y-94634508D01*
X154469403Y-94644601D01*
X154447900Y-94664396D01*
X154424258Y-94674767D01*
X154409752Y-94684459D01*
X154395863Y-94687222D01*
X154376402Y-94695758D01*
X154314822Y-94703434D01*
X153887775Y-94703434D01*
X153879176Y-94701999D01*
X153878429Y-94701999D01*
X153874540Y-94701225D01*
X153803022Y-94689291D01*
X153796328Y-94685668D01*
X153790248Y-94684459D01*
X153773865Y-94673512D01*
X153736690Y-94653394D01*
X153725397Y-94641126D01*
X153715492Y-94634508D01*
X153705399Y-94619403D01*
X153685604Y-94597900D01*
X153675233Y-94574258D01*
X153665541Y-94559752D01*
X153662778Y-94545863D01*
X153654242Y-94526402D01*
X153646566Y-94464822D01*
X153646566Y-94137775D01*
X153648001Y-94129176D01*
X153648001Y-94128429D01*
X153648775Y-94124540D01*
X153660709Y-94053022D01*
X153664332Y-94046328D01*
X153665541Y-94040248D01*
X153676488Y-94023865D01*
X153696606Y-93986690D01*
X153708874Y-93975397D01*
X153715492Y-93965492D01*
X153730597Y-93955399D01*
X153752100Y-93935604D01*
X153775742Y-93925233D01*
X153790248Y-93915541D01*
X153804137Y-93912778D01*
X153823598Y-93904242D01*
X153885178Y-93896566D01*
X154312225Y-93896566D01*
X154320824Y-93898001D01*
X154320824Y-93898001D01*
G37*
G36*
X156538360Y-92763835D02*
G01*
X156619397Y-92790166D01*
X156706663Y-92817848D01*
X156709655Y-92819493D01*
X156718488Y-92822363D01*
X156790466Y-92863919D01*
X156861499Y-92902970D01*
X156868986Y-92909253D01*
X156882511Y-92917061D01*
X156940259Y-92969057D01*
X156996857Y-93016549D01*
X157006962Y-93029118D01*
X157023261Y-93043793D01*
X157065454Y-93101867D01*
X157107579Y-93154260D01*
X157117994Y-93174182D01*
X157134586Y-93197019D01*
X157161297Y-93257012D01*
X157189439Y-93310843D01*
X157197582Y-93338510D01*
X157211621Y-93370042D01*
X157223992Y-93428241D01*
X157239328Y-93480349D01*
X157242518Y-93515401D01*
X157250999Y-93555301D01*
X157250999Y-93608592D01*
X157255343Y-93656324D01*
X157250999Y-93697653D01*
X157250999Y-93744699D01*
X157241217Y-93790721D01*
X157236873Y-93832047D01*
X157222702Y-93877827D01*
X157211621Y-93929958D01*
X157195028Y-93967226D01*
X157184622Y-94000843D01*
X157158789Y-94048620D01*
X157134586Y-94102981D01*
X157114298Y-94130905D01*
X157100580Y-94156276D01*
X157061859Y-94203082D01*
X157023261Y-94256207D01*
X157002284Y-94275095D01*
X156987952Y-94292419D01*
X156935845Y-94334917D01*
X156882511Y-94382939D01*
X156863524Y-94393901D01*
X156851025Y-94404095D01*
X156785780Y-94438786D01*
X156718488Y-94477637D01*
X156703636Y-94482463D01*
X156695003Y-94487053D01*
X156617430Y-94510473D01*
X156538360Y-94536165D01*
X156529114Y-94537137D01*
X156525851Y-94538122D01*
X156434710Y-94547059D01*
X156397211Y-94551000D01*
X156302789Y-94551000D01*
X156161640Y-94536165D01*
X156080603Y-94509834D01*
X155993337Y-94482152D01*
X155990345Y-94480507D01*
X155981512Y-94477637D01*
X155909534Y-94436081D01*
X155838501Y-94397030D01*
X155831014Y-94390747D01*
X155817489Y-94382939D01*
X155759741Y-94330943D01*
X155703143Y-94283451D01*
X155693038Y-94270882D01*
X155676739Y-94256207D01*
X155634546Y-94198133D01*
X155592421Y-94145740D01*
X155582006Y-94125818D01*
X155565414Y-94102981D01*
X155538703Y-94042988D01*
X155510561Y-93989157D01*
X155502418Y-93961490D01*
X155488379Y-93929958D01*
X155476008Y-93871759D01*
X155460672Y-93819651D01*
X155457482Y-93784599D01*
X155449001Y-93744699D01*
X155449001Y-93691408D01*
X155444657Y-93643676D01*
X155449001Y-93602347D01*
X155449001Y-93555301D01*
X155458783Y-93509279D01*
X155463127Y-93467953D01*
X155477298Y-93422173D01*
X155488379Y-93370042D01*
X155504972Y-93332774D01*
X155515378Y-93299157D01*
X155541211Y-93251380D01*
X155565414Y-93197019D01*
X155585702Y-93169095D01*
X155599420Y-93143724D01*
X155638141Y-93096918D01*
X155676739Y-93043793D01*
X155697716Y-93024905D01*
X155712048Y-93007581D01*
X155764155Y-92965083D01*
X155817489Y-92917061D01*
X155836476Y-92906099D01*
X155848975Y-92895905D01*
X155914220Y-92861214D01*
X155981512Y-92822363D01*
X155996364Y-92817537D01*
X156004997Y-92812947D01*
X156082570Y-92789527D01*
X156161640Y-92763835D01*
X156170886Y-92762863D01*
X156174149Y-92761878D01*
X156265290Y-92752941D01*
X156302789Y-92749000D01*
X156397211Y-92749000D01*
X156538360Y-92763835D01*
X156538360Y-92763835D01*
G37*
G36*
X143838360Y-92763835D02*
G01*
X143919397Y-92790166D01*
X144006663Y-92817848D01*
X144009655Y-92819493D01*
X144018488Y-92822363D01*
X144090466Y-92863919D01*
X144161499Y-92902970D01*
X144168986Y-92909253D01*
X144182511Y-92917061D01*
X144240259Y-92969057D01*
X144296857Y-93016549D01*
X144306962Y-93029118D01*
X144323261Y-93043793D01*
X144365454Y-93101867D01*
X144407579Y-93154260D01*
X144417994Y-93174182D01*
X144434586Y-93197019D01*
X144461297Y-93257012D01*
X144489439Y-93310843D01*
X144497582Y-93338510D01*
X144511621Y-93370042D01*
X144523992Y-93428241D01*
X144539328Y-93480349D01*
X144542518Y-93515401D01*
X144550999Y-93555301D01*
X144550999Y-93608592D01*
X144555343Y-93656324D01*
X144550999Y-93697653D01*
X144550999Y-93744699D01*
X144541217Y-93790721D01*
X144536873Y-93832047D01*
X144522702Y-93877827D01*
X144511621Y-93929958D01*
X144495028Y-93967226D01*
X144484622Y-94000843D01*
X144458789Y-94048620D01*
X144434586Y-94102981D01*
X144414298Y-94130905D01*
X144400580Y-94156276D01*
X144361859Y-94203082D01*
X144323261Y-94256207D01*
X144302284Y-94275095D01*
X144287952Y-94292419D01*
X144235845Y-94334917D01*
X144182511Y-94382939D01*
X144163524Y-94393901D01*
X144151025Y-94404095D01*
X144085780Y-94438786D01*
X144018488Y-94477637D01*
X144003636Y-94482463D01*
X143995003Y-94487053D01*
X143917430Y-94510473D01*
X143838360Y-94536165D01*
X143829114Y-94537137D01*
X143825851Y-94538122D01*
X143734710Y-94547059D01*
X143697211Y-94551000D01*
X143602789Y-94551000D01*
X143461640Y-94536165D01*
X143380603Y-94509834D01*
X143293337Y-94482152D01*
X143290345Y-94480507D01*
X143281512Y-94477637D01*
X143209534Y-94436081D01*
X143138501Y-94397030D01*
X143131014Y-94390747D01*
X143117489Y-94382939D01*
X143059741Y-94330943D01*
X143003143Y-94283451D01*
X142993038Y-94270882D01*
X142976739Y-94256207D01*
X142934546Y-94198133D01*
X142892421Y-94145740D01*
X142882006Y-94125818D01*
X142865414Y-94102981D01*
X142838703Y-94042988D01*
X142810561Y-93989157D01*
X142802418Y-93961490D01*
X142788379Y-93929958D01*
X142776008Y-93871759D01*
X142760672Y-93819651D01*
X142757482Y-93784599D01*
X142749001Y-93744699D01*
X142749001Y-93691408D01*
X142744657Y-93643676D01*
X142749001Y-93602347D01*
X142749001Y-93555301D01*
X142758783Y-93509279D01*
X142763127Y-93467953D01*
X142777298Y-93422173D01*
X142788379Y-93370042D01*
X142804972Y-93332774D01*
X142815378Y-93299157D01*
X142841211Y-93251380D01*
X142865414Y-93197019D01*
X142885702Y-93169095D01*
X142899420Y-93143724D01*
X142938141Y-93096918D01*
X142976739Y-93043793D01*
X142997716Y-93024905D01*
X143012048Y-93007581D01*
X143064155Y-92965083D01*
X143117489Y-92917061D01*
X143136476Y-92906099D01*
X143148975Y-92895905D01*
X143214220Y-92861214D01*
X143281512Y-92822363D01*
X143296364Y-92817537D01*
X143304997Y-92812947D01*
X143382570Y-92789527D01*
X143461640Y-92763835D01*
X143470886Y-92762863D01*
X143474149Y-92761878D01*
X143565290Y-92752941D01*
X143602789Y-92749000D01*
X143697211Y-92749000D01*
X143838360Y-92763835D01*
X143838360Y-92763835D01*
G37*
G36*
X145903760Y-93158134D02*
G01*
X145906020Y-93159533D01*
X145906958Y-93159720D01*
X145914997Y-93165091D01*
X145951953Y-93187973D01*
X145954714Y-93191630D01*
X145956906Y-93193094D01*
X145965248Y-93205578D01*
X145984303Y-93230812D01*
X145985495Y-93235881D01*
X145990280Y-93243042D01*
X146001999Y-93301959D01*
X146001999Y-93306050D01*
X146004448Y-93316462D01*
X146004448Y-93486456D01*
X145991866Y-93553760D01*
X145990467Y-93556020D01*
X145990280Y-93556958D01*
X145984909Y-93564997D01*
X145962027Y-93601953D01*
X145958370Y-93604714D01*
X145956906Y-93606906D01*
X145944422Y-93615248D01*
X145919188Y-93634303D01*
X145914119Y-93635495D01*
X145906958Y-93640280D01*
X145848041Y-93651999D01*
X145843950Y-93651999D01*
X145833538Y-93654448D01*
X145563544Y-93654448D01*
X145496240Y-93641866D01*
X145493980Y-93640467D01*
X145493042Y-93640280D01*
X145485003Y-93634909D01*
X145448047Y-93612027D01*
X145445286Y-93608370D01*
X145443094Y-93606906D01*
X145434752Y-93594422D01*
X145415697Y-93569188D01*
X145414505Y-93564119D01*
X145409720Y-93556958D01*
X145398001Y-93498041D01*
X145398001Y-93493950D01*
X145395552Y-93483538D01*
X145395552Y-93313544D01*
X145408134Y-93246240D01*
X145409533Y-93243980D01*
X145409720Y-93243042D01*
X145415091Y-93235003D01*
X145437973Y-93198047D01*
X145441630Y-93195286D01*
X145443094Y-93193094D01*
X145455578Y-93184752D01*
X145480812Y-93165697D01*
X145485881Y-93164505D01*
X145493042Y-93159720D01*
X145551959Y-93148001D01*
X145556050Y-93148001D01*
X145566462Y-93145552D01*
X145836456Y-93145552D01*
X145903760Y-93158134D01*
X145903760Y-93158134D01*
G37*
G36*
X154320824Y-92498001D02*
G01*
X154321571Y-92498001D01*
X154325460Y-92498775D01*
X154396978Y-92510709D01*
X154403672Y-92514332D01*
X154409752Y-92515541D01*
X154426135Y-92526488D01*
X154463310Y-92546606D01*
X154474603Y-92558874D01*
X154484508Y-92565492D01*
X154494601Y-92580597D01*
X154514396Y-92602100D01*
X154524767Y-92625742D01*
X154534459Y-92640248D01*
X154537222Y-92654137D01*
X154545758Y-92673598D01*
X154553434Y-92735178D01*
X154553434Y-93062225D01*
X154551999Y-93070824D01*
X154551999Y-93071571D01*
X154551225Y-93075460D01*
X154539291Y-93146978D01*
X154535668Y-93153672D01*
X154534459Y-93159752D01*
X154523512Y-93176135D01*
X154503394Y-93213310D01*
X154491126Y-93224603D01*
X154484508Y-93234508D01*
X154469403Y-93244601D01*
X154447900Y-93264396D01*
X154424258Y-93274767D01*
X154409752Y-93284459D01*
X154395863Y-93287222D01*
X154376402Y-93295758D01*
X154314822Y-93303434D01*
X153887775Y-93303434D01*
X153879176Y-93301999D01*
X153878429Y-93301999D01*
X153874540Y-93301225D01*
X153803022Y-93289291D01*
X153796328Y-93285668D01*
X153790248Y-93284459D01*
X153773865Y-93273512D01*
X153736690Y-93253394D01*
X153725397Y-93241126D01*
X153715492Y-93234508D01*
X153705399Y-93219403D01*
X153685604Y-93197900D01*
X153675233Y-93174258D01*
X153665541Y-93159752D01*
X153662778Y-93145863D01*
X153654242Y-93126402D01*
X153646566Y-93064822D01*
X153646566Y-92737775D01*
X153648001Y-92729176D01*
X153648001Y-92728429D01*
X153648775Y-92724540D01*
X153660709Y-92653022D01*
X153664332Y-92646328D01*
X153665541Y-92640248D01*
X153676488Y-92623865D01*
X153696606Y-92586690D01*
X153708874Y-92575397D01*
X153715492Y-92565492D01*
X153730597Y-92555399D01*
X153752100Y-92535604D01*
X153775742Y-92525233D01*
X153790248Y-92515541D01*
X153804137Y-92512778D01*
X153823598Y-92504242D01*
X153885178Y-92496566D01*
X154312225Y-92496566D01*
X154320824Y-92498001D01*
X154320824Y-92498001D01*
G37*
G36*
X145903760Y-92358134D02*
G01*
X145906020Y-92359533D01*
X145906958Y-92359720D01*
X145914997Y-92365091D01*
X145951953Y-92387973D01*
X145954714Y-92391630D01*
X145956906Y-92393094D01*
X145965248Y-92405578D01*
X145984303Y-92430812D01*
X145985495Y-92435881D01*
X145990280Y-92443042D01*
X146001999Y-92501959D01*
X146001999Y-92506050D01*
X146004448Y-92516462D01*
X146004448Y-92686456D01*
X145991866Y-92753760D01*
X145990467Y-92756020D01*
X145990280Y-92756958D01*
X145984909Y-92764997D01*
X145962027Y-92801953D01*
X145958370Y-92804714D01*
X145956906Y-92806906D01*
X145944422Y-92815248D01*
X145919188Y-92834303D01*
X145914119Y-92835495D01*
X145906958Y-92840280D01*
X145848041Y-92851999D01*
X145843950Y-92851999D01*
X145833538Y-92854448D01*
X145563544Y-92854448D01*
X145496240Y-92841866D01*
X145493980Y-92840467D01*
X145493042Y-92840280D01*
X145485003Y-92834909D01*
X145448047Y-92812027D01*
X145445286Y-92808370D01*
X145443094Y-92806906D01*
X145434752Y-92794422D01*
X145415697Y-92769188D01*
X145414505Y-92764119D01*
X145409720Y-92756958D01*
X145398001Y-92698041D01*
X145398001Y-92693950D01*
X145395552Y-92683538D01*
X145395552Y-92513544D01*
X145408134Y-92446240D01*
X145409533Y-92443980D01*
X145409720Y-92443042D01*
X145415091Y-92435003D01*
X145437973Y-92398047D01*
X145441630Y-92395286D01*
X145443094Y-92393094D01*
X145455578Y-92384752D01*
X145480812Y-92365697D01*
X145485881Y-92364505D01*
X145493042Y-92359720D01*
X145551959Y-92348001D01*
X145556050Y-92348001D01*
X145566462Y-92345552D01*
X145836456Y-92345552D01*
X145903760Y-92358134D01*
X145903760Y-92358134D01*
G37*
G36*
X143838360Y-90223835D02*
G01*
X143919397Y-90250166D01*
X144006663Y-90277848D01*
X144009655Y-90279493D01*
X144018488Y-90282363D01*
X144090466Y-90323919D01*
X144161499Y-90362970D01*
X144168986Y-90369253D01*
X144182511Y-90377061D01*
X144240259Y-90429057D01*
X144296857Y-90476549D01*
X144306962Y-90489118D01*
X144323261Y-90503793D01*
X144365454Y-90561867D01*
X144407579Y-90614260D01*
X144417994Y-90634182D01*
X144434586Y-90657019D01*
X144461297Y-90717012D01*
X144489439Y-90770843D01*
X144497582Y-90798510D01*
X144511621Y-90830042D01*
X144523992Y-90888241D01*
X144539328Y-90940349D01*
X144542518Y-90975401D01*
X144550999Y-91015301D01*
X144550999Y-91068592D01*
X144555343Y-91116324D01*
X144550999Y-91157653D01*
X144550999Y-91204699D01*
X144541217Y-91250721D01*
X144536873Y-91292047D01*
X144522702Y-91337827D01*
X144511621Y-91389958D01*
X144495028Y-91427226D01*
X144484622Y-91460843D01*
X144458789Y-91508620D01*
X144434586Y-91562981D01*
X144414298Y-91590905D01*
X144400580Y-91616276D01*
X144361859Y-91663082D01*
X144323261Y-91716207D01*
X144302284Y-91735095D01*
X144287952Y-91752419D01*
X144235845Y-91794917D01*
X144182511Y-91842939D01*
X144163524Y-91853901D01*
X144151025Y-91864095D01*
X144085780Y-91898786D01*
X144018488Y-91937637D01*
X144003636Y-91942463D01*
X143995003Y-91947053D01*
X143917430Y-91970473D01*
X143838360Y-91996165D01*
X143829114Y-91997137D01*
X143825851Y-91998122D01*
X143734710Y-92007059D01*
X143697211Y-92011000D01*
X143602789Y-92011000D01*
X143461640Y-91996165D01*
X143380603Y-91969834D01*
X143293337Y-91942152D01*
X143290345Y-91940507D01*
X143281512Y-91937637D01*
X143209534Y-91896081D01*
X143138501Y-91857030D01*
X143131014Y-91850747D01*
X143117489Y-91842939D01*
X143059741Y-91790943D01*
X143003143Y-91743451D01*
X142993038Y-91730882D01*
X142976739Y-91716207D01*
X142934546Y-91658133D01*
X142892421Y-91605740D01*
X142882006Y-91585818D01*
X142865414Y-91562981D01*
X142838703Y-91502988D01*
X142810561Y-91449157D01*
X142802418Y-91421490D01*
X142788379Y-91389958D01*
X142776008Y-91331759D01*
X142760672Y-91279651D01*
X142757482Y-91244599D01*
X142749001Y-91204699D01*
X142749001Y-91151408D01*
X142744657Y-91103676D01*
X142749001Y-91062347D01*
X142749001Y-91015301D01*
X142758783Y-90969279D01*
X142763127Y-90927953D01*
X142777298Y-90882173D01*
X142788379Y-90830042D01*
X142804972Y-90792774D01*
X142815378Y-90759157D01*
X142841211Y-90711380D01*
X142865414Y-90657019D01*
X142885702Y-90629095D01*
X142899420Y-90603724D01*
X142938141Y-90556918D01*
X142976739Y-90503793D01*
X142997716Y-90484905D01*
X143012048Y-90467581D01*
X143064155Y-90425083D01*
X143117489Y-90377061D01*
X143136476Y-90366099D01*
X143148975Y-90355905D01*
X143214220Y-90321214D01*
X143281512Y-90282363D01*
X143296364Y-90277537D01*
X143304997Y-90272947D01*
X143382570Y-90249527D01*
X143461640Y-90223835D01*
X143470886Y-90222863D01*
X143474149Y-90221878D01*
X143565290Y-90212941D01*
X143602789Y-90209000D01*
X143697211Y-90209000D01*
X143838360Y-90223835D01*
X143838360Y-90223835D01*
G37*
G36*
X156538360Y-90223835D02*
G01*
X156619397Y-90250166D01*
X156706663Y-90277848D01*
X156709655Y-90279493D01*
X156718488Y-90282363D01*
X156790466Y-90323919D01*
X156861499Y-90362970D01*
X156868986Y-90369253D01*
X156882511Y-90377061D01*
X156940259Y-90429057D01*
X156996857Y-90476549D01*
X157006962Y-90489118D01*
X157023261Y-90503793D01*
X157065454Y-90561867D01*
X157107579Y-90614260D01*
X157117994Y-90634182D01*
X157134586Y-90657019D01*
X157161297Y-90717012D01*
X157189439Y-90770843D01*
X157197582Y-90798510D01*
X157211621Y-90830042D01*
X157223992Y-90888241D01*
X157239328Y-90940349D01*
X157242518Y-90975401D01*
X157250999Y-91015301D01*
X157250999Y-91068592D01*
X157255343Y-91116324D01*
X157250999Y-91157653D01*
X157250999Y-91204699D01*
X157241217Y-91250721D01*
X157236873Y-91292047D01*
X157222702Y-91337827D01*
X157211621Y-91389958D01*
X157195028Y-91427226D01*
X157184622Y-91460843D01*
X157158789Y-91508620D01*
X157134586Y-91562981D01*
X157114298Y-91590905D01*
X157100580Y-91616276D01*
X157061859Y-91663082D01*
X157023261Y-91716207D01*
X157002284Y-91735095D01*
X156987952Y-91752419D01*
X156935845Y-91794917D01*
X156882511Y-91842939D01*
X156863524Y-91853901D01*
X156851025Y-91864095D01*
X156785780Y-91898786D01*
X156718488Y-91937637D01*
X156703636Y-91942463D01*
X156695003Y-91947053D01*
X156617430Y-91970473D01*
X156538360Y-91996165D01*
X156529114Y-91997137D01*
X156525851Y-91998122D01*
X156434710Y-92007059D01*
X156397211Y-92011000D01*
X156302789Y-92011000D01*
X156161640Y-91996165D01*
X156080603Y-91969834D01*
X155993337Y-91942152D01*
X155990345Y-91940507D01*
X155981512Y-91937637D01*
X155909534Y-91896081D01*
X155838501Y-91857030D01*
X155831014Y-91850747D01*
X155817489Y-91842939D01*
X155759741Y-91790943D01*
X155703143Y-91743451D01*
X155693038Y-91730882D01*
X155676739Y-91716207D01*
X155634546Y-91658133D01*
X155592421Y-91605740D01*
X155582006Y-91585818D01*
X155565414Y-91562981D01*
X155538703Y-91502988D01*
X155510561Y-91449157D01*
X155502418Y-91421490D01*
X155488379Y-91389958D01*
X155476008Y-91331759D01*
X155460672Y-91279651D01*
X155457482Y-91244599D01*
X155449001Y-91204699D01*
X155449001Y-91151408D01*
X155444657Y-91103676D01*
X155449001Y-91062347D01*
X155449001Y-91015301D01*
X155458783Y-90969279D01*
X155463127Y-90927953D01*
X155477298Y-90882173D01*
X155488379Y-90830042D01*
X155504972Y-90792774D01*
X155515378Y-90759157D01*
X155541211Y-90711380D01*
X155565414Y-90657019D01*
X155585702Y-90629095D01*
X155599420Y-90603724D01*
X155638141Y-90556918D01*
X155676739Y-90503793D01*
X155697716Y-90484905D01*
X155712048Y-90467581D01*
X155764155Y-90425083D01*
X155817489Y-90377061D01*
X155836476Y-90366099D01*
X155848975Y-90355905D01*
X155914220Y-90321214D01*
X155981512Y-90282363D01*
X155996364Y-90277537D01*
X156004997Y-90272947D01*
X156082570Y-90249527D01*
X156161640Y-90223835D01*
X156170886Y-90222863D01*
X156174149Y-90221878D01*
X156265290Y-90212941D01*
X156302789Y-90209000D01*
X156397211Y-90209000D01*
X156538360Y-90223835D01*
X156538360Y-90223835D01*
G37*
G36*
X147636756Y-89986764D02*
G01*
X147648227Y-89992288D01*
X147656287Y-89993795D01*
X147673547Y-90004482D01*
X147718638Y-90026197D01*
X147738738Y-90044847D01*
X147751964Y-90053036D01*
X147762265Y-90066676D01*
X147785264Y-90088016D01*
X147807614Y-90126727D01*
X147819781Y-90142839D01*
X147821751Y-90151213D01*
X147829506Y-90164646D01*
X147848419Y-90264601D01*
X147851883Y-90279330D01*
X147851883Y-90282909D01*
X147853194Y-90289838D01*
X147853194Y-91562517D01*
X147838236Y-91661756D01*
X147832712Y-91673227D01*
X147831205Y-91681287D01*
X147820518Y-91698547D01*
X147798803Y-91743638D01*
X147780153Y-91763738D01*
X147771964Y-91776964D01*
X147758324Y-91787265D01*
X147736984Y-91810264D01*
X147698273Y-91832614D01*
X147682161Y-91844781D01*
X147673787Y-91846751D01*
X147660354Y-91854506D01*
X147560399Y-91873419D01*
X147545670Y-91876883D01*
X147542091Y-91876883D01*
X147535162Y-91878194D01*
X146862483Y-91878194D01*
X146763244Y-91863236D01*
X146751773Y-91857712D01*
X146743713Y-91856205D01*
X146726453Y-91845518D01*
X146681362Y-91823803D01*
X146661262Y-91805153D01*
X146648036Y-91796964D01*
X146637735Y-91783324D01*
X146614736Y-91761984D01*
X146592386Y-91723273D01*
X146580219Y-91707161D01*
X146578249Y-91698787D01*
X146570494Y-91685354D01*
X146551581Y-91585399D01*
X146548117Y-91570670D01*
X146548117Y-91567091D01*
X146546806Y-91560162D01*
X146546806Y-90287483D01*
X146561764Y-90188244D01*
X146567288Y-90176773D01*
X146568795Y-90168713D01*
X146579482Y-90151453D01*
X146601197Y-90106362D01*
X146619847Y-90086262D01*
X146628036Y-90073036D01*
X146641676Y-90062735D01*
X146663016Y-90039736D01*
X146701727Y-90017386D01*
X146717839Y-90005219D01*
X146726213Y-90003249D01*
X146739646Y-89995494D01*
X146839601Y-89976581D01*
X146854330Y-89973117D01*
X146857909Y-89973117D01*
X146864838Y-89971806D01*
X147537517Y-89971806D01*
X147636756Y-89986764D01*
X147636756Y-89986764D01*
G37*
G36*
X153236756Y-89986764D02*
G01*
X153248227Y-89992288D01*
X153256287Y-89993795D01*
X153273547Y-90004482D01*
X153318638Y-90026197D01*
X153338738Y-90044847D01*
X153351964Y-90053036D01*
X153362265Y-90066676D01*
X153385264Y-90088016D01*
X153407614Y-90126727D01*
X153419781Y-90142839D01*
X153421751Y-90151213D01*
X153429506Y-90164646D01*
X153448419Y-90264601D01*
X153451883Y-90279330D01*
X153451883Y-90282909D01*
X153453194Y-90289838D01*
X153453194Y-91562517D01*
X153438236Y-91661756D01*
X153432712Y-91673227D01*
X153431205Y-91681287D01*
X153420518Y-91698547D01*
X153398803Y-91743638D01*
X153380153Y-91763738D01*
X153371964Y-91776964D01*
X153358324Y-91787265D01*
X153336984Y-91810264D01*
X153298273Y-91832614D01*
X153282161Y-91844781D01*
X153273787Y-91846751D01*
X153260354Y-91854506D01*
X153160399Y-91873419D01*
X153145670Y-91876883D01*
X153142091Y-91876883D01*
X153135162Y-91878194D01*
X152462483Y-91878194D01*
X152363244Y-91863236D01*
X152351773Y-91857712D01*
X152343713Y-91856205D01*
X152326453Y-91845518D01*
X152281362Y-91823803D01*
X152261262Y-91805153D01*
X152248036Y-91796964D01*
X152237735Y-91783324D01*
X152214736Y-91761984D01*
X152192386Y-91723273D01*
X152180219Y-91707161D01*
X152178249Y-91698787D01*
X152170494Y-91685354D01*
X152151581Y-91585399D01*
X152148117Y-91570670D01*
X152148117Y-91567091D01*
X152146806Y-91560162D01*
X152146806Y-90287483D01*
X152161764Y-90188244D01*
X152167288Y-90176773D01*
X152168795Y-90168713D01*
X152179482Y-90151453D01*
X152201197Y-90106362D01*
X152219847Y-90086262D01*
X152228036Y-90073036D01*
X152241676Y-90062735D01*
X152263016Y-90039736D01*
X152301727Y-90017386D01*
X152317839Y-90005219D01*
X152326213Y-90003249D01*
X152339646Y-89995494D01*
X152439601Y-89976581D01*
X152454330Y-89973117D01*
X152457909Y-89973117D01*
X152464838Y-89971806D01*
X153137517Y-89971806D01*
X153236756Y-89986764D01*
X153236756Y-89986764D01*
G37*
M02*
