G04 #@! TF.GenerationSoftware,KiCad,Pcbnew,5.99.0-unknown-c3175b4~86~ubuntu16.04.1*
G04 #@! TF.CreationDate,2020-03-24T03:28:14+00:00*
G04 #@! TF.ProjectId,kuiick,6b756969-636b-42e6-9b69-6361645f7063,rev?*
G04 #@! TF.SameCoordinates,Original*
G04 #@! TF.FileFunction,Legend,Top*
G04 #@! TF.FilePolarity,Positive*
%FSLAX46Y46*%
G04 Gerber Fmt 4.6, Leading zero omitted, Abs format (unit mm)*
G04 Created by KiCad (PCBNEW 5.99.0-unknown-c3175b4~86~ubuntu16.04.1) date 2020-03-24 03:28:14*
%MOMM*%
%LPD*%
G04 APERTURE LIST*
%ADD10C,0.200000*%
%ADD11C,0.150000*%
%ADD12C,0.120000*%
%ADD13C,0.127000*%
G04 APERTURE END LIST*
D10*
X145661904Y-102809523D02*
X144861904Y-102809523D01*
X145661904Y-102352380D02*
X145204761Y-102695238D01*
X144861904Y-102352380D02*
X145319047Y-102809523D01*
X144861904Y-102009523D02*
X145509523Y-102009523D01*
X145585714Y-101971428D01*
X145623809Y-101933333D01*
X145661904Y-101857142D01*
X145661904Y-101704761D01*
X145623809Y-101628571D01*
X145585714Y-101590476D01*
X145509523Y-101552380D01*
X144861904Y-101552380D01*
X145661904Y-101171428D02*
X144861904Y-101171428D01*
X145661904Y-100790476D02*
X144861904Y-100790476D01*
X145585714Y-99952380D02*
X145623809Y-99990476D01*
X145661904Y-100104761D01*
X145661904Y-100180952D01*
X145623809Y-100295238D01*
X145547619Y-100371428D01*
X145471428Y-100409523D01*
X145319047Y-100447619D01*
X145204761Y-100447619D01*
X145052380Y-100409523D01*
X144976190Y-100371428D01*
X144900000Y-100295238D01*
X144861904Y-100180952D01*
X144861904Y-100104761D01*
X144900000Y-99990476D01*
X144938095Y-99952380D01*
X145661904Y-99609523D02*
X144861904Y-99609523D01*
X145661904Y-99152380D02*
X145204761Y-99495238D01*
X144861904Y-99152380D02*
X145319047Y-99609523D01*
D11*
X148833333Y-93647619D02*
X148738095Y-93600000D01*
X148642857Y-93504761D01*
X148500000Y-93361904D01*
X148404761Y-93314285D01*
X148309523Y-93314285D01*
X148357142Y-93552380D02*
X148261904Y-93504761D01*
X148166666Y-93409523D01*
X148119047Y-93219047D01*
X148119047Y-92885714D01*
X148166666Y-92695238D01*
X148261904Y-92600000D01*
X148357142Y-92552380D01*
X148547619Y-92552380D01*
X148642857Y-92600000D01*
X148738095Y-92695238D01*
X148785714Y-92885714D01*
X148785714Y-93219047D01*
X148738095Y-93409523D01*
X148642857Y-93504761D01*
X148547619Y-93552380D01*
X148357142Y-93552380D01*
X149119047Y-92552380D02*
X149357142Y-93552380D01*
X149547619Y-92838095D01*
X149738095Y-93552380D01*
X149976190Y-92552380D01*
X150357142Y-93552380D02*
X150357142Y-92552380D01*
X150833333Y-93552380D02*
X150833333Y-92552380D01*
X151880952Y-93457142D02*
X151833333Y-93504761D01*
X151690476Y-93552380D01*
X151595238Y-93552380D01*
X151452380Y-93504761D01*
X151357142Y-93409523D01*
X151309523Y-93314285D01*
X151261904Y-93123809D01*
X151261904Y-92980952D01*
X151309523Y-92790476D01*
X151357142Y-92695238D01*
X151452380Y-92600000D01*
X151595238Y-92552380D01*
X151690476Y-92552380D01*
X151833333Y-92600000D01*
X151880952Y-92647619D01*
X155161904Y-108004761D02*
X154361904Y-108004761D01*
X155161904Y-107547619D02*
X154704761Y-107890476D01*
X154361904Y-107547619D02*
X154819047Y-108004761D01*
X154361904Y-107280952D02*
X154361904Y-106785714D01*
X154666666Y-107052380D01*
X154666666Y-106938095D01*
X154704761Y-106861904D01*
X154742857Y-106823809D01*
X154819047Y-106785714D01*
X155009523Y-106785714D01*
X155085714Y-106823809D01*
X155123809Y-106861904D01*
X155161904Y-106938095D01*
X155161904Y-107166666D01*
X155123809Y-107242857D01*
X155085714Y-107280952D01*
X154438095Y-106480952D02*
X154400000Y-106442857D01*
X154361904Y-106366666D01*
X154361904Y-106176190D01*
X154400000Y-106100000D01*
X154438095Y-106061904D01*
X154514285Y-106023809D01*
X154590476Y-106023809D01*
X154704761Y-106061904D01*
X155161904Y-106519047D01*
X155161904Y-106023809D01*
X155161904Y-105300000D02*
X155161904Y-105680952D01*
X154361904Y-105680952D01*
X154361904Y-104423809D02*
X155009523Y-104423809D01*
X155085714Y-104385714D01*
X155123809Y-104347619D01*
X155161904Y-104271428D01*
X155161904Y-104119047D01*
X155123809Y-104042857D01*
X155085714Y-104004761D01*
X155009523Y-103966666D01*
X154361904Y-103966666D01*
X155123809Y-103623809D02*
X155161904Y-103509523D01*
X155161904Y-103319047D01*
X155123809Y-103242857D01*
X155085714Y-103204761D01*
X155009523Y-103166666D01*
X154933333Y-103166666D01*
X154857142Y-103204761D01*
X154819047Y-103242857D01*
X154780952Y-103319047D01*
X154742857Y-103471428D01*
X154704761Y-103547619D01*
X154666666Y-103585714D01*
X154590476Y-103623809D01*
X154514285Y-103623809D01*
X154438095Y-103585714D01*
X154400000Y-103547619D01*
X154361904Y-103471428D01*
X154361904Y-103280952D01*
X154400000Y-103166666D01*
X154742857Y-102557142D02*
X154780952Y-102442857D01*
X154819047Y-102404761D01*
X154895238Y-102366666D01*
X155009523Y-102366666D01*
X155085714Y-102404761D01*
X155123809Y-102442857D01*
X155161904Y-102519047D01*
X155161904Y-102823809D01*
X154361904Y-102823809D01*
X154361904Y-102557142D01*
X154400000Y-102480952D01*
X154438095Y-102442857D01*
X154514285Y-102404761D01*
X154590476Y-102404761D01*
X154666666Y-102442857D01*
X154704761Y-102480952D01*
X154742857Y-102557142D01*
X154742857Y-102823809D01*
X154628571Y-101528571D02*
X154628571Y-101223809D01*
X154361904Y-101414285D02*
X155047619Y-101414285D01*
X155123809Y-101376190D01*
X155161904Y-101300000D01*
X155161904Y-101223809D01*
X155161904Y-100842857D02*
X155123809Y-100919047D01*
X155085714Y-100957142D01*
X155009523Y-100995238D01*
X154780952Y-100995238D01*
X154704761Y-100957142D01*
X154666666Y-100919047D01*
X154628571Y-100842857D01*
X154628571Y-100728571D01*
X154666666Y-100652380D01*
X154704761Y-100614285D01*
X154780952Y-100576190D01*
X155009523Y-100576190D01*
X155085714Y-100614285D01*
X155123809Y-100652380D01*
X155161904Y-100728571D01*
X155161904Y-100842857D01*
X155161904Y-99623809D02*
X154361904Y-99623809D01*
X155161904Y-99242857D02*
X154361904Y-99242857D01*
X155085714Y-98404761D02*
X155123809Y-98442857D01*
X155161904Y-98557142D01*
X155161904Y-98633333D01*
X155123809Y-98747619D01*
X155047619Y-98823809D01*
X154971428Y-98861904D01*
X154819047Y-98900000D01*
X154704761Y-98900000D01*
X154552380Y-98861904D01*
X154476190Y-98823809D01*
X154400000Y-98747619D01*
X154361904Y-98633333D01*
X154361904Y-98557142D01*
X154400000Y-98442857D01*
X154438095Y-98404761D01*
X155161904Y-97452380D02*
X154361904Y-97452380D01*
X155161904Y-96995238D02*
X154704761Y-97338095D01*
X154361904Y-96995238D02*
X154819047Y-97452380D01*
X155161904Y-96652380D02*
X154628571Y-96652380D01*
X154361904Y-96652380D02*
X154400000Y-96690476D01*
X154438095Y-96652380D01*
X154400000Y-96614285D01*
X154361904Y-96652380D01*
X154438095Y-96652380D01*
X154628571Y-96385714D02*
X154628571Y-96080952D01*
X154361904Y-96271428D02*
X155047619Y-96271428D01*
X155123809Y-96233333D01*
X155161904Y-96157142D01*
X155161904Y-96080952D01*
X153561904Y-104447619D02*
X152761904Y-104447619D01*
X153333333Y-104180952D01*
X152761904Y-103914285D01*
X153561904Y-103914285D01*
X152761904Y-103380952D02*
X152761904Y-103228571D01*
X152800000Y-103152380D01*
X152876190Y-103076190D01*
X153028571Y-103038095D01*
X153295238Y-103038095D01*
X153447619Y-103076190D01*
X153523809Y-103152380D01*
X153561904Y-103228571D01*
X153561904Y-103380952D01*
X153523809Y-103457142D01*
X153447619Y-103533333D01*
X153295238Y-103571428D01*
X153028571Y-103571428D01*
X152876190Y-103533333D01*
X152800000Y-103457142D01*
X152761904Y-103380952D01*
X153561904Y-102695238D02*
X152761904Y-102695238D01*
X152761904Y-102504761D01*
X152800000Y-102390476D01*
X152876190Y-102314285D01*
X152952380Y-102276190D01*
X153104761Y-102238095D01*
X153219047Y-102238095D01*
X153371428Y-102276190D01*
X153447619Y-102314285D01*
X153523809Y-102390476D01*
X153561904Y-102504761D01*
X153561904Y-102695238D01*
X153142857Y-101895238D02*
X153142857Y-101628571D01*
X153561904Y-101514285D02*
X153561904Y-101895238D01*
X152761904Y-101895238D01*
X152761904Y-101514285D01*
X153561904Y-99161904D02*
X153180952Y-99428571D01*
X153561904Y-99619047D02*
X152761904Y-99619047D01*
X152761904Y-99314285D01*
X152800000Y-99238095D01*
X152838095Y-99200000D01*
X152914285Y-99161904D01*
X153028571Y-99161904D01*
X153104761Y-99200000D01*
X153142857Y-99238095D01*
X153180952Y-99314285D01*
X153180952Y-99619047D01*
X153142857Y-98819047D02*
X153142857Y-98552380D01*
X153561904Y-98438095D02*
X153561904Y-98819047D01*
X152761904Y-98819047D01*
X152761904Y-98438095D01*
X153523809Y-98133333D02*
X153561904Y-98019047D01*
X153561904Y-97828571D01*
X153523809Y-97752380D01*
X153485714Y-97714285D01*
X153409523Y-97676190D01*
X153333333Y-97676190D01*
X153257142Y-97714285D01*
X153219047Y-97752380D01*
X153180952Y-97828571D01*
X153142857Y-97980952D01*
X153104761Y-98057142D01*
X153066666Y-98095238D01*
X152990476Y-98133333D01*
X152914285Y-98133333D01*
X152838095Y-98095238D01*
X152800000Y-98057142D01*
X152761904Y-97980952D01*
X152761904Y-97790476D01*
X152800000Y-97676190D01*
X153142857Y-97333333D02*
X153142857Y-97066666D01*
X153561904Y-96952380D02*
X153561904Y-97333333D01*
X152761904Y-97333333D01*
X152761904Y-96952380D01*
X152761904Y-96723809D02*
X152761904Y-96266666D01*
X153561904Y-96495238D02*
X152761904Y-96495238D01*
D12*
X151940000Y-90115000D02*
X148060000Y-90115000D01*
X146890000Y-94585000D02*
X147940000Y-94585000D01*
X146890000Y-92085000D02*
X146890000Y-94585000D01*
X152060000Y-94585000D02*
X152060000Y-95575000D01*
X153110000Y-94585000D02*
X152060000Y-94585000D01*
X153110000Y-92085000D02*
X153110000Y-94585000D01*
X157350000Y-109890000D02*
X155350000Y-109890000D01*
X144650000Y-109890000D02*
X142650000Y-109890000D01*
X151650000Y-96900000D02*
X151650000Y-96600000D01*
X151650000Y-96600000D02*
X148350000Y-96600000D01*
X148350000Y-96600000D02*
X148350000Y-96900000D01*
X151650000Y-99100000D02*
X151650000Y-99400000D01*
X151650000Y-99400000D02*
X148350000Y-99400000D01*
X148350000Y-99400000D02*
X148350000Y-99100000D01*
X151650000Y-101900000D02*
X151650000Y-101600000D01*
X151650000Y-101600000D02*
X148350000Y-101600000D01*
X148350000Y-101600000D02*
X148350000Y-101900000D01*
X151650000Y-104100000D02*
X151650000Y-104400000D01*
X151650000Y-104400000D02*
X148350000Y-104400000D01*
X148350000Y-104400000D02*
X148350000Y-104100000D01*
D13*
X153800000Y-109700000D02*
X153800000Y-110000000D01*
X146200000Y-109700000D02*
X146200000Y-110000000D01*
X153800000Y-107500000D02*
X153800000Y-107100000D01*
X146200000Y-107100000D02*
X146200000Y-107500000D01*
X146200000Y-110050000D02*
X153800000Y-110050000D01*
D10*
X148100000Y-105100000D02*
G75*
G03X148100000Y-105100000I-100000J0D01*
G01*
D12*
X154550000Y-92600000D02*
X154550000Y-94600000D01*
X153650000Y-92600000D02*
X153650000Y-94600000D01*
X149250000Y-99750000D02*
X150000000Y-99750000D01*
X149250000Y-100500000D02*
X149250000Y-99750000D01*
D11*
X149566666Y-90652380D02*
X149566666Y-91366666D01*
X149519047Y-91509523D01*
X149423809Y-91604761D01*
X149280952Y-91652380D01*
X149185714Y-91652380D01*
X149995238Y-90747619D02*
X150042857Y-90700000D01*
X150138095Y-90652380D01*
X150376190Y-90652380D01*
X150471428Y-90700000D01*
X150519047Y-90747619D01*
X150566666Y-90842857D01*
X150566666Y-90938095D01*
X150519047Y-91080952D01*
X149947619Y-91652380D01*
X150566666Y-91652380D01*
X156016666Y-110672380D02*
X156016666Y-111386666D01*
X155969047Y-111529523D01*
X155873809Y-111624761D01*
X155730952Y-111672380D01*
X155635714Y-111672380D01*
X156921428Y-111005714D02*
X156921428Y-111672380D01*
X156683333Y-110624761D02*
X156445238Y-111339047D01*
X157064285Y-111339047D01*
X143316666Y-110672380D02*
X143316666Y-111386666D01*
X143269047Y-111529523D01*
X143173809Y-111624761D01*
X143030952Y-111672380D01*
X142935714Y-111672380D01*
X143697619Y-110672380D02*
X144316666Y-110672380D01*
X143983333Y-111053333D01*
X144126190Y-111053333D01*
X144221428Y-111100952D01*
X144269047Y-111148571D01*
X144316666Y-111243809D01*
X144316666Y-111481904D01*
X144269047Y-111577142D01*
X144221428Y-111624761D01*
X144126190Y-111672380D01*
X143840476Y-111672380D01*
X143745238Y-111624761D01*
X143697619Y-111577142D01*
X149000000Y-98303571D02*
X149107142Y-98339285D01*
X149285714Y-98339285D01*
X149357142Y-98303571D01*
X149392857Y-98267857D01*
X149428571Y-98196428D01*
X149428571Y-98125000D01*
X149392857Y-98053571D01*
X149357142Y-98017857D01*
X149285714Y-97982142D01*
X149142857Y-97946428D01*
X149071428Y-97910714D01*
X149035714Y-97875000D01*
X149000000Y-97803571D01*
X149000000Y-97732142D01*
X149035714Y-97660714D01*
X149071428Y-97625000D01*
X149142857Y-97589285D01*
X149321428Y-97589285D01*
X149428571Y-97625000D01*
X149678571Y-97589285D02*
X149857142Y-98339285D01*
X150000000Y-97803571D01*
X150142857Y-98339285D01*
X150321428Y-97589285D01*
X150571428Y-97660714D02*
X150607142Y-97625000D01*
X150678571Y-97589285D01*
X150857142Y-97589285D01*
X150928571Y-97625000D01*
X150964285Y-97660714D01*
X151000000Y-97732142D01*
X151000000Y-97803571D01*
X150964285Y-97910714D01*
X150535714Y-98339285D01*
X151000000Y-98339285D01*
X149000000Y-103303571D02*
X149107142Y-103339285D01*
X149285714Y-103339285D01*
X149357142Y-103303571D01*
X149392857Y-103267857D01*
X149428571Y-103196428D01*
X149428571Y-103125000D01*
X149392857Y-103053571D01*
X149357142Y-103017857D01*
X149285714Y-102982142D01*
X149142857Y-102946428D01*
X149071428Y-102910714D01*
X149035714Y-102875000D01*
X149000000Y-102803571D01*
X149000000Y-102732142D01*
X149035714Y-102660714D01*
X149071428Y-102625000D01*
X149142857Y-102589285D01*
X149321428Y-102589285D01*
X149428571Y-102625000D01*
X149678571Y-102589285D02*
X149857142Y-103339285D01*
X150000000Y-102803571D01*
X150142857Y-103339285D01*
X150321428Y-102589285D01*
X151000000Y-103339285D02*
X150571428Y-103339285D01*
X150785714Y-103339285D02*
X150785714Y-102589285D01*
X150714285Y-102696428D01*
X150642857Y-102767857D01*
X150571428Y-102803571D01*
X149666666Y-110452380D02*
X149666666Y-111166666D01*
X149619047Y-111309523D01*
X149523809Y-111404761D01*
X149380952Y-111452380D01*
X149285714Y-111452380D01*
X150666666Y-111452380D02*
X150095238Y-111452380D01*
X150380952Y-111452380D02*
X150380952Y-110452380D01*
X150285714Y-110595238D01*
X150190476Y-110690476D01*
X150095238Y-110738095D01*
M02*
