G04 #@! TF.GenerationSoftware,KiCad,Pcbnew,5.99.0-unknown-c3175b4~86~ubuntu16.04.1*
G04 #@! TF.CreationDate,2020-03-24T03:28:14+00:00*
G04 #@! TF.ProjectId,kuiick,6b756969-636b-42e6-9b69-6361645f7063,rev?*
G04 #@! TF.SameCoordinates,Original*
G04 #@! TF.FileFunction,Legend,Bot*
G04 #@! TF.FilePolarity,Positive*
%FSLAX46Y46*%
G04 Gerber Fmt 4.6, Leading zero omitted, Abs format (unit mm)*
G04 Created by KiCad (PCBNEW 5.99.0-unknown-c3175b4~86~ubuntu16.04.1) date 2020-03-24 03:28:14*
%MOMM*%
%LPD*%
G04 APERTURE LIST*
%ADD10C,0.010583*%
%ADD11C,0.150000*%
%ADD12C,0.120000*%
G04 APERTURE END LIST*
D10*
G36*
X154029167Y-104241667D02*
G01*
X152970834Y-104241667D01*
X153500000Y-105300000D01*
X152441667Y-104241667D01*
X152812084Y-103871250D01*
X153500000Y-103871250D01*
X153500000Y-103765417D01*
X152917917Y-103765417D01*
X153500000Y-103183334D01*
X154029167Y-104241667D01*
X154029167Y-104241667D01*
G37*
X154029167Y-104241667D02*
X152970834Y-104241667D01*
X153500000Y-105300000D01*
X152441667Y-104241667D01*
X152812084Y-103871250D01*
X153500000Y-103871250D01*
X153500000Y-103765417D01*
X152917917Y-103765417D01*
X153500000Y-103183334D01*
X154029167Y-104241667D01*
D11*
X144696428Y-94692857D02*
X144660714Y-94585714D01*
X144660714Y-94407142D01*
X144696428Y-94335714D01*
X144732142Y-94300000D01*
X144803571Y-94264285D01*
X144875000Y-94264285D01*
X144946428Y-94300000D01*
X144982142Y-94335714D01*
X145017857Y-94407142D01*
X145053571Y-94550000D01*
X145089285Y-94621428D01*
X145125000Y-94657142D01*
X145196428Y-94692857D01*
X145267857Y-94692857D01*
X145339285Y-94657142D01*
X145375000Y-94621428D01*
X145410714Y-94550000D01*
X145410714Y-94371428D01*
X145375000Y-94264285D01*
X144732142Y-93514285D02*
X144696428Y-93550000D01*
X144660714Y-93657142D01*
X144660714Y-93728571D01*
X144696428Y-93835714D01*
X144767857Y-93907142D01*
X144839285Y-93942857D01*
X144982142Y-93978571D01*
X145089285Y-93978571D01*
X145232142Y-93942857D01*
X145303571Y-93907142D01*
X145375000Y-93835714D01*
X145410714Y-93728571D01*
X145410714Y-93657142D01*
X145375000Y-93550000D01*
X145339285Y-93514285D01*
X144660714Y-92835714D02*
X144660714Y-93192857D01*
X145410714Y-93192857D01*
X144696428Y-92210714D02*
X144660714Y-92103571D01*
X144660714Y-91925000D01*
X144696428Y-91853571D01*
X144732142Y-91817857D01*
X144803571Y-91782142D01*
X144875000Y-91782142D01*
X144946428Y-91817857D01*
X144982142Y-91853571D01*
X145017857Y-91925000D01*
X145053571Y-92067857D01*
X145089285Y-92139285D01*
X145125000Y-92175000D01*
X145196428Y-92210714D01*
X145267857Y-92210714D01*
X145339285Y-92175000D01*
X145375000Y-92139285D01*
X145410714Y-92067857D01*
X145410714Y-91889285D01*
X145375000Y-91782142D01*
X144660714Y-91460714D02*
X145410714Y-91460714D01*
X145410714Y-91282142D01*
X145375000Y-91175000D01*
X145303571Y-91103571D01*
X145232142Y-91067857D01*
X145089285Y-91032142D01*
X144982142Y-91032142D01*
X144839285Y-91067857D01*
X144767857Y-91103571D01*
X144696428Y-91175000D01*
X144660714Y-91282142D01*
X144660714Y-91460714D01*
X144875000Y-90746428D02*
X144875000Y-90389285D01*
X144660714Y-90817857D02*
X145410714Y-90567857D01*
X144660714Y-90317857D01*
X151696428Y-108399821D02*
X151589285Y-108435535D01*
X151410714Y-108435535D01*
X151339285Y-108399821D01*
X151303571Y-108364107D01*
X151267857Y-108292678D01*
X151267857Y-108221250D01*
X151303571Y-108149821D01*
X151339285Y-108114107D01*
X151410714Y-108078392D01*
X151553571Y-108042678D01*
X151625000Y-108006964D01*
X151660714Y-107971250D01*
X151696428Y-107899821D01*
X151696428Y-107828392D01*
X151660714Y-107756964D01*
X151625000Y-107721250D01*
X151553571Y-107685535D01*
X151375000Y-107685535D01*
X151267857Y-107721250D01*
X151053571Y-107935535D02*
X150767857Y-107935535D01*
X150946428Y-107685535D02*
X150946428Y-108328392D01*
X150910714Y-108399821D01*
X150839285Y-108435535D01*
X150767857Y-108435535D01*
X150232142Y-108399821D02*
X150303571Y-108435535D01*
X150446428Y-108435535D01*
X150517857Y-108399821D01*
X150553571Y-108328392D01*
X150553571Y-108042678D01*
X150517857Y-107971250D01*
X150446428Y-107935535D01*
X150303571Y-107935535D01*
X150232142Y-107971250D01*
X150196428Y-108042678D01*
X150196428Y-108114107D01*
X150553571Y-108185535D01*
X149875000Y-108435535D02*
X149875000Y-107935535D01*
X149875000Y-107685535D02*
X149910714Y-107721250D01*
X149875000Y-107756964D01*
X149839285Y-107721250D01*
X149875000Y-107685535D01*
X149875000Y-107756964D01*
X149232142Y-108399821D02*
X149303571Y-108435535D01*
X149446428Y-108435535D01*
X149517857Y-108399821D01*
X149553571Y-108328392D01*
X149553571Y-108042678D01*
X149517857Y-107971250D01*
X149446428Y-107935535D01*
X149303571Y-107935535D01*
X149232142Y-107971250D01*
X149196428Y-108042678D01*
X149196428Y-108114107D01*
X149553571Y-108185535D01*
X148875000Y-108435535D02*
X148875000Y-107935535D01*
X148875000Y-108078392D02*
X148839285Y-108006964D01*
X148803571Y-107971250D01*
X148732142Y-107935535D01*
X148660714Y-107935535D01*
X148517857Y-107935535D02*
X148232142Y-107935535D01*
X148410714Y-107685535D02*
X148410714Y-108328392D01*
X148375000Y-108399821D01*
X148303571Y-108435535D01*
X148232142Y-108435535D01*
X152464285Y-109607321D02*
X152357142Y-109643035D01*
X152178571Y-109643035D01*
X152107142Y-109607321D01*
X152071428Y-109571607D01*
X152035714Y-109500178D01*
X152035714Y-109428750D01*
X152071428Y-109357321D01*
X152107142Y-109321607D01*
X152178571Y-109285892D01*
X152321428Y-109250178D01*
X152392857Y-109214464D01*
X152428571Y-109178750D01*
X152464285Y-109107321D01*
X152464285Y-109035892D01*
X152428571Y-108964464D01*
X152392857Y-108928750D01*
X152321428Y-108893035D01*
X152142857Y-108893035D01*
X152035714Y-108928750D01*
X151607142Y-109643035D02*
X151678571Y-109607321D01*
X151714285Y-109571607D01*
X151750000Y-109500178D01*
X151750000Y-109285892D01*
X151714285Y-109214464D01*
X151678571Y-109178750D01*
X151607142Y-109143035D01*
X151500000Y-109143035D01*
X151428571Y-109178750D01*
X151392857Y-109214464D01*
X151357142Y-109285892D01*
X151357142Y-109500178D01*
X151392857Y-109571607D01*
X151428571Y-109607321D01*
X151500000Y-109643035D01*
X151607142Y-109643035D01*
X150928571Y-109643035D02*
X151000000Y-109607321D01*
X151035714Y-109535892D01*
X151035714Y-108893035D01*
X150321428Y-109143035D02*
X150321428Y-109643035D01*
X150642857Y-109143035D02*
X150642857Y-109535892D01*
X150607142Y-109607321D01*
X150535714Y-109643035D01*
X150428571Y-109643035D01*
X150357142Y-109607321D01*
X150321428Y-109571607D01*
X150071428Y-109143035D02*
X149785714Y-109143035D01*
X149964285Y-108893035D02*
X149964285Y-109535892D01*
X149928571Y-109607321D01*
X149857142Y-109643035D01*
X149785714Y-109643035D01*
X149535714Y-109643035D02*
X149535714Y-109143035D01*
X149535714Y-108893035D02*
X149571428Y-108928750D01*
X149535714Y-108964464D01*
X149500000Y-108928750D01*
X149535714Y-108893035D01*
X149535714Y-108964464D01*
X149071428Y-109643035D02*
X149142857Y-109607321D01*
X149178571Y-109571607D01*
X149214285Y-109500178D01*
X149214285Y-109285892D01*
X149178571Y-109214464D01*
X149142857Y-109178750D01*
X149071428Y-109143035D01*
X148964285Y-109143035D01*
X148892857Y-109178750D01*
X148857142Y-109214464D01*
X148821428Y-109285892D01*
X148821428Y-109500178D01*
X148857142Y-109571607D01*
X148892857Y-109607321D01*
X148964285Y-109643035D01*
X149071428Y-109643035D01*
X148500000Y-109143035D02*
X148500000Y-109643035D01*
X148500000Y-109214464D02*
X148464285Y-109178750D01*
X148392857Y-109143035D01*
X148285714Y-109143035D01*
X148214285Y-109178750D01*
X148178571Y-109250178D01*
X148178571Y-109643035D01*
X147857142Y-109607321D02*
X147785714Y-109643035D01*
X147642857Y-109643035D01*
X147571428Y-109607321D01*
X147535714Y-109535892D01*
X147535714Y-109500178D01*
X147571428Y-109428750D01*
X147642857Y-109393035D01*
X147750000Y-109393035D01*
X147821428Y-109357321D01*
X147857142Y-109285892D01*
X147857142Y-109250178D01*
X147821428Y-109178750D01*
X147750000Y-109143035D01*
X147642857Y-109143035D01*
X147571428Y-109178750D01*
X151596428Y-106839285D02*
X151596428Y-106089285D01*
X151167857Y-106839285D02*
X151489285Y-106410714D01*
X151167857Y-106089285D02*
X151596428Y-106517857D01*
X150846428Y-106089285D02*
X150846428Y-106696428D01*
X150810714Y-106767857D01*
X150775000Y-106803571D01*
X150703571Y-106839285D01*
X150560714Y-106839285D01*
X150489285Y-106803571D01*
X150453571Y-106767857D01*
X150417857Y-106696428D01*
X150417857Y-106089285D01*
X150060714Y-106839285D02*
X150060714Y-106089285D01*
X149703571Y-106839285D02*
X149703571Y-106089285D01*
X148917857Y-106767857D02*
X148953571Y-106803571D01*
X149060714Y-106839285D01*
X149132142Y-106839285D01*
X149239285Y-106803571D01*
X149310714Y-106732142D01*
X149346428Y-106660714D01*
X149382142Y-106517857D01*
X149382142Y-106410714D01*
X149346428Y-106267857D01*
X149310714Y-106196428D01*
X149239285Y-106125000D01*
X149132142Y-106089285D01*
X149060714Y-106089285D01*
X148953571Y-106125000D01*
X148917857Y-106160714D01*
X148596428Y-106839285D02*
X148596428Y-106089285D01*
X148167857Y-106839285D02*
X148489285Y-106410714D01*
X148167857Y-106089285D02*
X148596428Y-106517857D01*
X150767857Y-93699821D02*
X150660714Y-93735535D01*
X150482142Y-93735535D01*
X150410714Y-93699821D01*
X150375000Y-93664107D01*
X150339285Y-93592678D01*
X150339285Y-93521250D01*
X150375000Y-93449821D01*
X150410714Y-93414107D01*
X150482142Y-93378392D01*
X150625000Y-93342678D01*
X150696428Y-93306964D01*
X150732142Y-93271250D01*
X150767857Y-93199821D01*
X150767857Y-93128392D01*
X150732142Y-93056964D01*
X150696428Y-93021250D01*
X150625000Y-92985535D01*
X150446428Y-92985535D01*
X150339285Y-93021250D01*
X150017857Y-93735535D02*
X150017857Y-92985535D01*
X149732142Y-92985535D01*
X149660714Y-93021250D01*
X149625000Y-93056964D01*
X149589285Y-93128392D01*
X149589285Y-93235535D01*
X149625000Y-93306964D01*
X149660714Y-93342678D01*
X149732142Y-93378392D01*
X150017857Y-93378392D01*
X149267857Y-93735535D02*
X149267857Y-92985535D01*
X151071428Y-94550178D02*
X151321428Y-94550178D01*
X151321428Y-94943035D02*
X151321428Y-94193035D01*
X150964285Y-94193035D01*
X150571428Y-94943035D02*
X150642857Y-94907321D01*
X150678571Y-94835892D01*
X150678571Y-94193035D01*
X149964285Y-94943035D02*
X149964285Y-94550178D01*
X150000000Y-94478750D01*
X150071428Y-94443035D01*
X150214285Y-94443035D01*
X150285714Y-94478750D01*
X149964285Y-94907321D02*
X150035714Y-94943035D01*
X150214285Y-94943035D01*
X150285714Y-94907321D01*
X150321428Y-94835892D01*
X150321428Y-94764464D01*
X150285714Y-94693035D01*
X150214285Y-94657321D01*
X150035714Y-94657321D01*
X149964285Y-94621607D01*
X149642857Y-94907321D02*
X149571428Y-94943035D01*
X149428571Y-94943035D01*
X149357142Y-94907321D01*
X149321428Y-94835892D01*
X149321428Y-94800178D01*
X149357142Y-94728750D01*
X149428571Y-94693035D01*
X149535714Y-94693035D01*
X149607142Y-94657321D01*
X149642857Y-94585892D01*
X149642857Y-94550178D01*
X149607142Y-94478750D01*
X149535714Y-94443035D01*
X149428571Y-94443035D01*
X149357142Y-94478750D01*
X149000000Y-94943035D02*
X149000000Y-94193035D01*
X148678571Y-94943035D02*
X148678571Y-94550178D01*
X148714285Y-94478750D01*
X148785714Y-94443035D01*
X148892857Y-94443035D01*
X148964285Y-94478750D01*
X149000000Y-94514464D01*
X156042857Y-92353571D02*
X155471428Y-92353571D01*
X155757142Y-92639285D02*
X155757142Y-92067857D01*
X155185714Y-91889285D02*
X154721428Y-91889285D01*
X154971428Y-92175000D01*
X154864285Y-92175000D01*
X154792857Y-92210714D01*
X154757142Y-92246428D01*
X154721428Y-92317857D01*
X154721428Y-92496428D01*
X154757142Y-92567857D01*
X154792857Y-92603571D01*
X154864285Y-92639285D01*
X155078571Y-92639285D01*
X155150000Y-92603571D01*
X155185714Y-92567857D01*
X155003571Y-94225000D02*
X155075000Y-94189285D01*
X155182142Y-94189285D01*
X155289285Y-94225000D01*
X155360714Y-94296428D01*
X155396428Y-94367857D01*
X155432142Y-94510714D01*
X155432142Y-94617857D01*
X155396428Y-94760714D01*
X155360714Y-94832142D01*
X155289285Y-94903571D01*
X155182142Y-94939285D01*
X155110714Y-94939285D01*
X155003571Y-94903571D01*
X154967857Y-94867857D01*
X154967857Y-94617857D01*
X155110714Y-94617857D01*
X145575000Y-99271428D02*
X145610714Y-99342857D01*
X145610714Y-99450000D01*
X145575000Y-99557142D01*
X145503571Y-99628571D01*
X145432142Y-99664285D01*
X145289285Y-99700000D01*
X145182142Y-99700000D01*
X145039285Y-99664285D01*
X144967857Y-99628571D01*
X144896428Y-99557142D01*
X144860714Y-99450000D01*
X144860714Y-99378571D01*
X144896428Y-99271428D01*
X144932142Y-99235714D01*
X145182142Y-99235714D01*
X145182142Y-99378571D01*
X144860714Y-98914285D02*
X145610714Y-98914285D01*
X144860714Y-98485714D01*
X145610714Y-98485714D01*
X144860714Y-98128571D02*
X145610714Y-98128571D01*
X145610714Y-97950000D01*
X145575000Y-97842857D01*
X145503571Y-97771428D01*
X145432142Y-97735714D01*
X145289285Y-97700000D01*
X145182142Y-97700000D01*
X145039285Y-97735714D01*
X144967857Y-97771428D01*
X144896428Y-97842857D01*
X144860714Y-97950000D01*
X144860714Y-98128571D01*
X145146428Y-97042857D02*
X145146428Y-96471428D01*
X144860714Y-96757142D02*
X145432142Y-96757142D01*
X145610714Y-96185714D02*
X145610714Y-95721428D01*
X145325000Y-95971428D01*
X145325000Y-95864285D01*
X145289285Y-95792857D01*
X145253571Y-95757142D01*
X145182142Y-95721428D01*
X145003571Y-95721428D01*
X144932142Y-95757142D01*
X144896428Y-95792857D01*
X144860714Y-95864285D01*
X144860714Y-96078571D01*
X144896428Y-96150000D01*
X144932142Y-96185714D01*
X154850000Y-102646428D02*
X155100000Y-102646428D01*
X155100000Y-103039285D02*
X155100000Y-102289285D01*
X154742857Y-102289285D01*
X154528571Y-102289285D02*
X154028571Y-102289285D01*
X154350000Y-103039285D01*
X154850000Y-101246428D02*
X155100000Y-101246428D01*
X155100000Y-101639285D02*
X155100000Y-100889285D01*
X154742857Y-100889285D01*
X154135714Y-100889285D02*
X154278571Y-100889285D01*
X154350000Y-100925000D01*
X154385714Y-100960714D01*
X154457142Y-101067857D01*
X154492857Y-101210714D01*
X154492857Y-101496428D01*
X154457142Y-101567857D01*
X154421428Y-101603571D01*
X154350000Y-101639285D01*
X154207142Y-101639285D01*
X154135714Y-101603571D01*
X154100000Y-101567857D01*
X154064285Y-101496428D01*
X154064285Y-101317857D01*
X154100000Y-101246428D01*
X154135714Y-101210714D01*
X154207142Y-101175000D01*
X154350000Y-101175000D01*
X154421428Y-101210714D01*
X154457142Y-101246428D01*
X154492857Y-101317857D01*
X154850000Y-98746428D02*
X155100000Y-98746428D01*
X155100000Y-99139285D02*
X155100000Y-98389285D01*
X154742857Y-98389285D01*
X154100000Y-98389285D02*
X154457142Y-98389285D01*
X154492857Y-98746428D01*
X154457142Y-98710714D01*
X154385714Y-98675000D01*
X154207142Y-98675000D01*
X154135714Y-98710714D01*
X154100000Y-98746428D01*
X154064285Y-98817857D01*
X154064285Y-98996428D01*
X154100000Y-99067857D01*
X154135714Y-99103571D01*
X154207142Y-99139285D01*
X154385714Y-99139285D01*
X154457142Y-99103571D01*
X154492857Y-99067857D01*
X154850000Y-96646428D02*
X155100000Y-96646428D01*
X155100000Y-97039285D02*
X155100000Y-96289285D01*
X154742857Y-96289285D01*
X154135714Y-96539285D02*
X154135714Y-97039285D01*
X154314285Y-96253571D02*
X154492857Y-96789285D01*
X154028571Y-96789285D01*
X155742857Y-107253571D02*
X155171428Y-107253571D01*
X155457142Y-107539285D02*
X155457142Y-106967857D01*
X154457142Y-106789285D02*
X154814285Y-106789285D01*
X154850000Y-107146428D01*
X154814285Y-107110714D01*
X154742857Y-107075000D01*
X154564285Y-107075000D01*
X154492857Y-107110714D01*
X154457142Y-107146428D01*
X154421428Y-107217857D01*
X154421428Y-107396428D01*
X154457142Y-107467857D01*
X154492857Y-107503571D01*
X154564285Y-107539285D01*
X154742857Y-107539285D01*
X154814285Y-107503571D01*
X154850000Y-107467857D01*
X155271428Y-109425000D02*
X154914285Y-109425000D01*
X155342857Y-109639285D02*
X155092857Y-108889285D01*
X154842857Y-109639285D01*
X154592857Y-109639285D02*
X154592857Y-108889285D01*
X154164285Y-109639285D01*
X154164285Y-108889285D01*
X144860714Y-109621428D02*
X145610714Y-109621428D01*
X144860714Y-109192857D01*
X145610714Y-109192857D01*
X144860714Y-108835714D02*
X145610714Y-108835714D01*
X145075000Y-108585714D01*
X145610714Y-108335714D01*
X144860714Y-108335714D01*
X144860714Y-107978571D02*
X145610714Y-107978571D01*
X144860714Y-106810714D02*
X145217857Y-107060714D01*
X144860714Y-107239285D02*
X145610714Y-107239285D01*
X145610714Y-106953571D01*
X145575000Y-106882142D01*
X145539285Y-106846428D01*
X145467857Y-106810714D01*
X145360714Y-106810714D01*
X145289285Y-106846428D01*
X145253571Y-106882142D01*
X145217857Y-106953571D01*
X145217857Y-107239285D01*
X144896428Y-106525000D02*
X144860714Y-106417857D01*
X144860714Y-106239285D01*
X144896428Y-106167857D01*
X144932142Y-106132142D01*
X145003571Y-106096428D01*
X145075000Y-106096428D01*
X145146428Y-106132142D01*
X145182142Y-106167857D01*
X145217857Y-106239285D01*
X145253571Y-106382142D01*
X145289285Y-106453571D01*
X145325000Y-106489285D01*
X145396428Y-106525000D01*
X145467857Y-106525000D01*
X145539285Y-106489285D01*
X145575000Y-106453571D01*
X145610714Y-106382142D01*
X145610714Y-106203571D01*
X145575000Y-106096428D01*
X145610714Y-105882142D02*
X145610714Y-105453571D01*
X144860714Y-105667857D02*
X145610714Y-105667857D01*
X144896428Y-104817857D02*
X144860714Y-104710714D01*
X144860714Y-104532142D01*
X144896428Y-104460714D01*
X144932142Y-104425000D01*
X145003571Y-104389285D01*
X145075000Y-104389285D01*
X145146428Y-104425000D01*
X145182142Y-104460714D01*
X145217857Y-104532142D01*
X145253571Y-104675000D01*
X145289285Y-104746428D01*
X145325000Y-104782142D01*
X145396428Y-104817857D01*
X145467857Y-104817857D01*
X145539285Y-104782142D01*
X145575000Y-104746428D01*
X145610714Y-104675000D01*
X145610714Y-104496428D01*
X145575000Y-104389285D01*
X145610714Y-104139285D02*
X144860714Y-103960714D01*
X145396428Y-103817857D01*
X144860714Y-103675000D01*
X145610714Y-103496428D01*
X144932142Y-102782142D02*
X144896428Y-102817857D01*
X144860714Y-102925000D01*
X144860714Y-102996428D01*
X144896428Y-103103571D01*
X144967857Y-103175000D01*
X145039285Y-103210714D01*
X145182142Y-103246428D01*
X145289285Y-103246428D01*
X145432142Y-103210714D01*
X145503571Y-103175000D01*
X145575000Y-103103571D01*
X145610714Y-102996428D01*
X145610714Y-102925000D01*
X145575000Y-102817857D01*
X145539285Y-102782142D01*
X144896428Y-102317857D02*
X144860714Y-102210714D01*
X144860714Y-102032142D01*
X144896428Y-101960714D01*
X144932142Y-101925000D01*
X145003571Y-101889285D01*
X145075000Y-101889285D01*
X145146428Y-101925000D01*
X145182142Y-101960714D01*
X145217857Y-102032142D01*
X145253571Y-102175000D01*
X145289285Y-102246428D01*
X145325000Y-102282142D01*
X145396428Y-102317857D01*
X145467857Y-102317857D01*
X145539285Y-102282142D01*
X145575000Y-102246428D01*
X145610714Y-102175000D01*
X145610714Y-101996428D01*
X145575000Y-101889285D01*
X145610714Y-101639285D02*
X144860714Y-101460714D01*
X145396428Y-101317857D01*
X144860714Y-101175000D01*
X145610714Y-100996428D01*
X144860714Y-100710714D02*
X145610714Y-100710714D01*
X145610714Y-100532142D01*
X145575000Y-100425000D01*
X145503571Y-100353571D01*
X145432142Y-100317857D01*
X145289285Y-100282142D01*
X145182142Y-100282142D01*
X145039285Y-100317857D01*
X144967857Y-100353571D01*
X144896428Y-100425000D01*
X144860714Y-100532142D01*
X144860714Y-100710714D01*
D12*
X152725000Y-90535000D02*
X154400000Y-90535000D01*
X152725000Y-90275000D02*
X152725000Y-90535000D01*
X150000000Y-90275000D02*
X152725000Y-90275000D01*
X147275000Y-90275000D02*
X147275000Y-90535000D01*
X150000000Y-90275000D02*
X147275000Y-90275000D01*
X152725000Y-95725000D02*
X152725000Y-95465000D01*
X150000000Y-95725000D02*
X152725000Y-95725000D01*
X147275000Y-95725000D02*
X147275000Y-95465000D01*
X150000000Y-95725000D02*
X147275000Y-95725000D01*
X148800000Y-105550000D02*
X150800000Y-105550000D01*
X148800000Y-104650000D02*
X150800000Y-104650000D01*
X154500000Y-105550000D02*
X152500000Y-105550000D01*
X154500000Y-106450000D02*
X152500000Y-106450000D01*
X152610000Y-102135000D02*
X152610000Y-102610000D01*
X147390000Y-97390000D02*
X147865000Y-97390000D01*
X147390000Y-97865000D02*
X147390000Y-97390000D01*
X147390000Y-102610000D02*
X147865000Y-102610000D01*
X147390000Y-102135000D02*
X147390000Y-102610000D01*
X152610000Y-97390000D02*
X152135000Y-97390000D01*
X152610000Y-97865000D02*
X152610000Y-97390000D01*
D11*
X150761904Y-90852380D02*
X150761904Y-91661904D01*
X150714285Y-91757142D01*
X150666666Y-91804761D01*
X150571428Y-91852380D01*
X150380952Y-91852380D01*
X150285714Y-91804761D01*
X150238095Y-91757142D01*
X150190476Y-91661904D01*
X150190476Y-90852380D01*
X149761904Y-90947619D02*
X149714285Y-90900000D01*
X149619047Y-90852380D01*
X149380952Y-90852380D01*
X149285714Y-90900000D01*
X149238095Y-90947619D01*
X149190476Y-91042857D01*
X149190476Y-91138095D01*
X149238095Y-91280952D01*
X149809523Y-91852380D01*
X149190476Y-91852380D01*
M02*
