M48
; DRILL file {KiCad 5.99.0-unknown-c3175b4~86~ubuntu16.04.1} date Mon 16 Mar 2020 03:04:54 AM UTC
; FORMAT={-:-/ absolute / inch / decimal}
; #@! TF.CreationDate,2020-03-16T03:04:54+00:00
; #@! TF.GenerationSoftware,Kicad,Pcbnew,5.99.0-unknown-c3175b4~86~ubuntu16.04.1
FMAT,2
INCH
T1C0.0100
T2C0.0197
T3C0.0394
T4C0.0197
%
G90
G05
T1
X5.7047Y-4.0709
X5.7047Y-4.1142
X5.7047Y-4.1969
X5.7323Y-3.8819
X5.757Y-3.9914
X5.7677Y-3.811
X5.7734Y-3.9094
X5.7756Y-4.2047
X5.7992Y-3.8425
X5.8031Y-4.0354
X5.8031Y-4.0748
X5.8189Y-3.7913
X5.8228Y-3.6614
X5.8268Y-4.126
X5.8268Y-4.1732
X5.8465Y-3.7913
X5.874Y-4.0669
X5.8858Y-3.7913
X5.9173Y-4.0709
X5.9252Y-3.6614
X5.9368Y-3.8071
X5.937Y-3.8819
X5.937Y-4.0945
X5.9646Y-3.7008
X5.9843Y-4.1496
X5.9961Y-3.7283
X6.0079Y-4.0394
X6.0157Y-3.8386
X6.0376Y-3.8654
X6.063Y-3.7835
T3
X5.6555Y-3.637
X5.6555Y-3.737
X5.6555Y-3.837
X5.6555Y-3.937
X5.6555Y-4.037
X5.6555Y-4.137
X5.6555Y-4.237
X6.1555Y-3.637
X6.1555Y-3.737
X6.1555Y-3.837
X6.1555Y-3.937
X6.1555Y-4.037
X6.1555Y-4.137
X6.1555Y-4.237
T4
X5.7756Y-4.2559
X6.0354Y-4.2559
T2
G00X5.7756Y-4.2421
M15
G01X5.7756Y-4.2697
M16
G05
G00X6.0354Y-4.2421
M15
G01X6.0354Y-4.2697
M16
G05
T0
M30
