G04 #@! TF.GenerationSoftware,KiCad,Pcbnew,5.99.0-unknown-c3175b4~86~ubuntu16.04.1*
G04 #@! TF.CreationDate,2020-03-16T03:04:42+00:00*
G04 #@! TF.ProjectId,kuiick,6b756969-636b-42e6-9b69-6361645f7063,rev?*
G04 #@! TF.SameCoordinates,Original*
G04 #@! TF.FileFunction,Copper,L2,Bot*
G04 #@! TF.FilePolarity,Positive*
%FSLAX46Y46*%
G04 Gerber Fmt 4.6, Leading zero omitted, Abs format (unit mm)*
G04 Created by KiCad (PCBNEW 5.99.0-unknown-c3175b4~86~ubuntu16.04.1) date 2020-03-16 03:04:42*
%MOMM*%
%LPD*%
G04 APERTURE LIST*
%ADD10C,1.700000*%
%ADD11O,1.700000X1.700000*%
%ADD12C,0.100000*%
%ADD13C,0.600000*%
%ADD14C,0.700000*%
%ADD15O,0.900000X1.800000*%
%ADD16C,0.400000*%
%ADD17C,0.250000*%
%ADD18C,3.450000*%
%ADD19C,0.508000*%
%ADD20C,0.150000*%
%ADD21C,0.250000*%
%ADD22C,0.127000*%
%ADD23C,0.300000*%
%ADD24C,0.500000*%
%ADD25C,0.200000*%
%ADD26C,0.254000*%
G04 APERTURE END LIST*
D10*
X156350000Y-107620000D03*
D11*
X156350000Y-105080000D03*
X156350000Y-102540000D03*
X156350000Y-100000000D03*
X156350000Y-97460000D03*
X156350000Y-94920000D03*
X156350000Y-92380000D03*
D10*
X143650000Y-107620000D03*
D11*
X143650000Y-105080000D03*
X143650000Y-102540000D03*
X143650000Y-100000000D03*
X143650000Y-97460000D03*
X143650000Y-94920000D03*
X143650000Y-92380000D03*
D12*
G36*
X147107403Y-91206418D02*
G01*
X147156066Y-91238934D01*
X147188582Y-91287597D01*
X147200000Y-91345000D01*
X147200000Y-91645000D01*
X147188582Y-91702403D01*
X147156066Y-91751066D01*
X147107403Y-91783582D01*
X147050000Y-91795000D01*
X145750000Y-91795000D01*
X145692597Y-91783582D01*
X145643934Y-91751066D01*
X145611418Y-91702403D01*
X145600000Y-91645000D01*
X145600000Y-91345000D01*
X145611418Y-91287597D01*
X145643934Y-91238934D01*
X145692597Y-91206418D01*
X145750000Y-91195000D01*
X147050000Y-91195000D01*
X147107403Y-91206418D01*
X147107403Y-91206418D01*
G37*
D13*
X146400000Y-91495000D03*
D12*
G36*
X147107403Y-92476418D02*
G01*
X147156066Y-92508934D01*
X147188582Y-92557597D01*
X147200000Y-92615000D01*
X147200000Y-92915000D01*
X147188582Y-92972403D01*
X147156066Y-93021066D01*
X147107403Y-93053582D01*
X147050000Y-93065000D01*
X145750000Y-93065000D01*
X145692597Y-93053582D01*
X145643934Y-93021066D01*
X145611418Y-92972403D01*
X145600000Y-92915000D01*
X145600000Y-92615000D01*
X145611418Y-92557597D01*
X145643934Y-92508934D01*
X145692597Y-92476418D01*
X145750000Y-92465000D01*
X147050000Y-92465000D01*
X147107403Y-92476418D01*
X147107403Y-92476418D01*
G37*
D13*
X146400000Y-92765000D03*
D12*
G36*
X147107403Y-93746418D02*
G01*
X147156066Y-93778934D01*
X147188582Y-93827597D01*
X147200000Y-93885000D01*
X147200000Y-94185000D01*
X147188582Y-94242403D01*
X147156066Y-94291066D01*
X147107403Y-94323582D01*
X147050000Y-94335000D01*
X145750000Y-94335000D01*
X145692597Y-94323582D01*
X145643934Y-94291066D01*
X145611418Y-94242403D01*
X145600000Y-94185000D01*
X145600000Y-93885000D01*
X145611418Y-93827597D01*
X145643934Y-93778934D01*
X145692597Y-93746418D01*
X145750000Y-93735000D01*
X147050000Y-93735000D01*
X147107403Y-93746418D01*
X147107403Y-93746418D01*
G37*
D13*
X146400000Y-94035000D03*
D12*
G36*
X147107403Y-95016418D02*
G01*
X147156066Y-95048934D01*
X147188582Y-95097597D01*
X147200000Y-95155000D01*
X147200000Y-95455000D01*
X147188582Y-95512403D01*
X147156066Y-95561066D01*
X147107403Y-95593582D01*
X147050000Y-95605000D01*
X145750000Y-95605000D01*
X145692597Y-95593582D01*
X145643934Y-95561066D01*
X145611418Y-95512403D01*
X145600000Y-95455000D01*
X145600000Y-95155000D01*
X145611418Y-95097597D01*
X145643934Y-95048934D01*
X145692597Y-95016418D01*
X145750000Y-95005000D01*
X147050000Y-95005000D01*
X147107403Y-95016418D01*
X147107403Y-95016418D01*
G37*
D13*
X146400000Y-95305000D03*
D12*
G36*
X154307403Y-95016418D02*
G01*
X154356066Y-95048934D01*
X154388582Y-95097597D01*
X154400000Y-95155000D01*
X154400000Y-95455000D01*
X154388582Y-95512403D01*
X154356066Y-95561066D01*
X154307403Y-95593582D01*
X154250000Y-95605000D01*
X152950000Y-95605000D01*
X152892597Y-95593582D01*
X152843934Y-95561066D01*
X152811418Y-95512403D01*
X152800000Y-95455000D01*
X152800000Y-95155000D01*
X152811418Y-95097597D01*
X152843934Y-95048934D01*
X152892597Y-95016418D01*
X152950000Y-95005000D01*
X154250000Y-95005000D01*
X154307403Y-95016418D01*
X154307403Y-95016418D01*
G37*
D13*
X153600000Y-95305000D03*
D12*
G36*
X154307403Y-93746418D02*
G01*
X154356066Y-93778934D01*
X154388582Y-93827597D01*
X154400000Y-93885000D01*
X154400000Y-94185000D01*
X154388582Y-94242403D01*
X154356066Y-94291066D01*
X154307403Y-94323582D01*
X154250000Y-94335000D01*
X152950000Y-94335000D01*
X152892597Y-94323582D01*
X152843934Y-94291066D01*
X152811418Y-94242403D01*
X152800000Y-94185000D01*
X152800000Y-93885000D01*
X152811418Y-93827597D01*
X152843934Y-93778934D01*
X152892597Y-93746418D01*
X152950000Y-93735000D01*
X154250000Y-93735000D01*
X154307403Y-93746418D01*
X154307403Y-93746418D01*
G37*
D13*
X153600000Y-94035000D03*
D12*
G36*
X154307403Y-92476418D02*
G01*
X154356066Y-92508934D01*
X154388582Y-92557597D01*
X154400000Y-92615000D01*
X154400000Y-92915000D01*
X154388582Y-92972403D01*
X154356066Y-93021066D01*
X154307403Y-93053582D01*
X154250000Y-93065000D01*
X152950000Y-93065000D01*
X152892597Y-93053582D01*
X152843934Y-93021066D01*
X152811418Y-92972403D01*
X152800000Y-92915000D01*
X152800000Y-92615000D01*
X152811418Y-92557597D01*
X152843934Y-92508934D01*
X152892597Y-92476418D01*
X152950000Y-92465000D01*
X154250000Y-92465000D01*
X154307403Y-92476418D01*
X154307403Y-92476418D01*
G37*
D13*
X153600000Y-92765000D03*
D12*
G36*
X154307403Y-91206418D02*
G01*
X154356066Y-91238934D01*
X154388582Y-91287597D01*
X154400000Y-91345000D01*
X154400000Y-91645000D01*
X154388582Y-91702403D01*
X154356066Y-91751066D01*
X154307403Y-91783582D01*
X154250000Y-91795000D01*
X152950000Y-91795000D01*
X152892597Y-91783582D01*
X152843934Y-91751066D01*
X152811418Y-91702403D01*
X152800000Y-91645000D01*
X152800000Y-91345000D01*
X152811418Y-91287597D01*
X152843934Y-91238934D01*
X152892597Y-91206418D01*
X152950000Y-91195000D01*
X154250000Y-91195000D01*
X154307403Y-91206418D01*
X154307403Y-91206418D01*
G37*
D13*
X153600000Y-91495000D03*
D12*
G36*
X149891970Y-106263321D02*
G01*
X149948744Y-106301256D01*
X149986679Y-106358030D01*
X150000000Y-106425000D01*
X150000000Y-106775000D01*
X149986679Y-106841970D01*
X149948744Y-106898744D01*
X149891970Y-106936679D01*
X149825000Y-106950000D01*
X149375000Y-106950000D01*
X149308030Y-106936679D01*
X149251256Y-106898744D01*
X149213321Y-106841970D01*
X149200000Y-106775000D01*
X149200000Y-106425000D01*
X149213321Y-106358030D01*
X149251256Y-106301256D01*
X149308030Y-106263321D01*
X149375000Y-106250000D01*
X149825000Y-106250000D01*
X149891970Y-106263321D01*
X149891970Y-106263321D01*
G37*
D14*
X149600000Y-106600000D03*
D12*
G36*
X149891970Y-104863321D02*
G01*
X149948744Y-104901256D01*
X149986679Y-104958030D01*
X150000000Y-105025000D01*
X150000000Y-105375000D01*
X149986679Y-105441970D01*
X149948744Y-105498744D01*
X149891970Y-105536679D01*
X149825000Y-105550000D01*
X149375000Y-105550000D01*
X149308030Y-105536679D01*
X149251256Y-105498744D01*
X149213321Y-105441970D01*
X149200000Y-105375000D01*
X149200000Y-105025000D01*
X149213321Y-104958030D01*
X149251256Y-104901256D01*
X149308030Y-104863321D01*
X149375000Y-104850000D01*
X149825000Y-104850000D01*
X149891970Y-104863321D01*
X149891970Y-104863321D01*
G37*
D14*
X149600000Y-105200000D03*
D15*
X153300000Y-108100000D03*
X146700000Y-108100000D03*
D12*
G36*
X149038268Y-103857612D02*
G01*
X149070711Y-103879289D01*
X149092388Y-103911732D01*
X149100000Y-103950000D01*
X149100000Y-104250000D01*
X149092388Y-104288268D01*
X149070711Y-104320711D01*
X149038268Y-104342388D01*
X149000000Y-104350000D01*
X148800000Y-104350000D01*
X148761732Y-104342388D01*
X148729289Y-104320711D01*
X148707612Y-104288268D01*
X148700000Y-104250000D01*
X148700000Y-103950000D01*
X148707612Y-103911732D01*
X148729289Y-103879289D01*
X148761732Y-103857612D01*
X148800000Y-103850000D01*
X149000000Y-103850000D01*
X149038268Y-103857612D01*
X149038268Y-103857612D01*
G37*
D16*
X148900000Y-104100000D03*
D12*
G36*
X148238268Y-103857612D02*
G01*
X148270711Y-103879289D01*
X148292388Y-103911732D01*
X148300000Y-103950000D01*
X148300000Y-104250000D01*
X148292388Y-104288268D01*
X148270711Y-104320711D01*
X148238268Y-104342388D01*
X148200000Y-104350000D01*
X148000000Y-104350000D01*
X147961732Y-104342388D01*
X147929289Y-104320711D01*
X147907612Y-104288268D01*
X147900000Y-104250000D01*
X147900000Y-103950000D01*
X147907612Y-103911732D01*
X147929289Y-103879289D01*
X147961732Y-103857612D01*
X148000000Y-103850000D01*
X148200000Y-103850000D01*
X148238268Y-103857612D01*
X148238268Y-103857612D01*
G37*
D16*
X148100000Y-104100000D03*
D12*
G36*
X146588268Y-103207612D02*
G01*
X146620711Y-103229289D01*
X146642388Y-103261732D01*
X146650000Y-103300000D01*
X146650000Y-103500000D01*
X146642388Y-103538268D01*
X146620711Y-103570711D01*
X146588268Y-103592388D01*
X146550000Y-103600000D01*
X146250000Y-103600000D01*
X146211732Y-103592388D01*
X146179289Y-103570711D01*
X146157612Y-103538268D01*
X146150000Y-103500000D01*
X146150000Y-103300000D01*
X146157612Y-103261732D01*
X146179289Y-103229289D01*
X146211732Y-103207612D01*
X146250000Y-103200000D01*
X146550000Y-103200000D01*
X146588268Y-103207612D01*
X146588268Y-103207612D01*
G37*
D16*
X146400000Y-103400000D03*
D12*
G36*
X146588268Y-102407612D02*
G01*
X146620711Y-102429289D01*
X146642388Y-102461732D01*
X146650000Y-102500000D01*
X146650000Y-102700000D01*
X146642388Y-102738268D01*
X146620711Y-102770711D01*
X146588268Y-102792388D01*
X146550000Y-102800000D01*
X146250000Y-102800000D01*
X146211732Y-102792388D01*
X146179289Y-102770711D01*
X146157612Y-102738268D01*
X146150000Y-102700000D01*
X146150000Y-102500000D01*
X146157612Y-102461732D01*
X146179289Y-102429289D01*
X146211732Y-102407612D01*
X146250000Y-102400000D01*
X146550000Y-102400000D01*
X146588268Y-102407612D01*
X146588268Y-102407612D01*
G37*
D16*
X146400000Y-102600000D03*
D12*
G36*
X146488268Y-98407612D02*
G01*
X146520711Y-98429289D01*
X146542388Y-98461732D01*
X146550000Y-98500000D01*
X146550000Y-98700000D01*
X146542388Y-98738268D01*
X146520711Y-98770711D01*
X146488268Y-98792388D01*
X146450000Y-98800000D01*
X146150000Y-98800000D01*
X146111732Y-98792388D01*
X146079289Y-98770711D01*
X146057612Y-98738268D01*
X146050000Y-98700000D01*
X146050000Y-98500000D01*
X146057612Y-98461732D01*
X146079289Y-98429289D01*
X146111732Y-98407612D01*
X146150000Y-98400000D01*
X146450000Y-98400000D01*
X146488268Y-98407612D01*
X146488268Y-98407612D01*
G37*
D16*
X146300000Y-98600000D03*
D12*
G36*
X146488268Y-97607612D02*
G01*
X146520711Y-97629289D01*
X146542388Y-97661732D01*
X146550000Y-97700000D01*
X146550000Y-97900000D01*
X146542388Y-97938268D01*
X146520711Y-97970711D01*
X146488268Y-97992388D01*
X146450000Y-98000000D01*
X146150000Y-98000000D01*
X146111732Y-97992388D01*
X146079289Y-97970711D01*
X146057612Y-97938268D01*
X146050000Y-97900000D01*
X146050000Y-97700000D01*
X146057612Y-97661732D01*
X146079289Y-97629289D01*
X146111732Y-97607612D01*
X146150000Y-97600000D01*
X146450000Y-97600000D01*
X146488268Y-97607612D01*
X146488268Y-97607612D01*
G37*
D16*
X146300000Y-97800000D03*
D12*
G36*
X153041970Y-105613321D02*
G01*
X153098744Y-105651256D01*
X153136679Y-105708030D01*
X153150000Y-105775000D01*
X153150000Y-106225000D01*
X153136679Y-106291970D01*
X153098744Y-106348744D01*
X153041970Y-106386679D01*
X152975000Y-106400000D01*
X152625000Y-106400000D01*
X152558030Y-106386679D01*
X152501256Y-106348744D01*
X152463321Y-106291970D01*
X152450000Y-106225000D01*
X152450000Y-105775000D01*
X152463321Y-105708030D01*
X152501256Y-105651256D01*
X152558030Y-105613321D01*
X152625000Y-105600000D01*
X152975000Y-105600000D01*
X153041970Y-105613321D01*
X153041970Y-105613321D01*
G37*
D14*
X152800000Y-106000000D03*
D12*
G36*
X154441970Y-105613321D02*
G01*
X154498744Y-105651256D01*
X154536679Y-105708030D01*
X154550000Y-105775000D01*
X154550000Y-106225000D01*
X154536679Y-106291970D01*
X154498744Y-106348744D01*
X154441970Y-106386679D01*
X154375000Y-106400000D01*
X154025000Y-106400000D01*
X153958030Y-106386679D01*
X153901256Y-106348744D01*
X153863321Y-106291970D01*
X153850000Y-106225000D01*
X153850000Y-105775000D01*
X153863321Y-105708030D01*
X153901256Y-105651256D01*
X153958030Y-105613321D01*
X154025000Y-105600000D01*
X154375000Y-105600000D01*
X154441970Y-105613321D01*
X154441970Y-105613321D01*
G37*
D14*
X154200000Y-106000000D03*
D12*
G36*
X152836418Y-101629758D02*
G01*
X152856694Y-101643306D01*
X152870242Y-101663582D01*
X152875000Y-101687500D01*
X152875000Y-101812500D01*
X152870242Y-101836418D01*
X152856694Y-101856694D01*
X152836418Y-101870242D01*
X152812500Y-101875000D01*
X152062500Y-101875000D01*
X152038582Y-101870242D01*
X152018306Y-101856694D01*
X152004758Y-101836418D01*
X152000000Y-101812500D01*
X152000000Y-101687500D01*
X152004758Y-101663582D01*
X152018306Y-101643306D01*
X152038582Y-101629758D01*
X152062500Y-101625000D01*
X152812500Y-101625000D01*
X152836418Y-101629758D01*
X152836418Y-101629758D01*
G37*
D17*
X152437500Y-101750000D03*
D12*
G36*
X152836418Y-101129758D02*
G01*
X152856694Y-101143306D01*
X152870242Y-101163582D01*
X152875000Y-101187500D01*
X152875000Y-101312500D01*
X152870242Y-101336418D01*
X152856694Y-101356694D01*
X152836418Y-101370242D01*
X152812500Y-101375000D01*
X152062500Y-101375000D01*
X152038582Y-101370242D01*
X152018306Y-101356694D01*
X152004758Y-101336418D01*
X152000000Y-101312500D01*
X152000000Y-101187500D01*
X152004758Y-101163582D01*
X152018306Y-101143306D01*
X152038582Y-101129758D01*
X152062500Y-101125000D01*
X152812500Y-101125000D01*
X152836418Y-101129758D01*
X152836418Y-101129758D01*
G37*
D17*
X152437500Y-101250000D03*
D12*
G36*
X152836418Y-100629758D02*
G01*
X152856694Y-100643306D01*
X152870242Y-100663582D01*
X152875000Y-100687500D01*
X152875000Y-100812500D01*
X152870242Y-100836418D01*
X152856694Y-100856694D01*
X152836418Y-100870242D01*
X152812500Y-100875000D01*
X152062500Y-100875000D01*
X152038582Y-100870242D01*
X152018306Y-100856694D01*
X152004758Y-100836418D01*
X152000000Y-100812500D01*
X152000000Y-100687500D01*
X152004758Y-100663582D01*
X152018306Y-100643306D01*
X152038582Y-100629758D01*
X152062500Y-100625000D01*
X152812500Y-100625000D01*
X152836418Y-100629758D01*
X152836418Y-100629758D01*
G37*
D17*
X152437500Y-100750000D03*
D12*
G36*
X152836418Y-100129758D02*
G01*
X152856694Y-100143306D01*
X152870242Y-100163582D01*
X152875000Y-100187500D01*
X152875000Y-100312500D01*
X152870242Y-100336418D01*
X152856694Y-100356694D01*
X152836418Y-100370242D01*
X152812500Y-100375000D01*
X152062500Y-100375000D01*
X152038582Y-100370242D01*
X152018306Y-100356694D01*
X152004758Y-100336418D01*
X152000000Y-100312500D01*
X152000000Y-100187500D01*
X152004758Y-100163582D01*
X152018306Y-100143306D01*
X152038582Y-100129758D01*
X152062500Y-100125000D01*
X152812500Y-100125000D01*
X152836418Y-100129758D01*
X152836418Y-100129758D01*
G37*
D17*
X152437500Y-100250000D03*
D12*
G36*
X152836418Y-99629758D02*
G01*
X152856694Y-99643306D01*
X152870242Y-99663582D01*
X152875000Y-99687500D01*
X152875000Y-99812500D01*
X152870242Y-99836418D01*
X152856694Y-99856694D01*
X152836418Y-99870242D01*
X152812500Y-99875000D01*
X152062500Y-99875000D01*
X152038582Y-99870242D01*
X152018306Y-99856694D01*
X152004758Y-99836418D01*
X152000000Y-99812500D01*
X152000000Y-99687500D01*
X152004758Y-99663582D01*
X152018306Y-99643306D01*
X152038582Y-99629758D01*
X152062500Y-99625000D01*
X152812500Y-99625000D01*
X152836418Y-99629758D01*
X152836418Y-99629758D01*
G37*
D17*
X152437500Y-99750000D03*
D12*
G36*
X152836418Y-99129758D02*
G01*
X152856694Y-99143306D01*
X152870242Y-99163582D01*
X152875000Y-99187500D01*
X152875000Y-99312500D01*
X152870242Y-99336418D01*
X152856694Y-99356694D01*
X152836418Y-99370242D01*
X152812500Y-99375000D01*
X152062500Y-99375000D01*
X152038582Y-99370242D01*
X152018306Y-99356694D01*
X152004758Y-99336418D01*
X152000000Y-99312500D01*
X152000000Y-99187500D01*
X152004758Y-99163582D01*
X152018306Y-99143306D01*
X152038582Y-99129758D01*
X152062500Y-99125000D01*
X152812500Y-99125000D01*
X152836418Y-99129758D01*
X152836418Y-99129758D01*
G37*
D17*
X152437500Y-99250000D03*
D12*
G36*
X152836418Y-98629758D02*
G01*
X152856694Y-98643306D01*
X152870242Y-98663582D01*
X152875000Y-98687500D01*
X152875000Y-98812500D01*
X152870242Y-98836418D01*
X152856694Y-98856694D01*
X152836418Y-98870242D01*
X152812500Y-98875000D01*
X152062500Y-98875000D01*
X152038582Y-98870242D01*
X152018306Y-98856694D01*
X152004758Y-98836418D01*
X152000000Y-98812500D01*
X152000000Y-98687500D01*
X152004758Y-98663582D01*
X152018306Y-98643306D01*
X152038582Y-98629758D01*
X152062500Y-98625000D01*
X152812500Y-98625000D01*
X152836418Y-98629758D01*
X152836418Y-98629758D01*
G37*
D17*
X152437500Y-98750000D03*
D12*
G36*
X152836418Y-98129758D02*
G01*
X152856694Y-98143306D01*
X152870242Y-98163582D01*
X152875000Y-98187500D01*
X152875000Y-98312500D01*
X152870242Y-98336418D01*
X152856694Y-98356694D01*
X152836418Y-98370242D01*
X152812500Y-98375000D01*
X152062500Y-98375000D01*
X152038582Y-98370242D01*
X152018306Y-98356694D01*
X152004758Y-98336418D01*
X152000000Y-98312500D01*
X152000000Y-98187500D01*
X152004758Y-98163582D01*
X152018306Y-98143306D01*
X152038582Y-98129758D01*
X152062500Y-98125000D01*
X152812500Y-98125000D01*
X152836418Y-98129758D01*
X152836418Y-98129758D01*
G37*
D17*
X152437500Y-98250000D03*
D12*
G36*
X151836418Y-97129758D02*
G01*
X151856694Y-97143306D01*
X151870242Y-97163582D01*
X151875000Y-97187500D01*
X151875000Y-97937500D01*
X151870242Y-97961418D01*
X151856694Y-97981694D01*
X151836418Y-97995242D01*
X151812500Y-98000000D01*
X151687500Y-98000000D01*
X151663582Y-97995242D01*
X151643306Y-97981694D01*
X151629758Y-97961418D01*
X151625000Y-97937500D01*
X151625000Y-97187500D01*
X151629758Y-97163582D01*
X151643306Y-97143306D01*
X151663582Y-97129758D01*
X151687500Y-97125000D01*
X151812500Y-97125000D01*
X151836418Y-97129758D01*
X151836418Y-97129758D01*
G37*
D17*
X151750000Y-97562500D03*
D12*
G36*
X151336418Y-97129758D02*
G01*
X151356694Y-97143306D01*
X151370242Y-97163582D01*
X151375000Y-97187500D01*
X151375000Y-97937500D01*
X151370242Y-97961418D01*
X151356694Y-97981694D01*
X151336418Y-97995242D01*
X151312500Y-98000000D01*
X151187500Y-98000000D01*
X151163582Y-97995242D01*
X151143306Y-97981694D01*
X151129758Y-97961418D01*
X151125000Y-97937500D01*
X151125000Y-97187500D01*
X151129758Y-97163582D01*
X151143306Y-97143306D01*
X151163582Y-97129758D01*
X151187500Y-97125000D01*
X151312500Y-97125000D01*
X151336418Y-97129758D01*
X151336418Y-97129758D01*
G37*
D17*
X151250000Y-97562500D03*
D12*
G36*
X150836418Y-97129758D02*
G01*
X150856694Y-97143306D01*
X150870242Y-97163582D01*
X150875000Y-97187500D01*
X150875000Y-97937500D01*
X150870242Y-97961418D01*
X150856694Y-97981694D01*
X150836418Y-97995242D01*
X150812500Y-98000000D01*
X150687500Y-98000000D01*
X150663582Y-97995242D01*
X150643306Y-97981694D01*
X150629758Y-97961418D01*
X150625000Y-97937500D01*
X150625000Y-97187500D01*
X150629758Y-97163582D01*
X150643306Y-97143306D01*
X150663582Y-97129758D01*
X150687500Y-97125000D01*
X150812500Y-97125000D01*
X150836418Y-97129758D01*
X150836418Y-97129758D01*
G37*
D17*
X150750000Y-97562500D03*
D12*
G36*
X150336418Y-97129758D02*
G01*
X150356694Y-97143306D01*
X150370242Y-97163582D01*
X150375000Y-97187500D01*
X150375000Y-97937500D01*
X150370242Y-97961418D01*
X150356694Y-97981694D01*
X150336418Y-97995242D01*
X150312500Y-98000000D01*
X150187500Y-98000000D01*
X150163582Y-97995242D01*
X150143306Y-97981694D01*
X150129758Y-97961418D01*
X150125000Y-97937500D01*
X150125000Y-97187500D01*
X150129758Y-97163582D01*
X150143306Y-97143306D01*
X150163582Y-97129758D01*
X150187500Y-97125000D01*
X150312500Y-97125000D01*
X150336418Y-97129758D01*
X150336418Y-97129758D01*
G37*
D17*
X150250000Y-97562500D03*
D12*
G36*
X149836418Y-97129758D02*
G01*
X149856694Y-97143306D01*
X149870242Y-97163582D01*
X149875000Y-97187500D01*
X149875000Y-97937500D01*
X149870242Y-97961418D01*
X149856694Y-97981694D01*
X149836418Y-97995242D01*
X149812500Y-98000000D01*
X149687500Y-98000000D01*
X149663582Y-97995242D01*
X149643306Y-97981694D01*
X149629758Y-97961418D01*
X149625000Y-97937500D01*
X149625000Y-97187500D01*
X149629758Y-97163582D01*
X149643306Y-97143306D01*
X149663582Y-97129758D01*
X149687500Y-97125000D01*
X149812500Y-97125000D01*
X149836418Y-97129758D01*
X149836418Y-97129758D01*
G37*
D17*
X149750000Y-97562500D03*
D12*
G36*
X149336418Y-97129758D02*
G01*
X149356694Y-97143306D01*
X149370242Y-97163582D01*
X149375000Y-97187500D01*
X149375000Y-97937500D01*
X149370242Y-97961418D01*
X149356694Y-97981694D01*
X149336418Y-97995242D01*
X149312500Y-98000000D01*
X149187500Y-98000000D01*
X149163582Y-97995242D01*
X149143306Y-97981694D01*
X149129758Y-97961418D01*
X149125000Y-97937500D01*
X149125000Y-97187500D01*
X149129758Y-97163582D01*
X149143306Y-97143306D01*
X149163582Y-97129758D01*
X149187500Y-97125000D01*
X149312500Y-97125000D01*
X149336418Y-97129758D01*
X149336418Y-97129758D01*
G37*
D17*
X149250000Y-97562500D03*
D12*
G36*
X148836418Y-97129758D02*
G01*
X148856694Y-97143306D01*
X148870242Y-97163582D01*
X148875000Y-97187500D01*
X148875000Y-97937500D01*
X148870242Y-97961418D01*
X148856694Y-97981694D01*
X148836418Y-97995242D01*
X148812500Y-98000000D01*
X148687500Y-98000000D01*
X148663582Y-97995242D01*
X148643306Y-97981694D01*
X148629758Y-97961418D01*
X148625000Y-97937500D01*
X148625000Y-97187500D01*
X148629758Y-97163582D01*
X148643306Y-97143306D01*
X148663582Y-97129758D01*
X148687500Y-97125000D01*
X148812500Y-97125000D01*
X148836418Y-97129758D01*
X148836418Y-97129758D01*
G37*
D17*
X148750000Y-97562500D03*
D12*
G36*
X148336418Y-97129758D02*
G01*
X148356694Y-97143306D01*
X148370242Y-97163582D01*
X148375000Y-97187500D01*
X148375000Y-97937500D01*
X148370242Y-97961418D01*
X148356694Y-97981694D01*
X148336418Y-97995242D01*
X148312500Y-98000000D01*
X148187500Y-98000000D01*
X148163582Y-97995242D01*
X148143306Y-97981694D01*
X148129758Y-97961418D01*
X148125000Y-97937500D01*
X148125000Y-97187500D01*
X148129758Y-97163582D01*
X148143306Y-97143306D01*
X148163582Y-97129758D01*
X148187500Y-97125000D01*
X148312500Y-97125000D01*
X148336418Y-97129758D01*
X148336418Y-97129758D01*
G37*
D17*
X148250000Y-97562500D03*
D12*
G36*
X147961418Y-98129758D02*
G01*
X147981694Y-98143306D01*
X147995242Y-98163582D01*
X148000000Y-98187500D01*
X148000000Y-98312500D01*
X147995242Y-98336418D01*
X147981694Y-98356694D01*
X147961418Y-98370242D01*
X147937500Y-98375000D01*
X147187500Y-98375000D01*
X147163582Y-98370242D01*
X147143306Y-98356694D01*
X147129758Y-98336418D01*
X147125000Y-98312500D01*
X147125000Y-98187500D01*
X147129758Y-98163582D01*
X147143306Y-98143306D01*
X147163582Y-98129758D01*
X147187500Y-98125000D01*
X147937500Y-98125000D01*
X147961418Y-98129758D01*
X147961418Y-98129758D01*
G37*
D17*
X147562500Y-98250000D03*
D12*
G36*
X147961418Y-98629758D02*
G01*
X147981694Y-98643306D01*
X147995242Y-98663582D01*
X148000000Y-98687500D01*
X148000000Y-98812500D01*
X147995242Y-98836418D01*
X147981694Y-98856694D01*
X147961418Y-98870242D01*
X147937500Y-98875000D01*
X147187500Y-98875000D01*
X147163582Y-98870242D01*
X147143306Y-98856694D01*
X147129758Y-98836418D01*
X147125000Y-98812500D01*
X147125000Y-98687500D01*
X147129758Y-98663582D01*
X147143306Y-98643306D01*
X147163582Y-98629758D01*
X147187500Y-98625000D01*
X147937500Y-98625000D01*
X147961418Y-98629758D01*
X147961418Y-98629758D01*
G37*
D17*
X147562500Y-98750000D03*
D12*
G36*
X147961418Y-99129758D02*
G01*
X147981694Y-99143306D01*
X147995242Y-99163582D01*
X148000000Y-99187500D01*
X148000000Y-99312500D01*
X147995242Y-99336418D01*
X147981694Y-99356694D01*
X147961418Y-99370242D01*
X147937500Y-99375000D01*
X147187500Y-99375000D01*
X147163582Y-99370242D01*
X147143306Y-99356694D01*
X147129758Y-99336418D01*
X147125000Y-99312500D01*
X147125000Y-99187500D01*
X147129758Y-99163582D01*
X147143306Y-99143306D01*
X147163582Y-99129758D01*
X147187500Y-99125000D01*
X147937500Y-99125000D01*
X147961418Y-99129758D01*
X147961418Y-99129758D01*
G37*
D17*
X147562500Y-99250000D03*
D12*
G36*
X147961418Y-99629758D02*
G01*
X147981694Y-99643306D01*
X147995242Y-99663582D01*
X148000000Y-99687500D01*
X148000000Y-99812500D01*
X147995242Y-99836418D01*
X147981694Y-99856694D01*
X147961418Y-99870242D01*
X147937500Y-99875000D01*
X147187500Y-99875000D01*
X147163582Y-99870242D01*
X147143306Y-99856694D01*
X147129758Y-99836418D01*
X147125000Y-99812500D01*
X147125000Y-99687500D01*
X147129758Y-99663582D01*
X147143306Y-99643306D01*
X147163582Y-99629758D01*
X147187500Y-99625000D01*
X147937500Y-99625000D01*
X147961418Y-99629758D01*
X147961418Y-99629758D01*
G37*
D17*
X147562500Y-99750000D03*
D12*
G36*
X147961418Y-100129758D02*
G01*
X147981694Y-100143306D01*
X147995242Y-100163582D01*
X148000000Y-100187500D01*
X148000000Y-100312500D01*
X147995242Y-100336418D01*
X147981694Y-100356694D01*
X147961418Y-100370242D01*
X147937500Y-100375000D01*
X147187500Y-100375000D01*
X147163582Y-100370242D01*
X147143306Y-100356694D01*
X147129758Y-100336418D01*
X147125000Y-100312500D01*
X147125000Y-100187500D01*
X147129758Y-100163582D01*
X147143306Y-100143306D01*
X147163582Y-100129758D01*
X147187500Y-100125000D01*
X147937500Y-100125000D01*
X147961418Y-100129758D01*
X147961418Y-100129758D01*
G37*
D17*
X147562500Y-100250000D03*
D12*
G36*
X147961418Y-100629758D02*
G01*
X147981694Y-100643306D01*
X147995242Y-100663582D01*
X148000000Y-100687500D01*
X148000000Y-100812500D01*
X147995242Y-100836418D01*
X147981694Y-100856694D01*
X147961418Y-100870242D01*
X147937500Y-100875000D01*
X147187500Y-100875000D01*
X147163582Y-100870242D01*
X147143306Y-100856694D01*
X147129758Y-100836418D01*
X147125000Y-100812500D01*
X147125000Y-100687500D01*
X147129758Y-100663582D01*
X147143306Y-100643306D01*
X147163582Y-100629758D01*
X147187500Y-100625000D01*
X147937500Y-100625000D01*
X147961418Y-100629758D01*
X147961418Y-100629758D01*
G37*
D17*
X147562500Y-100750000D03*
D12*
G36*
X147961418Y-101129758D02*
G01*
X147981694Y-101143306D01*
X147995242Y-101163582D01*
X148000000Y-101187500D01*
X148000000Y-101312500D01*
X147995242Y-101336418D01*
X147981694Y-101356694D01*
X147961418Y-101370242D01*
X147937500Y-101375000D01*
X147187500Y-101375000D01*
X147163582Y-101370242D01*
X147143306Y-101356694D01*
X147129758Y-101336418D01*
X147125000Y-101312500D01*
X147125000Y-101187500D01*
X147129758Y-101163582D01*
X147143306Y-101143306D01*
X147163582Y-101129758D01*
X147187500Y-101125000D01*
X147937500Y-101125000D01*
X147961418Y-101129758D01*
X147961418Y-101129758D01*
G37*
D17*
X147562500Y-101250000D03*
D12*
G36*
X147961418Y-101629758D02*
G01*
X147981694Y-101643306D01*
X147995242Y-101663582D01*
X148000000Y-101687500D01*
X148000000Y-101812500D01*
X147995242Y-101836418D01*
X147981694Y-101856694D01*
X147961418Y-101870242D01*
X147937500Y-101875000D01*
X147187500Y-101875000D01*
X147163582Y-101870242D01*
X147143306Y-101856694D01*
X147129758Y-101836418D01*
X147125000Y-101812500D01*
X147125000Y-101687500D01*
X147129758Y-101663582D01*
X147143306Y-101643306D01*
X147163582Y-101629758D01*
X147187500Y-101625000D01*
X147937500Y-101625000D01*
X147961418Y-101629758D01*
X147961418Y-101629758D01*
G37*
D17*
X147562500Y-101750000D03*
D12*
G36*
X148336418Y-102004758D02*
G01*
X148356694Y-102018306D01*
X148370242Y-102038582D01*
X148375000Y-102062500D01*
X148375000Y-102812500D01*
X148370242Y-102836418D01*
X148356694Y-102856694D01*
X148336418Y-102870242D01*
X148312500Y-102875000D01*
X148187500Y-102875000D01*
X148163582Y-102870242D01*
X148143306Y-102856694D01*
X148129758Y-102836418D01*
X148125000Y-102812500D01*
X148125000Y-102062500D01*
X148129758Y-102038582D01*
X148143306Y-102018306D01*
X148163582Y-102004758D01*
X148187500Y-102000000D01*
X148312500Y-102000000D01*
X148336418Y-102004758D01*
X148336418Y-102004758D01*
G37*
D17*
X148250000Y-102437500D03*
D12*
G36*
X148836418Y-102004758D02*
G01*
X148856694Y-102018306D01*
X148870242Y-102038582D01*
X148875000Y-102062500D01*
X148875000Y-102812500D01*
X148870242Y-102836418D01*
X148856694Y-102856694D01*
X148836418Y-102870242D01*
X148812500Y-102875000D01*
X148687500Y-102875000D01*
X148663582Y-102870242D01*
X148643306Y-102856694D01*
X148629758Y-102836418D01*
X148625000Y-102812500D01*
X148625000Y-102062500D01*
X148629758Y-102038582D01*
X148643306Y-102018306D01*
X148663582Y-102004758D01*
X148687500Y-102000000D01*
X148812500Y-102000000D01*
X148836418Y-102004758D01*
X148836418Y-102004758D01*
G37*
D17*
X148750000Y-102437500D03*
D12*
G36*
X149336418Y-102004758D02*
G01*
X149356694Y-102018306D01*
X149370242Y-102038582D01*
X149375000Y-102062500D01*
X149375000Y-102812500D01*
X149370242Y-102836418D01*
X149356694Y-102856694D01*
X149336418Y-102870242D01*
X149312500Y-102875000D01*
X149187500Y-102875000D01*
X149163582Y-102870242D01*
X149143306Y-102856694D01*
X149129758Y-102836418D01*
X149125000Y-102812500D01*
X149125000Y-102062500D01*
X149129758Y-102038582D01*
X149143306Y-102018306D01*
X149163582Y-102004758D01*
X149187500Y-102000000D01*
X149312500Y-102000000D01*
X149336418Y-102004758D01*
X149336418Y-102004758D01*
G37*
D17*
X149250000Y-102437500D03*
D12*
G36*
X149836418Y-102004758D02*
G01*
X149856694Y-102018306D01*
X149870242Y-102038582D01*
X149875000Y-102062500D01*
X149875000Y-102812500D01*
X149870242Y-102836418D01*
X149856694Y-102856694D01*
X149836418Y-102870242D01*
X149812500Y-102875000D01*
X149687500Y-102875000D01*
X149663582Y-102870242D01*
X149643306Y-102856694D01*
X149629758Y-102836418D01*
X149625000Y-102812500D01*
X149625000Y-102062500D01*
X149629758Y-102038582D01*
X149643306Y-102018306D01*
X149663582Y-102004758D01*
X149687500Y-102000000D01*
X149812500Y-102000000D01*
X149836418Y-102004758D01*
X149836418Y-102004758D01*
G37*
D17*
X149750000Y-102437500D03*
D12*
G36*
X150336418Y-102004758D02*
G01*
X150356694Y-102018306D01*
X150370242Y-102038582D01*
X150375000Y-102062500D01*
X150375000Y-102812500D01*
X150370242Y-102836418D01*
X150356694Y-102856694D01*
X150336418Y-102870242D01*
X150312500Y-102875000D01*
X150187500Y-102875000D01*
X150163582Y-102870242D01*
X150143306Y-102856694D01*
X150129758Y-102836418D01*
X150125000Y-102812500D01*
X150125000Y-102062500D01*
X150129758Y-102038582D01*
X150143306Y-102018306D01*
X150163582Y-102004758D01*
X150187500Y-102000000D01*
X150312500Y-102000000D01*
X150336418Y-102004758D01*
X150336418Y-102004758D01*
G37*
D17*
X150250000Y-102437500D03*
D12*
G36*
X150836418Y-102004758D02*
G01*
X150856694Y-102018306D01*
X150870242Y-102038582D01*
X150875000Y-102062500D01*
X150875000Y-102812500D01*
X150870242Y-102836418D01*
X150856694Y-102856694D01*
X150836418Y-102870242D01*
X150812500Y-102875000D01*
X150687500Y-102875000D01*
X150663582Y-102870242D01*
X150643306Y-102856694D01*
X150629758Y-102836418D01*
X150625000Y-102812500D01*
X150625000Y-102062500D01*
X150629758Y-102038582D01*
X150643306Y-102018306D01*
X150663582Y-102004758D01*
X150687500Y-102000000D01*
X150812500Y-102000000D01*
X150836418Y-102004758D01*
X150836418Y-102004758D01*
G37*
D17*
X150750000Y-102437500D03*
D12*
G36*
X151336418Y-102004758D02*
G01*
X151356694Y-102018306D01*
X151370242Y-102038582D01*
X151375000Y-102062500D01*
X151375000Y-102812500D01*
X151370242Y-102836418D01*
X151356694Y-102856694D01*
X151336418Y-102870242D01*
X151312500Y-102875000D01*
X151187500Y-102875000D01*
X151163582Y-102870242D01*
X151143306Y-102856694D01*
X151129758Y-102836418D01*
X151125000Y-102812500D01*
X151125000Y-102062500D01*
X151129758Y-102038582D01*
X151143306Y-102018306D01*
X151163582Y-102004758D01*
X151187500Y-102000000D01*
X151312500Y-102000000D01*
X151336418Y-102004758D01*
X151336418Y-102004758D01*
G37*
D17*
X151250000Y-102437500D03*
D12*
G36*
X151836418Y-102004758D02*
G01*
X151856694Y-102018306D01*
X151870242Y-102038582D01*
X151875000Y-102062500D01*
X151875000Y-102812500D01*
X151870242Y-102836418D01*
X151856694Y-102856694D01*
X151836418Y-102870242D01*
X151812500Y-102875000D01*
X151687500Y-102875000D01*
X151663582Y-102870242D01*
X151643306Y-102856694D01*
X151629758Y-102836418D01*
X151625000Y-102812500D01*
X151625000Y-102062500D01*
X151629758Y-102038582D01*
X151643306Y-102018306D01*
X151663582Y-102004758D01*
X151687500Y-102000000D01*
X151812500Y-102000000D01*
X151836418Y-102004758D01*
X151836418Y-102004758D01*
G37*
D17*
X151750000Y-102437500D03*
D12*
G36*
X151570671Y-98294030D02*
G01*
X151651777Y-98348223D01*
X151705970Y-98429329D01*
X151725000Y-98525000D01*
X151725000Y-101475000D01*
X151705970Y-101570671D01*
X151651777Y-101651777D01*
X151570671Y-101705970D01*
X151475000Y-101725000D01*
X148525000Y-101725000D01*
X148429329Y-101705970D01*
X148348223Y-101651777D01*
X148294030Y-101570671D01*
X148275000Y-101475000D01*
X148275000Y-98525000D01*
X148294030Y-98429329D01*
X148348223Y-98348223D01*
X148429329Y-98294030D01*
X148525000Y-98275000D01*
X151475000Y-98275000D01*
X151570671Y-98294030D01*
X151570671Y-98294030D01*
G37*
D18*
X150000000Y-100000000D03*
D19*
X147900000Y-93000000D03*
X149200000Y-103300000D03*
X148000000Y-104800000D03*
X152000000Y-105400000D03*
X145600000Y-98600000D03*
X149500000Y-96300000D03*
X148500000Y-96300000D03*
X147400000Y-102500000D03*
X148000000Y-106000000D03*
X147300000Y-97600000D03*
X152800000Y-97500000D03*
X153354991Y-98181627D03*
X150795990Y-96700000D03*
X154000000Y-96100000D03*
X146645009Y-99300000D03*
X147400000Y-103500000D03*
X150800000Y-104000000D03*
X150300000Y-103400000D03*
X150800000Y-98600000D03*
X152600000Y-102600000D03*
X150500000Y-93000000D03*
X151500000Y-94000000D03*
X152300000Y-94700000D03*
X146500000Y-96800000D03*
X147800000Y-96300000D03*
X146229010Y-101381808D03*
X144900000Y-104500000D03*
X144900000Y-103400000D03*
X144900000Y-106600000D03*
X146700000Y-106800000D03*
D20*
X147428076Y-93400000D02*
X145600000Y-93400000D01*
X145600000Y-93400000D02*
X145200000Y-93800000D01*
X152200000Y-96000000D02*
X150700000Y-94500000D01*
X148528076Y-94500000D02*
X147428076Y-93400000D01*
X152437500Y-99250000D02*
X153650000Y-99250000D01*
X150700000Y-94500000D02*
X148528076Y-94500000D01*
X153650000Y-99250000D02*
X154500000Y-98400000D01*
X154500000Y-98400000D02*
X154500000Y-97271922D01*
X153228078Y-96000000D02*
X152200000Y-96000000D01*
X154500000Y-97271922D02*
X153228078Y-96000000D01*
X145200000Y-93800000D02*
X145200000Y-94600000D01*
X145200000Y-94600000D02*
X145905000Y-95305000D01*
X145905000Y-95305000D02*
X146400000Y-95305000D01*
D21*
X148200000Y-92200000D02*
X150000000Y-94000000D01*
X145500000Y-92200000D02*
X148200000Y-92200000D01*
X144900000Y-92800000D02*
X145500000Y-92200000D01*
X144900000Y-93200000D02*
X144900000Y-92800000D01*
X150000000Y-94000000D02*
X151140790Y-94000000D01*
X151140790Y-94000000D02*
X151500000Y-94000000D01*
D20*
X153809001Y-97590999D02*
X153009000Y-96790998D01*
X153455322Y-98750000D02*
X153809001Y-98396321D01*
X153809001Y-98396321D02*
X153809001Y-97590999D01*
X152437500Y-98750000D02*
X153455322Y-98750000D01*
X152090998Y-96790998D02*
X150650000Y-95350000D01*
X146935000Y-94035000D02*
X146400000Y-94035000D01*
X153009000Y-96790998D02*
X152090998Y-96790998D01*
X150650000Y-95350000D02*
X148250000Y-95350000D01*
X148250000Y-95350000D02*
X146935000Y-94035000D01*
D21*
X143650000Y-94920000D02*
X144685000Y-93885000D01*
D20*
X144685000Y-93885000D02*
X144685000Y-93415000D01*
X144685000Y-93415000D02*
X144900000Y-93200000D01*
X147665000Y-92765000D02*
X147900000Y-93000000D01*
X146400000Y-92765000D02*
X147665000Y-92765000D01*
X152100000Y-93700000D02*
X152300000Y-93900000D01*
X152300000Y-93900000D02*
X152300000Y-94340790D01*
X152100000Y-92500000D02*
X152100000Y-93700000D01*
X153105000Y-91495000D02*
X152100000Y-92500000D01*
X153600000Y-91495000D02*
X153105000Y-91495000D01*
X152300000Y-94340790D02*
X152300000Y-94700000D01*
X152888924Y-92100000D02*
X154867919Y-92100000D01*
X153600000Y-94035000D02*
X153300000Y-93735000D01*
X153300000Y-93735000D02*
X152785000Y-93735000D01*
X152785000Y-93735000D02*
X152500000Y-93450000D01*
X154867919Y-92100000D02*
X155147919Y-92380000D01*
X155147919Y-92380000D02*
X156350000Y-92380000D01*
X152500000Y-92488924D02*
X152888924Y-92100000D01*
X152500000Y-93450000D02*
X152500000Y-92488924D01*
D22*
X149250000Y-97562500D02*
X149250000Y-97450000D01*
X148859210Y-96300000D02*
X148500000Y-96300000D01*
X149750000Y-97190790D02*
X148859210Y-96300000D01*
X149750000Y-97562500D02*
X149750000Y-97190790D01*
X155060000Y-101250000D02*
X156350000Y-102540000D01*
X152437500Y-101250000D02*
X155060000Y-101250000D01*
X153020000Y-101750000D02*
X156350000Y-105080000D01*
X152437500Y-101750000D02*
X153020000Y-101750000D01*
D23*
X148125000Y-103500000D02*
X148750000Y-102875000D01*
D21*
X148750000Y-102875000D02*
X148750000Y-102437500D01*
D23*
X149250000Y-103250000D02*
X149200000Y-103300000D01*
D21*
X149250000Y-102437500D02*
X149250000Y-103250000D01*
D23*
X148900000Y-103600000D02*
X149200000Y-103300000D01*
X148900000Y-104100000D02*
X148900000Y-103600000D01*
X148000000Y-104200000D02*
X148100000Y-104100000D01*
X148000000Y-104400000D02*
X148000000Y-104200000D01*
X148000000Y-104900000D02*
X148000000Y-104400000D01*
X156350000Y-107620000D02*
X156220000Y-107620000D01*
X154730000Y-106000000D02*
X156350000Y-107620000D01*
X154200000Y-106000000D02*
X154730000Y-106000000D01*
X148187500Y-102500000D02*
X148250000Y-102437500D01*
X147400000Y-102500000D02*
X148187500Y-102500000D01*
X150000000Y-100000000D02*
X149900000Y-100000000D01*
X151250000Y-101250000D02*
X151250000Y-102437500D01*
X150000000Y-100000000D02*
X151250000Y-101250000D01*
X152000000Y-105400000D02*
X152000000Y-104000000D01*
X151250000Y-103250000D02*
X151250000Y-102437500D01*
X152000000Y-104000000D02*
X151250000Y-103250000D01*
X148000000Y-106000000D02*
X149000000Y-106000000D01*
X150900000Y-105400000D02*
X152000000Y-105400000D01*
X149600000Y-106600000D02*
X149700000Y-106600000D01*
X146450000Y-98750000D02*
X146300000Y-98600000D01*
X147562500Y-98750000D02*
X146450000Y-98750000D01*
X145500000Y-98600000D02*
X146300000Y-98600000D01*
X146750000Y-98250000D02*
X146300000Y-97800000D01*
X147562500Y-98250000D02*
X146750000Y-98250000D01*
X146300000Y-97570000D02*
X146300000Y-97800000D01*
D24*
X144535000Y-91495000D02*
X143650000Y-92380000D01*
X146400000Y-91495000D02*
X144535000Y-91495000D01*
D23*
X148300000Y-98300000D02*
X150000000Y-100000000D01*
D20*
X154165000Y-92765000D02*
X153600000Y-92765000D01*
X151750000Y-97562500D02*
X152737500Y-97562500D01*
X152737500Y-97562500D02*
X152800000Y-97500000D01*
D22*
X150250000Y-97050000D02*
X150250000Y-97562500D01*
X149500000Y-96300000D02*
X150250000Y-97050000D01*
D20*
X152437500Y-98250000D02*
X153286618Y-98250000D01*
X153286618Y-98250000D02*
X153354991Y-98181627D01*
X151250000Y-96350000D02*
X151084382Y-96184382D01*
X151250000Y-97562500D02*
X151250000Y-96350000D01*
X151084382Y-96184382D02*
X151084382Y-96173304D01*
X150757077Y-95845999D02*
X150245999Y-95845999D01*
X151084382Y-96173304D02*
X150757077Y-95845999D01*
X150645999Y-95845999D02*
X150245999Y-95845999D01*
X150750000Y-97562500D02*
X150750000Y-96745990D01*
X150750000Y-96745990D02*
X150795990Y-96700000D01*
X155000000Y-94146998D02*
X154990999Y-94155999D01*
X153600000Y-92765000D02*
X153635000Y-92800000D01*
X153650000Y-99750000D02*
X152437500Y-99750000D01*
X154990999Y-98409001D02*
X153650000Y-99750000D01*
X154100000Y-92800000D02*
X155000000Y-93700000D01*
X154990999Y-94155999D02*
X154990999Y-98409001D01*
X153635000Y-92800000D02*
X154100000Y-92800000D01*
X155000000Y-93700000D02*
X155000000Y-94146998D01*
D23*
X146500000Y-97600000D02*
X146300000Y-97800000D01*
X147300000Y-97600000D02*
X146500000Y-97600000D01*
D24*
X154000000Y-95300000D02*
X154000000Y-96100000D01*
D20*
X143650000Y-97460000D02*
X145940000Y-99750000D01*
D22*
X146695009Y-99250000D02*
X146645009Y-99300000D01*
D20*
X147437500Y-99875000D02*
X147562500Y-99750000D01*
D22*
X147562500Y-99250000D02*
X146695009Y-99250000D01*
D20*
X146065000Y-99875000D02*
X145940000Y-99750000D01*
X146525000Y-99875000D02*
X146065000Y-99875000D01*
X146275000Y-99875000D02*
X146525000Y-99875000D01*
X146525000Y-99875000D02*
X147437500Y-99875000D01*
D25*
X148250000Y-98250000D02*
X148300000Y-98300000D01*
X147562500Y-98250000D02*
X148250000Y-98250000D01*
X150000000Y-100100000D02*
X150000000Y-100000000D01*
X148250000Y-101850000D02*
X150000000Y-100100000D01*
X148250000Y-102437500D02*
X148250000Y-101850000D01*
D23*
X149750000Y-104950000D02*
X149600000Y-105100000D01*
X149600000Y-105100000D02*
X149600000Y-105200000D01*
D21*
X149750000Y-102437500D02*
X149750000Y-104950000D01*
D22*
X150800000Y-104071922D02*
X150800000Y-104000000D01*
X150750000Y-104121922D02*
X150800000Y-104071922D01*
D20*
X150800000Y-102487500D02*
X150800000Y-104000000D01*
X150750000Y-102437500D02*
X150800000Y-102487500D01*
X150300000Y-102487500D02*
X150300000Y-103400000D01*
X150250000Y-102437500D02*
X150300000Y-102487500D01*
D24*
X143650000Y-94920000D02*
X146300000Y-97570000D01*
D23*
X152600000Y-103400000D02*
X152000000Y-104000000D01*
X152600000Y-102600000D02*
X152600000Y-103400000D01*
D20*
X155500001Y-98309999D02*
X155500001Y-98699999D01*
X156350000Y-97460000D02*
X155500001Y-98309999D01*
X155500001Y-98699999D02*
X153950000Y-100250000D01*
D22*
X152437500Y-100250000D02*
X153950000Y-100250000D01*
D20*
X155147919Y-100000000D02*
X154397919Y-100750000D01*
X154397919Y-100750000D02*
X154350000Y-100750000D01*
X156350000Y-100000000D02*
X155147919Y-100000000D01*
D22*
X152437500Y-100750000D02*
X154350000Y-100750000D01*
D24*
X146400000Y-91495000D02*
X148995000Y-91495000D01*
X148995000Y-91495000D02*
X150500000Y-93000000D01*
D21*
X152800000Y-95305000D02*
X153600000Y-95305000D01*
X152159078Y-95305000D02*
X152800000Y-95305000D01*
X151500000Y-94645922D02*
X152159078Y-95305000D01*
X151500000Y-94000000D02*
X151500000Y-94645922D01*
D23*
X148000000Y-103500000D02*
X147400000Y-103500000D01*
X148125000Y-103500000D02*
X148000000Y-103500000D01*
X146500000Y-102500000D02*
X146400000Y-102600000D01*
X147400000Y-102500000D02*
X146500000Y-102500000D01*
X146500000Y-103500000D02*
X146400000Y-103400000D01*
X147400000Y-103500000D02*
X146500000Y-103500000D01*
D20*
X146750000Y-101250000D02*
X147562500Y-101250000D01*
X145500000Y-100000000D02*
X146750000Y-101250000D01*
X143650000Y-100000000D02*
X145500000Y-100000000D01*
D23*
X145874990Y-104058966D02*
X145874990Y-103125010D01*
X147816024Y-106000000D02*
X145874990Y-104058966D01*
X145874990Y-103125010D02*
X146400000Y-102600000D01*
X149500000Y-105200000D02*
X149600000Y-105200000D01*
X146400000Y-103400000D02*
X146400000Y-103982922D01*
X146400000Y-103982922D02*
X147817078Y-105400000D01*
X149300000Y-105400000D02*
X149500000Y-105200000D01*
X147817078Y-105400000D02*
X149300000Y-105400000D01*
D22*
X146859210Y-96800000D02*
X146500000Y-96800000D01*
X149250000Y-97562500D02*
X149250000Y-97125000D01*
X148925000Y-96800000D02*
X146859210Y-96800000D01*
X149250000Y-97125000D02*
X148925000Y-96800000D01*
D20*
X150245999Y-95845999D02*
X148254001Y-95845999D01*
X148053999Y-96046001D02*
X147800000Y-96300000D01*
X148254001Y-95845999D02*
X148053999Y-96046001D01*
X146532742Y-101750000D02*
X145400000Y-102882742D01*
X145400000Y-102882742D02*
X145400000Y-106870000D01*
X147562500Y-101750000D02*
X146532742Y-101750000D01*
X145400000Y-106870000D02*
X144650000Y-107620000D01*
X145070818Y-102540000D02*
X146229010Y-101381808D01*
X143650000Y-102540000D02*
X145070818Y-102540000D01*
X144650000Y-107620000D02*
X143650000Y-107620000D01*
D24*
X144900000Y-103400000D02*
X144900000Y-106600000D01*
D26*
G36*
X155221886Y-104579089D02*
G01*
X155149561Y-104787365D01*
X155115882Y-105019642D01*
X155126734Y-105254096D01*
X155181724Y-105482270D01*
X155278868Y-105695928D01*
X155414663Y-105887362D01*
X155584205Y-106049664D01*
X155781380Y-106176979D01*
X156001961Y-106265875D01*
X156306284Y-106310000D01*
X156408624Y-106310000D01*
X156583645Y-106293302D01*
X156808860Y-106227230D01*
X157017517Y-106119765D01*
X157120000Y-106039264D01*
X157120000Y-106658457D01*
X156969663Y-106551025D01*
X156756345Y-106453135D01*
X156528365Y-106397349D01*
X156293949Y-106385679D01*
X156061556Y-106418546D01*
X155939862Y-106460331D01*
X155141678Y-105662147D01*
X155112108Y-105617892D01*
X154936796Y-105500752D01*
X154844132Y-105482320D01*
X154752347Y-105360777D01*
X154575931Y-105251544D01*
X154383645Y-105215600D01*
X154013413Y-105215600D01*
X153778776Y-105270786D01*
X153610777Y-105397653D01*
X153501544Y-105574069D01*
X153496373Y-105601732D01*
X153479214Y-105528776D01*
X153352347Y-105360777D01*
X153175931Y-105251544D01*
X152983645Y-105215600D01*
X152801000Y-105215600D01*
X152801000Y-106784400D01*
X152986587Y-106784400D01*
X153221224Y-106729214D01*
X153389223Y-106602347D01*
X153498456Y-106425931D01*
X153503627Y-106398268D01*
X153520786Y-106471224D01*
X153647653Y-106639223D01*
X153824069Y-106748456D01*
X154016355Y-106784400D01*
X154386587Y-106784400D01*
X154621224Y-106729214D01*
X154671623Y-106691154D01*
X155189082Y-107208613D01*
X155137522Y-107382121D01*
X155114415Y-107615687D01*
X155135891Y-107849408D01*
X155201174Y-108074852D01*
X155307911Y-108283884D01*
X155452249Y-108468960D01*
X155628981Y-108623405D01*
X155831728Y-108741643D01*
X156053176Y-108819411D01*
X156285334Y-108853900D01*
X156519826Y-108843867D01*
X156748189Y-108789673D01*
X156809964Y-108761846D01*
X156453379Y-109118431D01*
X156447777Y-109120000D01*
X153909244Y-109120000D01*
X153921335Y-109109452D01*
X154036848Y-108945095D01*
X154109943Y-108757614D01*
X154130000Y-108598851D01*
X154130000Y-108101000D01*
X153929161Y-108101000D01*
X153929187Y-108099000D01*
X154130000Y-108099000D01*
X154130000Y-107599682D01*
X154111955Y-107450565D01*
X154040945Y-107262643D01*
X153927159Y-107097083D01*
X153777166Y-106963446D01*
X153599627Y-106869444D01*
X153301000Y-106794434D01*
X153301000Y-107464017D01*
X153299000Y-107464289D01*
X153299000Y-106796620D01*
X153008563Y-106866349D01*
X152830047Y-106958487D01*
X152678664Y-107090549D01*
X152563152Y-107254906D01*
X152490057Y-107442387D01*
X152470000Y-107601150D01*
X152470000Y-108099000D01*
X152669920Y-108099000D01*
X152669894Y-108101000D01*
X152470000Y-108101000D01*
X152470000Y-108600319D01*
X152488047Y-108749436D01*
X152559056Y-108937357D01*
X152672842Y-109102916D01*
X152692017Y-109120000D01*
X147309244Y-109120000D01*
X147321335Y-109109452D01*
X147436848Y-108945095D01*
X147509943Y-108757614D01*
X147530000Y-108598851D01*
X147530000Y-108101000D01*
X147329161Y-108101000D01*
X147329187Y-108099000D01*
X147530000Y-108099000D01*
X147530000Y-107599682D01*
X147511955Y-107450565D01*
X147440945Y-107262643D01*
X147327159Y-107097083D01*
X147177166Y-106963446D01*
X146999627Y-106869444D01*
X146701000Y-106794434D01*
X146701000Y-107464017D01*
X146699000Y-107464289D01*
X146699000Y-106796620D01*
X146408563Y-106866349D01*
X146230047Y-106958487D01*
X146078664Y-107090549D01*
X145963152Y-107254906D01*
X145890057Y-107442387D01*
X145870000Y-107601150D01*
X145870000Y-108099000D01*
X146069920Y-108099000D01*
X146069894Y-108101000D01*
X145870000Y-108101000D01*
X145870000Y-108600319D01*
X145888047Y-108749436D01*
X145959056Y-108937357D01*
X146072842Y-109102916D01*
X146092017Y-109120000D01*
X143556961Y-109120000D01*
X143551251Y-109118249D01*
X143545895Y-109117705D01*
X143190458Y-108762268D01*
X143353176Y-108819411D01*
X143585334Y-108853900D01*
X143819826Y-108843867D01*
X144048189Y-108789673D01*
X144262185Y-108693276D01*
X144454092Y-108558151D01*
X144616985Y-108389175D01*
X144744987Y-108192445D01*
X144801792Y-108052901D01*
X144839200Y-108044949D01*
X144995686Y-107931256D01*
X145014093Y-107899373D01*
X145713319Y-107200149D01*
X145781514Y-107138747D01*
X145795046Y-107097098D01*
X145834268Y-107036701D01*
X145864527Y-106845656D01*
X145855000Y-106810099D01*
X145855000Y-106601000D01*
X148815600Y-106601000D01*
X148815600Y-106786587D01*
X148870786Y-107021224D01*
X148997653Y-107189223D01*
X149174069Y-107298456D01*
X149366355Y-107334400D01*
X149599000Y-107334400D01*
X149599000Y-106601000D01*
X149601000Y-106601000D01*
X149601000Y-107334400D01*
X149836587Y-107334400D01*
X150071224Y-107279214D01*
X150239223Y-107152347D01*
X150348456Y-106975931D01*
X150384400Y-106783645D01*
X150384400Y-106601000D01*
X149601000Y-106601000D01*
X149599000Y-106601000D01*
X148815600Y-106601000D01*
X145855000Y-106601000D01*
X145855000Y-103767926D01*
X145870001Y-103790377D01*
X145870001Y-103930726D01*
X145859619Y-103982922D01*
X145900751Y-104189717D01*
X145960856Y-104279669D01*
X146017893Y-104365030D01*
X146062145Y-104394598D01*
X147405399Y-105737853D01*
X147434970Y-105782108D01*
X147610282Y-105899248D01*
X147764881Y-105930000D01*
X147764887Y-105930000D01*
X147817078Y-105940381D01*
X147869269Y-105930000D01*
X149116575Y-105930000D01*
X148960777Y-106047653D01*
X148851544Y-106224069D01*
X148815600Y-106416355D01*
X148815600Y-106599000D01*
X150384400Y-106599000D01*
X150384400Y-106413413D01*
X150329214Y-106178776D01*
X150202347Y-106010777D01*
X150186557Y-106001000D01*
X152065600Y-106001000D01*
X152065600Y-106236587D01*
X152120786Y-106471224D01*
X152247653Y-106639223D01*
X152424069Y-106748456D01*
X152616355Y-106784400D01*
X152799000Y-106784400D01*
X152799000Y-106001000D01*
X152065600Y-106001000D01*
X150186557Y-106001000D01*
X150025931Y-105901544D01*
X149998268Y-105896373D01*
X150071224Y-105879214D01*
X150220673Y-105766355D01*
X152065600Y-105766355D01*
X152065600Y-105999000D01*
X152799000Y-105999000D01*
X152799000Y-105215600D01*
X152613413Y-105215600D01*
X152378776Y-105270786D01*
X152210777Y-105397653D01*
X152101544Y-105574069D01*
X152065600Y-105766355D01*
X150220673Y-105766355D01*
X150239223Y-105752347D01*
X150348456Y-105575931D01*
X150384400Y-105383645D01*
X150384400Y-105013413D01*
X150329214Y-104778776D01*
X150255000Y-104680501D01*
X150255000Y-104336823D01*
X150386186Y-104493164D01*
X150579815Y-104604955D01*
X150800000Y-104643780D01*
X151020185Y-104604955D01*
X151213814Y-104493164D01*
X151357530Y-104321890D01*
X151433999Y-104111791D01*
X151433999Y-103888209D01*
X151357530Y-103678110D01*
X151255000Y-103555920D01*
X151255000Y-103273637D01*
X151483929Y-103228102D01*
X151500000Y-103217364D01*
X151516070Y-103228101D01*
X151676315Y-103259976D01*
X151823685Y-103259976D01*
X151983930Y-103228101D01*
X152130300Y-103130300D01*
X152228101Y-102983930D01*
X152259976Y-102823685D01*
X152259976Y-102259976D01*
X152823685Y-102259976D01*
X152889652Y-102246855D01*
X155221886Y-104579089D01*
X155221886Y-104579089D01*
G37*
X155221886Y-104579089D02*
X155149561Y-104787365D01*
X155115882Y-105019642D01*
X155126734Y-105254096D01*
X155181724Y-105482270D01*
X155278868Y-105695928D01*
X155414663Y-105887362D01*
X155584205Y-106049664D01*
X155781380Y-106176979D01*
X156001961Y-106265875D01*
X156306284Y-106310000D01*
X156408624Y-106310000D01*
X156583645Y-106293302D01*
X156808860Y-106227230D01*
X157017517Y-106119765D01*
X157120000Y-106039264D01*
X157120000Y-106658457D01*
X156969663Y-106551025D01*
X156756345Y-106453135D01*
X156528365Y-106397349D01*
X156293949Y-106385679D01*
X156061556Y-106418546D01*
X155939862Y-106460331D01*
X155141678Y-105662147D01*
X155112108Y-105617892D01*
X154936796Y-105500752D01*
X154844132Y-105482320D01*
X154752347Y-105360777D01*
X154575931Y-105251544D01*
X154383645Y-105215600D01*
X154013413Y-105215600D01*
X153778776Y-105270786D01*
X153610777Y-105397653D01*
X153501544Y-105574069D01*
X153496373Y-105601732D01*
X153479214Y-105528776D01*
X153352347Y-105360777D01*
X153175931Y-105251544D01*
X152983645Y-105215600D01*
X152801000Y-105215600D01*
X152801000Y-106784400D01*
X152986587Y-106784400D01*
X153221224Y-106729214D01*
X153389223Y-106602347D01*
X153498456Y-106425931D01*
X153503627Y-106398268D01*
X153520786Y-106471224D01*
X153647653Y-106639223D01*
X153824069Y-106748456D01*
X154016355Y-106784400D01*
X154386587Y-106784400D01*
X154621224Y-106729214D01*
X154671623Y-106691154D01*
X155189082Y-107208613D01*
X155137522Y-107382121D01*
X155114415Y-107615687D01*
X155135891Y-107849408D01*
X155201174Y-108074852D01*
X155307911Y-108283884D01*
X155452249Y-108468960D01*
X155628981Y-108623405D01*
X155831728Y-108741643D01*
X156053176Y-108819411D01*
X156285334Y-108853900D01*
X156519826Y-108843867D01*
X156748189Y-108789673D01*
X156809964Y-108761846D01*
X156453379Y-109118431D01*
X156447777Y-109120000D01*
X153909244Y-109120000D01*
X153921335Y-109109452D01*
X154036848Y-108945095D01*
X154109943Y-108757614D01*
X154130000Y-108598851D01*
X154130000Y-108101000D01*
X153929161Y-108101000D01*
X153929187Y-108099000D01*
X154130000Y-108099000D01*
X154130000Y-107599682D01*
X154111955Y-107450565D01*
X154040945Y-107262643D01*
X153927159Y-107097083D01*
X153777166Y-106963446D01*
X153599627Y-106869444D01*
X153301000Y-106794434D01*
X153301000Y-107464017D01*
X153299000Y-107464289D01*
X153299000Y-106796620D01*
X153008563Y-106866349D01*
X152830047Y-106958487D01*
X152678664Y-107090549D01*
X152563152Y-107254906D01*
X152490057Y-107442387D01*
X152470000Y-107601150D01*
X152470000Y-108099000D01*
X152669920Y-108099000D01*
X152669894Y-108101000D01*
X152470000Y-108101000D01*
X152470000Y-108600319D01*
X152488047Y-108749436D01*
X152559056Y-108937357D01*
X152672842Y-109102916D01*
X152692017Y-109120000D01*
X147309244Y-109120000D01*
X147321335Y-109109452D01*
X147436848Y-108945095D01*
X147509943Y-108757614D01*
X147530000Y-108598851D01*
X147530000Y-108101000D01*
X147329161Y-108101000D01*
X147329187Y-108099000D01*
X147530000Y-108099000D01*
X147530000Y-107599682D01*
X147511955Y-107450565D01*
X147440945Y-107262643D01*
X147327159Y-107097083D01*
X147177166Y-106963446D01*
X146999627Y-106869444D01*
X146701000Y-106794434D01*
X146701000Y-107464017D01*
X146699000Y-107464289D01*
X146699000Y-106796620D01*
X146408563Y-106866349D01*
X146230047Y-106958487D01*
X146078664Y-107090549D01*
X145963152Y-107254906D01*
X145890057Y-107442387D01*
X145870000Y-107601150D01*
X145870000Y-108099000D01*
X146069920Y-108099000D01*
X146069894Y-108101000D01*
X145870000Y-108101000D01*
X145870000Y-108600319D01*
X145888047Y-108749436D01*
X145959056Y-108937357D01*
X146072842Y-109102916D01*
X146092017Y-109120000D01*
X143556961Y-109120000D01*
X143551251Y-109118249D01*
X143545895Y-109117705D01*
X143190458Y-108762268D01*
X143353176Y-108819411D01*
X143585334Y-108853900D01*
X143819826Y-108843867D01*
X144048189Y-108789673D01*
X144262185Y-108693276D01*
X144454092Y-108558151D01*
X144616985Y-108389175D01*
X144744987Y-108192445D01*
X144801792Y-108052901D01*
X144839200Y-108044949D01*
X144995686Y-107931256D01*
X145014093Y-107899373D01*
X145713319Y-107200149D01*
X145781514Y-107138747D01*
X145795046Y-107097098D01*
X145834268Y-107036701D01*
X145864527Y-106845656D01*
X145855000Y-106810099D01*
X145855000Y-106601000D01*
X148815600Y-106601000D01*
X148815600Y-106786587D01*
X148870786Y-107021224D01*
X148997653Y-107189223D01*
X149174069Y-107298456D01*
X149366355Y-107334400D01*
X149599000Y-107334400D01*
X149599000Y-106601000D01*
X149601000Y-106601000D01*
X149601000Y-107334400D01*
X149836587Y-107334400D01*
X150071224Y-107279214D01*
X150239223Y-107152347D01*
X150348456Y-106975931D01*
X150384400Y-106783645D01*
X150384400Y-106601000D01*
X149601000Y-106601000D01*
X149599000Y-106601000D01*
X148815600Y-106601000D01*
X145855000Y-106601000D01*
X145855000Y-103767926D01*
X145870001Y-103790377D01*
X145870001Y-103930726D01*
X145859619Y-103982922D01*
X145900751Y-104189717D01*
X145960856Y-104279669D01*
X146017893Y-104365030D01*
X146062145Y-104394598D01*
X147405399Y-105737853D01*
X147434970Y-105782108D01*
X147610282Y-105899248D01*
X147764881Y-105930000D01*
X147764887Y-105930000D01*
X147817078Y-105940381D01*
X147869269Y-105930000D01*
X149116575Y-105930000D01*
X148960777Y-106047653D01*
X148851544Y-106224069D01*
X148815600Y-106416355D01*
X148815600Y-106599000D01*
X150384400Y-106599000D01*
X150384400Y-106413413D01*
X150329214Y-106178776D01*
X150202347Y-106010777D01*
X150186557Y-106001000D01*
X152065600Y-106001000D01*
X152065600Y-106236587D01*
X152120786Y-106471224D01*
X152247653Y-106639223D01*
X152424069Y-106748456D01*
X152616355Y-106784400D01*
X152799000Y-106784400D01*
X152799000Y-106001000D01*
X152065600Y-106001000D01*
X150186557Y-106001000D01*
X150025931Y-105901544D01*
X149998268Y-105896373D01*
X150071224Y-105879214D01*
X150220673Y-105766355D01*
X152065600Y-105766355D01*
X152065600Y-105999000D01*
X152799000Y-105999000D01*
X152799000Y-105215600D01*
X152613413Y-105215600D01*
X152378776Y-105270786D01*
X152210777Y-105397653D01*
X152101544Y-105574069D01*
X152065600Y-105766355D01*
X150220673Y-105766355D01*
X150239223Y-105752347D01*
X150348456Y-105575931D01*
X150384400Y-105383645D01*
X150384400Y-105013413D01*
X150329214Y-104778776D01*
X150255000Y-104680501D01*
X150255000Y-104336823D01*
X150386186Y-104493164D01*
X150579815Y-104604955D01*
X150800000Y-104643780D01*
X151020185Y-104604955D01*
X151213814Y-104493164D01*
X151357530Y-104321890D01*
X151433999Y-104111791D01*
X151433999Y-103888209D01*
X151357530Y-103678110D01*
X151255000Y-103555920D01*
X151255000Y-103273637D01*
X151483929Y-103228102D01*
X151500000Y-103217364D01*
X151516070Y-103228101D01*
X151676315Y-103259976D01*
X151823685Y-103259976D01*
X151983930Y-103228101D01*
X152130300Y-103130300D01*
X152228101Y-102983930D01*
X152259976Y-102823685D01*
X152259976Y-102259976D01*
X152823685Y-102259976D01*
X152889652Y-102246855D01*
X155221886Y-104579089D01*
G36*
X144945001Y-106681533D02*
G01*
X144679585Y-106946949D01*
X144622331Y-106857595D01*
X144460622Y-106687486D01*
X144269663Y-106551025D01*
X144056345Y-106453135D01*
X143828365Y-106397349D01*
X143593949Y-106385679D01*
X143361556Y-106418546D01*
X143139571Y-106494766D01*
X142936003Y-106611586D01*
X142880000Y-106659841D01*
X142880000Y-106045639D01*
X142884205Y-106049664D01*
X143081380Y-106176979D01*
X143301961Y-106265875D01*
X143606284Y-106310000D01*
X143708624Y-106310000D01*
X143883645Y-106293302D01*
X144108860Y-106227230D01*
X144317517Y-106119765D01*
X144502090Y-105974782D01*
X144655915Y-105797513D01*
X144773446Y-105594353D01*
X144850439Y-105372635D01*
X144884118Y-105140358D01*
X144873266Y-104905904D01*
X144818276Y-104677730D01*
X144721132Y-104464072D01*
X144585337Y-104272638D01*
X144415795Y-104110336D01*
X144218620Y-103983021D01*
X143998039Y-103894125D01*
X143693716Y-103850000D01*
X143591376Y-103850000D01*
X143416355Y-103866698D01*
X143191140Y-103932770D01*
X142982483Y-104040235D01*
X142880000Y-104120736D01*
X142880000Y-103505639D01*
X142884205Y-103509664D01*
X143081380Y-103636979D01*
X143301961Y-103725875D01*
X143606284Y-103770000D01*
X143708624Y-103770000D01*
X143883645Y-103753302D01*
X144108860Y-103687230D01*
X144317517Y-103579765D01*
X144502090Y-103434782D01*
X144655915Y-103257513D01*
X144773446Y-103054353D01*
X144794057Y-102995000D01*
X144945000Y-102995000D01*
X144945001Y-106681533D01*
X144945001Y-106681533D01*
G37*
X144945001Y-106681533D02*
X144679585Y-106946949D01*
X144622331Y-106857595D01*
X144460622Y-106687486D01*
X144269663Y-106551025D01*
X144056345Y-106453135D01*
X143828365Y-106397349D01*
X143593949Y-106385679D01*
X143361556Y-106418546D01*
X143139571Y-106494766D01*
X142936003Y-106611586D01*
X142880000Y-106659841D01*
X142880000Y-106045639D01*
X142884205Y-106049664D01*
X143081380Y-106176979D01*
X143301961Y-106265875D01*
X143606284Y-106310000D01*
X143708624Y-106310000D01*
X143883645Y-106293302D01*
X144108860Y-106227230D01*
X144317517Y-106119765D01*
X144502090Y-105974782D01*
X144655915Y-105797513D01*
X144773446Y-105594353D01*
X144850439Y-105372635D01*
X144884118Y-105140358D01*
X144873266Y-104905904D01*
X144818276Y-104677730D01*
X144721132Y-104464072D01*
X144585337Y-104272638D01*
X144415795Y-104110336D01*
X144218620Y-103983021D01*
X143998039Y-103894125D01*
X143693716Y-103850000D01*
X143591376Y-103850000D01*
X143416355Y-103866698D01*
X143191140Y-103932770D01*
X142982483Y-104040235D01*
X142880000Y-104120736D01*
X142880000Y-103505639D01*
X142884205Y-103509664D01*
X143081380Y-103636979D01*
X143301961Y-103725875D01*
X143606284Y-103770000D01*
X143708624Y-103770000D01*
X143883645Y-103753302D01*
X144108860Y-103687230D01*
X144317517Y-103579765D01*
X144502090Y-103434782D01*
X144655915Y-103257513D01*
X144773446Y-103054353D01*
X144794057Y-102995000D01*
X144945000Y-102995000D01*
X144945001Y-106681533D01*
G36*
X148101000Y-104756748D02*
G01*
X148385328Y-104700190D01*
X148500000Y-104623570D01*
X148614672Y-104700190D01*
X148789549Y-104734976D01*
X148906708Y-104734976D01*
X148851544Y-104824069D01*
X148842958Y-104870000D01*
X148036610Y-104870000D01*
X147879744Y-104713134D01*
X148099000Y-104756748D01*
X148099000Y-104101000D01*
X147627036Y-104101000D01*
X147630500Y-104099000D01*
X148101000Y-104099000D01*
X148101000Y-104756748D01*
X148101000Y-104756748D01*
G37*
X148101000Y-104756748D02*
X148385328Y-104700190D01*
X148500000Y-104623570D01*
X148614672Y-104700190D01*
X148789549Y-104734976D01*
X148906708Y-104734976D01*
X148851544Y-104824069D01*
X148842958Y-104870000D01*
X148036610Y-104870000D01*
X147879744Y-104713134D01*
X148099000Y-104756748D01*
X148099000Y-104101000D01*
X147627036Y-104101000D01*
X147630500Y-104099000D01*
X148101000Y-104099000D01*
X148101000Y-104756748D01*
G36*
X147016070Y-102228101D02*
G01*
X147176315Y-102259976D01*
X147740024Y-102259976D01*
X147740024Y-102823685D01*
X147769128Y-102970000D01*
X147750011Y-102970000D01*
X147620185Y-102895045D01*
X147400000Y-102856220D01*
X147179815Y-102895045D01*
X147049989Y-102970000D01*
X146943615Y-102970000D01*
X147000190Y-102885328D01*
X147056748Y-102601000D01*
X146399000Y-102601000D01*
X146399000Y-102599000D01*
X147056748Y-102599000D01*
X147000190Y-102314672D01*
X146926910Y-102205000D01*
X146981497Y-102205000D01*
X147016070Y-102228101D01*
X147016070Y-102228101D01*
G37*
X147016070Y-102228101D02*
X147176315Y-102259976D01*
X147740024Y-102259976D01*
X147740024Y-102823685D01*
X147769128Y-102970000D01*
X147750011Y-102970000D01*
X147620185Y-102895045D01*
X147400000Y-102856220D01*
X147179815Y-102895045D01*
X147049989Y-102970000D01*
X146943615Y-102970000D01*
X147000190Y-102885328D01*
X147056748Y-102601000D01*
X146399000Y-102601000D01*
X146399000Y-102599000D01*
X147056748Y-102599000D01*
X147000190Y-102314672D01*
X146926910Y-102205000D01*
X146981497Y-102205000D01*
X147016070Y-102228101D01*
G36*
X145529216Y-92130000D02*
G01*
X145370830Y-92235830D01*
X145253690Y-92411143D01*
X145215024Y-92605529D01*
X145215024Y-92924471D01*
X145249395Y-93097266D01*
X145235908Y-93120626D01*
X144886704Y-93469830D01*
X144818487Y-93531253D01*
X144804953Y-93572903D01*
X144765732Y-93633302D01*
X144735472Y-93824344D01*
X144745000Y-93859903D01*
X144745001Y-94356569D01*
X144721132Y-94304072D01*
X144585337Y-94112638D01*
X144415795Y-93950336D01*
X144218620Y-93823021D01*
X143998039Y-93734125D01*
X143651000Y-93683806D01*
X143651000Y-94919000D01*
X144869357Y-94919000D01*
X144870810Y-94921000D01*
X143651000Y-94921000D01*
X143651000Y-96155497D01*
X143883645Y-96133302D01*
X144108860Y-96067230D01*
X144317517Y-95959765D01*
X144502090Y-95814782D01*
X144655915Y-95637513D01*
X144773446Y-95434353D01*
X144850439Y-95212635D01*
X144889115Y-94945899D01*
X144920625Y-94964091D01*
X145215024Y-95258491D01*
X145215024Y-95464471D01*
X145253690Y-95658857D01*
X145370830Y-95834170D01*
X145546143Y-95951310D01*
X145740529Y-95989976D01*
X147059471Y-95989976D01*
X147253857Y-95951310D01*
X147279125Y-95934427D01*
X147242470Y-95978110D01*
X147166001Y-96188209D01*
X147166001Y-96356500D01*
X146955486Y-96356500D01*
X146913813Y-96306836D01*
X146720185Y-96195045D01*
X146500000Y-96156220D01*
X146279815Y-96195045D01*
X146086186Y-96306836D01*
X145942470Y-96478110D01*
X145866001Y-96688209D01*
X145866001Y-96911791D01*
X145942470Y-97121890D01*
X146037630Y-97235297D01*
X145964672Y-97249810D01*
X145805898Y-97355898D01*
X145699810Y-97514672D01*
X145643252Y-97799000D01*
X146956748Y-97799000D01*
X146900190Y-97514672D01*
X146797179Y-97360503D01*
X146913813Y-97293164D01*
X146955486Y-97243500D01*
X147740024Y-97243500D01*
X147740024Y-97740024D01*
X147176315Y-97740024D01*
X147016070Y-97771899D01*
X146954331Y-97813152D01*
X146956748Y-97801000D01*
X145643252Y-97801000D01*
X145676823Y-97969766D01*
X145600000Y-97956220D01*
X145379815Y-97995045D01*
X145186186Y-98106836D01*
X145074000Y-98240534D01*
X144782306Y-97948840D01*
X144850439Y-97752635D01*
X144884118Y-97520358D01*
X144873266Y-97285904D01*
X144818276Y-97057730D01*
X144721132Y-96844072D01*
X144585337Y-96652638D01*
X144415795Y-96490336D01*
X144218620Y-96363021D01*
X143998039Y-96274125D01*
X143693716Y-96230000D01*
X143591376Y-96230000D01*
X143416355Y-96246698D01*
X143191140Y-96312770D01*
X142982483Y-96420235D01*
X142880000Y-96500736D01*
X142880000Y-95885639D01*
X142884205Y-95889664D01*
X143081380Y-96016979D01*
X143301961Y-96105875D01*
X143649000Y-96156194D01*
X143649000Y-93684503D01*
X143416355Y-93706698D01*
X143191140Y-93772770D01*
X142982483Y-93880235D01*
X142880000Y-93960736D01*
X142880000Y-93345639D01*
X142884205Y-93349664D01*
X143081380Y-93476979D01*
X143301961Y-93565875D01*
X143606284Y-93610000D01*
X143708624Y-93610000D01*
X143883645Y-93593302D01*
X144108860Y-93527230D01*
X144317517Y-93419765D01*
X144502090Y-93274782D01*
X144655915Y-93097513D01*
X144773446Y-92894353D01*
X144850439Y-92672635D01*
X144884118Y-92440358D01*
X144873266Y-92205904D01*
X144853768Y-92125000D01*
X145521733Y-92125000D01*
X145529216Y-92130000D01*
X145529216Y-92130000D01*
G37*
X145529216Y-92130000D02*
X145370830Y-92235830D01*
X145253690Y-92411143D01*
X145215024Y-92605529D01*
X145215024Y-92924471D01*
X145249395Y-93097266D01*
X145235908Y-93120626D01*
X144886704Y-93469830D01*
X144818487Y-93531253D01*
X144804953Y-93572903D01*
X144765732Y-93633302D01*
X144735472Y-93824344D01*
X144745000Y-93859903D01*
X144745001Y-94356569D01*
X144721132Y-94304072D01*
X144585337Y-94112638D01*
X144415795Y-93950336D01*
X144218620Y-93823021D01*
X143998039Y-93734125D01*
X143651000Y-93683806D01*
X143651000Y-94919000D01*
X144869357Y-94919000D01*
X144870810Y-94921000D01*
X143651000Y-94921000D01*
X143651000Y-96155497D01*
X143883645Y-96133302D01*
X144108860Y-96067230D01*
X144317517Y-95959765D01*
X144502090Y-95814782D01*
X144655915Y-95637513D01*
X144773446Y-95434353D01*
X144850439Y-95212635D01*
X144889115Y-94945899D01*
X144920625Y-94964091D01*
X145215024Y-95258491D01*
X145215024Y-95464471D01*
X145253690Y-95658857D01*
X145370830Y-95834170D01*
X145546143Y-95951310D01*
X145740529Y-95989976D01*
X147059471Y-95989976D01*
X147253857Y-95951310D01*
X147279125Y-95934427D01*
X147242470Y-95978110D01*
X147166001Y-96188209D01*
X147166001Y-96356500D01*
X146955486Y-96356500D01*
X146913813Y-96306836D01*
X146720185Y-96195045D01*
X146500000Y-96156220D01*
X146279815Y-96195045D01*
X146086186Y-96306836D01*
X145942470Y-96478110D01*
X145866001Y-96688209D01*
X145866001Y-96911791D01*
X145942470Y-97121890D01*
X146037630Y-97235297D01*
X145964672Y-97249810D01*
X145805898Y-97355898D01*
X145699810Y-97514672D01*
X145643252Y-97799000D01*
X146956748Y-97799000D01*
X146900190Y-97514672D01*
X146797179Y-97360503D01*
X146913813Y-97293164D01*
X146955486Y-97243500D01*
X147740024Y-97243500D01*
X147740024Y-97740024D01*
X147176315Y-97740024D01*
X147016070Y-97771899D01*
X146954331Y-97813152D01*
X146956748Y-97801000D01*
X145643252Y-97801000D01*
X145676823Y-97969766D01*
X145600000Y-97956220D01*
X145379815Y-97995045D01*
X145186186Y-98106836D01*
X145074000Y-98240534D01*
X144782306Y-97948840D01*
X144850439Y-97752635D01*
X144884118Y-97520358D01*
X144873266Y-97285904D01*
X144818276Y-97057730D01*
X144721132Y-96844072D01*
X144585337Y-96652638D01*
X144415795Y-96490336D01*
X144218620Y-96363021D01*
X143998039Y-96274125D01*
X143693716Y-96230000D01*
X143591376Y-96230000D01*
X143416355Y-96246698D01*
X143191140Y-96312770D01*
X142982483Y-96420235D01*
X142880000Y-96500736D01*
X142880000Y-95885639D01*
X142884205Y-95889664D01*
X143081380Y-96016979D01*
X143301961Y-96105875D01*
X143649000Y-96156194D01*
X143649000Y-93684503D01*
X143416355Y-93706698D01*
X143191140Y-93772770D01*
X142982483Y-93880235D01*
X142880000Y-93960736D01*
X142880000Y-93345639D01*
X142884205Y-93349664D01*
X143081380Y-93476979D01*
X143301961Y-93565875D01*
X143606284Y-93610000D01*
X143708624Y-93610000D01*
X143883645Y-93593302D01*
X144108860Y-93527230D01*
X144317517Y-93419765D01*
X144502090Y-93274782D01*
X144655915Y-93097513D01*
X144773446Y-92894353D01*
X144850439Y-92672635D01*
X144884118Y-92440358D01*
X144873266Y-92205904D01*
X144853768Y-92125000D01*
X145521733Y-92125000D01*
X145529216Y-92130000D01*
G36*
X154536000Y-96664456D02*
G01*
X153861520Y-95989976D01*
X154259471Y-95989976D01*
X154453857Y-95951310D01*
X154536000Y-95896424D01*
X154536000Y-96664456D01*
X154536000Y-96664456D01*
G37*
X154536000Y-96664456D02*
X153861520Y-95989976D01*
X154259471Y-95989976D01*
X154453857Y-95951310D01*
X154536000Y-95896424D01*
X154536000Y-96664456D01*
G36*
X154817760Y-92693308D02*
G01*
X154879171Y-92761513D01*
X154920821Y-92775047D01*
X154981219Y-92814269D01*
X155172264Y-92844527D01*
X155205929Y-92835507D01*
X155278868Y-92995928D01*
X155414663Y-93187362D01*
X155584205Y-93349664D01*
X155781380Y-93476979D01*
X156001961Y-93565875D01*
X156306284Y-93610000D01*
X156408624Y-93610000D01*
X156583645Y-93593302D01*
X156808860Y-93527230D01*
X157017517Y-93419765D01*
X157120001Y-93339263D01*
X157120001Y-93954362D01*
X157115795Y-93950336D01*
X156918620Y-93823021D01*
X156698039Y-93734125D01*
X156351000Y-93683806D01*
X156351000Y-96155497D01*
X156583645Y-96133302D01*
X156808860Y-96067230D01*
X157017517Y-95959765D01*
X157120001Y-95879263D01*
X157120001Y-96494362D01*
X157115795Y-96490336D01*
X156918620Y-96363021D01*
X156698039Y-96274125D01*
X156393716Y-96230000D01*
X156291376Y-96230000D01*
X156116355Y-96246698D01*
X155891140Y-96312770D01*
X155682483Y-96420235D01*
X155497910Y-96565218D01*
X155445999Y-96625041D01*
X155445999Y-95757360D01*
X155584205Y-95889664D01*
X155781380Y-96016979D01*
X156001961Y-96105875D01*
X156349000Y-96156194D01*
X156349000Y-93684503D01*
X156116355Y-93706698D01*
X155891140Y-93772770D01*
X155682483Y-93880235D01*
X155497910Y-94025218D01*
X155455000Y-94074668D01*
X155455000Y-93711906D01*
X155459803Y-93620262D01*
X155439923Y-93581245D01*
X155424949Y-93510800D01*
X155311255Y-93354315D01*
X155279375Y-93335909D01*
X154784976Y-92841510D01*
X154784976Y-92660524D01*
X154817760Y-92693308D01*
X154817760Y-92693308D01*
G37*
X154817760Y-92693308D02*
X154879171Y-92761513D01*
X154920821Y-92775047D01*
X154981219Y-92814269D01*
X155172264Y-92844527D01*
X155205929Y-92835507D01*
X155278868Y-92995928D01*
X155414663Y-93187362D01*
X155584205Y-93349664D01*
X155781380Y-93476979D01*
X156001961Y-93565875D01*
X156306284Y-93610000D01*
X156408624Y-93610000D01*
X156583645Y-93593302D01*
X156808860Y-93527230D01*
X157017517Y-93419765D01*
X157120001Y-93339263D01*
X157120001Y-93954362D01*
X157115795Y-93950336D01*
X156918620Y-93823021D01*
X156698039Y-93734125D01*
X156351000Y-93683806D01*
X156351000Y-96155497D01*
X156583645Y-96133302D01*
X156808860Y-96067230D01*
X157017517Y-95959765D01*
X157120001Y-95879263D01*
X157120001Y-96494362D01*
X157115795Y-96490336D01*
X156918620Y-96363021D01*
X156698039Y-96274125D01*
X156393716Y-96230000D01*
X156291376Y-96230000D01*
X156116355Y-96246698D01*
X155891140Y-96312770D01*
X155682483Y-96420235D01*
X155497910Y-96565218D01*
X155445999Y-96625041D01*
X155445999Y-95757360D01*
X155584205Y-95889664D01*
X155781380Y-96016979D01*
X156001961Y-96105875D01*
X156349000Y-96156194D01*
X156349000Y-93684503D01*
X156116355Y-93706698D01*
X155891140Y-93772770D01*
X155682483Y-93880235D01*
X155497910Y-94025218D01*
X155455000Y-94074668D01*
X155455000Y-93711906D01*
X155459803Y-93620262D01*
X155439923Y-93581245D01*
X155424949Y-93510800D01*
X155311255Y-93354315D01*
X155279375Y-93335909D01*
X154784976Y-92841510D01*
X154784976Y-92660524D01*
X154817760Y-92693308D01*
G36*
X152300000Y-95343780D02*
G01*
X152415024Y-95323498D01*
X152415024Y-95464471D01*
X152431042Y-95545000D01*
X152388466Y-95545000D01*
X152163108Y-95319642D01*
X152300000Y-95343780D01*
X152300000Y-95343780D01*
G37*
X152300000Y-95343780D02*
X152415024Y-95323498D01*
X152415024Y-95464471D01*
X152431042Y-95545000D01*
X152388466Y-95545000D01*
X152163108Y-95319642D01*
X152300000Y-95343780D01*
G36*
X153601000Y-95306000D02*
G01*
X152514260Y-95306000D01*
X152520186Y-95304955D01*
X152521840Y-95304000D01*
X153601000Y-95304000D01*
X153601000Y-95306000D01*
X153601000Y-95306000D01*
G37*
X153601000Y-95306000D02*
X152514260Y-95306000D01*
X152520186Y-95304955D01*
X152521840Y-95304000D01*
X153601000Y-95304000D01*
X153601000Y-95306000D01*
G36*
X152570830Y-90965830D02*
G01*
X152453690Y-91141143D01*
X152415024Y-91335529D01*
X152415024Y-91541510D01*
X151786704Y-92169830D01*
X151718487Y-92231253D01*
X151704953Y-92272903D01*
X151665732Y-92333302D01*
X151635472Y-92524344D01*
X151645000Y-92559903D01*
X151645001Y-93688074D01*
X151640197Y-93779736D01*
X151660079Y-93818759D01*
X151675052Y-93889200D01*
X151788745Y-94045685D01*
X151820627Y-94064092D01*
X151845000Y-94088465D01*
X151845001Y-94255920D01*
X151742470Y-94378110D01*
X151666001Y-94588209D01*
X151666001Y-94811791D01*
X151672149Y-94828683D01*
X151030167Y-94186701D01*
X150968747Y-94118486D01*
X150927095Y-94104953D01*
X150866699Y-94065732D01*
X150675656Y-94035472D01*
X150640097Y-94045000D01*
X148716542Y-94045000D01*
X148219283Y-93547741D01*
X148313814Y-93493164D01*
X148457530Y-93321890D01*
X148533999Y-93111791D01*
X148533999Y-92888209D01*
X148457530Y-92678110D01*
X148313814Y-92506836D01*
X148120185Y-92395045D01*
X147900000Y-92356220D01*
X147877152Y-92360249D01*
X147831699Y-92330732D01*
X147640656Y-92300472D01*
X147605097Y-92310000D01*
X147478729Y-92310000D01*
X147429170Y-92235830D01*
X147270784Y-92130000D01*
X147278267Y-92125000D01*
X148734048Y-92125000D01*
X150002618Y-93393571D01*
X150086187Y-93493164D01*
X150198774Y-93558165D01*
X150229638Y-93579777D01*
X150241897Y-93583063D01*
X150279816Y-93604955D01*
X150407843Y-93627530D01*
X150444239Y-93637283D01*
X150456884Y-93636177D01*
X150500001Y-93643780D01*
X150628035Y-93621204D01*
X150665568Y-93617920D01*
X150677067Y-93612558D01*
X150720186Y-93604955D01*
X150832774Y-93539952D01*
X150866927Y-93524026D01*
X150875899Y-93515054D01*
X150913814Y-93493164D01*
X150997387Y-93393565D01*
X151024023Y-93366930D01*
X151029386Y-93355430D01*
X151057530Y-93321889D01*
X151101996Y-93199720D01*
X151117920Y-93165571D01*
X151119026Y-93152930D01*
X151133999Y-93111792D01*
X151133999Y-92981786D01*
X151137284Y-92944245D01*
X151133999Y-92931986D01*
X151133999Y-92888209D01*
X151089534Y-92766043D01*
X151079780Y-92729640D01*
X151072503Y-92719249D01*
X151057530Y-92678110D01*
X150913814Y-92506836D01*
X150875900Y-92484947D01*
X149459940Y-91068988D01*
X149406204Y-91004948D01*
X149333811Y-90963151D01*
X149265356Y-90915218D01*
X149238171Y-90907934D01*
X149213797Y-90893861D01*
X149135187Y-90880000D01*
X152699284Y-90880000D01*
X152570830Y-90965830D01*
X152570830Y-90965830D01*
G37*
X152570830Y-90965830D02*
X152453690Y-91141143D01*
X152415024Y-91335529D01*
X152415024Y-91541510D01*
X151786704Y-92169830D01*
X151718487Y-92231253D01*
X151704953Y-92272903D01*
X151665732Y-92333302D01*
X151635472Y-92524344D01*
X151645000Y-92559903D01*
X151645001Y-93688074D01*
X151640197Y-93779736D01*
X151660079Y-93818759D01*
X151675052Y-93889200D01*
X151788745Y-94045685D01*
X151820627Y-94064092D01*
X151845000Y-94088465D01*
X151845001Y-94255920D01*
X151742470Y-94378110D01*
X151666001Y-94588209D01*
X151666001Y-94811791D01*
X151672149Y-94828683D01*
X151030167Y-94186701D01*
X150968747Y-94118486D01*
X150927095Y-94104953D01*
X150866699Y-94065732D01*
X150675656Y-94035472D01*
X150640097Y-94045000D01*
X148716542Y-94045000D01*
X148219283Y-93547741D01*
X148313814Y-93493164D01*
X148457530Y-93321890D01*
X148533999Y-93111791D01*
X148533999Y-92888209D01*
X148457530Y-92678110D01*
X148313814Y-92506836D01*
X148120185Y-92395045D01*
X147900000Y-92356220D01*
X147877152Y-92360249D01*
X147831699Y-92330732D01*
X147640656Y-92300472D01*
X147605097Y-92310000D01*
X147478729Y-92310000D01*
X147429170Y-92235830D01*
X147270784Y-92130000D01*
X147278267Y-92125000D01*
X148734048Y-92125000D01*
X150002618Y-93393571D01*
X150086187Y-93493164D01*
X150198774Y-93558165D01*
X150229638Y-93579777D01*
X150241897Y-93583063D01*
X150279816Y-93604955D01*
X150407843Y-93627530D01*
X150444239Y-93637283D01*
X150456884Y-93636177D01*
X150500001Y-93643780D01*
X150628035Y-93621204D01*
X150665568Y-93617920D01*
X150677067Y-93612558D01*
X150720186Y-93604955D01*
X150832774Y-93539952D01*
X150866927Y-93524026D01*
X150875899Y-93515054D01*
X150913814Y-93493164D01*
X150997387Y-93393565D01*
X151024023Y-93366930D01*
X151029386Y-93355430D01*
X151057530Y-93321889D01*
X151101996Y-93199720D01*
X151117920Y-93165571D01*
X151119026Y-93152930D01*
X151133999Y-93111792D01*
X151133999Y-92981786D01*
X151137284Y-92944245D01*
X151133999Y-92931986D01*
X151133999Y-92888209D01*
X151089534Y-92766043D01*
X151079780Y-92729640D01*
X151072503Y-92719249D01*
X151057530Y-92678110D01*
X150913814Y-92506836D01*
X150875900Y-92484947D01*
X149459940Y-91068988D01*
X149406204Y-91004948D01*
X149333811Y-90963151D01*
X149265356Y-90915218D01*
X149238171Y-90907934D01*
X149213797Y-90893861D01*
X149135187Y-90880000D01*
X152699284Y-90880000D01*
X152570830Y-90965830D01*
M02*
