G04 #@! TF.GenerationSoftware,KiCad,Pcbnew,5.99.0-unknown-c3175b4~86~ubuntu16.04.1*
G04 #@! TF.CreationDate,2020-03-16T03:04:42+00:00*
G04 #@! TF.ProjectId,kuiick,6b756969-636b-42e6-9b69-6361645f7063,rev?*
G04 #@! TF.SameCoordinates,Original*
G04 #@! TF.FileFunction,Legend,Bot*
G04 #@! TF.FilePolarity,Positive*
%FSLAX46Y46*%
G04 Gerber Fmt 4.6, Leading zero omitted, Abs format (unit mm)*
G04 Created by KiCad (PCBNEW 5.99.0-unknown-c3175b4~86~ubuntu16.04.1) date 2020-03-16 03:04:42*
%MOMM*%
%LPD*%
G04 APERTURE LIST*
%ADD10C,0.150000*%
%ADD11C,0.120000*%
G04 APERTURE END LIST*
D10*
X151696428Y-107899821D02*
X151589285Y-107935535D01*
X151410714Y-107935535D01*
X151339285Y-107899821D01*
X151303571Y-107864107D01*
X151267857Y-107792678D01*
X151267857Y-107721250D01*
X151303571Y-107649821D01*
X151339285Y-107614107D01*
X151410714Y-107578392D01*
X151553571Y-107542678D01*
X151625000Y-107506964D01*
X151660714Y-107471250D01*
X151696428Y-107399821D01*
X151696428Y-107328392D01*
X151660714Y-107256964D01*
X151625000Y-107221250D01*
X151553571Y-107185535D01*
X151375000Y-107185535D01*
X151267857Y-107221250D01*
X151053571Y-107435535D02*
X150767857Y-107435535D01*
X150946428Y-107185535D02*
X150946428Y-107828392D01*
X150910714Y-107899821D01*
X150839285Y-107935535D01*
X150767857Y-107935535D01*
X150232142Y-107899821D02*
X150303571Y-107935535D01*
X150446428Y-107935535D01*
X150517857Y-107899821D01*
X150553571Y-107828392D01*
X150553571Y-107542678D01*
X150517857Y-107471250D01*
X150446428Y-107435535D01*
X150303571Y-107435535D01*
X150232142Y-107471250D01*
X150196428Y-107542678D01*
X150196428Y-107614107D01*
X150553571Y-107685535D01*
X149875000Y-107935535D02*
X149875000Y-107435535D01*
X149875000Y-107185535D02*
X149910714Y-107221250D01*
X149875000Y-107256964D01*
X149839285Y-107221250D01*
X149875000Y-107185535D01*
X149875000Y-107256964D01*
X149232142Y-107899821D02*
X149303571Y-107935535D01*
X149446428Y-107935535D01*
X149517857Y-107899821D01*
X149553571Y-107828392D01*
X149553571Y-107542678D01*
X149517857Y-107471250D01*
X149446428Y-107435535D01*
X149303571Y-107435535D01*
X149232142Y-107471250D01*
X149196428Y-107542678D01*
X149196428Y-107614107D01*
X149553571Y-107685535D01*
X148875000Y-107935535D02*
X148875000Y-107435535D01*
X148875000Y-107578392D02*
X148839285Y-107506964D01*
X148803571Y-107471250D01*
X148732142Y-107435535D01*
X148660714Y-107435535D01*
X148517857Y-107435535D02*
X148232142Y-107435535D01*
X148410714Y-107185535D02*
X148410714Y-107828392D01*
X148375000Y-107899821D01*
X148303571Y-107935535D01*
X148232142Y-107935535D01*
X152464285Y-109107321D02*
X152357142Y-109143035D01*
X152178571Y-109143035D01*
X152107142Y-109107321D01*
X152071428Y-109071607D01*
X152035714Y-109000178D01*
X152035714Y-108928750D01*
X152071428Y-108857321D01*
X152107142Y-108821607D01*
X152178571Y-108785892D01*
X152321428Y-108750178D01*
X152392857Y-108714464D01*
X152428571Y-108678750D01*
X152464285Y-108607321D01*
X152464285Y-108535892D01*
X152428571Y-108464464D01*
X152392857Y-108428750D01*
X152321428Y-108393035D01*
X152142857Y-108393035D01*
X152035714Y-108428750D01*
X151607142Y-109143035D02*
X151678571Y-109107321D01*
X151714285Y-109071607D01*
X151750000Y-109000178D01*
X151750000Y-108785892D01*
X151714285Y-108714464D01*
X151678571Y-108678750D01*
X151607142Y-108643035D01*
X151500000Y-108643035D01*
X151428571Y-108678750D01*
X151392857Y-108714464D01*
X151357142Y-108785892D01*
X151357142Y-109000178D01*
X151392857Y-109071607D01*
X151428571Y-109107321D01*
X151500000Y-109143035D01*
X151607142Y-109143035D01*
X150928571Y-109143035D02*
X151000000Y-109107321D01*
X151035714Y-109035892D01*
X151035714Y-108393035D01*
X150321428Y-108643035D02*
X150321428Y-109143035D01*
X150642857Y-108643035D02*
X150642857Y-109035892D01*
X150607142Y-109107321D01*
X150535714Y-109143035D01*
X150428571Y-109143035D01*
X150357142Y-109107321D01*
X150321428Y-109071607D01*
X150071428Y-108643035D02*
X149785714Y-108643035D01*
X149964285Y-108393035D02*
X149964285Y-109035892D01*
X149928571Y-109107321D01*
X149857142Y-109143035D01*
X149785714Y-109143035D01*
X149535714Y-109143035D02*
X149535714Y-108643035D01*
X149535714Y-108393035D02*
X149571428Y-108428750D01*
X149535714Y-108464464D01*
X149500000Y-108428750D01*
X149535714Y-108393035D01*
X149535714Y-108464464D01*
X149071428Y-109143035D02*
X149142857Y-109107321D01*
X149178571Y-109071607D01*
X149214285Y-109000178D01*
X149214285Y-108785892D01*
X149178571Y-108714464D01*
X149142857Y-108678750D01*
X149071428Y-108643035D01*
X148964285Y-108643035D01*
X148892857Y-108678750D01*
X148857142Y-108714464D01*
X148821428Y-108785892D01*
X148821428Y-109000178D01*
X148857142Y-109071607D01*
X148892857Y-109107321D01*
X148964285Y-109143035D01*
X149071428Y-109143035D01*
X148500000Y-108643035D02*
X148500000Y-109143035D01*
X148500000Y-108714464D02*
X148464285Y-108678750D01*
X148392857Y-108643035D01*
X148285714Y-108643035D01*
X148214285Y-108678750D01*
X148178571Y-108750178D01*
X148178571Y-109143035D01*
X147857142Y-109107321D02*
X147785714Y-109143035D01*
X147642857Y-109143035D01*
X147571428Y-109107321D01*
X147535714Y-109035892D01*
X147535714Y-109000178D01*
X147571428Y-108928750D01*
X147642857Y-108893035D01*
X147750000Y-108893035D01*
X147821428Y-108857321D01*
X147857142Y-108785892D01*
X147857142Y-108750178D01*
X147821428Y-108678750D01*
X147750000Y-108643035D01*
X147642857Y-108643035D01*
X147571428Y-108678750D01*
X151746428Y-106139285D02*
X151746428Y-105389285D01*
X151746428Y-105675000D02*
X151675000Y-105639285D01*
X151532142Y-105639285D01*
X151460714Y-105675000D01*
X151425000Y-105710714D01*
X151389285Y-105782142D01*
X151389285Y-105996428D01*
X151425000Y-106067857D01*
X151460714Y-106103571D01*
X151532142Y-106139285D01*
X151675000Y-106139285D01*
X151746428Y-106103571D01*
X151139285Y-105639285D02*
X150960714Y-106139285D01*
X150782142Y-105639285D02*
X150960714Y-106139285D01*
X151032142Y-106317857D01*
X151067857Y-106353571D01*
X151139285Y-106389285D01*
X153096428Y-104239285D02*
X153096428Y-103489285D01*
X152667857Y-104239285D02*
X152989285Y-103810714D01*
X152667857Y-103489285D02*
X153096428Y-103917857D01*
X152346428Y-103489285D02*
X152346428Y-104096428D01*
X152310714Y-104167857D01*
X152275000Y-104203571D01*
X152203571Y-104239285D01*
X152060714Y-104239285D01*
X151989285Y-104203571D01*
X151953571Y-104167857D01*
X151917857Y-104096428D01*
X151917857Y-103489285D01*
X151560714Y-104239285D02*
X151560714Y-103489285D01*
X151203571Y-104239285D02*
X151203571Y-103489285D01*
X150417857Y-104167857D02*
X150453571Y-104203571D01*
X150560714Y-104239285D01*
X150632142Y-104239285D01*
X150739285Y-104203571D01*
X150810714Y-104132142D01*
X150846428Y-104060714D01*
X150882142Y-103917857D01*
X150882142Y-103810714D01*
X150846428Y-103667857D01*
X150810714Y-103596428D01*
X150739285Y-103525000D01*
X150632142Y-103489285D01*
X150560714Y-103489285D01*
X150453571Y-103525000D01*
X150417857Y-103560714D01*
X150096428Y-104239285D02*
X150096428Y-103489285D01*
X149667857Y-104239285D02*
X149989285Y-103810714D01*
X149667857Y-103489285D02*
X150096428Y-103917857D01*
X150767857Y-93699821D02*
X150660714Y-93735535D01*
X150482142Y-93735535D01*
X150410714Y-93699821D01*
X150375000Y-93664107D01*
X150339285Y-93592678D01*
X150339285Y-93521250D01*
X150375000Y-93449821D01*
X150410714Y-93414107D01*
X150482142Y-93378392D01*
X150625000Y-93342678D01*
X150696428Y-93306964D01*
X150732142Y-93271250D01*
X150767857Y-93199821D01*
X150767857Y-93128392D01*
X150732142Y-93056964D01*
X150696428Y-93021250D01*
X150625000Y-92985535D01*
X150446428Y-92985535D01*
X150339285Y-93021250D01*
X150017857Y-93735535D02*
X150017857Y-92985535D01*
X149732142Y-92985535D01*
X149660714Y-93021250D01*
X149625000Y-93056964D01*
X149589285Y-93128392D01*
X149589285Y-93235535D01*
X149625000Y-93306964D01*
X149660714Y-93342678D01*
X149732142Y-93378392D01*
X150017857Y-93378392D01*
X149267857Y-93735535D02*
X149267857Y-92985535D01*
X151071428Y-94550178D02*
X151321428Y-94550178D01*
X151321428Y-94943035D02*
X151321428Y-94193035D01*
X150964285Y-94193035D01*
X150571428Y-94943035D02*
X150642857Y-94907321D01*
X150678571Y-94835892D01*
X150678571Y-94193035D01*
X149964285Y-94943035D02*
X149964285Y-94550178D01*
X150000000Y-94478750D01*
X150071428Y-94443035D01*
X150214285Y-94443035D01*
X150285714Y-94478750D01*
X149964285Y-94907321D02*
X150035714Y-94943035D01*
X150214285Y-94943035D01*
X150285714Y-94907321D01*
X150321428Y-94835892D01*
X150321428Y-94764464D01*
X150285714Y-94693035D01*
X150214285Y-94657321D01*
X150035714Y-94657321D01*
X149964285Y-94621607D01*
X149642857Y-94907321D02*
X149571428Y-94943035D01*
X149428571Y-94943035D01*
X149357142Y-94907321D01*
X149321428Y-94835892D01*
X149321428Y-94800178D01*
X149357142Y-94728750D01*
X149428571Y-94693035D01*
X149535714Y-94693035D01*
X149607142Y-94657321D01*
X149642857Y-94585892D01*
X149642857Y-94550178D01*
X149607142Y-94478750D01*
X149535714Y-94443035D01*
X149428571Y-94443035D01*
X149357142Y-94478750D01*
X149000000Y-94943035D02*
X149000000Y-94193035D01*
X148678571Y-94943035D02*
X148678571Y-94550178D01*
X148714285Y-94478750D01*
X148785714Y-94443035D01*
X148892857Y-94443035D01*
X148964285Y-94478750D01*
X149000000Y-94514464D01*
X155771428Y-90789285D02*
X155307142Y-90789285D01*
X155557142Y-91075000D01*
X155450000Y-91075000D01*
X155378571Y-91110714D01*
X155342857Y-91146428D01*
X155307142Y-91217857D01*
X155307142Y-91396428D01*
X155342857Y-91467857D01*
X155378571Y-91503571D01*
X155450000Y-91539285D01*
X155664285Y-91539285D01*
X155735714Y-91503571D01*
X155771428Y-91467857D01*
X155092857Y-90789285D02*
X154842857Y-91539285D01*
X154592857Y-90789285D01*
X155003571Y-93525000D02*
X155075000Y-93489285D01*
X155182142Y-93489285D01*
X155289285Y-93525000D01*
X155360714Y-93596428D01*
X155396428Y-93667857D01*
X155432142Y-93810714D01*
X155432142Y-93917857D01*
X155396428Y-94060714D01*
X155360714Y-94132142D01*
X155289285Y-94203571D01*
X155182142Y-94239285D01*
X155110714Y-94239285D01*
X155003571Y-94203571D01*
X154967857Y-94167857D01*
X154967857Y-93917857D01*
X155110714Y-93917857D01*
X144503571Y-93325000D02*
X144575000Y-93289285D01*
X144682142Y-93289285D01*
X144789285Y-93325000D01*
X144860714Y-93396428D01*
X144896428Y-93467857D01*
X144932142Y-93610714D01*
X144932142Y-93717857D01*
X144896428Y-93860714D01*
X144860714Y-93932142D01*
X144789285Y-94003571D01*
X144682142Y-94039285D01*
X144610714Y-94039285D01*
X144503571Y-94003571D01*
X144467857Y-93967857D01*
X144467857Y-93717857D01*
X144610714Y-93717857D01*
X145371428Y-90789285D02*
X144907142Y-90789285D01*
X145157142Y-91075000D01*
X145050000Y-91075000D01*
X144978571Y-91110714D01*
X144942857Y-91146428D01*
X144907142Y-91217857D01*
X144907142Y-91396428D01*
X144942857Y-91467857D01*
X144978571Y-91503571D01*
X145050000Y-91539285D01*
X145264285Y-91539285D01*
X145335714Y-91503571D01*
X145371428Y-91467857D01*
X144692857Y-90789285D02*
X144442857Y-91539285D01*
X144192857Y-90789285D01*
X154850000Y-104646428D02*
X155100000Y-104646428D01*
X155100000Y-105039285D02*
X155100000Y-104289285D01*
X154742857Y-104289285D01*
X154528571Y-104289285D02*
X154028571Y-104289285D01*
X154350000Y-105039285D01*
X154850000Y-102446428D02*
X155100000Y-102446428D01*
X155100000Y-102839285D02*
X155100000Y-102089285D01*
X154742857Y-102089285D01*
X154135714Y-102089285D02*
X154278571Y-102089285D01*
X154350000Y-102125000D01*
X154385714Y-102160714D01*
X154457142Y-102267857D01*
X154492857Y-102410714D01*
X154492857Y-102696428D01*
X154457142Y-102767857D01*
X154421428Y-102803571D01*
X154350000Y-102839285D01*
X154207142Y-102839285D01*
X154135714Y-102803571D01*
X154100000Y-102767857D01*
X154064285Y-102696428D01*
X154064285Y-102517857D01*
X154100000Y-102446428D01*
X154135714Y-102410714D01*
X154207142Y-102375000D01*
X154350000Y-102375000D01*
X154421428Y-102410714D01*
X154457142Y-102446428D01*
X154492857Y-102517857D01*
X154850000Y-100046428D02*
X155100000Y-100046428D01*
X155100000Y-100439285D02*
X155100000Y-99689285D01*
X154742857Y-99689285D01*
X154100000Y-99689285D02*
X154457142Y-99689285D01*
X154492857Y-100046428D01*
X154457142Y-100010714D01*
X154385714Y-99975000D01*
X154207142Y-99975000D01*
X154135714Y-100010714D01*
X154100000Y-100046428D01*
X154064285Y-100117857D01*
X154064285Y-100296428D01*
X154100000Y-100367857D01*
X154135714Y-100403571D01*
X154207142Y-100439285D01*
X154385714Y-100439285D01*
X154457142Y-100403571D01*
X154492857Y-100367857D01*
X154850000Y-97446428D02*
X155100000Y-97446428D01*
X155100000Y-97839285D02*
X155100000Y-97089285D01*
X154742857Y-97089285D01*
X154135714Y-97339285D02*
X154135714Y-97839285D01*
X154314285Y-97053571D02*
X154492857Y-97589285D01*
X154028571Y-97589285D01*
X154742857Y-107189285D02*
X155100000Y-107189285D01*
X155135714Y-107546428D01*
X155100000Y-107510714D01*
X155028571Y-107475000D01*
X154850000Y-107475000D01*
X154778571Y-107510714D01*
X154742857Y-107546428D01*
X154707142Y-107617857D01*
X154707142Y-107796428D01*
X154742857Y-107867857D01*
X154778571Y-107903571D01*
X154850000Y-107939285D01*
X155028571Y-107939285D01*
X155100000Y-107903571D01*
X155135714Y-107867857D01*
X154492857Y-107189285D02*
X154242857Y-107939285D01*
X153992857Y-107189285D01*
X145871428Y-107825000D02*
X145514285Y-107825000D01*
X145942857Y-108039285D02*
X145692857Y-107289285D01*
X145442857Y-108039285D01*
X145192857Y-108039285D02*
X145192857Y-107289285D01*
X144764285Y-108039285D01*
X144764285Y-107289285D01*
X146521428Y-105439285D02*
X146521428Y-104689285D01*
X146092857Y-105439285D01*
X146092857Y-104689285D01*
X145735714Y-105439285D02*
X145735714Y-104689285D01*
X145485714Y-105225000D01*
X145235714Y-104689285D01*
X145235714Y-105439285D01*
X144878571Y-105439285D02*
X144878571Y-104689285D01*
X146010714Y-102139285D02*
X146260714Y-101782142D01*
X146439285Y-102139285D02*
X146439285Y-101389285D01*
X146153571Y-101389285D01*
X146082142Y-101425000D01*
X146046428Y-101460714D01*
X146010714Y-101532142D01*
X146010714Y-101639285D01*
X146046428Y-101710714D01*
X146082142Y-101746428D01*
X146153571Y-101782142D01*
X146439285Y-101782142D01*
X145725000Y-102103571D02*
X145617857Y-102139285D01*
X145439285Y-102139285D01*
X145367857Y-102103571D01*
X145332142Y-102067857D01*
X145296428Y-101996428D01*
X145296428Y-101925000D01*
X145332142Y-101853571D01*
X145367857Y-101817857D01*
X145439285Y-101782142D01*
X145582142Y-101746428D01*
X145653571Y-101710714D01*
X145689285Y-101675000D01*
X145725000Y-101603571D01*
X145725000Y-101532142D01*
X145689285Y-101460714D01*
X145653571Y-101425000D01*
X145582142Y-101389285D01*
X145403571Y-101389285D01*
X145296428Y-101425000D01*
X145082142Y-101389285D02*
X144653571Y-101389285D01*
X144867857Y-102139285D02*
X144867857Y-101389285D01*
X146917857Y-97203571D02*
X146810714Y-97239285D01*
X146632142Y-97239285D01*
X146560714Y-97203571D01*
X146525000Y-97167857D01*
X146489285Y-97096428D01*
X146489285Y-97025000D01*
X146525000Y-96953571D01*
X146560714Y-96917857D01*
X146632142Y-96882142D01*
X146775000Y-96846428D01*
X146846428Y-96810714D01*
X146882142Y-96775000D01*
X146917857Y-96703571D01*
X146917857Y-96632142D01*
X146882142Y-96560714D01*
X146846428Y-96525000D01*
X146775000Y-96489285D01*
X146596428Y-96489285D01*
X146489285Y-96525000D01*
X146239285Y-96489285D02*
X146060714Y-97239285D01*
X145917857Y-96703571D01*
X145775000Y-97239285D01*
X145596428Y-96489285D01*
X144882142Y-97167857D02*
X144917857Y-97203571D01*
X145025000Y-97239285D01*
X145096428Y-97239285D01*
X145203571Y-97203571D01*
X145275000Y-97132142D01*
X145310714Y-97060714D01*
X145346428Y-96917857D01*
X145346428Y-96810714D01*
X145310714Y-96667857D01*
X145275000Y-96596428D01*
X145203571Y-96525000D01*
X145096428Y-96489285D01*
X145025000Y-96489285D01*
X144917857Y-96525000D01*
X144882142Y-96560714D01*
X146817857Y-100303571D02*
X146710714Y-100339285D01*
X146532142Y-100339285D01*
X146460714Y-100303571D01*
X146425000Y-100267857D01*
X146389285Y-100196428D01*
X146389285Y-100125000D01*
X146425000Y-100053571D01*
X146460714Y-100017857D01*
X146532142Y-99982142D01*
X146675000Y-99946428D01*
X146746428Y-99910714D01*
X146782142Y-99875000D01*
X146817857Y-99803571D01*
X146817857Y-99732142D01*
X146782142Y-99660714D01*
X146746428Y-99625000D01*
X146675000Y-99589285D01*
X146496428Y-99589285D01*
X146389285Y-99625000D01*
X146139285Y-99589285D02*
X145960714Y-100339285D01*
X145817857Y-99803571D01*
X145675000Y-100339285D01*
X145496428Y-99589285D01*
X145210714Y-100339285D02*
X145210714Y-99589285D01*
X145032142Y-99589285D01*
X144925000Y-99625000D01*
X144853571Y-99696428D01*
X144817857Y-99767857D01*
X144782142Y-99910714D01*
X144782142Y-100017857D01*
X144817857Y-100160714D01*
X144853571Y-100232142D01*
X144925000Y-100303571D01*
X145032142Y-100339285D01*
X145210714Y-100339285D01*
D11*
X152725000Y-90935000D02*
X154400000Y-90935000D01*
X152725000Y-90675000D02*
X152725000Y-90935000D01*
X150000000Y-90675000D02*
X152725000Y-90675000D01*
X147275000Y-90675000D02*
X147275000Y-90935000D01*
X150000000Y-90675000D02*
X147275000Y-90675000D01*
X152725000Y-96125000D02*
X152725000Y-95865000D01*
X150000000Y-96125000D02*
X152725000Y-96125000D01*
X147275000Y-96125000D02*
X147275000Y-95865000D01*
X150000000Y-96125000D02*
X147275000Y-96125000D01*
X149150000Y-104900000D02*
X149150000Y-106900000D01*
X150050000Y-104900000D02*
X150050000Y-106900000D01*
X154500000Y-105550000D02*
X152500000Y-105550000D01*
X154500000Y-106450000D02*
X152500000Y-106450000D01*
X152610000Y-102135000D02*
X152610000Y-102610000D01*
X147390000Y-97390000D02*
X147865000Y-97390000D01*
X147390000Y-97865000D02*
X147390000Y-97390000D01*
X147390000Y-102610000D02*
X147865000Y-102610000D01*
X147390000Y-102135000D02*
X147390000Y-102610000D01*
X152610000Y-97390000D02*
X152135000Y-97390000D01*
X152610000Y-97865000D02*
X152610000Y-97390000D01*
D10*
X150761904Y-91252380D02*
X150761904Y-92061904D01*
X150714285Y-92157142D01*
X150666666Y-92204761D01*
X150571428Y-92252380D01*
X150380952Y-92252380D01*
X150285714Y-92204761D01*
X150238095Y-92157142D01*
X150190476Y-92061904D01*
X150190476Y-91252380D01*
X149761904Y-91347619D02*
X149714285Y-91300000D01*
X149619047Y-91252380D01*
X149380952Y-91252380D01*
X149285714Y-91300000D01*
X149238095Y-91347619D01*
X149190476Y-91442857D01*
X149190476Y-91538095D01*
X149238095Y-91680952D01*
X149809523Y-92252380D01*
X149190476Y-92252380D01*
M02*
