%FSLAX45Y45*%
G04 Gerber Fmt 4.5, Leading zero omitted, Abs format (unit mm)*
G04 Created by KiCad (PCBNEW 5.99.0-unknown-c3175b4~86~ubuntu16.04.1) date 2020-03-23 02:21:19*
%MOMM*%
%LPD*%
G04 APERTURE LIST*
%ADD10C,0.050000*%
%ADD11C,0.200000*%
%ADD12C,0.300000*%
G04 APERTURE END LIST*
D10*
X15750000Y-10900000D02*
G75*
G02X15650000Y-11000000I-100000J0D01*
G01*
X14350000Y-11000000D02*
G75*
G02X14250000Y-10900000I0J100000D01*
G01*
X14250000Y-9100000D02*
G75*
G02X14350000Y-9000000I100000J0D01*
G01*
X15650000Y-9000000D02*
G75*
G02X15750000Y-9100000I0J-100000D01*
G01*
X14350000Y-11000000D02*
X15650000Y-11000000D01*
X14250000Y-9100000D02*
X14250000Y-10900000D01*
X15650000Y-9000000D02*
X14350000Y-9000000D01*
X15750000Y-10900000D02*
X15750000Y-9100000D01*
D11*
X14497300Y-10657300D02*
X14522700Y-10682700D01*
X14522700Y-10657300D02*
X14497300Y-10682700D01*
X14537300Y-10837300D02*
X14562700Y-10862700D01*
X14562700Y-10837300D02*
X14537300Y-10862700D01*
X14547300Y-9847300D02*
X14572700Y-9872700D01*
X14572700Y-9847300D02*
X14547300Y-9872700D01*
X14610201Y-10125481D02*
X14635601Y-10150881D01*
X14635601Y-10125481D02*
X14610201Y-10150881D01*
X14627300Y-9687300D02*
X14652700Y-9712700D01*
X14652700Y-9687300D02*
X14627300Y-9712700D01*
X14651801Y-9917300D02*
X14677201Y-9942700D01*
X14677201Y-9917300D02*
X14651801Y-9942700D01*
X14657300Y-10717300D02*
X14682700Y-10742700D01*
X14682700Y-10717300D02*
X14657300Y-10742700D01*
X14717300Y-9747300D02*
X14742700Y-9772700D01*
X14742700Y-9747300D02*
X14717300Y-9772700D01*
X14727300Y-10237300D02*
X14752700Y-10262700D01*
X14752700Y-10237300D02*
X14727300Y-10262700D01*
X14727300Y-10337300D02*
X14752700Y-10362700D01*
X14752700Y-10337300D02*
X14727300Y-10362700D01*
X14787300Y-10467300D02*
X14812700Y-10492700D01*
X14812700Y-10467300D02*
X14787300Y-10492700D01*
X14787300Y-10607300D02*
X14812700Y-10632700D01*
X14812700Y-10607300D02*
X14787300Y-10632700D01*
X14837300Y-9577300D02*
X14862700Y-9602700D01*
X14862700Y-9577300D02*
X14837300Y-9602700D01*
X14847300Y-9927300D02*
X14872700Y-9952700D01*
X14872700Y-9927300D02*
X14847300Y-9952700D01*
X14907300Y-10317300D02*
X14932700Y-10342700D01*
X14932700Y-10317300D02*
X14907300Y-10342700D01*
X14937300Y-9577300D02*
X14962700Y-9602700D01*
X14962700Y-9577300D02*
X14937300Y-9602700D01*
X15017300Y-10327300D02*
X15042700Y-10352700D01*
X15042700Y-10327300D02*
X15017300Y-10352700D01*
X15037300Y-9253221D02*
X15062700Y-9278621D01*
X15062700Y-9253221D02*
X15037300Y-9278621D01*
X15066899Y-9657300D02*
X15092299Y-9682700D01*
X15092299Y-9657300D02*
X15066899Y-9682700D01*
X15067300Y-9847300D02*
X15092700Y-9872700D01*
X15092700Y-9847300D02*
X15067300Y-9872700D01*
X15067300Y-10387300D02*
X15092700Y-10412700D01*
X15092700Y-10387300D02*
X15067300Y-10412700D01*
X15117300Y-10467300D02*
X15142700Y-10492700D01*
X15142700Y-10467300D02*
X15117300Y-10492700D01*
X15137300Y-9347300D02*
X15162700Y-9372700D01*
X15162700Y-9347300D02*
X15137300Y-9372700D01*
X15187300Y-10587300D02*
X15212700Y-10612700D01*
X15212700Y-10587300D02*
X15187300Y-10612700D01*
X15197300Y-9657300D02*
X15222700Y-9682700D01*
X15222700Y-9657300D02*
X15197300Y-9682700D01*
X15227300Y-9277300D02*
X15252700Y-9302700D01*
X15252700Y-9277300D02*
X15227300Y-9302700D01*
X15227300Y-9407300D02*
X15252700Y-9432700D01*
X15252700Y-9407300D02*
X15227300Y-9432700D01*
X15247300Y-10287300D02*
X15272700Y-10312700D01*
X15272700Y-10287300D02*
X15247300Y-10312700D01*
X15254572Y-9744572D02*
X15279972Y-9769972D01*
X15279972Y-9744572D02*
X15254572Y-9769972D01*
X15317300Y-9657300D02*
X15342700Y-9682700D01*
X15342700Y-9657300D02*
X15317300Y-9682700D01*
X15427300Y-9557300D02*
X15452700Y-9582700D01*
X15452700Y-9557300D02*
X15427300Y-9582700D01*
X15437300Y-10837300D02*
X15462700Y-10862700D01*
X15462700Y-10837300D02*
X15437300Y-10862700D01*
X14695000Y-10860000D02*
G75*
G03X14695000Y-10860000I-25000J0D01*
G01*
X14655000Y-10825000D02*
X14655000Y-10895000D01*
X14685000Y-10825000D02*
X14685000Y-10895000D01*
X14655000Y-10895000D02*
G75*
G03X14685000Y-10895000I15000J0D01*
G01*
X14685000Y-10825000D02*
G75*
G03X14655000Y-10825000I-15000J0D01*
G01*
X15355000Y-10860000D02*
G75*
G03X15355000Y-10860000I-25000J0D01*
G01*
X15315000Y-10825000D02*
X15315000Y-10895000D01*
X15345000Y-10825000D02*
X15345000Y-10895000D01*
X15315000Y-10895000D02*
G75*
G03X15345000Y-10895000I15000J0D01*
G01*
X15345000Y-10825000D02*
G75*
G03X15315000Y-10825000I-15000J0D01*
G01*
X14365000Y-9061000D02*
X14365000Y-9161000D01*
X14315000Y-9111000D02*
X14415000Y-9111000D01*
X14365000Y-9315000D02*
X14365000Y-9415000D01*
X14315000Y-9365000D02*
X14415000Y-9365000D01*
X14365000Y-9569000D02*
X14365000Y-9669000D01*
X14315000Y-9619000D02*
X14415000Y-9619000D01*
X14365000Y-9823000D02*
X14365000Y-9923000D01*
X14315000Y-9873000D02*
X14415000Y-9873000D01*
X14365000Y-10077000D02*
X14365000Y-10177000D01*
X14315000Y-10127000D02*
X14415000Y-10127000D01*
X14365000Y-10331000D02*
X14365000Y-10431000D01*
X14315000Y-10381000D02*
X14415000Y-10381000D01*
X14365000Y-10585000D02*
X14365000Y-10685000D01*
X14315000Y-10635000D02*
X14415000Y-10635000D01*
X14365000Y-10839000D02*
X14365000Y-10939000D01*
X14315000Y-10889000D02*
X14415000Y-10889000D01*
X15635000Y-9061000D02*
X15635000Y-9161000D01*
X15585000Y-9111000D02*
X15685000Y-9111000D01*
X15635000Y-9315000D02*
X15635000Y-9415000D01*
X15585000Y-9365000D02*
X15685000Y-9365000D01*
X15635000Y-9569000D02*
X15635000Y-9669000D01*
X15585000Y-9619000D02*
X15685000Y-9619000D01*
X15635000Y-9823000D02*
X15635000Y-9923000D01*
X15585000Y-9873000D02*
X15685000Y-9873000D01*
X15635000Y-10077000D02*
X15635000Y-10177000D01*
X15585000Y-10127000D02*
X15685000Y-10127000D01*
X15635000Y-10331000D02*
X15635000Y-10431000D01*
X15585000Y-10381000D02*
X15685000Y-10381000D01*
X15635000Y-10585000D02*
X15635000Y-10685000D01*
X15585000Y-10635000D02*
X15685000Y-10635000D01*
X15635000Y-10839000D02*
X15635000Y-10939000D01*
X15585000Y-10889000D02*
X15685000Y-10889000D01*
X14687678Y-10877678D02*
X14687678Y-10842322D01*
X14652322Y-10842322D01*
X14652322Y-10877678D01*
X14687678Y-10877678D01*
X15347678Y-10877678D02*
X15347678Y-10842322D01*
X15312322Y-10842322D01*
X15312322Y-10877678D01*
X15347678Y-10877678D01*
D12*
X14533928Y-11468214D02*
X14533928Y-11168214D01*
X14605357Y-11168214D01*
X14648214Y-11182500D01*
X14676786Y-11211071D01*
X14691071Y-11239643D01*
X14705357Y-11296786D01*
X14705357Y-11339643D01*
X14691071Y-11396786D01*
X14676786Y-11425357D01*
X14648214Y-11453929D01*
X14605357Y-11468214D01*
X14533928Y-11468214D01*
X14833928Y-11468214D02*
X14833928Y-11268214D01*
X14833928Y-11325357D02*
X14848214Y-11296786D01*
X14862500Y-11282500D01*
X14891071Y-11268214D01*
X14919643Y-11268214D01*
X15019643Y-11468214D02*
X15019643Y-11268214D01*
X15019643Y-11168214D02*
X15005357Y-11182500D01*
X15019643Y-11196786D01*
X15033928Y-11182500D01*
X15019643Y-11168214D01*
X15019643Y-11196786D01*
X15205357Y-11468214D02*
X15176786Y-11453929D01*
X15162500Y-11425357D01*
X15162500Y-11168214D01*
X15362500Y-11468214D02*
X15333928Y-11453929D01*
X15319643Y-11425357D01*
X15319643Y-11168214D01*
X15705357Y-11468214D02*
X15705357Y-11168214D01*
X15805357Y-11382500D01*
X15905357Y-11168214D01*
X15905357Y-11468214D01*
X16176786Y-11468214D02*
X16176786Y-11311071D01*
X16162500Y-11282500D01*
X16133928Y-11268214D01*
X16076786Y-11268214D01*
X16048214Y-11282500D01*
X16176786Y-11453929D02*
X16148214Y-11468214D01*
X16076786Y-11468214D01*
X16048214Y-11453929D01*
X16033928Y-11425357D01*
X16033928Y-11396786D01*
X16048214Y-11368214D01*
X16076786Y-11353929D01*
X16148214Y-11353929D01*
X16176786Y-11339643D01*
X16319643Y-11268214D02*
X16319643Y-11568214D01*
X16319643Y-11282500D02*
X16348214Y-11268214D01*
X16405357Y-11268214D01*
X16433928Y-11282500D01*
X16448214Y-11296786D01*
X16462500Y-11325357D01*
X16462500Y-11411071D01*
X16448214Y-11439643D01*
X16433928Y-11453929D01*
X16405357Y-11468214D01*
X16348214Y-11468214D01*
X16319643Y-11453929D01*
X16591071Y-11439643D02*
X16605357Y-11453929D01*
X16591071Y-11468214D01*
X16576786Y-11453929D01*
X16591071Y-11439643D01*
X16591071Y-11468214D01*
X16591071Y-11282500D02*
X16605357Y-11296786D01*
X16591071Y-11311071D01*
X16576786Y-11296786D01*
X16591071Y-11282500D01*
X16591071Y-11311071D01*
X14222100Y-11949800D02*
X14247500Y-11975200D01*
X14247500Y-11949800D02*
X14222100Y-11975200D01*
X14591071Y-11798214D02*
X14619643Y-11798214D01*
X14648214Y-11812500D01*
X14662500Y-11826786D01*
X14676786Y-11855357D01*
X14691071Y-11912500D01*
X14691071Y-11983929D01*
X14676786Y-12041071D01*
X14662500Y-12069643D01*
X14648214Y-12083929D01*
X14619643Y-12098214D01*
X14591071Y-12098214D01*
X14562500Y-12083929D01*
X14548214Y-12069643D01*
X14533928Y-12041071D01*
X14519643Y-11983929D01*
X14519643Y-11912500D01*
X14533928Y-11855357D01*
X14548214Y-11826786D01*
X14562500Y-11812500D01*
X14591071Y-11798214D01*
X14819643Y-12069643D02*
X14833928Y-12083929D01*
X14819643Y-12098214D01*
X14805357Y-12083929D01*
X14819643Y-12069643D01*
X14819643Y-12098214D01*
X14948214Y-11826786D02*
X14962500Y-11812500D01*
X14991071Y-11798214D01*
X15062500Y-11798214D01*
X15091071Y-11812500D01*
X15105357Y-11826786D01*
X15119643Y-11855357D01*
X15119643Y-11883929D01*
X15105357Y-11926786D01*
X14933928Y-12098214D01*
X15119643Y-12098214D01*
X15391071Y-11798214D02*
X15248214Y-11798214D01*
X15233928Y-11941071D01*
X15248214Y-11926786D01*
X15276786Y-11912500D01*
X15348214Y-11912500D01*
X15376786Y-11926786D01*
X15391071Y-11941071D01*
X15405357Y-11969643D01*
X15405357Y-12041071D01*
X15391071Y-12069643D01*
X15376786Y-12083929D01*
X15348214Y-12098214D01*
X15276786Y-12098214D01*
X15248214Y-12083929D01*
X15233928Y-12069643D01*
X15533928Y-12098214D02*
X15533928Y-11898214D01*
X15533928Y-11926786D02*
X15548214Y-11912500D01*
X15576786Y-11898214D01*
X15619643Y-11898214D01*
X15648214Y-11912500D01*
X15662500Y-11941071D01*
X15662500Y-12098214D01*
X15662500Y-11941071D02*
X15676786Y-11912500D01*
X15705357Y-11898214D01*
X15748214Y-11898214D01*
X15776786Y-11912500D01*
X15791071Y-11941071D01*
X15791071Y-12098214D01*
X15933928Y-12098214D02*
X15933928Y-11898214D01*
X15933928Y-11926786D02*
X15948214Y-11912500D01*
X15976786Y-11898214D01*
X16019643Y-11898214D01*
X16048214Y-11912500D01*
X16062500Y-11941071D01*
X16062500Y-12098214D01*
X16062500Y-11941071D02*
X16076786Y-11912500D01*
X16105357Y-11898214D01*
X16148214Y-11898214D01*
X16176786Y-11912500D01*
X16191071Y-11941071D01*
X16191071Y-12098214D01*
X16776786Y-11783929D02*
X16519643Y-12169643D01*
X17162500Y-11798214D02*
X17191071Y-11798214D01*
X17219643Y-11812500D01*
X17233928Y-11826786D01*
X17248214Y-11855357D01*
X17262500Y-11912500D01*
X17262500Y-11983929D01*
X17248214Y-12041071D01*
X17233928Y-12069643D01*
X17219643Y-12083929D01*
X17191071Y-12098214D01*
X17162500Y-12098214D01*
X17133928Y-12083929D01*
X17119643Y-12069643D01*
X17105357Y-12041071D01*
X17091071Y-11983929D01*
X17091071Y-11912500D01*
X17105357Y-11855357D01*
X17119643Y-11826786D01*
X17133928Y-11812500D01*
X17162500Y-11798214D01*
X17391071Y-12069643D02*
X17405357Y-12083929D01*
X17391071Y-12098214D01*
X17376786Y-12083929D01*
X17391071Y-12069643D01*
X17391071Y-12098214D01*
X17591071Y-11798214D02*
X17619643Y-11798214D01*
X17648214Y-11812500D01*
X17662500Y-11826786D01*
X17676786Y-11855357D01*
X17691071Y-11912500D01*
X17691071Y-11983929D01*
X17676786Y-12041071D01*
X17662500Y-12069643D01*
X17648214Y-12083929D01*
X17619643Y-12098214D01*
X17591071Y-12098214D01*
X17562500Y-12083929D01*
X17548214Y-12069643D01*
X17533928Y-12041071D01*
X17519643Y-11983929D01*
X17519643Y-11912500D01*
X17533928Y-11855357D01*
X17548214Y-11826786D01*
X17562500Y-11812500D01*
X17591071Y-11798214D01*
X17976786Y-12098214D02*
X17805357Y-12098214D01*
X17891071Y-12098214D02*
X17891071Y-11798214D01*
X17862500Y-11841071D01*
X17833928Y-11869643D01*
X17805357Y-11883929D01*
X18162500Y-11798214D02*
X18191071Y-11798214D01*
X18219643Y-11812500D01*
X18233928Y-11826786D01*
X18248214Y-11855357D01*
X18262500Y-11912500D01*
X18262500Y-11983929D01*
X18248214Y-12041071D01*
X18233928Y-12069643D01*
X18219643Y-12083929D01*
X18191071Y-12098214D01*
X18162500Y-12098214D01*
X18133928Y-12083929D01*
X18119643Y-12069643D01*
X18105357Y-12041071D01*
X18091071Y-11983929D01*
X18091071Y-11912500D01*
X18105357Y-11855357D01*
X18119643Y-11826786D01*
X18133928Y-11812500D01*
X18162500Y-11798214D01*
X18376786Y-11798214D02*
X18376786Y-11855357D01*
X18491071Y-11798214D02*
X18491071Y-11855357D01*
X18933928Y-12212500D02*
X18919643Y-12198214D01*
X18891071Y-12155357D01*
X18876786Y-12126786D01*
X18862500Y-12083929D01*
X18848214Y-12012500D01*
X18848214Y-11955357D01*
X18862500Y-11883929D01*
X18876786Y-11841071D01*
X18891071Y-11812500D01*
X18919643Y-11769643D01*
X18933928Y-11755357D01*
X19019643Y-11798214D02*
X19205357Y-11798214D01*
X19105357Y-11912500D01*
X19148214Y-11912500D01*
X19176786Y-11926786D01*
X19191071Y-11941071D01*
X19205357Y-11969643D01*
X19205357Y-12041071D01*
X19191071Y-12069643D01*
X19176786Y-12083929D01*
X19148214Y-12098214D01*
X19062500Y-12098214D01*
X19033928Y-12083929D01*
X19019643Y-12069643D01*
X19319643Y-11826786D02*
X19333928Y-11812500D01*
X19362500Y-11798214D01*
X19433928Y-11798214D01*
X19462500Y-11812500D01*
X19476786Y-11826786D01*
X19491071Y-11855357D01*
X19491071Y-11883929D01*
X19476786Y-11926786D01*
X19305357Y-12098214D01*
X19491071Y-12098214D01*
X19848214Y-12098214D02*
X19848214Y-11798214D01*
X19976786Y-12098214D02*
X19976786Y-11941071D01*
X19962500Y-11912500D01*
X19933928Y-11898214D01*
X19891071Y-11898214D01*
X19862500Y-11912500D01*
X19848214Y-11926786D01*
X20162500Y-12098214D02*
X20133928Y-12083929D01*
X20119643Y-12069643D01*
X20105357Y-12041071D01*
X20105357Y-11955357D01*
X20119643Y-11926786D01*
X20133928Y-11912500D01*
X20162500Y-11898214D01*
X20205357Y-11898214D01*
X20233928Y-11912500D01*
X20248214Y-11926786D01*
X20262500Y-11955357D01*
X20262500Y-12041071D01*
X20248214Y-12069643D01*
X20233928Y-12083929D01*
X20205357Y-12098214D01*
X20162500Y-12098214D01*
X20433928Y-12098214D02*
X20405357Y-12083929D01*
X20391071Y-12055357D01*
X20391071Y-11798214D01*
X20662500Y-12083929D02*
X20633928Y-12098214D01*
X20576786Y-12098214D01*
X20548214Y-12083929D01*
X20533928Y-12055357D01*
X20533928Y-11941071D01*
X20548214Y-11912500D01*
X20576786Y-11898214D01*
X20633928Y-11898214D01*
X20662500Y-11912500D01*
X20676786Y-11941071D01*
X20676786Y-11969643D01*
X20533928Y-11998214D01*
X20791071Y-12083929D02*
X20819643Y-12098214D01*
X20876786Y-12098214D01*
X20905357Y-12083929D01*
X20919643Y-12055357D01*
X20919643Y-12041071D01*
X20905357Y-12012500D01*
X20876786Y-11998214D01*
X20833928Y-11998214D01*
X20805357Y-11983929D01*
X20791071Y-11955357D01*
X20791071Y-11941071D01*
X20805357Y-11912500D01*
X20833928Y-11898214D01*
X20876786Y-11898214D01*
X20905357Y-11912500D01*
X21019643Y-12212500D02*
X21033928Y-12198214D01*
X21062500Y-12155357D01*
X21076786Y-12126786D01*
X21091071Y-12083929D01*
X21105357Y-12012500D01*
X21105357Y-11955357D01*
X21091071Y-11883929D01*
X21076786Y-11841071D01*
X21062500Y-11812500D01*
X21033928Y-11769643D01*
X21019643Y-11755357D01*
X14247500Y-12358500D02*
G75*
G03X14247500Y-12358500I-25000J0D01*
G01*
X14591071Y-12194214D02*
X14619643Y-12194214D01*
X14648214Y-12208500D01*
X14662500Y-12222786D01*
X14676786Y-12251357D01*
X14691071Y-12308500D01*
X14691071Y-12379929D01*
X14676786Y-12437071D01*
X14662500Y-12465643D01*
X14648214Y-12479929D01*
X14619643Y-12494214D01*
X14591071Y-12494214D01*
X14562500Y-12479929D01*
X14548214Y-12465643D01*
X14533928Y-12437071D01*
X14519643Y-12379929D01*
X14519643Y-12308500D01*
X14533928Y-12251357D01*
X14548214Y-12222786D01*
X14562500Y-12208500D01*
X14591071Y-12194214D01*
X14819643Y-12465643D02*
X14833928Y-12479929D01*
X14819643Y-12494214D01*
X14805357Y-12479929D01*
X14819643Y-12465643D01*
X14819643Y-12494214D01*
X15105357Y-12194214D02*
X14962500Y-12194214D01*
X14948214Y-12337071D01*
X14962500Y-12322786D01*
X14991071Y-12308500D01*
X15062500Y-12308500D01*
X15091071Y-12322786D01*
X15105357Y-12337071D01*
X15119643Y-12365643D01*
X15119643Y-12437071D01*
X15105357Y-12465643D01*
X15091071Y-12479929D01*
X15062500Y-12494214D01*
X14991071Y-12494214D01*
X14962500Y-12479929D01*
X14948214Y-12465643D01*
X15305357Y-12194214D02*
X15333928Y-12194214D01*
X15362500Y-12208500D01*
X15376786Y-12222786D01*
X15391071Y-12251357D01*
X15405357Y-12308500D01*
X15405357Y-12379929D01*
X15391071Y-12437071D01*
X15376786Y-12465643D01*
X15362500Y-12479929D01*
X15333928Y-12494214D01*
X15305357Y-12494214D01*
X15276786Y-12479929D01*
X15262500Y-12465643D01*
X15248214Y-12437071D01*
X15233928Y-12379929D01*
X15233928Y-12308500D01*
X15248214Y-12251357D01*
X15262500Y-12222786D01*
X15276786Y-12208500D01*
X15305357Y-12194214D01*
X15533928Y-12494214D02*
X15533928Y-12294214D01*
X15533928Y-12322786D02*
X15548214Y-12308500D01*
X15576786Y-12294214D01*
X15619643Y-12294214D01*
X15648214Y-12308500D01*
X15662500Y-12337071D01*
X15662500Y-12494214D01*
X15662500Y-12337071D02*
X15676786Y-12308500D01*
X15705357Y-12294214D01*
X15748214Y-12294214D01*
X15776786Y-12308500D01*
X15791071Y-12337071D01*
X15791071Y-12494214D01*
X15933928Y-12494214D02*
X15933928Y-12294214D01*
X15933928Y-12322786D02*
X15948214Y-12308500D01*
X15976786Y-12294214D01*
X16019643Y-12294214D01*
X16048214Y-12308500D01*
X16062500Y-12337071D01*
X16062500Y-12494214D01*
X16062500Y-12337071D02*
X16076786Y-12308500D01*
X16105357Y-12294214D01*
X16148214Y-12294214D01*
X16176786Y-12308500D01*
X16191071Y-12337071D01*
X16191071Y-12494214D01*
X16776786Y-12179929D02*
X16519643Y-12565643D01*
X17162500Y-12194214D02*
X17191071Y-12194214D01*
X17219643Y-12208500D01*
X17233928Y-12222786D01*
X17248214Y-12251357D01*
X17262500Y-12308500D01*
X17262500Y-12379929D01*
X17248214Y-12437071D01*
X17233928Y-12465643D01*
X17219643Y-12479929D01*
X17191071Y-12494214D01*
X17162500Y-12494214D01*
X17133928Y-12479929D01*
X17119643Y-12465643D01*
X17105357Y-12437071D01*
X17091071Y-12379929D01*
X17091071Y-12308500D01*
X17105357Y-12251357D01*
X17119643Y-12222786D01*
X17133928Y-12208500D01*
X17162500Y-12194214D01*
X17391071Y-12465643D02*
X17405357Y-12479929D01*
X17391071Y-12494214D01*
X17376786Y-12479929D01*
X17391071Y-12465643D01*
X17391071Y-12494214D01*
X17591071Y-12194214D02*
X17619643Y-12194214D01*
X17648214Y-12208500D01*
X17662500Y-12222786D01*
X17676786Y-12251357D01*
X17691071Y-12308500D01*
X17691071Y-12379929D01*
X17676786Y-12437071D01*
X17662500Y-12465643D01*
X17648214Y-12479929D01*
X17619643Y-12494214D01*
X17591071Y-12494214D01*
X17562500Y-12479929D01*
X17548214Y-12465643D01*
X17533928Y-12437071D01*
X17519643Y-12379929D01*
X17519643Y-12308500D01*
X17533928Y-12251357D01*
X17548214Y-12222786D01*
X17562500Y-12208500D01*
X17591071Y-12194214D01*
X17805357Y-12222786D02*
X17819643Y-12208500D01*
X17848214Y-12194214D01*
X17919643Y-12194214D01*
X17948214Y-12208500D01*
X17962500Y-12222786D01*
X17976786Y-12251357D01*
X17976786Y-12279929D01*
X17962500Y-12322786D01*
X17791071Y-12494214D01*
X17976786Y-12494214D01*
X18162500Y-12194214D02*
X18191071Y-12194214D01*
X18219643Y-12208500D01*
X18233928Y-12222786D01*
X18248214Y-12251357D01*
X18262500Y-12308500D01*
X18262500Y-12379929D01*
X18248214Y-12437071D01*
X18233928Y-12465643D01*
X18219643Y-12479929D01*
X18191071Y-12494214D01*
X18162500Y-12494214D01*
X18133928Y-12479929D01*
X18119643Y-12465643D01*
X18105357Y-12437071D01*
X18091071Y-12379929D01*
X18091071Y-12308500D01*
X18105357Y-12251357D01*
X18119643Y-12222786D01*
X18133928Y-12208500D01*
X18162500Y-12194214D01*
X18376786Y-12194214D02*
X18376786Y-12251357D01*
X18491071Y-12194214D02*
X18491071Y-12251357D01*
X18933928Y-12608500D02*
X18919643Y-12594214D01*
X18891071Y-12551357D01*
X18876786Y-12522786D01*
X18862500Y-12479929D01*
X18848214Y-12408500D01*
X18848214Y-12351357D01*
X18862500Y-12279929D01*
X18876786Y-12237071D01*
X18891071Y-12208500D01*
X18919643Y-12165643D01*
X18933928Y-12151357D01*
X19105357Y-12194214D02*
X19133928Y-12194214D01*
X19162500Y-12208500D01*
X19176786Y-12222786D01*
X19191071Y-12251357D01*
X19205357Y-12308500D01*
X19205357Y-12379929D01*
X19191071Y-12437071D01*
X19176786Y-12465643D01*
X19162500Y-12479929D01*
X19133928Y-12494214D01*
X19105357Y-12494214D01*
X19076786Y-12479929D01*
X19062500Y-12465643D01*
X19048214Y-12437071D01*
X19033928Y-12379929D01*
X19033928Y-12308500D01*
X19048214Y-12251357D01*
X19062500Y-12222786D01*
X19076786Y-12208500D01*
X19105357Y-12194214D01*
X19562500Y-12494214D02*
X19562500Y-12194214D01*
X19691071Y-12494214D02*
X19691071Y-12337071D01*
X19676786Y-12308500D01*
X19648214Y-12294214D01*
X19605357Y-12294214D01*
X19576786Y-12308500D01*
X19562500Y-12322786D01*
X19876786Y-12494214D02*
X19848214Y-12479929D01*
X19833928Y-12465643D01*
X19819643Y-12437071D01*
X19819643Y-12351357D01*
X19833928Y-12322786D01*
X19848214Y-12308500D01*
X19876786Y-12294214D01*
X19919643Y-12294214D01*
X19948214Y-12308500D01*
X19962500Y-12322786D01*
X19976786Y-12351357D01*
X19976786Y-12437071D01*
X19962500Y-12465643D01*
X19948214Y-12479929D01*
X19919643Y-12494214D01*
X19876786Y-12494214D01*
X20148214Y-12494214D02*
X20119643Y-12479929D01*
X20105357Y-12451357D01*
X20105357Y-12194214D01*
X20376786Y-12479929D02*
X20348214Y-12494214D01*
X20291071Y-12494214D01*
X20262500Y-12479929D01*
X20248214Y-12451357D01*
X20248214Y-12337071D01*
X20262500Y-12308500D01*
X20291071Y-12294214D01*
X20348214Y-12294214D01*
X20376786Y-12308500D01*
X20391071Y-12337071D01*
X20391071Y-12365643D01*
X20248214Y-12394214D01*
X20505357Y-12479929D02*
X20533928Y-12494214D01*
X20591071Y-12494214D01*
X20619643Y-12479929D01*
X20633928Y-12451357D01*
X20633928Y-12437071D01*
X20619643Y-12408500D01*
X20591071Y-12394214D01*
X20548214Y-12394214D01*
X20519643Y-12379929D01*
X20505357Y-12351357D01*
X20505357Y-12337071D01*
X20519643Y-12308500D01*
X20548214Y-12294214D01*
X20591071Y-12294214D01*
X20619643Y-12308500D01*
X20991071Y-12379929D02*
X21219643Y-12379929D01*
X21105357Y-12494214D02*
X21105357Y-12265643D01*
X21576786Y-12222786D02*
X21591071Y-12208500D01*
X21619643Y-12194214D01*
X21691071Y-12194214D01*
X21719643Y-12208500D01*
X21733928Y-12222786D01*
X21748214Y-12251357D01*
X21748214Y-12279929D01*
X21733928Y-12322786D01*
X21562500Y-12494214D01*
X21748214Y-12494214D01*
X22091071Y-12479929D02*
X22119643Y-12494214D01*
X22176786Y-12494214D01*
X22205357Y-12479929D01*
X22219643Y-12451357D01*
X22219643Y-12437071D01*
X22205357Y-12408500D01*
X22176786Y-12394214D01*
X22133928Y-12394214D01*
X22105357Y-12379929D01*
X22091071Y-12351357D01*
X22091071Y-12337071D01*
X22105357Y-12308500D01*
X22133928Y-12294214D01*
X22176786Y-12294214D01*
X22205357Y-12308500D01*
X22391071Y-12494214D02*
X22362500Y-12479929D01*
X22348214Y-12451357D01*
X22348214Y-12194214D01*
X22548214Y-12494214D02*
X22519643Y-12479929D01*
X22505357Y-12465643D01*
X22491071Y-12437071D01*
X22491071Y-12351357D01*
X22505357Y-12322786D01*
X22519643Y-12308500D01*
X22548214Y-12294214D01*
X22591071Y-12294214D01*
X22619643Y-12308500D01*
X22633928Y-12322786D01*
X22648214Y-12351357D01*
X22648214Y-12437071D01*
X22633928Y-12465643D01*
X22619643Y-12479929D01*
X22591071Y-12494214D01*
X22548214Y-12494214D01*
X22733928Y-12294214D02*
X22848214Y-12294214D01*
X22776786Y-12194214D02*
X22776786Y-12451357D01*
X22791071Y-12479929D01*
X22819643Y-12494214D01*
X22848214Y-12494214D01*
X22933928Y-12479929D02*
X22962500Y-12494214D01*
X23019643Y-12494214D01*
X23048214Y-12479929D01*
X23062500Y-12451357D01*
X23062500Y-12437071D01*
X23048214Y-12408500D01*
X23019643Y-12394214D01*
X22976786Y-12394214D01*
X22948214Y-12379929D01*
X22933928Y-12351357D01*
X22933928Y-12337071D01*
X22948214Y-12308500D01*
X22976786Y-12294214D01*
X23019643Y-12294214D01*
X23048214Y-12308500D01*
X23162500Y-12608500D02*
X23176786Y-12594214D01*
X23205357Y-12551357D01*
X23219643Y-12522786D01*
X23233928Y-12479929D01*
X23248214Y-12408500D01*
X23248214Y-12351357D01*
X23233928Y-12279929D01*
X23219643Y-12237071D01*
X23205357Y-12208500D01*
X23176786Y-12165643D01*
X23162500Y-12151357D01*
X14197500Y-12704500D02*
X14197500Y-12804500D01*
X14147500Y-12754500D02*
X14247500Y-12754500D01*
X14691071Y-12890214D02*
X14519643Y-12890214D01*
X14605357Y-12890214D02*
X14605357Y-12590214D01*
X14576786Y-12633071D01*
X14548214Y-12661643D01*
X14519643Y-12675929D01*
X14819643Y-12861643D02*
X14833928Y-12875929D01*
X14819643Y-12890214D01*
X14805357Y-12875929D01*
X14819643Y-12861643D01*
X14819643Y-12890214D01*
X15019643Y-12590214D02*
X15048214Y-12590214D01*
X15076786Y-12604500D01*
X15091071Y-12618786D01*
X15105357Y-12647357D01*
X15119643Y-12704500D01*
X15119643Y-12775929D01*
X15105357Y-12833071D01*
X15091071Y-12861643D01*
X15076786Y-12875929D01*
X15048214Y-12890214D01*
X15019643Y-12890214D01*
X14991071Y-12875929D01*
X14976786Y-12861643D01*
X14962500Y-12833071D01*
X14948214Y-12775929D01*
X14948214Y-12704500D01*
X14962500Y-12647357D01*
X14976786Y-12618786D01*
X14991071Y-12604500D01*
X15019643Y-12590214D01*
X15305357Y-12590214D02*
X15333928Y-12590214D01*
X15362500Y-12604500D01*
X15376786Y-12618786D01*
X15391071Y-12647357D01*
X15405357Y-12704500D01*
X15405357Y-12775929D01*
X15391071Y-12833071D01*
X15376786Y-12861643D01*
X15362500Y-12875929D01*
X15333928Y-12890214D01*
X15305357Y-12890214D01*
X15276786Y-12875929D01*
X15262500Y-12861643D01*
X15248214Y-12833071D01*
X15233928Y-12775929D01*
X15233928Y-12704500D01*
X15248214Y-12647357D01*
X15262500Y-12618786D01*
X15276786Y-12604500D01*
X15305357Y-12590214D01*
X15533928Y-12890214D02*
X15533928Y-12690214D01*
X15533928Y-12718786D02*
X15548214Y-12704500D01*
X15576786Y-12690214D01*
X15619643Y-12690214D01*
X15648214Y-12704500D01*
X15662500Y-12733071D01*
X15662500Y-12890214D01*
X15662500Y-12733071D02*
X15676786Y-12704500D01*
X15705357Y-12690214D01*
X15748214Y-12690214D01*
X15776786Y-12704500D01*
X15791071Y-12733071D01*
X15791071Y-12890214D01*
X15933928Y-12890214D02*
X15933928Y-12690214D01*
X15933928Y-12718786D02*
X15948214Y-12704500D01*
X15976786Y-12690214D01*
X16019643Y-12690214D01*
X16048214Y-12704500D01*
X16062500Y-12733071D01*
X16062500Y-12890214D01*
X16062500Y-12733071D02*
X16076786Y-12704500D01*
X16105357Y-12690214D01*
X16148214Y-12690214D01*
X16176786Y-12704500D01*
X16191071Y-12733071D01*
X16191071Y-12890214D01*
X16776786Y-12575929D02*
X16519643Y-12961643D01*
X17162500Y-12590214D02*
X17191071Y-12590214D01*
X17219643Y-12604500D01*
X17233928Y-12618786D01*
X17248214Y-12647357D01*
X17262500Y-12704500D01*
X17262500Y-12775929D01*
X17248214Y-12833071D01*
X17233928Y-12861643D01*
X17219643Y-12875929D01*
X17191071Y-12890214D01*
X17162500Y-12890214D01*
X17133928Y-12875929D01*
X17119643Y-12861643D01*
X17105357Y-12833071D01*
X17091071Y-12775929D01*
X17091071Y-12704500D01*
X17105357Y-12647357D01*
X17119643Y-12618786D01*
X17133928Y-12604500D01*
X17162500Y-12590214D01*
X17391071Y-12861643D02*
X17405357Y-12875929D01*
X17391071Y-12890214D01*
X17376786Y-12875929D01*
X17391071Y-12861643D01*
X17391071Y-12890214D01*
X17591071Y-12590214D02*
X17619643Y-12590214D01*
X17648214Y-12604500D01*
X17662500Y-12618786D01*
X17676786Y-12647357D01*
X17691071Y-12704500D01*
X17691071Y-12775929D01*
X17676786Y-12833071D01*
X17662500Y-12861643D01*
X17648214Y-12875929D01*
X17619643Y-12890214D01*
X17591071Y-12890214D01*
X17562500Y-12875929D01*
X17548214Y-12861643D01*
X17533928Y-12833071D01*
X17519643Y-12775929D01*
X17519643Y-12704500D01*
X17533928Y-12647357D01*
X17548214Y-12618786D01*
X17562500Y-12604500D01*
X17591071Y-12590214D01*
X17791071Y-12590214D02*
X17976786Y-12590214D01*
X17876786Y-12704500D01*
X17919643Y-12704500D01*
X17948214Y-12718786D01*
X17962500Y-12733071D01*
X17976786Y-12761643D01*
X17976786Y-12833071D01*
X17962500Y-12861643D01*
X17948214Y-12875929D01*
X17919643Y-12890214D01*
X17833928Y-12890214D01*
X17805357Y-12875929D01*
X17791071Y-12861643D01*
X18119643Y-12890214D02*
X18176786Y-12890214D01*
X18205357Y-12875929D01*
X18219643Y-12861643D01*
X18248214Y-12818786D01*
X18262500Y-12761643D01*
X18262500Y-12647357D01*
X18248214Y-12618786D01*
X18233928Y-12604500D01*
X18205357Y-12590214D01*
X18148214Y-12590214D01*
X18119643Y-12604500D01*
X18105357Y-12618786D01*
X18091071Y-12647357D01*
X18091071Y-12718786D01*
X18105357Y-12747357D01*
X18119643Y-12761643D01*
X18148214Y-12775929D01*
X18205357Y-12775929D01*
X18233928Y-12761643D01*
X18248214Y-12747357D01*
X18262500Y-12718786D01*
X18376786Y-12590214D02*
X18376786Y-12647357D01*
X18491071Y-12590214D02*
X18491071Y-12647357D01*
X18933928Y-13004500D02*
X18919643Y-12990214D01*
X18891071Y-12947357D01*
X18876786Y-12918786D01*
X18862500Y-12875929D01*
X18848214Y-12804500D01*
X18848214Y-12747357D01*
X18862500Y-12675929D01*
X18876786Y-12633071D01*
X18891071Y-12604500D01*
X18919643Y-12561643D01*
X18933928Y-12547357D01*
X19205357Y-12890214D02*
X19033928Y-12890214D01*
X19119643Y-12890214D02*
X19119643Y-12590214D01*
X19091071Y-12633071D01*
X19062500Y-12661643D01*
X19033928Y-12675929D01*
X19462500Y-12590214D02*
X19405357Y-12590214D01*
X19376786Y-12604500D01*
X19362500Y-12618786D01*
X19333928Y-12661643D01*
X19319643Y-12718786D01*
X19319643Y-12833071D01*
X19333928Y-12861643D01*
X19348214Y-12875929D01*
X19376786Y-12890214D01*
X19433928Y-12890214D01*
X19462500Y-12875929D01*
X19476786Y-12861643D01*
X19491071Y-12833071D01*
X19491071Y-12761643D01*
X19476786Y-12733071D01*
X19462500Y-12718786D01*
X19433928Y-12704500D01*
X19376786Y-12704500D01*
X19348214Y-12718786D01*
X19333928Y-12733071D01*
X19319643Y-12761643D01*
X19848214Y-12890214D02*
X19848214Y-12590214D01*
X19976786Y-12890214D02*
X19976786Y-12733071D01*
X19962500Y-12704500D01*
X19933928Y-12690214D01*
X19891071Y-12690214D01*
X19862500Y-12704500D01*
X19848214Y-12718786D01*
X20162500Y-12890214D02*
X20133928Y-12875929D01*
X20119643Y-12861643D01*
X20105357Y-12833071D01*
X20105357Y-12747357D01*
X20119643Y-12718786D01*
X20133928Y-12704500D01*
X20162500Y-12690214D01*
X20205357Y-12690214D01*
X20233928Y-12704500D01*
X20248214Y-12718786D01*
X20262500Y-12747357D01*
X20262500Y-12833071D01*
X20248214Y-12861643D01*
X20233928Y-12875929D01*
X20205357Y-12890214D01*
X20162500Y-12890214D01*
X20433928Y-12890214D02*
X20405357Y-12875929D01*
X20391071Y-12847357D01*
X20391071Y-12590214D01*
X20662500Y-12875929D02*
X20633928Y-12890214D01*
X20576786Y-12890214D01*
X20548214Y-12875929D01*
X20533928Y-12847357D01*
X20533928Y-12733071D01*
X20548214Y-12704500D01*
X20576786Y-12690214D01*
X20633928Y-12690214D01*
X20662500Y-12704500D01*
X20676786Y-12733071D01*
X20676786Y-12761643D01*
X20533928Y-12790214D01*
X20791071Y-12875929D02*
X20819643Y-12890214D01*
X20876786Y-12890214D01*
X20905357Y-12875929D01*
X20919643Y-12847357D01*
X20919643Y-12833071D01*
X20905357Y-12804500D01*
X20876786Y-12790214D01*
X20833928Y-12790214D01*
X20805357Y-12775929D01*
X20791071Y-12747357D01*
X20791071Y-12733071D01*
X20805357Y-12704500D01*
X20833928Y-12690214D01*
X20876786Y-12690214D01*
X20905357Y-12704500D01*
X21019643Y-13004500D02*
X21033928Y-12990214D01*
X21062500Y-12947357D01*
X21076786Y-12918786D01*
X21091071Y-12875929D01*
X21105357Y-12804500D01*
X21105357Y-12747357D01*
X21091071Y-12675929D01*
X21076786Y-12633071D01*
X21062500Y-12604500D01*
X21033928Y-12561643D01*
X21019643Y-12547357D01*
X14240178Y-13168178D02*
X14240178Y-13132822D01*
X14204822Y-13132822D01*
X14204822Y-13168178D01*
X14240178Y-13168178D01*
X14591071Y-12986214D02*
X14619643Y-12986214D01*
X14648214Y-13000500D01*
X14662500Y-13014786D01*
X14676786Y-13043357D01*
X14691071Y-13100500D01*
X14691071Y-13171929D01*
X14676786Y-13229071D01*
X14662500Y-13257643D01*
X14648214Y-13271929D01*
X14619643Y-13286214D01*
X14591071Y-13286214D01*
X14562500Y-13271929D01*
X14548214Y-13257643D01*
X14533928Y-13229071D01*
X14519643Y-13171929D01*
X14519643Y-13100500D01*
X14533928Y-13043357D01*
X14548214Y-13014786D01*
X14562500Y-13000500D01*
X14591071Y-12986214D01*
X14819643Y-13257643D02*
X14833928Y-13271929D01*
X14819643Y-13286214D01*
X14805357Y-13271929D01*
X14819643Y-13257643D01*
X14819643Y-13286214D01*
X15105357Y-12986214D02*
X14962500Y-12986214D01*
X14948214Y-13129071D01*
X14962500Y-13114786D01*
X14991071Y-13100500D01*
X15062500Y-13100500D01*
X15091071Y-13114786D01*
X15105357Y-13129071D01*
X15119643Y-13157643D01*
X15119643Y-13229071D01*
X15105357Y-13257643D01*
X15091071Y-13271929D01*
X15062500Y-13286214D01*
X14991071Y-13286214D01*
X14962500Y-13271929D01*
X14948214Y-13257643D01*
X15305357Y-12986214D02*
X15333928Y-12986214D01*
X15362500Y-13000500D01*
X15376786Y-13014786D01*
X15391071Y-13043357D01*
X15405357Y-13100500D01*
X15405357Y-13171929D01*
X15391071Y-13229071D01*
X15376786Y-13257643D01*
X15362500Y-13271929D01*
X15333928Y-13286214D01*
X15305357Y-13286214D01*
X15276786Y-13271929D01*
X15262500Y-13257643D01*
X15248214Y-13229071D01*
X15233928Y-13171929D01*
X15233928Y-13100500D01*
X15248214Y-13043357D01*
X15262500Y-13014786D01*
X15276786Y-13000500D01*
X15305357Y-12986214D01*
X15533928Y-13286214D02*
X15533928Y-13086214D01*
X15533928Y-13114786D02*
X15548214Y-13100500D01*
X15576786Y-13086214D01*
X15619643Y-13086214D01*
X15648214Y-13100500D01*
X15662500Y-13129071D01*
X15662500Y-13286214D01*
X15662500Y-13129071D02*
X15676786Y-13100500D01*
X15705357Y-13086214D01*
X15748214Y-13086214D01*
X15776786Y-13100500D01*
X15791071Y-13129071D01*
X15791071Y-13286214D01*
X15933928Y-13286214D02*
X15933928Y-13086214D01*
X15933928Y-13114786D02*
X15948214Y-13100500D01*
X15976786Y-13086214D01*
X16019643Y-13086214D01*
X16048214Y-13100500D01*
X16062500Y-13129071D01*
X16062500Y-13286214D01*
X16062500Y-13129071D02*
X16076786Y-13100500D01*
X16105357Y-13086214D01*
X16148214Y-13086214D01*
X16176786Y-13100500D01*
X16191071Y-13129071D01*
X16191071Y-13286214D01*
X16776786Y-12971929D02*
X16519643Y-13357643D01*
X17162500Y-12986214D02*
X17191071Y-12986214D01*
X17219643Y-13000500D01*
X17233928Y-13014786D01*
X17248214Y-13043357D01*
X17262500Y-13100500D01*
X17262500Y-13171929D01*
X17248214Y-13229071D01*
X17233928Y-13257643D01*
X17219643Y-13271929D01*
X17191071Y-13286214D01*
X17162500Y-13286214D01*
X17133928Y-13271929D01*
X17119643Y-13257643D01*
X17105357Y-13229071D01*
X17091071Y-13171929D01*
X17091071Y-13100500D01*
X17105357Y-13043357D01*
X17119643Y-13014786D01*
X17133928Y-13000500D01*
X17162500Y-12986214D01*
X17391071Y-13257643D02*
X17405357Y-13271929D01*
X17391071Y-13286214D01*
X17376786Y-13271929D01*
X17391071Y-13257643D01*
X17391071Y-13286214D01*
X17591071Y-12986214D02*
X17619643Y-12986214D01*
X17648214Y-13000500D01*
X17662500Y-13014786D01*
X17676786Y-13043357D01*
X17691071Y-13100500D01*
X17691071Y-13171929D01*
X17676786Y-13229071D01*
X17662500Y-13257643D01*
X17648214Y-13271929D01*
X17619643Y-13286214D01*
X17591071Y-13286214D01*
X17562500Y-13271929D01*
X17548214Y-13257643D01*
X17533928Y-13229071D01*
X17519643Y-13171929D01*
X17519643Y-13100500D01*
X17533928Y-13043357D01*
X17548214Y-13014786D01*
X17562500Y-13000500D01*
X17591071Y-12986214D01*
X17805357Y-13014786D02*
X17819643Y-13000500D01*
X17848214Y-12986214D01*
X17919643Y-12986214D01*
X17948214Y-13000500D01*
X17962500Y-13014786D01*
X17976786Y-13043357D01*
X17976786Y-13071929D01*
X17962500Y-13114786D01*
X17791071Y-13286214D01*
X17976786Y-13286214D01*
X18162500Y-12986214D02*
X18191071Y-12986214D01*
X18219643Y-13000500D01*
X18233928Y-13014786D01*
X18248214Y-13043357D01*
X18262500Y-13100500D01*
X18262500Y-13171929D01*
X18248214Y-13229071D01*
X18233928Y-13257643D01*
X18219643Y-13271929D01*
X18191071Y-13286214D01*
X18162500Y-13286214D01*
X18133928Y-13271929D01*
X18119643Y-13257643D01*
X18105357Y-13229071D01*
X18091071Y-13171929D01*
X18091071Y-13100500D01*
X18105357Y-13043357D01*
X18119643Y-13014786D01*
X18133928Y-13000500D01*
X18162500Y-12986214D01*
X18376786Y-12986214D02*
X18376786Y-13043357D01*
X18491071Y-12986214D02*
X18491071Y-13043357D01*
X18933928Y-13400500D02*
X18919643Y-13386214D01*
X18891071Y-13343357D01*
X18876786Y-13314786D01*
X18862500Y-13271929D01*
X18848214Y-13200500D01*
X18848214Y-13143357D01*
X18862500Y-13071929D01*
X18876786Y-13029071D01*
X18891071Y-13000500D01*
X18919643Y-12957643D01*
X18933928Y-12943357D01*
X19033928Y-13014786D02*
X19048214Y-13000500D01*
X19076786Y-12986214D01*
X19148214Y-12986214D01*
X19176786Y-13000500D01*
X19191071Y-13014786D01*
X19205357Y-13043357D01*
X19205357Y-13071929D01*
X19191071Y-13114786D01*
X19019643Y-13286214D01*
X19205357Y-13286214D01*
X19562500Y-13286214D02*
X19562500Y-12986214D01*
X19691071Y-13286214D02*
X19691071Y-13129071D01*
X19676786Y-13100500D01*
X19648214Y-13086214D01*
X19605357Y-13086214D01*
X19576786Y-13100500D01*
X19562500Y-13114786D01*
X19876786Y-13286214D02*
X19848214Y-13271929D01*
X19833928Y-13257643D01*
X19819643Y-13229071D01*
X19819643Y-13143357D01*
X19833928Y-13114786D01*
X19848214Y-13100500D01*
X19876786Y-13086214D01*
X19919643Y-13086214D01*
X19948214Y-13100500D01*
X19962500Y-13114786D01*
X19976786Y-13143357D01*
X19976786Y-13229071D01*
X19962500Y-13257643D01*
X19948214Y-13271929D01*
X19919643Y-13286214D01*
X19876786Y-13286214D01*
X20148214Y-13286214D02*
X20119643Y-13271929D01*
X20105357Y-13243357D01*
X20105357Y-12986214D01*
X20376786Y-13271929D02*
X20348214Y-13286214D01*
X20291071Y-13286214D01*
X20262500Y-13271929D01*
X20248214Y-13243357D01*
X20248214Y-13129071D01*
X20262500Y-13100500D01*
X20291071Y-13086214D01*
X20348214Y-13086214D01*
X20376786Y-13100500D01*
X20391071Y-13129071D01*
X20391071Y-13157643D01*
X20248214Y-13186214D01*
X20505357Y-13271929D02*
X20533928Y-13286214D01*
X20591071Y-13286214D01*
X20619643Y-13271929D01*
X20633928Y-13243357D01*
X20633928Y-13229071D01*
X20619643Y-13200500D01*
X20591071Y-13186214D01*
X20548214Y-13186214D01*
X20519643Y-13171929D01*
X20505357Y-13143357D01*
X20505357Y-13129071D01*
X20519643Y-13100500D01*
X20548214Y-13086214D01*
X20591071Y-13086214D01*
X20619643Y-13100500D01*
X20733928Y-13400500D02*
X20748214Y-13386214D01*
X20776786Y-13343357D01*
X20791071Y-13314786D01*
X20805357Y-13271929D01*
X20819643Y-13200500D01*
X20819643Y-13143357D01*
X20805357Y-13071929D01*
X20791071Y-13029071D01*
X20776786Y-13000500D01*
X20748214Y-12957643D01*
X20733928Y-12943357D01*
X21276786Y-13400500D02*
X21262500Y-13386214D01*
X21233928Y-13343357D01*
X21219643Y-13314786D01*
X21205357Y-13271929D01*
X21191071Y-13200500D01*
X21191071Y-13143357D01*
X21205357Y-13071929D01*
X21219643Y-13029071D01*
X21233928Y-13000500D01*
X21262500Y-12957643D01*
X21276786Y-12943357D01*
X21391071Y-13086214D02*
X21391071Y-13286214D01*
X21391071Y-13114786D02*
X21405357Y-13100500D01*
X21433928Y-13086214D01*
X21476786Y-13086214D01*
X21505357Y-13100500D01*
X21519643Y-13129071D01*
X21519643Y-13286214D01*
X21705357Y-13286214D02*
X21676786Y-13271929D01*
X21662500Y-13257643D01*
X21648214Y-13229071D01*
X21648214Y-13143357D01*
X21662500Y-13114786D01*
X21676786Y-13100500D01*
X21705357Y-13086214D01*
X21748214Y-13086214D01*
X21776786Y-13100500D01*
X21791071Y-13114786D01*
X21805357Y-13143357D01*
X21805357Y-13229071D01*
X21791071Y-13257643D01*
X21776786Y-13271929D01*
X21748214Y-13286214D01*
X21705357Y-13286214D01*
X21891071Y-13086214D02*
X22005357Y-13086214D01*
X21933928Y-12986214D02*
X21933928Y-13243357D01*
X21948214Y-13271929D01*
X21976786Y-13286214D01*
X22005357Y-13286214D01*
X22333928Y-13086214D02*
X22333928Y-13386214D01*
X22333928Y-13100500D02*
X22362500Y-13086214D01*
X22419643Y-13086214D01*
X22448214Y-13100500D01*
X22462500Y-13114786D01*
X22476786Y-13143357D01*
X22476786Y-13229071D01*
X22462500Y-13257643D01*
X22448214Y-13271929D01*
X22419643Y-13286214D01*
X22362500Y-13286214D01*
X22333928Y-13271929D01*
X22648214Y-13286214D02*
X22619643Y-13271929D01*
X22605357Y-13243357D01*
X22605357Y-12986214D01*
X22891071Y-13286214D02*
X22891071Y-13129071D01*
X22876786Y-13100500D01*
X22848214Y-13086214D01*
X22791071Y-13086214D01*
X22762500Y-13100500D01*
X22891071Y-13271929D02*
X22862500Y-13286214D01*
X22791071Y-13286214D01*
X22762500Y-13271929D01*
X22748214Y-13243357D01*
X22748214Y-13214786D01*
X22762500Y-13186214D01*
X22791071Y-13171929D01*
X22862500Y-13171929D01*
X22891071Y-13157643D01*
X22991071Y-13086214D02*
X23105357Y-13086214D01*
X23033928Y-12986214D02*
X23033928Y-13243357D01*
X23048214Y-13271929D01*
X23076786Y-13286214D01*
X23105357Y-13286214D01*
X23319643Y-13271929D02*
X23291071Y-13286214D01*
X23233928Y-13286214D01*
X23205357Y-13271929D01*
X23191071Y-13243357D01*
X23191071Y-13129071D01*
X23205357Y-13100500D01*
X23233928Y-13086214D01*
X23291071Y-13086214D01*
X23319643Y-13100500D01*
X23333928Y-13129071D01*
X23333928Y-13157643D01*
X23191071Y-13186214D01*
X23591071Y-13286214D02*
X23591071Y-12986214D01*
X23591071Y-13271929D02*
X23562500Y-13286214D01*
X23505357Y-13286214D01*
X23476786Y-13271929D01*
X23462500Y-13257643D01*
X23448214Y-13229071D01*
X23448214Y-13143357D01*
X23462500Y-13114786D01*
X23476786Y-13100500D01*
X23505357Y-13086214D01*
X23562500Y-13086214D01*
X23591071Y-13100500D01*
X23705357Y-13400500D02*
X23719643Y-13386214D01*
X23748214Y-13343357D01*
X23762500Y-13314786D01*
X23776786Y-13271929D01*
X23791071Y-13200500D01*
X23791071Y-13143357D01*
X23776786Y-13071929D01*
X23762500Y-13029071D01*
X23748214Y-13000500D01*
X23719643Y-12957643D01*
X23705357Y-12943357D01*
M02*
