M48
; DRILL file {KiCad 5.99.0-unknown-c3175b4~86~ubuntu16.04.1} date Tue 24 Mar 2020 03:25:37 AM UTC
; FORMAT={-:-/ absolute / metric / decimal}
; #@! TF.CreationDate,2020-03-24T03:25:37+00:00
; #@! TF.GenerationSoftware,Kicad,Pcbnew,5.99.0-unknown-c3175b4~86~ubuntu16.04.1
FMAT,2
METRIC
T1C0.254
T2C0.500
T3C1.000
T4C0.500
%
G90
G05
T1
X145.1Y-106.7
X145.5Y-108.5
X145.6Y-98.6
X146.229Y-101.382
X146.4Y-97.0
X146.645Y-99.3
X146.7Y-107.3
X147.3Y-97.6
X147.4Y-102.5
X147.4Y-103.5
X148.0Y-104.8
X148.0Y-106.2
X148.5Y-95.9
X148.6Y-99.4
X149.2Y-103.3
X149.5Y-95.9
X150.3Y-103.4
X150.5Y-92.659
X150.796Y-96.7
X150.8Y-98.6
X150.8Y-104.0
X151.3Y-104.8
X151.5Y-93.6
X152.0Y-106.0
X152.1Y-96.7
X152.4Y-92.9
X152.4Y-94.2
X152.6Y-103.0
X152.673Y-97.573
X153.3Y-96.7
X154.4Y-95.7
X154.5Y-108.5
T3
X143.65Y-91.11
X143.65Y-93.65
X143.65Y-96.19
X143.65Y-98.73
X143.65Y-101.27
X143.65Y-103.81
X143.65Y-106.35
X143.65Y-108.89
X156.35Y-91.11
X156.35Y-93.65
X156.35Y-96.19
X156.35Y-98.73
X156.35Y-101.27
X156.35Y-103.81
X156.35Y-106.35
X156.35Y-108.89
T4
X146.7Y-108.6
X153.3Y-108.6
T2
G00X146.7Y-108.25
M15
G01X146.7Y-108.95
M16
G05
G00X153.3Y-108.25
M15
G01X153.3Y-108.95
M16
G05
T0
M30
